<?xml version="1.0" encoding="UTF-8" standalone="no"?>
<!-- Created with Inkscape (http://www.inkscape.org/) -->

<svg
   width="53.813339mm"
   height="20.61087mm"
   viewBox="0 0 53.81334 20.61087"
   version="1.1"
   id="svg1"
   inkscape:export-filename="fight.svg"
   inkscape:export-xdpi="96"
   inkscape:export-ydpi="96"
   sodipodi:docname="fight.svg"
   inkscape:version="1.3.2 (091e20ef0f, 2023-11-25)"
   xmlns:inkscape="http://www.inkscape.org/namespaces/inkscape"
   xmlns:sodipodi="http://sodipodi.sourceforge.net/DTD/sodipodi-0.dtd"
   xmlns:xlink="http://www.w3.org/1999/xlink"
   xmlns="http://www.w3.org/2000/svg"
   xmlns:svg="http://www.w3.org/2000/svg">
  <sodipodi:namedview
     id="namedview1"
     pagecolor="#ffffff"
     bordercolor="#000000"
     borderopacity="0.25"
     inkscape:showpageshadow="2"
     inkscape:pageopacity="0.0"
     inkscape:pagecheckerboard="0"
     inkscape:deskcolor="#d1d1d1"
     inkscape:document-units="mm"
     inkscape:export-bgcolor="#ffffff00"
     inkscape:zoom="2.1291572"
     inkscape:cx="90.646196"
     inkscape:cy="15.733925"
     inkscape:window-width="1920"
     inkscape:window-height="1011"
     inkscape:window-x="1920"
     inkscape:window-y="32"
     inkscape:window-maximized="1"
     inkscape:current-layer="layer1" />
  <defs
     id="defs1">
    <linearGradient
       id="linearGradient1"
       inkscape:collect="always">
      <stop
         style="stop-color:#340000;stop-opacity:1;"
         offset="0"
         id="stop4" />
      <stop
         style="stop-color:#ff0000;stop-opacity:1;"
         offset="0.46856478"
         id="stop1" />
      <stop
         style="stop-color:#ffa400;stop-opacity:1"
         offset="0.89860648"
         id="stop2" />
      <stop
         style="stop-color:#fed900;stop-opacity:1;"
         offset="1"
         id="stop5" />
    </linearGradient>
    <rect
       x="247.13258"
       y="359.62012"
       width="266.94708"
       height="217.87677"
       id="rect1" />
    <linearGradient
       inkscape:collect="always"
       xlink:href="#linearGradient1"
       id="linearGradient2"
       x1="368.20773"
       y1="426.9025"
       x2="369.27628"
       y2="370.05042"
       gradientUnits="userSpaceOnUse" />
  </defs>
  <g
     inkscape:label="Layer 1"
     inkscape:groupmode="layer"
     id="layer1"
     transform="translate(-67.903371,-96.704167)">
    <path
       d="m 279.50783,386.81686 c -0.98438,0.4375 -1.64063,0.65625 -1.93229,0.65625 h -2.11459 c -1.75,0 -2.66146,0.21875 -2.66146,0.65625 -0.10937,0 -0.29167,-0.0365 -0.51042,-0.14583 l -0.36458,0.14583 -0.875,-0.14583 c 0,0.21875 -0.10937,0.32812 -0.36458,0.32812 -0.21875,0 -0.32813,-0.18229 -0.32813,-0.51042 h -0.18229 c -0.36458,0.1823 -0.54688,0.36459 -0.54688,0.51042 -0.10937,0 -0.29166,-0.0365 -0.51041,-0.18229 -0.25521,0 -0.36459,0.18229 -0.36459,0.51042 h -0.18229 c 0,-0.4375 -0.10937,-0.65625 -0.32812,-0.65625 -0.36459,0.18229 -0.54688,0.32812 -0.54688,0.51041 l -0.69271,-0.36458 c 0,0.14583 -0.36458,0.25521 -1.05729,0.36458 l 0.18229,0.32813 c -0.875,-0.10938 -1.38541,-0.21875 -1.60416,-0.32813 -1.09375,0.4375 -1.85938,0.65625 -2.29688,0.65625 h -0.51042 l -0.36458,-0.18229 c -0.14583,0.54688 -0.32813,0.83854 -0.51042,0.83854 h -0.18229 c 0,-0.32812 -0.10937,-0.51041 -0.36458,-0.51041 h -0.875 c 0,0.58333 -0.21875,0.83854 -0.69271,0.83854 l -0.54688,-0.32813 h -0.32812 c -0.54688,0.54688 -1.13021,0.83855 -1.78646,0.83855 l -0.875,-0.1823 c 0,0.32813 -0.83854,0.6198 -2.47917,0.83855 v -0.14584 c -0.29167,0 -0.72917,0.0365 -1.20313,0.14584 h -0.36458 l -0.36458,-0.14584 -0.51042,0.80209 -0.36458,-0.14584 h -0.69271 c -4.15625,1.75 -6.7448,2.66146 -7.76563,2.66146 v 0.47396 c 0.36458,0 0.94792,-0.14583 1.75,-0.47396 h 0.54688 v 0.14584 c -2.22396,0.47395 -3.35417,0.80208 -3.35417,1.02083 v 0.14583 c 0,0.21875 0.10937,0.32813 0.36458,0.32813 h 0.32813 l 1.23958,-0.14583 c 0,0.32812 0.10938,0.51041 0.36458,0.51041 l 0.36459,-0.18229 0.14583,0.65625 c 0.32813,0 0.69271,-0.10937 1.05729,-0.32812 h 0.54688 v 0.18229 c -0.36459,0 -0.58334,0.21875 -0.69271,0.65625 v 0.14583 h 1.05729 l -0.36458,0.69271 c 0.18229,0.10937 0.4375,0.14583 0.69271,0.14583 0,0.10938 -0.0365,0.18229 -0.1823,0.18229 0,0.43751 0.25521,0.76563 0.72917,0.98438 h 0.32813 l 0.72916,-0.51042 h 0.1823 c 0.2552,0.25521 0.61979,0.36459 1.05729,0.36459 0,0.0365 -0.14584,0.21875 -0.36459,0.47396 v 0.83854 l 0.1823,0.32812 c 0.21875,0 0.61979,-0.14583 1.23958,-0.47396 h 0.14583 l -0.14583,0.32813 c 0,0.21875 0.10938,0.32812 0.32813,0.32812 0.47395,-0.40104 0.94791,-0.6927 1.42187,-0.83854 h 0.18229 v 0.32813 c -0.36458,0 -0.54687,0.10937 -0.54687,0.32812 l 0.18229,0.32813 c -0.18229,0 -0.32813,0.10937 -0.36458,0.32812 0.18229,0.36459 0.36458,0.51042 0.54687,0.51042 0.36458,-0.18229 0.51042,-0.32813 0.51042,-0.51042 0.14583,0 0.32812,0.0729 0.54687,0.18229 0.47396,-0.29166 0.69271,-0.4375 0.69271,-0.51041 1.16667,-0.40104 1.75,-0.72917 1.78646,-0.98438 0.10938,0 0.14583,0.0365 0.14583,0.18229 l 2.11459,-0.6927 c 0,0.10937 0.0729,0.18229 0.18229,0.18229 0.58333,-0.29167 0.875,-0.51042 0.875,-0.65625 0.14583,0 0.18229,0.0365 0.18229,0.14583 0.76563,-0.10937 1.42188,-0.25521 1.9323,-0.51042 l 0.36458,0.1823 c 0.21875,0 0.36458,-0.1823 0.36458,-0.51042 l 0.32813,0.18229 h 0.72916 c 0.69271,0 1.0573,-0.21875 1.0573,-0.65625 h 0.18229 c 0.21875,0 0.32812,0.10937 0.32812,0.32812 0.83855,-0.0729 1.23959,-0.2552 1.23959,-0.51041 l 0.36458,0.18229 c 0.25521,0 0.47396,-0.0729 0.69271,-0.18229 l 0.36458,0.18229 c 1.16667,-0.10938 1.75,-0.29167 1.75,-0.51042 0.10938,0 0.1823,0.0729 0.1823,0.18229 l 2.98958,-0.6927 0.875,0.18229 0.72917,-0.32813 c 0.10937,0 0.29166,0.0365 0.51041,0.14584 1.02084,-0.32813 1.60417,-0.47396 1.75001,-0.47396 l 1.05729,0.14583 c 3.24479,-0.54687 6.52604,-0.83854 9.88021,-0.83854 3.46354,0 5.61459,0.18229 6.52605,0.51042 0.10937,0 0.29166,-0.0365 0.51041,-0.14584 0.21875,0.10938 0.4375,0.14584 0.72917,0.14584 h 0.32812 l 0.36459,-0.14584 c 0.61979,0.32813 1.42187,0.47396 2.47917,0.47396 h 0.6927 v 0.18229 c 1.27605,0 2.26042,-0.21875 2.98959,-0.65625 0.36458,0 1.20313,0.10938 2.47917,0.32813 l -0.36459,0.65625 c 0.10938,0 0.1823,0.0365 0.1823,0.14583 l 1.05729,-0.32812 h 0.18229 c 0,0.21875 -0.10938,0.47395 -0.36458,0.83854 0,0.10937 0.0729,0.29166 0.18229,0.51041 1.38542,-0.29166 2.26042,-0.58333 2.66146,-0.83854 0.47396,0.4375 1.05729,0.65625 1.75,0.65625 0.32812,0 0.65625,-0.10937 1.05729,-0.32812 0.94792,1.13021 1.53125,1.67708 1.75,1.67708 0,-0.10937 0.0729,-0.18229 0.18229,-0.18229 l -0.69271,-2.15104 v -0.18229 c 0.10938,0 0.29167,0.0729 0.51042,0.18229 h 0.18229 c -0.14583,-0.36459 -0.4375,-0.76563 -0.875,-1.16667 0,-1.34896 -1.42187,-2.84375 -4.22917,-4.48438 h 0.36459 v -0.32812 c -2.88021,-1.45834 -4.88542,-2.1875 -6.01563,-2.1875 v -0.14584 h 0.875 c 0.32813,0 0.69271,0.10938 1.05729,0.32813 v -0.65625 c -3.75521,-1.34896 -7.80208,-2.00521 -12.14063,-2.00521 h -1.75 c -2.11458,0 -4.8125,0.21875 -8.13021,0.65625 v -0.14583 h 0.36458 v -0.1823 c -0.47396,0 -0.875,-0.10937 -1.23958,-0.32812 z m 1.60417,0 c -0.21875,0 -0.32813,0.10937 -0.36459,0.32812 h 0.36459 z m -1.23959,0.51042 h 0.32813 v 0.14583 h -0.32813 z m 7.03646,0 h 0.36459 v 0.14583 h -0.36459 z m -27.12501,2.33333 h 0.32813 v 0.14583 h -0.32813 z m 36.82293,5.46875 h 1.9323 v 0.18229 h -1.9323 z m 5.28647,0.32813 h 0.6927 v 0.18229 c -0.2552,0 -0.51041,0.0365 -0.6927,0.14583 z m -48.27086,1.34896 h 0.32812 v 0.14583 h -0.32812 z m 18.84897,0.98437 c -1.34896,0 -3.09896,0.98438 -5.28646,2.98959 h -0.1823 v -0.14584 c 0.65625,-0.80208 1.0573,-1.16666 1.23959,-1.16666 l -0.36459,-0.51042 c 0.36459,0 0.54688,-0.10938 0.54688,-0.32813 v -0.18229 c -0.32813,0 -1.27604,0.18229 -2.84375,0.51042 v -0.32813 h -0.32813 c -0.40104,0 -0.83854,0.14584 -1.23958,0.47396 v 0.51042 c 0,0.0729 -0.47396,0.54688 -1.42188,1.34896 -0.76562,0 -1.93229,2.11458 -3.53646,6.30729 l 0.18229,0.32813 -0.875,1.49479 c 0,0.10938 0.0729,0.18229 0.1823,0.18229 0,0.25521 -0.94792,0.6198 -2.8073,1.16667 -0.14583,0 -0.32812,-0.0729 -0.54687,-0.18229 -4.52084,1.45833 -6.92709,2.26042 -7.21876,2.47917 0,0.36458 -0.83854,1.27604 -2.47916,2.84375 0,0.21875 0.10937,0.32812 0.36458,0.32812 h 0.18229 c 0.54688,-0.47396 1.05729,-0.80208 1.56771,-0.98437 0.10938,0 0.18229,0.10937 0.18229,0.32812 h 0.54688 c 0.10937,0 0.21875,0.14584 0.32812,0.51042 0.83855,-0.29167 1.53125,-0.72917 2.11459,-1.34896 l 0.72916,0.18229 v 0.14584 c -2.0052,1.09375 -3.02604,1.75 -3.02604,2.00521 0,0.21875 0.14583,0.32812 0.36458,0.32812 0.47396,-0.4375 1.09376,-0.80208 1.75001,-1.16667 0,0.10938 0.0729,0.29167 0.18229,0.51042 -0.32813,0 -0.80209,0.36458 -1.38542,1.16667 v 0.32812 c 0,0.21875 0.10938,0.32813 0.32813,0.32813 0.10937,0 0.40104,0.32812 0.875,0.98437 1.45833,-0.83854 2.51562,-1.34896 3.17187,-1.49479 h 0.18229 v 0.18229 c -1.1302,0 -2.29687,1.05729 -3.5,3.13542 0.14584,0 0.875,-0.36458 2.11459,-1.13021 h 0.14583 v 0.32813 c -1.27604,0.80208 -1.93229,1.42187 -1.93229,1.82291 v 0.14584 h 0.18229 l 0.54687,-0.32813 h 0.14584 c 0,0.14584 -0.0365,0.29167 -0.14584,0.51042 v 0.18229 h 0.14584 c 0.0729,0 0.4375,-0.29167 1.05729,-0.83854 v 0.14583 l -0.32812,0.51042 v 0.18229 h 0.18229 c 0.25521,-0.25521 0.51041,-0.36458 0.69271,-0.36458 v -0.32813 l -0.1823,-0.32812 c 0.21875,0 0.36459,-0.10938 0.36459,-0.32813 l 0.32812,0.18229 c -1.75,5.83334 -2.625,8.9323 -2.625,9.29688 l -1.23958,5.14063 c 0,0.14583 0.0729,0.29167 0.18229,0.51042 h -0.18229 c 0,0.25521 0.0729,0.47396 0.18229,0.65625 -0.10938,0.76562 -0.18229,1.38542 -0.18229,1.82292 v 1.02083 l 0.54687,0.65625 v 1.16667 h 0.32813 l 1.23958,-6.63542 h 0.54688 c -0.25521,1.75 -0.54688,3.31771 -0.91146,4.63021 0,0.21875 0.14583,0.32812 0.36458,0.32812 h 0.18229 c 0.4375,0 1.16667,-1.85937 2.11459,-5.65104 h 0.18229 v 0.18229 c -0.83854,2.88021 -1.60417,6.16146 -2.29688,9.8073 0,0.21875 0.10938,0.32812 0.36459,0.32812 -0.25521,1.89584 -0.36459,4.59375 -0.36459,8.16667 v 1.13021 c 0,0.58333 0.0365,1.53125 0.1823,2.84375 h 0.32812 c 0,-1.13021 0.76563,-4.04687 2.29688,-8.82292 h -0.32813 v 0.51042 h -0.18229 v -0.18229 c 0.47396,-1.67709 0.69271,-2.77084 0.69271,-3.31771 v -0.14584 h 0.36458 l 0.32813,0.14584 c 0,-0.21875 0.0729,-0.32813 0.18229,-0.32813 0.61979,-2.44271 1.20312,-3.97396 1.78646,-4.66667 1.75,-5.76042 3.68229,-11.11979 5.79688,-16.11459 1.42187,-3.13542 2.11458,-4.84896 2.11458,-5.14063 0,-0.80208 1.13021,-1.34895 3.35417,-1.67708 0,0.10938 0.0365,0.18229 0.18229,0.18229 h 0.51042 V 416.895 h -0.32813 l 0.14583,-0.32813 h -0.51041 c -0.51042,0 -1.13021,0.0729 -1.93229,0.1823 h -0.1823 v -0.1823 c 4.44792,-0.69271 6.7448,-1.13021 6.85417,-1.3125 0,-0.18229 0.65625,-0.29166 1.96875,-0.32812 h 0.14584 v -0.32813 c -1.71354,0 -3.57292,0.21875 -5.61459,0.65625 h -0.36458 v -0.18229 l 14.43751,-2.15104 v -0.32813 h -0.51042 v -0.18229 c 1.53125,0 2.625,-0.14583 3.35417,-0.47396 0,-0.91146 -1.64063,-1.34896 -4.95834,-1.34896 v -0.14583 l 2.11459,-0.18229 v -0.32813 c -0.91146,-0.4375 -2.44271,-0.65625 -4.5573,-0.65625 v -0.18229 h 0.875 v -0.32812 h -3.71875 c -0.875,0 -2.51563,0.10937 -4.92188,0.32812 l -1.23958,-0.14583 v 0.32812 h -0.18229 v -0.69271 c 0,-0.36458 0.65625,-1.49479 1.96875,-3.31771 l -0.36459,-0.14583 0.51042,-0.83854 -0.14583,-0.32813 c 0.0365,0 0.40104,-0.29166 1.05729,-0.83854 0,-0.21875 -0.32812,-0.32812 -0.91146,-0.32812 0.18229,-0.32813 0.36458,-0.51042 0.54688,-0.51042 -0.58334,-0.36458 -0.875,-0.69271 -0.875,-0.98438 l -0.72917,0.32813 c 0,-0.21875 -0.10938,-0.54688 -0.32813,-0.98438 0.10938,0 0.1823,-0.0729 0.1823,-0.18229 v -0.32812 c -0.10938,0 -0.69271,0.54687 -1.78646,1.64062 0,-0.51041 0.40104,-1.38541 1.23958,-2.66146 0,-0.65625 0.47396,-0.98437 1.42188,-0.98437 z m -23.9896,1.4948 c 0.0365,-0.25521 0.58334,-0.58334 1.60417,-0.98438 h 0.18229 v 0.14583 c -0.21875,0 -0.76562,0.29167 -1.60417,0.83855 z m 13.23438,0.32812 -0.875,0.18229 v 0.32813 h 0.18229 c 0.29167,0 0.80209,-0.10938 1.56771,-0.32813 v -0.18229 z m 4.41146,1.02083 c 0,-0.21875 0.10938,-0.32812 0.32813,-0.36458 v 0.18229 c 0,0.21875 -0.10938,0.32813 -0.32813,0.32813 z m 32.59377,0.14584 c -0.10938,0 -0.32813,0.51041 -0.69271,1.49479 h -0.18229 v -0.14583 c 0.0365,-0.47396 0.21875,-0.69271 0.51042,-0.69271 v -0.47396 h -0.32813 l -0.54688,0.32812 v -0.32812 h -0.36458 c 0,0.21875 -0.98437,1.93229 -2.98958,5.14063 h -0.1823 v -0.1823 l 0.1823,-0.32812 c -0.32813,-0.29167 -0.51042,-0.69271 -0.51042,-1.16667 -0.36458,0.10938 -0.54688,0.25521 -0.54688,0.36459 l -2.44271,2.98958 c -0.51041,0.47396 -0.98437,1.27604 -1.42187,2.29688 l -0.36458,-0.14584 h -0.1823 c 0,0.54688 -0.47395,1.60417 -1.38541,3.17188 l 0.18229,0.32813 h -0.36459 v 0.14583 l 0.1823,0.32812 c -0.4375,0 -1.45834,2.29688 -2.98959,6.81772 l 0.14584,0.32812 c -0.10938,0 -0.14584,0.0729 -0.14584,0.18229 v 0.18229 l 0.14584,0.32813 c -0.29167,0.25521 -0.58334,0.69271 -0.87501,1.3125 0,0.21875 0.10938,0.32812 0.36459,0.32812 -0.47396,0.6198 -0.69271,1.02084 -0.69271,1.16667 l 0.14583,0.32813 c -0.29166,0 -0.51041,0.72916 -0.69271,2.1875 0.10938,0 0.1823,0.0365 0.1823,0.14583 -0.29167,0 -0.47396,0.40104 -0.54688,1.16667 l 0.18229,0.83854 c -0.21875,0 -0.47396,0.32813 -0.69271,0.98438 l 0.1823,0.32812 -0.1823,0.36459 c 0.10938,0.18229 0.1823,0.40104 0.1823,0.65625 0,0.21875 -0.14584,0.32812 -0.36459,0.32812 l 0.18229,0.98438 -0.18229,0.32812 c 0.10938,0.21875 0.18229,0.4375 0.18229,0.69271 v 0.32813 c 0,0.21875 -0.10937,0.32812 -0.36458,0.32812 0,0.0729 0.10938,0.4375 0.36458,1.16667 l -0.36458,0.65625 c 0.14583,0.76562 0.32813,1.16667 0.54688,1.16667 l -0.1823,0.32812 c 0,0.21875 0.10938,0.32813 0.36459,0.32813 l -0.18229,0.32812 v 0.32813 h 0.32812 l 0.18229,-0.65625 h 0.18229 c 0.4375,0 0.80209,1.5677 1.0573,4.66666 0.58333,2.88021 1.42187,4.66667 2.47916,5.32292 l -1.42187,-3.31771 0.18229,-0.32812 c 0,-0.25521 -0.18229,-1.02084 -0.54687,-2.33334 0,-0.18229 0.14583,-0.32812 0.36458,-0.32812 2.07812,6.52604 3.68229,9.8073 4.77604,9.8073 l 0.32813,-0.1823 c 0,-0.21875 -0.10938,-0.54687 -0.32813,-0.98437 0.10938,0 0.14584,-0.0729 0.14584,-0.18229 v -1.4948 c 0,-0.36458 -0.0365,-0.65625 -0.14584,-0.83854 l 0.14584,-0.98437 v -2.15105 c 0,-1.13021 0.0729,-2.77083 0.18229,-4.99479 0.10937,0 0.18229,0.0365 0.18229,0.14583 0.40104,0 0.875,-1.93229 1.42188,-5.79687 1.05729,-5.06772 2.73437,-10.28126 5.10416,-15.64064 l -0.18229,-0.32812 c 0.80209,-1.45834 1.27604,-2.15105 1.42188,-2.15105 l -0.18229,-0.32812 v -0.18229 h 0.18229 v -0.51042 c 0.36458,-0.32812 0.69271,-0.91146 1.05729,-1.82292 1.16667,-1.42187 1.89583,-2.625 2.11458,-3.64583 l -0.18229,-0.32813 c 0.36459,-0.80208 0.51042,-1.3125 0.51042,-1.49479 v -0.18229 c 0,-0.18229 -0.10938,-0.29167 -0.32813,-0.32813 -0.29166,0 -0.47395,0.29167 -0.54687,0.83855 h -0.18229 v -0.1823 l 0.72916,-2.15104 h -0.36458 l -0.69271,1.16667 h -0.18229 v -0.18229 c 0.10938,-0.58334 0.18229,-1.09375 0.18229,-1.4948 v -0.14583 c -0.36458,-0.29167 -0.54687,-0.58333 -0.54687,-0.83854 l -0.875,1.16667 1.05729,-2.66146 c -0.18229,-0.32813 -0.36458,-0.51042 -0.51042,-0.51042 0.21875,-0.47396 0.32813,-0.80208 0.32813,-0.98438 0,-0.18229 -0.21875,-0.32812 -0.69271,-0.51041 z m -29.2396,1.16666 h 0.14583 v 0.32813 h -0.14583 z m 26.76043,2.00521 c 0,-0.32812 0.10938,-0.51041 0.36458,-0.51041 l -0.18229,0.65625 h -0.18229 z m 2.66146,1.64063 h 0.18229 v 0.32812 h -0.18229 z m -0.875,0.69271 h 0.14583 v 0.32812 h -0.14583 z m -4.95834,0.32812 h 0.54688 c -0.58333,1.67709 -1.34896,3.13542 -2.29688,4.30209 -1.3125,2.44271 -1.93229,3.86458 -1.93229,4.33854 h -0.36458 c 0,-0.21875 0.36458,-1.16666 1.05729,-2.84375 2.00521,-3.24479 2.98958,-5.21354 2.98958,-5.79688 z m -33.46876,0.47396 h 0.18229 v 0.36459 h -0.18229 z m 2.11458,0 h 0.18229 v 0.18229 c -0.14583,0.21875 -0.18229,0.36459 -0.18229,0.51042 h -0.18229 v -0.18229 c 0.10938,-0.21875 0.18229,-0.36458 0.18229,-0.51042 z m 15.16668,2.51563 h 0.51041 v 0.14583 h -0.51041 z m 4.92187,0.32812 h 1.23959 v 0.14584 h -1.23959 z m -2.47916,1.4948 h 1.42187 v 0.18229 h -1.42187 z m -3.50001,0.18229 h 1.56771 v 0.14583 h -1.56771 z m -2.11458,0.14583 h 1.05729 v 0.18229 h -1.05729 z m -25.37501,1.82292 c 0,-0.18229 0.29166,-0.36458 0.875,-0.47396 h 0.18229 v 0.14583 c -0.21875,0 -0.51042,0.10938 -0.91146,0.32813 z m 24.46355,-0.32813 h 0.72917 v 0.1823 h -0.72917 z m -1.38542,0.1823 h 0.875 v 0.14583 h -0.875 z m -0.875,0.14583 h 0.69271 v 0.18229 h -0.69271 z m -0.72916,0.18229 h 0.54687 v 0.14583 h -0.54687 z m -0.51042,1.49479 h 0.51042 v 0.14584 h -0.51042 z m -0.72917,0.14584 h 0.36459 v 0.18229 h -0.36459 z m 20.08855,0 h 0.54688 c -0.14583,0.58333 -0.32813,0.83854 -0.54688,0.83854 0,0.10937 0.0729,0.18229 0.1823,0.18229 -0.21875,0.36458 -0.32813,0.61979 -0.32813,0.83854 h -0.18229 V 416.895 Z m -1.93229,3.17187 h 0.36458 v 0.18229 h -0.36458 z m -0.18229,0.51042 h 0.18229 v 0.32812 h -0.18229 z m -0.32813,0.83854 h 0.1823 v 0.32813 h -0.1823 z m -27.67188,0.80209 h 0.18229 v 0.32812 h -0.18229 z m 27.48959,0.18229 h 0.36459 v 0.14583 h -0.36459 z m 0,0.32812 h 0.18229 v 0.32813 h -0.18229 z m -0.54687,1.16667 h 0.18229 v 0.32812 H 285.487 Z m -27.63543,0.18229 h 0.14583 v 0.32813 h -0.14583 z m -0.36459,0.98438 h 0.1823 v 0.32812 h -0.1823 z m -2.98958,1.49479 h 0.32812 v 0.32812 c -0.32812,0.40105 -0.51041,0.72917 -0.51041,0.98438 h -0.18229 v -0.14583 c 0.21875,-0.4375 0.36458,-0.83855 0.36458,-1.16667 z m 2.44271,0 h 0.18229 v 0.32812 h -0.18229 z m -0.14583,0.51042 h 0.14583 v 0.32812 l -0.51042,1.96875 h -0.18229 v -0.14583 c 0.36458,-1.16667 0.54688,-1.89584 0.54688,-2.15104 z m -0.72917,2.47916 h 0.18229 v 0.32813 h -0.18229 z m -0.18229,0.51042 h 0.18229 v 0.32813 h -0.18229 z m -0.14584,0.65625 h 0.14584 v 0.32813 h -0.14584 z m -3.35416,1.82292 c 0,-0.14583 0.21875,-0.25521 0.6927,-0.32813 -0.36458,1.3125 -0.51041,2.15105 -0.51041,2.47917 l -0.36459,-0.14583 c 0,-0.47396 0.10938,-0.94792 0.36459,-1.34896 z m -0.1823,2.51562 h 0.1823 v 0.47396 h -0.1823 z m -1.42187,0.14584 h 0.18229 v 0.32812 h -0.18229 z m 1.93229,0 h 0.18229 v 1.16667 l -0.32812,-0.1823 z m 29.78647,3.5 h 0.18229 v 0.51042 h -0.18229 z m 7.58334,2.98958 c 0,0.21875 0.10937,0.32813 0.36458,0.32813 v -0.32813 z m -6.16146,0.51042 c 0.21875,0.10938 0.40104,0.14583 0.51042,0.14583 l -0.14584,0.83855 h -0.18229 l -0.18229,-0.83855 z m -29.60418,7.98438 h 0.18229 v 0.32813 h -0.18229 z m -1.05729,2.80729 h 0.18229 v 0.51042 h -0.18229 z m 131.35943,-68.7969 c -2.66146,3.75521 -5.79688,8.93229 -9.47917,15.56771 -0.69271,1.71354 -1.13021,2.58854 -1.38542,2.58854 h -0.14583 c 0.36458,-0.80208 0.61979,-1.23958 0.76563,-1.23958 0,-0.0729 -0.0365,-0.14583 -0.14584,-0.14583 l 1.38542,-2.88021 c 2.22396,-3.6823 3.53646,-6.01563 3.9375,-7.03646 0.47396,-0.21875 0.875,-0.72917 1.23958,-1.53126 v -0.14583 h -0.14583 l -0.32812,0.14583 c 0,-0.10937 0.0729,-0.2552 0.14583,-0.4375 0,-0.10937 -0.0729,-0.18229 -0.29167,-0.18229 l 0.29167,-0.58333 v -0.18229 h -0.29167 c -0.14583,0 -0.65625,0.72916 -1.53125,2.15104 -1.02083,0.72917 -1.53125,1.27604 -1.53125,1.67708 -0.14583,0 -0.65625,0.80209 -1.49479,2.44271 -0.10938,0 -0.18229,-0.0365 -0.18229,-0.14583 h -0.14584 c 0,0.10938 -0.65625,1.34896 -1.96875,3.64584 l 0.14584,0.32812 -0.47396,0.29167 c 0,0.10937 0.0729,0.14583 0.18229,0.14583 -0.32813,0.40104 -0.69271,0.94792 -1.09375,1.67708 v 0.32813 l 0.14583,0.29167 c -0.32812,0 -0.58333,0.25521 -0.76562,0.76562 l -2.26042,5.65105 0.14583,0.29166 -3.68229,9.77084 0.18229,0.32813 c -0.25521,0.29166 -0.40104,0.4375 -0.47396,0.4375 h -0.29166 c -0.875,0 -1.38542,-0.25521 -1.53126,-0.76563 0.1823,0 0.29167,-0.0729 0.29167,-0.29167 v -0.14583 c -0.40104,0 -0.61979,-0.10937 -0.61979,-0.32812 l -0.29167,0.18229 h -0.47396 c 0,-0.10938 0.0729,-0.18229 0.1823,-0.18229 0,-0.1823 -0.4375,-0.32813 -1.23959,-0.4375 l -0.29166,0.14583 -4.73959,-0.61979 c 0,0.10937 -0.0365,0.14583 -0.14583,0.14583 -0.10938,0 -0.25521,-0.0365 -0.47396,-0.14583 l -0.29167,0.14583 c -0.25521,0 -0.65625,-0.0365 -1.23958,-0.14583 0,0.10937 -0.0365,0.14583 -0.14584,0.14583 l 0.14584,-1.05729 c 0.76562,-0.91146 1.49479,-2.15104 2.15104,-3.64584 0,-0.10937 -0.0365,-0.25521 -0.14583,-0.47396 0.14583,-0.29166 0.29166,-0.4375 0.4375,-0.4375 0.25521,-0.72916 0.51041,-1.09375 0.76562,-1.09375 0.10938,-0.72916 0.40104,-1.45833 0.91146,-2.11458 l -0.14583,-0.32813 c 0.76562,-0.94791 1.85937,-2.91666 3.20833,-5.94271 0.91146,-1.16666 1.38542,-1.89583 1.38542,-2.15104 l 0.29167,0.18229 c 0.32812,-0.18229 0.47395,-0.32812 0.47395,-0.47396 0,-0.18229 -0.10937,-0.29166 -0.32812,-0.29166 l 0.32812,-0.61979 0.29167,0.14583 h 0.14584 c 0.18229,0 0.40104,-0.29167 0.61979,-0.91146 l -0.14584,-0.29167 0.76563,-0.18229 v -0.14583 c 0,-0.18229 -0.36458,-0.36459 -1.09375,-0.4375 0.47396,-0.58334 0.98437,-0.94792 1.53125,-1.09375 v -0.14584 c 0,-0.14583 -0.18229,-0.29166 -0.58333,-0.4375 l -0.32813,0.14584 c -0.40104,-0.10938 -0.76562,-0.14584 -1.05729,-0.14584 v -0.18229 c 0.0729,0 0.36458,-0.0729 0.91146,-0.29167 v -0.29166 h -0.29167 c -0.25521,0 -0.80208,0.32812 -1.67708,1.05729 -0.54688,0.94792 -0.94792,1.45833 -1.23959,1.53125 0,-0.91146 0.76563,-1.78646 2.29688,-2.58854 l -0.76563,-0.76563 c -0.36458,0 -0.875,0.25521 -1.53125,0.76563 h -0.14583 c 0.875,-1.02084 1.38542,-1.53125 1.53125,-1.53125 0,-0.18229 -0.10938,-0.29167 -0.32813,-0.32813 l 0.1823,-0.29166 v -0.14584 c 0,-0.21875 -0.36459,-0.40104 -1.09375,-0.61979 l -1.0573,0.29167 c 0,0.61979 -0.51041,0.98437 -1.53125,1.09375 0,-0.0729 0.0729,-0.40104 0.14584,-0.91146 v -0.18229 c -0.6198,0 -1.64063,0.47396 -3.02605,1.38541 l -0.47396,-0.29166 h -0.29166 c 0,0.21875 -0.0729,0.4375 -0.18229,0.61979 -0.14584,0 -0.25521,-0.10938 -0.29167,-0.32813 -0.47396,0 -0.83854,0.32813 -1.05729,0.91146 h 0.29166 c 0.0729,0 0.21875,-0.10937 0.47396,-0.29166 h 0.14584 c -1.02084,1.09375 -1.53126,1.71354 -1.53126,1.82291 -0.10937,0 -0.14583,-0.0365 -0.14583,-0.14583 -0.18229,0 -0.29167,0.10938 -0.32812,0.29167 h 0.32812 c -0.58333,0.72916 -0.91146,1.09375 -1.05729,1.09375 l -4.88542,10.0625 0.14583,0.76563 c -0.83854,2.44271 -1.42187,3.86458 -1.67708,4.26562 -0.51042,2.07813 -0.91146,3.20834 -1.23958,3.35417 0,0.10938 0.0729,0.14584 0.14583,0.14584 -0.0729,0.32812 -0.18229,0.47396 -0.29167,0.47396 -0.10937,0.80208 -0.25521,1.20312 -0.47396,1.20312 h -0.91145 c -0.51042,0 -0.98438,-0.0365 -1.34896,-0.14583 -2.91667,0.10937 -4.92188,0.36458 -6.12501,0.76562 v -0.14583 c -1.3125,0.10937 -2.22396,0.25521 -2.73437,0.47396 l -0.32813,-0.18229 c -0.51042,0 -1.23958,0.0729 -2.26042,0.18229 -1.53125,0.29166 -2.58854,0.4375 -3.20833,0.4375 -3.28125,0.875 -4.88542,1.38542 -4.88542,1.53125 v 0.14583 h 0.61979 c 0,0.21875 -0.10937,0.32813 -0.32812,0.32813 l 0.14583,0.29166 v 0.29167 c -0.40104,0 -0.58333,0.0729 -0.58333,0.18229 l -4.1198,1.05729 -0.61979,-0.14583 v 0.14583 l 0.14583,0.29167 c -0.40104,0.0729 -0.61979,0.21875 -0.61979,0.47396 0.36459,0 0.83854,-0.0729 1.38542,-0.14583 h 0.4375 v 0.14583 c -0.18229,0 -0.76563,0.0365 -1.67708,0.14583 0,0.51042 0.10937,0.76563 0.32812,0.76563 0.21875,0 0.4375,-0.0729 0.61979,-0.14583 0.58334,0.40104 1.0573,0.58333 1.34896,0.58333 h 0.91146 c 0,0.21875 0.18229,0.32812 0.47396,0.32812 l -0.14583,0.29167 v 0.14583 c 0.65625,0.21875 1.3125,0.32813 1.96875,0.32813 v 0.14583 l -1.38542,0.29167 v 0.32813 h 0.61979 c 0.47396,0 1.27604,-0.10938 2.44271,-0.32813 h 0.47396 v 0.14583 c -0.72917,0.21875 -1.27604,0.32813 -1.67708,0.32813 v 0.29167 l 0.76562,0.14583 h 1.20313 l 0.91146,-0.14583 c 0.18229,0.10937 0.4375,0.14583 0.76562,0.14583 h 1.67708 c 2.66146,-0.80209 4.15626,-1.20313 4.44792,-1.20313 0,0.10938 0.0365,0.14584 0.14584,0.14584 h 0.4375 c 0.21875,0 0.32812,-0.14584 0.32812,-0.4375 h 0.14584 c 0,0.29166 0.10937,0.4375 0.29166,0.4375 h 0.18229 v -0.29167 h 0.29167 l 0.29167,0.14583 0.14583,-0.29166 0.32813,0.14583 c -3.09896,5.46875 -6.59897,9.33334 -10.53647,11.59376 l 0.14584,0.29166 c -0.1823,0 -0.6198,0.21875 -1.38542,0.61979 -0.65625,0.47396 -1.93229,0.94792 -3.79167,1.38542 h -0.14583 v -0.14583 c 0.91146,-0.4375 1.67708,-0.61979 2.26041,-0.61979 v -0.32813 c -0.29166,0 -1.42187,0.18229 -3.35416,0.47396 h -0.14584 v -0.14583 c 3.17188,-0.65625 4.73959,-1.09375 4.73959,-1.38542 0.25521,-0.61979 0.58333,-1.09375 1.05729,-1.53125 l 0.32813,0.14583 c 0.40104,-0.47396 0.58333,-0.76562 0.58333,-0.91146 h 0.18229 l 0.29167,0.18229 c 0,-0.29166 1.45833,-1.93229 4.41146,-4.88541 -0.29167,0 -1.05729,0.47395 -2.29688,1.49479 -1.20312,0.69271 -1.82291,1.53125 -1.82291,2.44271 l -3.50001,1.53125 h -0.29166 v -0.14584 c 0.18229,0 0.69271,-0.36458 1.49479,-1.05729 -0.18229,0 -1.60417,0.65625 -4.26563,1.96875 h -0.14583 v -0.14583 c 1.02083,-0.40104 1.53125,-0.72917 1.53125,-0.91146 v -0.14583 c -1.20313,0.18229 -1.93229,0.29166 -2.15104,0.29166 -1.27605,0 -2.55209,-0.40104 -3.79167,-1.20312 0,0.0729 -0.0729,0.14583 -0.18229,0.14583 0,0.0729 0.21875,0.40104 0.61979,0.91146 -0.32813,0 -0.58334,0.0365 -0.76563,0.14583 -0.18229,-0.10937 -0.32812,-0.14583 -0.4375,-0.14583 v -0.14583 h 0.4375 c 0.10938,0 0.14584,-0.0729 0.14584,-0.14584 l -2.26042,-3.82812 0.4375,-2.77084 c 0,-0.18229 -0.0365,-0.76562 -0.14583,-1.67708 0.29166,-0.91146 0.54687,-2.07813 0.76562,-3.5 0.80208,-2.625 1.20313,-4.15625 1.20313,-4.5573 h 0.18229 v 0.58334 h 0.4375 c 0,-1.09375 0.32812,-1.71355 0.91146,-1.82292 v -0.29167 h -0.58334 c 0.21875,-0.72916 0.76563,-1.38541 1.67709,-2.00521 v -0.14583 h -0.32813 v -0.14583 c 1.75,-3.20834 2.58855,-4.92188 2.58855,-5.17709 h 0.18229 v 0.29167 h 0.29166 c 3.71876,-5.39584 8.09376,-9.22397 13.12501,-11.44792 h 0.14583 c 0,0.0365 -0.2552,0.36458 -0.76562,0.91145 0.14583,0 1.3125,-0.47395 3.53646,-1.38541 0.14583,0.10937 0.76562,0.21875 1.82292,0.32812 0.18229,0 0.54687,-0.10937 1.05729,-0.32812 0.47396,0.21875 0.98437,0.32812 1.53125,0.32812 l 3.64583,1.67709 h 0.1823 v -0.14584 c 0,-0.65625 -2.00521,-1.53125 -5.97917,-2.625 v -0.14583 h 0.18229 c 1.3125,0.32812 3.42708,1.09375 6.38021,2.29687 l 0.32812,-0.14583 -2.0052,-1.82292 h 1.38541 l 0.61979,0.4375 h 0.29167 v -0.4375 c 1.20313,0.51042 1.93229,0.76563 2.15104,0.76563 0.1823,0 0.29167,-0.10938 0.29167,-0.32813 v -0.14583 c -0.80208,-1.02083 -1.34896,-1.53125 -1.67708,-1.53125 v -0.61979 c 0.18229,0 0.4375,0.10937 0.76562,0.32812 h 0.14584 c -2.26042,-2.33333 -3.75521,-3.53646 -4.5573,-3.53646 v -0.14583 h 1.96875 c -1.45833,-1.34896 -2.47917,-2.04167 -3.0625,-2.11459 v -0.18229 h 0.14583 c 0.1823,0.10938 0.40105,0.18229 0.6198,0.18229 v -0.32812 l -0.91146,-0.14583 c -2.625,-0.80209 -4.77605,-1.20313 -6.41667,-1.20313 -1.71354,0.0729 -2.91667,0.25521 -3.64584,0.4375 -0.21875,-0.10937 -0.36458,-0.14583 -0.47396,-0.14583 h -0.14583 l 0.14583,0.29166 c -0.65625,0 -1.09375,0.10938 -1.34895,0.32813 l -0.6198,-0.47396 h -0.32812 c 0,0.29167 -0.32813,0.47396 -1.05729,0.61979 0,0.10938 0.0729,0.14584 0.14583,0.14584 -0.0365,0.29166 -0.47396,0.47395 -1.20313,0.47395 -0.65625,0 -2.1875,0.83855 -4.59375,2.58855 -1.60417,0.29166 -2.44271,0.76562 -2.44271,1.34896 -6.48958,6.30729 -9.77084,10.13542 -9.77084,11.44792 -1.45833,1.34896 -2.33333,2.66146 -2.58854,3.97396 -1.64062,1.71354 -2.44271,2.77083 -2.44271,3.20833 v 0.14584 h 0.14584 c 0.0729,0 0.36458,-0.32813 0.91145,-1.0573 v 0.14584 c -0.40104,0.54687 -0.58333,1.02083 -0.58333,1.38542 -0.18229,0 -0.29167,-0.10938 -0.32812,-0.29167 h -0.14584 c -0.98437,2.625 -1.56771,3.9375 -1.67708,3.9375 -0.47396,3.28125 -0.83854,4.88542 -1.05729,4.88542 l 0.14583,0.94792 c 0,0.18229 -0.14583,0.69271 -0.47396,1.49479 l 0.18229,0.32812 c -0.10937,0 -0.18229,0.0365 -0.18229,0.14584 v 0.29166 c 0.32813,0 0.47396,0.10938 0.47396,0.32813 v 0.29167 c -0.32813,0 -0.58333,0.0729 -0.76563,0.14583 0,0.21875 0.25521,0.32813 0.76563,0.32813 v 0.14583 h -0.14583 c 0,1.45833 0.18229,2.51562 0.58333,3.20833 l -0.14583,0.29167 c 0,0.10938 0.0729,0.14583 0.14583,0.14583 0.40104,2.00521 1.3125,3.79167 2.77083,5.35938 1.42188,1.05729 2.11459,1.67709 2.11459,1.82292 v 0.32812 h -0.29167 c -0.40104,-0.40104 -1.23958,-0.76562 -2.44271,-1.09375 l -0.29167,0.14584 0.14584,0.32812 c 1.60417,0.91146 3.02604,1.45834 4.26563,1.67709 0,0.51041 1.49479,1.93229 4.44791,4.26562 1.4948,1.16667 3.39063,1.89584 5.61459,2.15105 0.32813,-0.1823 0.80208,-0.32813 1.38542,-0.47396 l -0.29167,-0.61979 h 0.4375 c 4.41146,-0.87501 7.25521,-2.07813 8.56771,-3.64584 0.21875,0 0.4375,0.0365 0.6198,0.14583 0.14583,0 0.29166,-0.29166 0.4375,-0.91146 2.33333,-2.0052 4.26562,-4.22916 5.79687,-6.70833 l 2.44271,-4.59375 c 0.21875,0 0.32813,0.14583 0.32813,0.47395 h 0.4375 l 0.29166,-3.20833 c 0,-0.47396 1.34896,-0.72917 3.97397,-0.76563 h 0.18229 c -0.4375,4.52084 -0.6198,7.10938 -0.6198,7.76563 0.10938,0.54688 0.14584,0.83855 0.14584,0.91146 h 0.29167 c 0.10937,-0.875 0.18229,-1.45833 0.18229,-1.67708 h 0.14583 v 2.15104 c -0.32812,0 -0.47396,0.10938 -0.47396,0.29167 v 2.00521 h 0.32813 l 0.14583,-0.76563 h 0.14583 c 0,1.16667 0.0365,2.00521 0.14584,2.44271 h 0.29166 c 0.10938,-0.40104 0.1823,-0.76562 0.1823,-1.05729 h 0.14583 v 0.91146 h 0.29167 c 0,-0.40104 0.21875,-0.61979 0.61979,-0.61979 v -1.53126 c 0.29166,-1.16666 0.47396,-1.82291 0.47396,-1.96875 h 0.14583 v 0.29167 c -0.10938,1.89583 -0.14583,3.57292 -0.14583,5.03125 v 0.32813 l -0.1823,0.72916 h 0.1823 c 0.18229,2.95313 0.4375,4.44792 0.72916,4.44792 h 0.1823 c 0,-1.05729 -0.21876,-2.95312 -0.6198,-5.65104 0.29167,-1.16667 0.4375,-2.33334 0.4375,-3.5 h 0.1823 v 0.29166 l -0.1823,2.44271 c 0,1.71355 0.10938,3.57292 0.32813,5.65105 h 0.29167 v -1.38542 c 0.0729,-2.11458 0.21875,-3.20833 0.47395,-3.20833 0.21875,0 0.69271,-3.09896 1.34896,-9.29688 h 0.32813 v -0.14584 l -0.14584,-0.76562 c 0.36459,0 0.875,-1.49479 1.53126,-4.44792 0.875,0 1.64062,-0.0365 2.26041,-0.14583 3.2448,0.10937 6.89063,0.32812 10.86459,0.61979 h 0.58334 c 0,0.21875 -0.14584,0.72916 -0.43751,1.53125 l 0.14584,0.29167 c -0.0729,0.58333 -0.21875,1.05729 -0.47396,1.38541 v 0.14584 l 0.18229,0.29166 c -0.10937,0 -0.21875,0.18229 -0.32812,0.47396 l 0.32812,0.61979 c 0,0.0365 -0.10937,0.1823 -0.32812,0.4375 v 0.1823 c 0,0.18229 0.10937,0.29166 0.32812,0.29166 -0.21875,0.4375 -0.32812,0.72917 -0.32812,0.91146 h 0.32812 c 0.0729,-0.51042 0.21875,-0.76562 0.4375,-0.76562 0,0.29166 0.10938,0.47395 0.29167,0.47395 -0.18229,3.17188 -0.29167,5.25001 -0.29167,6.23438 0,0.4375 0.10938,0.875 0.29167,1.23959 l -0.29167,0.91145 c 0.72917,3.57292 1.34896,5.32292 1.82292,5.32292 -0.69271,-2.26041 -1.05729,-3.57291 -1.05729,-3.9375 0.10937,-0.98437 0.14583,-1.89583 0.14583,-2.77083 v -0.29167 c 0,-0.72917 -0.10937,-1.27604 -0.29167,-1.67708 0.1823,0 0.29167,-0.14584 0.29167,-0.47396 h 0.14583 c 0.10938,0.72916 0.1823,1.64062 0.1823,2.77083 1.53125,7.83855 2.55208,11.73959 3.02604,11.73959 h 0.18229 l 0.29167,-0.14583 c 0,-0.36459 -0.0365,-0.58334 -0.14584,-0.76563 l 0.14584,-0.91146 v -3.0625 c 0,-0.18229 0.10937,-0.25521 0.29166,-0.29166 0.21875,-4.37501 0.47396,-7.87501 0.76563,-10.53647 l 0.32812,0.14584 h 0.14584 l 1.96875,-7.6198 c 1.53125,0 3.35417,0.4375 5.50521,1.34896 h 0.14583 c 0.21875,0 0.29167,-0.0729 0.29167,-0.29167 -0.94792,-1.13021 -2.625,-2.40625 -5.03125,-3.82812 0.21875,-0.32813 0.32812,-0.6198 0.32812,-0.91146 l 1.0573,0.76562 v -0.14583 c -0.47396,-0.61979 -0.76563,-0.91146 -0.91146,-0.91146 0.61979,-1.42188 0.91146,-2.22396 0.91146,-2.44271 3.0625,-7.54688 4.92187,-11.66667 5.50521,-12.35938 l -0.14584,-0.32813 c 0.40104,-0.91145 0.69271,-1.34895 0.91146,-1.34895 0.47396,-1.34896 0.80209,-2.00521 1.05729,-2.00521 v -0.29167 l -0.14583,-0.32813 c 0.10938,0 0.14583,-0.0729 0.14583,-0.29166 l 0.29167,0.14583 1.09375,-2.29688 c 1.34896,-1.45833 2.1875,-2.8802 2.44271,-4.26562 l -0.18229,-0.29167 c 0.61979,-0.83854 0.94792,-1.60417 0.94792,-2.29688 l -0.1823,-0.29166 c -0.51041,0.80208 -0.83854,1.20312 -0.91145,1.20312 0,-0.0729 0.36458,-1.05729 1.09375,-2.88021 v -0.18229 c -0.72917,0.54688 -1.09375,1.02084 -1.09375,1.38542 h -0.14584 v -0.14583 c 0.40104,-1.02084 0.61979,-1.82292 0.61979,-2.44271 -0.21875,-0.21875 -0.32812,-0.54688 -0.32812,-0.91146 l -0.91146,1.20312 1.53125,-3.5 -0.29167,-0.61979 c 0.29167,-0.54688 0.4375,-0.98438 0.4375,-1.20313 0,-0.32812 -0.0729,-0.47395 -0.29166,-0.47395 h -0.29167 c 0,0.10937 -0.25521,0.61979 -0.76562,1.53125 h -0.14584 v -0.14584 c 0,-0.25521 0.18229,-0.65625 0.58334,-1.23958 v -0.4375 h -0.14584 l -0.4375,0.29167 z m -1.71354,3.64583 c 0,-0.29167 0.10937,-0.4375 0.32812,-0.4375 l -0.14583,0.58333 h -0.18229 z m -55.2344,0.61979 h 1.05729 l -0.14583,0.29167 c -0.14584,-0.10938 -0.47396,-0.14583 -0.91146,-0.14583 z m 57.09378,2.11459 h 0.14583 v 0.18229 c -0.10938,0.18229 -0.14583,0.32812 -0.14583,0.4375 h -0.14584 v -0.14583 c 0.0729,-0.1823 0.14584,-0.36459 0.14584,-0.47396 z m -60.01045,0.47396 c 0.18229,0.10937 0.40104,0.14583 0.61979,0.14583 0,0.21875 -0.10937,0.32812 -0.29167,0.32812 h -0.32812 z m 16.95313,0 h 0.29167 v 0.14583 h -0.29167 z m 42.14586,0.14583 h 0.14583 v 0.14583 c -0.21875,0.32813 -0.32813,0.58334 -0.32813,0.76563 h -0.14583 v -0.14584 c 0.21875,-0.32812 0.32813,-0.58333 0.32813,-0.76562 z m -60.01045,0.32812 h 0.14583 l 0.76563,0.14584 v 0.14583 l -0.76563,0.14583 c 0,-0.10937 -0.0365,-0.2552 -0.14583,-0.4375 z m -1.20312,0.4375 h 0.29166 v 0.14584 c 0,0.21875 -0.10937,0.32812 -0.29166,0.32812 z m 2.4427,0.6198 c 0,-0.1823 0.0729,-0.29167 0.29167,-0.29167 h 0.14584 c 0,0.18229 -0.10938,0.29167 -0.29167,0.29167 z m 57.53128,-0.14584 h 0.14584 v 0.29167 h -0.14584 z m -60.11982,0.4375 c 0.14584,0 0.32813,-0.10937 0.58334,-0.29166 v 0.14583 c -0.47396,0.51042 -0.875,0.80208 -1.20313,0.91146 -0.21875,0 -0.51042,-0.10938 -0.91146,-0.29167 l 0.14583,-0.32812 h 0.4375 l 0.6198,-0.29167 z m -1.85937,3.35417 c 1.45833,-1.45833 2.84375,-2.625 4.11979,-3.5 h 0.18229 l -4.15625,3.5 z m 62.27086,-3.35417 h 0.18229 v 0.32813 h -0.18229 z m -74.01045,14.98439 c 0.29166,-0.0729 1.16666,-1.34896 2.58854,-3.82813 0.80208,-2.11459 2.88021,-4.88542 6.27084,-8.23959 l 3.02604,-2.15104 v 0.61979 l -0.29167,-0.14583 h -0.14583 c 0,0.58333 -0.47396,1.02083 -1.38542,1.34896 -2.44271,2.40625 -4.22917,4.52083 -5.32292,6.41667 -4.19271,7.65625 -6.27083,11.92188 -6.27083,12.83334 -0.80209,1.75 -1.45834,6.30729 -1.96875,13.59896 l 0.14583,0.29167 c -0.10938,0 -0.14583,0.0365 -0.14583,0.14583 0,0.10938 0.0365,0.14583 0.14583,0.14583 0.21875,2.07813 0.58333,3.53646 1.05729,4.44792 v 0.29167 c -0.0729,0 -0.83854,-0.91146 -2.29687,-2.73438 0,-0.10937 0.0729,-0.25521 0.14583,-0.47396 l -0.14583,-0.29166 0.14583,-0.76563 h -0.4375 l 0.14583,-0.29166 v -0.1823 c 0,-0.14583 -0.10937,-0.2552 -0.29167,-0.29166 0,-0.1823 0.10938,-0.29167 0.29167,-0.29167 -0.14583,-0.32813 -0.29167,-0.47396 -0.4375,-0.47396 l -0.32812,0.14583 v -0.29166 h 0.61979 v -0.14584 l -0.14584,-0.32812 h 0.14584 c -0.51042,-1.64063 -0.76563,-2.69792 -0.76563,-3.20834 v -0.4375 c 0,-0.91145 0.40104,-3.35416 1.20313,-7.32812 l -0.14583,-0.32813 c 0.18229,0 0.4375,-0.32812 0.76562,-1.05729 l 0.47396,0.32812 0.29167,-0.18229 c 0.51041,-2.04167 1.23958,-3.60937 2.15104,-4.70313 v -0.47395 c 0,-0.1823 -0.10938,-0.25521 -0.32813,-0.29167 l -0.29166,0.14583 c 0.0729,-0.51041 0.21875,-0.76562 0.47396,-0.76562 h 0.14583 c 0,0.32812 0.0365,0.58333 0.14583,0.76562 h 0.14584 c 0.0729,-1.02083 0.29166,-1.53125 0.61979,-1.53125 v -0.29166 h -0.29167 v -0.47396 c 0,-0.1823 0.0729,-0.25521 0.29167,-0.29167 z m 16.1875,-13.59897 c 0.14584,-0.29167 0.29167,-0.47396 0.43751,-0.47396 h 0.14583 c -0.14583,0.32813 -0.29167,0.47396 -0.4375,0.47396 z m 19.06772,-0.47396 c 0.65625,0.21875 1.05729,0.32813 1.23959,0.32813 v 0.14583 h -0.32813 c -0.51042,0 -0.80208,-0.14583 -0.91146,-0.47396 z m 10.39063,0.32813 h 0.14584 v 0.76562 c 0,0.0365 -0.25521,0.32813 -0.76563,0.91146 l 0.14583,0.29167 c -0.51041,0.14583 -0.76562,0.51041 -0.76562,1.09375 l 0.14583,0.29167 -0.29167,0.14583 c -0.47395,0.58333 -1.05729,1.45833 -1.67708,2.58854 -0.25521,0.94792 -0.61979,1.71354 -1.05729,2.29688 l 0.14583,0.29166 c 0,0.10938 -0.0729,0.1823 -0.14583,0.1823 -2.04167,3.60937 -3.46354,6.89062 -4.30209,9.77083 h 0.32813 c 0,0.1823 -0.21875,0.29167 -0.61979,0.29167 v 0.14583 l 0.14583,0.29167 c -0.25521,0.91146 -0.69271,1.67709 -1.34896,2.29688 h -0.18229 v -0.14584 l 3.39063,-9.00521 c 0.40104,-0.40104 0.58333,-0.76562 0.58333,-1.05729 l 0.61979,-1.09375 c 0,-0.0365 0.47396,-1.02084 1.38542,-2.88021 z m 21.51043,0.14583 h 0.29167 c 0,0.21875 -0.0729,0.29167 -0.29167,0.29167 z m -31.28127,0.29167 h 0.29167 v 0.18229 h -0.29167 z m -20.01563,2.91667 c 0,-0.1823 0.58333,-0.6198 1.67708,-1.38542 h 0.1823 c -0.21875,0.36458 -0.76563,0.80208 -1.67709,1.38542 z m -7.14584,1.82291 c 0.40104,-0.58333 0.58334,-0.94791 0.58334,-1.05729 1.02083,-0.76562 1.53125,-1.16667 1.53125,-1.23958 h 0.14583 c -1.42187,1.42187 -2.11458,2.26041 -2.11458,2.44271 h -0.14584 z m 55.8542,-0.14583 h 0.14583 v 0.29167 H 373.461 Z m -58.62503,3.64583 c 1.20312,-1.96875 2.04167,-3.02604 2.44271,-3.20833 h 0.14583 c -1.64062,2.26042 -2.51562,3.39063 -2.58854,3.39063 z m 58.62503,-0.29166 h 0.29166 c 0,0.72916 -0.25521,1.20312 -0.76562,1.38541 0.32812,-0.72916 0.47396,-1.20312 0.47396,-1.38541 z m -61.9792,0.14583 h 0.29167 v 0.32813 h -0.29167 z m 3.0625,0.47396 h 0.14583 v 0.29167 h -0.14583 z m -3.68229,0.4375 h 0.32812 v 0.18229 c 0,0.18229 -0.10937,0.29167 -0.32812,0.29167 z m 60.59378,0.18229 0.32812,0.14583 c 0,0.1823 -0.10937,0.29167 -0.32812,0.29167 z m 0.61979,0.29167 h 0.32812 v 0.14583 h -0.32812 z m -0.4375,0.4375 h 0.29167 c 0,0.25521 0.0365,0.4375 0.14583,0.61979 l -0.4375,0.32813 c 0,-0.25521 0.0365,-0.4375 0.14583,-0.6198 z m -58.00524,0.18229 h 0.14584 v 0.14583 c 0,0.40105 -0.21875,0.69271 -0.6198,0.91146 0,-0.10937 0.14584,-0.47396 0.47396,-1.05729 z m 57.38545,0.4375 h 0.14583 v 0.32813 h -0.14583 z m -58.15107,0.76563 h 0.14583 v 0.14583 c 0,0.14583 -0.21875,0.54687 -0.61979,1.23958 h -0.14583 v -0.14583 z m 58.44273,0 h 0.32813 c 0,0.21875 -0.10938,0.32812 -0.32813,0.32812 z m -62.12503,0.47395 h 0.32813 v 0.29167 c -0.18229,0 -0.29167,-0.10937 -0.32813,-0.29167 z m 61.68753,0.29167 h 0.4375 c -0.14583,0.29167 -0.29166,0.47396 -0.4375,0.47396 z m -0.61979,0.14583 h 0.29167 v 0.14584 h -0.29167 z m -58.15107,0.6198 h 0.14584 v 0.29166 h -0.14584 z m 58.62503,0 h 0.14583 v 0.14583 l -0.14583,0.76563 h -0.18229 v -0.14584 z m -0.32813,1.05729 h 0.14584 v 0.18229 c -0.29167,0.65625 -0.4375,1.09375 -0.4375,1.20313 h -0.14584 v -0.14584 c 0.29167,-0.69271 0.4375,-1.09375 0.4375,-1.23958 z m -59.53648,0.76562 h 0.18229 v 0.14584 l -0.61979,1.38541 v 0.47396 h 0.14583 v -0.32812 h 0.14583 v 0.18229 c -0.40104,0.72917 -0.61979,1.16667 -0.61979,1.34896 h -0.14583 v -0.29167 h -0.14583 c 0,0.29167 -0.10938,0.4375 -0.29167,0.4375 0,-0.4375 0.4375,-1.56771 1.34896,-3.35417 z m 0.18229,0.6198 h 0.14583 v 0.14583 c -0.10937,0.21875 -0.14583,0.36458 -0.14583,0.47396 h -0.18229 v -0.14584 c 0.10937,-0.21875 0.18229,-0.36458 0.18229,-0.47395 z m 58.7344,0.14583 h 0.18229 v 0.32812 h -0.18229 z m -0.29166,1.23958 c 0,-0.18229 0.10937,-0.29166 0.29166,-0.32812 v 0.18229 c 0,0.18229 -0.0729,0.29167 -0.29166,0.29167 z m -64.09378,0 h 0.14583 v 0.29167 h -0.14583 z m 4.88541,0 v 0.29167 h 0.14584 v -0.29167 z m -0.18229,0.29167 v 0.29167 h 0.18229 v -0.29167 z m 59.24482,0.14583 h 0.14584 v 0.32813 h -0.14584 z m -59.39065,0.14584 v 0.32812 h 0.14583 v -0.32812 z m -3.79167,0.32812 h 0.14583 v 0.4375 h -0.14583 z m 2.88021,0.4375 h 0.14583 v 0.32813 h -0.14583 z m -3.35417,0.47396 h 0.14584 v 0.14583 l -0.14584,0.76563 h -0.14583 v -0.14583 z m 3.20834,0.61979 h 0.14583 v 0.4375 h -0.14583 z m -0.29167,1.0573 h 0.14583 v 0.14583 c -1.23958,4.99479 -1.85937,8.49479 -1.85937,10.53646 h -0.14584 v -0.47396 c 0,-3.60937 0.6198,-7 1.85938,-10.20833 z m 36.78648,0.91145 c 0,-0.18229 0.0729,-0.2552 0.29166,-0.29166 v 0.29166 z m 22.56772,-0.14583 h 0.32812 c 0,0.18229 -0.10937,0.29167 -0.32812,0.29167 z m -58.62503,1.38542 h 0.18229 v 0.29166 h -0.18229 z m 52.53648,0.29166 h 0.91146 v 0.29167 c -0.0729,0 -0.40104,-0.0365 -0.91146,-0.14583 z m -52.68232,0.14584 h 0.14584 v 0.32812 h -0.14584 z m -0.14583,0.47396 h 0.14583 v 0.4375 h -0.14583 z m 27.34376,0.4375 c 0.0365,-0.29167 0.4375,-0.4375 1.20313,-0.4375 0.21875,0 0.29167,0.10937 0.29167,0.29166 l -1.0573,0.14584 z m -12.54167,0.91146 c 1.27604,0 5.17709,-0.32813 11.77605,-1.0573 h 0.14583 v 0.29167 h -0.76562 c -7.10938,0.72917 -10.82813,1.09375 -11.15626,1.09375 z m 12.06772,-1.0573 h 0.29166 v 0.14584 h -0.29166 z m -27.4896,1.53125 h 0.18229 v 0.76563 h -0.18229 z m 13.7448,0.47396 h 0.32812 v 0.14584 h -0.32812 z m -2.29688,2.73438 h 0.32813 v 0.14583 h -0.32813 z m 2.77084,0 h 0.29166 v 0.14583 h -0.29166 z m -2.58855,0.29167 h 0.58334 v 0.14583 h -0.58334 z m 0.91146,0.32812 h 0.58333 v 0.14583 h -0.58333 z m 25.33856,0.76563 c 0,-0.1823 0.0729,-0.29167 0.29166,-0.32813 v 0.32813 z m -16.8073,9.58854 c 1.27604,-1.49479 1.96875,-2.26042 2.15104,-2.26042 2.33333,-2.77083 4.22917,-5.14062 5.65104,-7.18229 -1.38541,2.95313 -4.01042,6.125 -7.80208,9.625 z m 17.71875,-8.53125 h 0.14584 v 0.29167 h -0.14584 z m -0.14583,0.91146 h 0.14583 v 0.76562 h -0.14583 z m -2.77083,0.29166 h 0.14583 c 0,0.69271 0.0729,1.3125 0.18229,1.85938 v 0.14583 h -0.18229 c 0,-0.32812 -0.14583,-0.47396 -0.4375,-0.47396 v -0.61979 h 0.29167 z m 2.58854,0.6198 h 0.18229 v 0.47395 c -0.10937,0.69271 -0.18229,1.31251 -0.18229,1.82292 h -0.14583 v -0.76562 z m -14.47397,0.61979 c -2.04166,1.85937 -3.5,3.39062 -4.44792,4.55729 v 0.18229 h 0.14584 c 0.14583,0 1.60417,-1.49479 4.44792,-4.44792 z m 11.44793,0.61979 c 0.18229,0.0729 0.32812,0.14583 0.4375,0.14583 v 0.29167 h -0.29167 c -0.10938,1.20313 -0.14583,2.07813 -0.14583,2.58854 v 0.32813 h 0.14583 v 3.79167 h -0.14583 c 0,-1.3125 -0.0729,-2.95313 -0.1823,-4.88542 0.10938,-0.98438 0.1823,-1.75 0.1823,-2.26042 z m 19.83334,0.29167 c 0,-0.1823 0.10937,-0.29167 0.29167,-0.29167 h 0.14583 c -0.0729,0.14583 -0.14583,0.36458 -0.14583,0.58333 h -0.29167 z m -61.50524,0.14583 h 0.29167 v 0.14583 h -0.29167 z m 3.97396,0 h 0.14583 c 0,0.18229 0.10938,0.76563 0.29167,1.67708 v 0.32813 h -0.14583 c -0.21875,-0.98438 -0.29167,-1.56771 -0.29167,-1.67708 z m 2.44271,0.47396 h 0.14583 v 0.29167 h -0.14583 z m 37.9896,0.29167 h 0.14584 v 1.05729 h -0.14584 z m 18.01043,0.76562 h 0.14583 v 0.91146 h -0.14583 z m -18.15626,0.76563 h 0.14583 v 0.91146 h -0.14583 z M 345.5339,430.02 h 0.14583 v 0.43751 h -0.14583 z m 18.92188,0 h 0.14584 v 0.72917 h -0.14584 z m -57.09377,0.72917 h 0.14583 v 0.47396 h -0.14583 z m 38.93752,0.47396 h 0.14583 v 0.61979 h -0.14583 z m -19.54168,0.47396 c -1.02083,0.65625 -1.75,1.3125 -2.29688,1.96875 h 0.61979 l 1.82292,-1.96875 z m 37.5521,0.29167 h 0.29167 c 0,0.21875 0.10937,0.29166 0.29166,0.29166 v 0.18229 c -0.14583,0.29167 -0.29166,0.4375 -0.4375,0.4375 h -0.14583 z m -35.58335,1.67708 c 0,-0.21875 0.51042,-0.58333 1.53125,-1.05729 h 0.14583 l -1.34895,1.34896 c -0.1823,0 -0.29167,-0.0729 -0.32813,-0.29167 z m -14.32813,-0.76563 c 0.18229,0 0.29166,0.10938 0.29166,0.29167 -0.10937,0 -0.2552,0.0729 -0.47395,0.18229 h -0.14584 c 0.21875,-0.25521 0.32813,-0.4375 0.32813,-0.47396 z m 0.4375,0.29167 c 1.09375,0 1.82292,0.0729 2.15104,0.18229 v 0.14584 l -0.14583,0.29166 -0.76563,-0.14583 h -0.18229 v 0.14583 l 0.18229,0.32813 h -0.47396 c -0.36458,-0.21875 -0.61979,-0.51042 -0.76562,-0.94792 z m 3.68229,0.18229 0.29167,-0.18229 v 0.32813 l -1.05729,0.14583 h -0.14584 v -0.29167 z m 5.65105,0.29167 v 0.14583 h 0.29166 v -0.14583 z m 4.26562,0.14583 c 0.18229,0 0.29167,0.10938 0.29167,0.32813 v 0.14583 c -0.14583,0 -0.36458,0.10938 -0.61979,0.29167 h -0.14584 c 0.32813,-0.32813 0.47396,-0.58333 0.47396,-0.76563 z m -21.36459,0.91146 c 0.18229,0 0.29167,0.10938 0.29167,0.32813 h -0.29167 z m 37.5521,0.32813 v 0.14583 h 0.29167 v -0.14583 z m 0.14583,0.58333 v 0.61979 h 0.29167 v -0.61979 z m -28.10938,4.59375 h 0.47395 v 0.14584 h -0.47395 z m 1.67708,0.29167 h 0.61979 v 0.18229 h -0.61979 z m 0.32813,0.94792 h 0.61979 v 0.14583 h -0.61979 z m 99.16671,-58.00524 -12.25001,2.1875 h -0.14583 v -0.29166 l -0.4375,0.0365 v 0.29167 l 0.14583,0.29167 c -0.10937,0 -0.25521,-0.0365 -0.4375,-0.10938 -0.61979,0.32813 -1.27604,0.58334 -2.04167,0.72917 0,-0.0729 -0.0365,-0.21875 -0.14583,-0.40104 l -3.9375,1.05729 -0.72917,-0.10938 c 0,0.10938 -0.4375,0.32813 -1.3125,0.69271 l -0.14583,0.0365 0.14583,-0.32812 v -0.14584 l -0.4375,0.0365 c -0.36458,0.32813 -0.98438,0.65625 -1.89583,1.05729 h -0.14584 v -0.29166 c -2.51562,0.69271 -4.22917,1.27604 -5.10417,1.75 0,0.10937 0.0365,0.14583 0.14584,0.14583 v 0.29167 h -0.14584 v -0.29167 c -0.51041,0.0365 -0.875,0.25521 -1.02083,0.65625 l -0.29167,-0.10937 -0.58333,0.0365 c -1.13021,0.10938 -2.91667,0.69271 -5.39584,1.78646 l 0.14584,0.25521 v 0.14584 l -0.29167,0.0365 v -0.29166 h -0.14583 c -0.21875,0.0365 -0.80209,0.25521 -1.75,0.72916 0,0.10938 0.0365,0.14584 0.14583,0.14584 0,0.18229 -0.10938,0.29166 -0.29167,0.32812 v -0.29166 c -0.61979,0.0729 -1.53125,0.58333 -2.77083,1.53125 l 0.14583,0.29166 c 1.20313,-0.10937 3.57292,-0.91146 7.14584,-2.36979 h 0.14583 v 0.14583 h -0.14583 c -2.33334,1.16667 -3.5,2.04167 -3.5,2.62501 l 0.29166,0.14583 1.45834,-1.16667 h 0.14583 l -0.14583,0.29167 c -1.34896,0.94792 -2.00521,1.45833 -2.04167,1.64062 l 0.29167,0.40105 c 0.18229,0 0.47395,-0.10938 0.875,-0.36459 h 0.14583 l -0.58333,1.05729 c 0.10937,0 0.14583,0.0365 0.14583,0.14584 0.94792,-0.29167 1.82292,-0.58334 2.625,-0.94792 0,0.18229 0.10938,0.29167 0.29167,0.25521 -0.47396,0.72917 -1.20313,1.13021 -2.1875,1.20312 0.0729,0.76563 0.21875,1.16667 0.4375,1.13021 l 1.02083,-0.94791 -0.29167,2.36979 0.29167,-0.0365 c 0.32813,-0.25521 0.76563,-0.4375 1.3125,-0.54687 l 0.29167,0.10937 h 0.14583 c 0,-0.10937 -0.0365,-0.14583 -0.14583,-0.14583 0,-0.14584 0.10937,-0.25521 0.29166,-0.29167 v 0.29167 l 0.875,-0.80209 c 0,0.0729 0.0365,0.21875 0.14584,0.40105 l 0.72917,-0.47396 0.72916,0.0729 c 0.0365,-0.21875 0.29167,-0.4375 0.72917,-0.65625 0,0.10938 0.0365,0.14584 0.14583,0.14584 l 0.58334,-0.0365 3.20833,-1.3125 v 0.14583 c 1.16667,-0.40104 1.89584,-0.69271 2.1875,-0.91146 l 0.29167,0.10938 c 0.36458,-0.40104 1.05729,-0.69271 2.04167,-0.875 0,0.0729 0.0365,0.14583 0.14583,0.10937 h 0.14583 c 0.4375,-0.32812 0.83855,-0.51041 1.16667,-0.54687 0,0.10937 0.0365,0.14583 0.14583,0.14583 l -2.47916,4.01042 c -3.57292,6.41667 -6.27084,12.76042 -8.16667,19.06772 0.10937,-0.0365 0.14583,0.0365 0.14583,0.10937 -0.32813,0.0365 -0.69271,2.11459 -1.16667,6.23438 v 0.58333 l 0.14584,0.29167 c -0.10938,0 -0.1823,0.14583 -0.29167,0.4375 l 0.14583,0.29167 -0.14583,0.72916 c 0.10937,0 0.14583,0.0365 0.14583,0.14584 h -0.14583 l 0.58333,2.58854 0.29167,-0.0365 0.14583,-0.72917 v -1.60416 c 0,-0.51042 0.0365,-1.34896 0.14584,-2.47917 -0.10938,0 -0.14584,-0.0365 -0.14584,-0.14583 0.47396,-3.13542 0.83854,-4.95834 1.02084,-5.46876 1.64062,-6.08854 2.66146,-9.15104 3.0625,-9.15104 0.10937,-0.54688 0.47396,-1.4948 1.16666,-2.88021 l -0.14583,-0.29167 c 0.51042,-0.51042 1.05729,-1.42187 1.60417,-2.77083 0,-0.0729 -0.0365,-0.21875 -0.14583,-0.40105 0.32812,-0.0364 0.58333,-0.29166 0.72916,-0.80208 l -0.14583,-0.29167 c 0.47396,-0.40104 0.72917,-0.6927 0.72917,-0.76562 l -0.14584,-0.29167 0.4375,-0.0365 c -1.60416,3.2448 -2.91667,6.12501 -3.9375,8.64063 -2.22396,6.52605 -3.35417,11.70313 -3.35417,15.45834 0,0.10938 0.0365,0.25521 0.14584,0.4375 -0.14584,0 -0.21875,0.47396 -0.29167,1.45834 0.10937,1.60416 0.32812,2.58854 0.58333,3.02604 l -0.4375,0.0365 v 0.14583 c 0,0.18229 0.25521,0.25521 0.72917,0.21875 v 0.29167 l -0.58333,0.0729 c 0,0.18229 0.14583,0.2552 0.4375,0.2552 0.6927,1.4948 1.09375,2.22396 1.16666,2.22396 -0.40104,-2.88021 -0.69271,-4.33854 -0.875,-4.30208 0.10938,0 0.14584,-0.54688 0.14584,-1.60417 l 0.14583,-0.0365 c 0,0.40104 0.10937,0.72917 0.29167,1.02084 l 0.29166,-0.1823 c 0,-0.10937 -0.0365,-0.14583 -0.14583,-0.14583 0.10938,-0.83854 0.14583,-1.45833 0.14583,-1.89583 h 0.14584 v 2.33333 c 0,0.47396 -0.14584,0.72917 -0.4375,0.76563 v 0.14583 c 0,0.0365 0.10937,0.18229 0.29166,0.40104 0,0.21875 -0.0365,0.40104 -0.14583,0.58334 0,1.1302 0.29167,1.93229 0.875,2.40625 l -0.14583,0.32812 v 0.14584 c 0.40104,-0.0365 0.61979,0.54687 0.72916,1.82291 0,0.10938 -0.14583,0.21875 -0.4375,0.32813 3.2448,1.56771 5.32292,2.33333 6.27084,2.22396 0,-0.4375 -0.29167,-0.98438 -0.875,-1.67709 v -0.14583 h 0.29167 l -0.4375,-0.69271 v -0.29167 c 0.14583,-0.0365 0.54687,0.0365 1.16666,0.1823 v -0.14584 c -0.98437,-0.69271 -1.45833,-1.27604 -1.45833,-1.78646 v -0.29166 c 0,-0.14584 0.10937,-0.25521 0.29167,-0.29167 0,-0.18229 -0.10938,-0.54688 -0.29167,-1.16667 0,-0.40104 0.10937,-0.80208 0.29167,-1.16666 l -0.29167,-0.14584 c 0,-0.0729 0.0365,-0.14583 0.14583,-0.14583 -0.10937,-0.83854 -0.14583,-1.3125 -0.14583,-1.45834 0,-0.21875 0.10937,-0.65625 0.29167,-1.3125 0,-0.10937 -0.0365,-0.2552 -0.14584,-0.4375 0.47396,-0.0365 0.72917,-0.94791 0.72917,-2.69791 h 0.29167 c -0.18229,0.4375 -0.29167,1.20312 -0.29167,2.33333 v 0.58333 l 0.4375,-0.0365 c 0,-0.0729 -0.0365,-0.21875 -0.14583,-0.40105 0,-0.32812 0.18229,-0.72916 0.58333,-1.23958 v -0.14583 c 0,-0.14584 -0.10937,-0.21875 -0.29167,-0.25521 l 0.4375,-0.61979 v -0.14584 l -0.29166,0.0365 v -0.29167 l 0.58333,-0.80208 v -0.29167 l -0.29167,-0.40104 0.29167,-0.0365 v -0.29166 l -0.14583,-0.25521 c 0.4375,-0.0365 0.65625,-0.29167 0.72916,-0.80209 l -0.14583,-0.29166 0.4375,-0.91146 -0.14583,-0.25521 c 0.18229,-0.0365 0.32812,-0.32812 0.4375,-0.91146 0,-0.10937 -0.14584,-0.14583 -0.4375,-0.10937 0,-0.10938 0.0365,-0.14584 0.14583,-0.1823 0,-0.0729 -0.0365,-0.10937 -0.14583,-0.10937 l 0.29166,-1.05729 -0.14583,-0.29167 c 0.36458,0 0.72917,-0.91146 1.16667,-2.69792 l -0.14584,-0.29166 c 0.14584,-0.21875 0.36459,-0.32813 0.58334,-0.32813 v -0.58333 c 0.18229,-0.0365 0.29167,0.0729 0.29167,0.25521 0.18229,0 0.29166,-0.10938 0.29166,-0.32813 v -0.14583 c 0,-0.14584 -0.10937,-0.25521 -0.29166,-0.25521 0,-0.10938 0.0365,-0.14583 0.14583,-0.14583 0,-0.36459 0.25521,-0.72917 0.72917,-1.09376 -0.25521,0.0365 -0.40105,-0.14583 -0.4375,-0.54687 0.29166,-0.0365 0.4375,-0.14583 0.4375,-0.32813 v -0.14583 l -0.14584,-0.29167 c 0.40104,0 0.58334,-0.18229 0.58334,-0.47395 v -0.72917 c 0.32812,-0.0365 0.72916,-0.69271 1.16666,-2.00521 0.47396,-0.0365 0.83855,-0.36458 1.02084,-0.94792 0,-0.10937 -0.0365,-0.25521 -0.14584,-0.4375 0.29167,0 0.83855,-0.80208 1.60417,-2.29687 0,-0.10938 -0.0365,-0.25521 -0.14583,-0.4375 0.29166,-0.0365 0.47396,-0.21875 0.58333,-0.6198 0.76563,-1.09375 1.16667,-1.75 1.16667,-2.00521 0.47396,-0.6927 0.72917,-1.16666 0.72917,-1.38541 0.47395,-0.32813 1.05729,-1.13021 1.75,-2.47917 0,-0.14583 -0.10938,-0.25521 -0.29167,-0.25521 0,-0.18229 0.25521,-0.32812 0.72917,-0.36458 1.78646,-2.07813 2.98958,-3.17188 3.64583,-3.20834 v -0.29166 l -0.875,0.0729 v -0.14583 c 0.14583,0 0.36458,-0.10938 0.58333,-0.32813 l -0.14583,-0.29166 c -1.53125,1.09375 -2.47917,1.71354 -2.77083,1.82291 v -0.14583 l 1.16666,-1.38542 0.72917,-0.0729 v -0.29167 l -0.14583,-0.29167 c 0.18229,0 0.29166,-0.10937 0.29166,-0.29166 v -0.29167 h -0.14583 c -0.54687,0.54687 -1.05729,0.80208 -1.45833,0.83854 l -0.14584,0.0365 c 0,-0.14583 0.32813,-0.40104 1.02084,-0.83854 2.33333,-0.58334 3.5,-1.02084 3.5,-1.3125 h 0.14583 v 0.29166 h 0.14584 c 0.98437,-0.29166 1.45833,-0.51041 1.45833,-0.72916 3.13542,-0.72917 5.03125,-1.3125 5.6875,-1.78646 v -0.14584 c -0.10937,0 -0.25521,0.0729 -0.4375,0.1823 l -1.02083,0.10937 v -0.14583 c 0.54687,-0.0729 2.47917,-0.51042 5.83333,-1.38542 v -0.29167 l -3.20833,0.29167 v -0.14583 c 7,-0.98438 11.30209,-1.64063 12.97917,-1.96875 v -0.29167 l -1.89583,0.14583 v -0.14583 l 4.52083,-0.36458 v -0.29167 l -4.08333,-0.25521 c -3.90104,0.21875 -5.83334,0.0729 -5.83334,-0.40104 l -1.75,0.14583 c -1.13021,0.10938 -2.29687,0.14584 -3.5,0.18229 l -2.77083,0.51042 -0.29167,0.0365 v -0.14583 c 0.21875,-0.0365 0.72917,-0.10938 1.60417,-0.29167 v -0.29167 c -0.80209,0.0729 -1.9323,0.29167 -3.35417,0.72917 l -0.29167,-0.14583 c -0.80208,0.0729 -1.56771,0.18229 -2.33333,0.36458 h -0.29167 v -0.14583 l 0.72917,-0.0365 z m -1.16667,0.51042 h 0.29167 v 0.14583 h -0.29167 z m 4.52083,-0.21875 0.43751,-0.0365 v 0.14583 l -0.43751,0.0365 z m -19.10417,2.91667 0.4375,-0.0365 v 0.14583 l -0.4375,0.0365 z m -1.16667,0.36458 h 0.29167 v 0.14583 h -0.29167 z m 11.37501,2.11458 c 1.45833,-0.51041 5.25,-1.34896 11.375,-2.55208 l 0.58334,-0.0365 v 0.14583 c -6.59897,1.3125 -10.60938,2.18751 -11.95834,2.58855 z m -22.02085,0.54688 0.29167,-0.0365 v 0.14583 l -0.29167,0.0365 z m 30.62502,-1.53125 0.72917,-0.0729 v 0.14583 l -0.72917,0.0729 z m -1.02084,0.21875 0.58334,-0.0365 v 0.14583 l -0.58334,0.0365 z m -35.14585,3.09896 0.29167,-0.0365 v 0.14583 l -0.29167,0.0365 z m 34.27085,-2.88021 0.4375,-0.0365 v 0.14583 l -0.4375,0.0365 z m -3.79166,0.76562 0.4375,-0.0365 v 0.14583 l -0.4375,0.0365 z m -1.45834,1.13021 0.29167,-0.0365 v 0.14584 l -0.29167,0.0365 z m -1.45833,0.40104 h 0.29166 v 0.14584 h -0.29166 z m -13.12501,1.67709 0.875,-0.21875 h 0.14583 v 0.14583 c -0.21875,0.0365 -0.40104,0.0729 -0.58333,0.18229 l -0.4375,0.0365 z m -20.41668,1.85937 0.4375,-0.0365 v 0.14583 c -0.10937,0.0365 -0.2552,0.0729 -0.4375,0.18229 l -0.14583,0.0365 z m 19.68751,-1.64062 0.4375,-0.0365 v 0.14583 l -0.4375,0.0365 z m -10.79167,1.05729 0.29167,-0.0365 v 0.14584 l -0.29167,0.0365 z m 10.20834,-0.875 0.4375,-0.0365 v 0.14584 l -0.4375,0.0365 z m -0.58333,0.21875 0.4375,-0.0365 v 0.14584 l -0.4375,0.0365 z m -0.58334,0.18229 0.4375,-0.0365 v 0.14584 l -0.4375,0.0365 z m -0.58333,0.18229 0.4375,-0.0365 v 0.14583 l -0.4375,0.0365 z m -0.72917,0.21875 0.58334,-0.0365 v 0.14583 l -0.58334,0.0365 z m -0.58333,0.1823 0.4375,-0.0365 v 0.14583 l -0.4375,0.0365 z m -0.58333,0.21875 0.4375,-0.0365 v 0.14583 l -0.4375,0.0365 z m -0.58334,0.18229 0.29167,-0.0365 v 0.14583 l -0.29167,0.0365 z m -8.75,1.89583 c 0,-0.14583 0.10937,-0.25521 0.29166,-0.29166 l 0.14584,-0.0365 v 0.14583 c 0,0.21875 -0.10938,0.29167 -0.29167,0.32813 h -0.14583 z m 14.29167,-0.47396 c 0,-0.14583 0.10938,-0.2552 0.29167,-0.29166 l 0.14583,-0.0365 v 0.14583 c 0,0.21875 -0.10937,0.32813 -0.29167,0.32813 h -0.14583 z m -0.4375,0.47396 c 0.10938,0 0.25521,-0.0365 0.4375,-0.18229 h 0.14583 v 0.14583 c -0.21875,0.40105 -0.4375,0.6198 -0.58333,0.6198 z m -0.72917,1.53125 c 0,-0.14583 0.10938,-0.25521 0.29167,-0.32812 h 0.14583 c -0.14583,0.40104 -0.29166,0.61979 -0.4375,0.61979 z m -0.72916,1.23959 0.29166,-0.0365 c 0,0.18229 -0.10937,0.29167 -0.29166,0.32812 z m -1.75,2.625 0.29166,-0.0365 1.16667,-1.71354 v 0.14583 c -0.69271,1.34896 -1.05729,2.00521 -1.16667,2.00521 h -0.14583 c 0,-0.0729 -0.0365,-0.21875 -0.14583,-0.40104 z m 10.0625,1.20312 0.14583,-0.0364 v 0.29166 l -0.14583,0.0365 z m -1.45833,3.02605 h 0.14583 v 0.29166 h -0.14583 z m 0,0.72916 h 0.14583 v 0.29167 h -0.14583 z m -10.93751,6.59897 h 0.14583 v 0.4375 h -0.14583 z m -0.14583,0.61979 0.14583,-0.0365 v 0.29167 l -0.14583,0.0365 z m 2.04167,0.25521 0.14583,-0.0365 v 0.29166 l -0.14583,0.0365 z m -0.29167,0.72916 h 0.14583 v 0.4375 h -0.14583 z m -0.29167,0.91146 h 0.14584 v 0.14583 l -0.58334,2.3698 h -0.14583 v -0.14584 c 0,-0.14583 0.18229,-0.94791 0.58333,-2.36979 z m -0.875,3.28125 h 0.14584 v 0.29167 h -0.14584 z m -0.14583,0.4375 h 0.14583 v 0.29167 h -0.14583 z m 4.95833,1.78646 0.29167,-0.0365 v 0.14584 l -0.29167,0.0365 z m -7.875,1.67709 h 0.29167 v 0.14583 h -0.29167 z m 0,0.4375 h 0.14583 v 0.29166 h -0.14583 z m -0.72917,0.36458 h 0.14584 v 0.29167 h -0.14584 z m 7.58334,-0.65625 h 0.14583 v 0.14583 c -0.10937,0.40105 -0.14583,0.72917 -0.14583,1.02084 l -0.29167,0.0365 c 0.1823,-0.51042 0.29167,-0.91146 0.29167,-1.20313 z m -7,0.76563 0.14583,-0.0365 c 0,0.21875 0.0365,0.40104 0.14583,0.58333 -0.10937,0 -0.14583,0.51042 -0.14583,1.45833 l -0.14583,0.0365 v -1.3125 c 0,-0.10937 -0.0365,-0.25521 -0.14584,-0.4375 0.10938,0 0.14584,-0.10937 0.14584,-0.29166 z m 1.3125,0.76562 0.14583,-0.0365 v 0.29167 l -0.14583,0.0365 z m 5.39583,-0.0365 h 0.14584 v 0.4375 h -0.14584 z m -6.85417,1.45834 h 0.14584 v 0.875 h -0.14584 z m 1.3125,-0.10938 h 0.14584 v 0.4375 h -0.14584 z m -1.60416,3.79167 v 0.29167 l 0.14583,-0.0365 v -0.29167 z"
       id="text1"
       style="font-size:74.6667px;font-family:'SINGLE FIGHTER';-inkscape-font-specification:'SINGLE FIGHTER, Normal';white-space:pre;fill:url(#linearGradient2);stroke:#ffffff;stroke-width:3.77953;stroke-linecap:round;stroke-linejoin:bevel;paint-order:stroke markers fill"
       transform="matrix(0.26458333,0,0,0.26458333,4.8007089,-4.0510965)"
       aria-label="Fight!" />
  </g>
</svg>
