<svg width="34.602" height="34.772" viewBox="0 0 32.44 32.599" xmlns="http://www.w3.org/2000/svg"><path d="M32.05 18.709c.036 2.652-30.267 3.921-30.257 0C1.815 9.289 8.566 1.654 16.92 1.654S31.92 9.291 32.049 18.71z" fill="#80bfcd" paint-order="stroke fill markers"/><path d="M1.763 17.474c-.036-2.22 30.267-3.284 30.257 0-.022 7.886-6.773 14.28-15.128 14.28S1.893 25.358 1.763 17.473z" fill="#319031" paint-order="stroke fill markers"/><path d="M10.897 3.884c-3.254 0-5.891 1.587-5.891 3.543 0 .08.006.162.018.23h-.018v11.738h.002l-.018.018.767.834.925-.852H16.79V7.657h-.018c.007-.08.018-.161.018-.23 0-1.957-2.638-3.543-5.891-3.543z" fill="gray" fill-rule="evenodd"/><path d="M11.591 4.713c-3.253 0-5.89 1.585-5.89 3.54 0 .081.006.162.018.233H5.7v11.738h11.781V8.486h-.018c.007-.08.018-.162.018-.232 0-1.957-2.637-3.54-5.89-3.54z" fill="#a6a6a6" fill-rule="evenodd"/><path d="M8.611 10.724v1.09l.4.062v.17H7.507v-.17l.37-.063V9.155l-.4-.061v-.17h1.492q.689 0 1.029.212.34.212.34.661 0 .67-.63.861l.834 1.155.338.063v.17h-1.01l-.871-1.322zm1-.922q0-.35-.145-.485-.145-.137-.529-.137h-.326v1.288h.338q.358 0 .51-.15.151-.148.151-.516zm2.52 2.011l.4.06v.173h-1.533v-.172l.4-.06V9.156l-.4-.063v-.17h1.534v.17l-.4.063zm2.59-1.965q0-.372-.14-.519-.138-.149-.487-.149h-.184v1.385h.193q.324 0 .47-.163.147-.163.147-.554zm-.811.973v.992l.52.063v.17h-1.626v-.17l.37-.063V9.155l-.4-.061v-.17h1.376q.663 0 .992.224.328.22.328.696 0 .977-1.141.977z" style="-inkscape-font-specification:'Liberation Serif, Bold'" aria-label="RIP" font-weight="700" font-size="4.768" font-family="Liberation Serif" fill="#4f4f4f" paint-order="stroke fill markers"/><path d="M14.77 18.605c-3.323.692-6.641 1.409-9.962 2.11.098.847 1 1.324 1.462 2.008 1.057.262 1.367 1.526 2.344 1.994.476.334.54.984 1.016 1.167.4.455 1.33.438 1.675 1.128.22.222.677 1.044.682.707.54.42.626 1.044 1.337 1.377.825.617 1.87.428 2.8.265.798.052 1.616.554 2.474.395 1.31-.262 2.489-.962 3.826-1.115.817-.223 1.235-1.065 1.861-1.562.752-.464 1.284-1.143 2.097-1.516.707-.573.51-1.383.2-2.14-.341-.601.067-1.078-.764-1.236-.653-.045-1.443.16-1.816-.4-.644-.737-1.677-.634-2.547-.924-.394-.11-1.095-.402-1.64-.613-.715-.14-1.536-.188-2.048-.632-.61-.506-1.445-.761-2.2-.878-.268.083-.524-.165-.798-.135zm8.85 9.634c-.01 0 .004.005 0 0z" fill="#502d16" paint-order="stroke fill markers"/><path d="M13.93 16.879c-.837.16-1.58.58-2.395.811-1 .28-1.994.53-2.953.943-.348.387-1.044.634-1.593.872-.701.327-1.766.482-2.23 1.169.04.438 1.959-.076 2.082.428.596.642 2.371-1.093 3.099-.674.69.27.897 1.208.862 1.994 1.64-1.171 1.23 1.425 2.277 2.301.405.184.263-.67 1.048-.442.665.394.177 1.253.867 1.495.577.146 1.786 1.323 2.358 1.715.541.029 1.467.424 2.026-.265.426-.93.97.359 1.69.205 1.005.168 1.73-.345 2.331-.525.63-.345 1.423-1.217 1.666-.841.628-.564 1.375-.351 1.785-1.16.339-.677.277-1.532.328-2.298-.029-.794-.82-1.234-1.026-1.93-.267-.787-.985-1.354-1.734-1.633-.461-.79-1.472-.565-2.156-1.066-1.008-.168-2.035-.358-3.064-.353-.888-.222-1.85-.44-2.674-.552-.882.134-1.721-.185-2.593-.194z" fill="#784421" paint-order="stroke fill markers"/><g fill="green" paint-order="stroke fill markers"><path d="M10.928 27.38c-.013-1.11.06-2.226-.037-3.33-.016-.178-.359-1.697-.647-2.086-.012-.017-.003.045 0 .067.018.124.032.249.061.37.02.086.29.998.313 1.104.012.056-.012.118 0 .174.041.195.116.378.157.574.124.59.152 1.227.267 1.803.028.142.008.408-.052.53-.015.03-.052.04-.06.074-.035.164-.002.582-.002.72zM11.224 27.277c.048-.707-.074-1.432 0-2.136.03-.29.24-.571.24-.86M11.167 27.257c-.628-.597.417-1.398.417-1.808"/><path d="M10.838 27.224c0-.413.023-.828 0-1.24-.031-.565-.2-.702-.264-1.17-.008-.061.016-.133 0-.19-.008-.029-.035 0-.052 0"/></g></svg>