<?xml version="1.0" encoding="UTF-8"?>
<svg version="1.1" xmlns="http://www.w3.org/2000/svg" width="308" height="426">
<path d="M0 0 C101.64 0 203.28 0 308 0 C308 140.58 308 281.16 308 426 C206.36 426 104.72 426 0 426 C0 285.42 0 144.84 0 0 Z " fill="#C8CFDB" transform="translate(0,0)"/>
<path d="M0 0 C0.02697137 2.60423592 0.04682489 5.20819244 0.0625 7.8125 C0.07087891 8.55048828 0.07925781 9.28847656 0.08789062 10.04882812 C0.10259828 13.29922068 0.03531702 15.89404895 -1 19 C1.97 18.67 4.94 18.34 8 18 C8.37769531 18.8765625 8.75539062 19.753125 9.14453125 20.65625 C9.69990669 21.93776633 10.25596092 23.21898859 10.8125 24.5 C11.11293213 25.19182373 11.41336426 25.88364746 11.72290039 26.59643555 C13.73225841 31.19060153 15.80177144 35.7529733 17.9140625 40.30078125 C18.66272583 41.91533203 18.66272583 41.91533203 19.42651367 43.5625 C20.4270223 45.71450692 21.43233196 47.86428881 22.44262695 50.01171875 C22.9037085 51.00429688 23.36479004 51.996875 23.83984375 53.01953125 C24.46427368 54.35141479 24.46427368 54.35141479 25.10131836 55.71020508 C26 58 26 58 26 61 C27.11375 60.319375 28.2275 59.63875 29.375 58.9375 C31.2734375 57.77734375 31.2734375 57.77734375 33 57 C33.66 57.33 34.32 57.66 35 58 C34.62818604 58.58265625 34.25637207 59.1653125 33.87329102 59.765625 C32.73724858 61.9350443 32.73724858 61.9350443 33.70678711 63.859375 C34.1425708 64.48328125 34.57835449 65.1071875 35.02734375 65.75 C35.48947266 66.4409375 35.95160156 67.131875 36.42773438 67.84375 C37.17506836 68.91109375 37.17506836 68.91109375 37.9375 70 C38.91629427 71.4088512 39.88427874 72.82529111 40.83984375 74.25 C41.27675537 74.87390625 41.71366699 75.4978125 42.16381836 76.140625 C43 78 43 78 42.75366211 80.13671875 C41.0607277 84.32216593 35.80936158 86.03760161 32 88 C31.22914063 88.42023438 30.45828125 88.84046875 29.6640625 89.2734375 C23.19209473 92.22666551 16.81196103 92.38319583 9.8125 92.4375 C8.87374023 92.44765137 7.93498047 92.45780273 6.96777344 92.46826172 C0.94397071 92.39261793 -3.47191986 91.37435573 -9 89 C-9.69931641 88.84015625 -10.39863281 88.6803125 -11.11914062 88.515625 C-14.59235091 87.56346766 -15.89512119 84.39705763 -17.73828125 81.5 C-19.54902595 77.91214672 -19.8547776 74.99361595 -20 71 C-22.97 71.99 -25.94 72.98 -29 74 C-28.67 74.66 -28.34 75.32 -28 76 C-27.92966231 77.87379605 -27.9156978 79.75001102 -27.9375 81.625 C-27.94652344 82.62789063 -27.95554688 83.63078125 -27.96484375 84.6640625 C-27.98224609 85.82035156 -27.98224609 85.82035156 -28 87 C-33.71247699 90.01346263 -39.34407069 92.31330314 -45.5 94.25 C-46.30308594 94.518125 -47.10617188 94.78625 -47.93359375 95.0625 C-53.15396163 96.72083404 -57.53010623 97.73978071 -63 97 C-65.52884086 95.49258481 -67.46541573 93.61243826 -69.5 91.5 C-70.03625 90.97535156 -70.5725 90.45070313 -71.125 89.91015625 C-72.43417569 88.6243587 -73.71964444 87.31449837 -75 86 C-75.99 86.33 -76.98 86.66 -78 87 C-77.67 87.99 -77.34 88.98 -77 90 C-77.99 90 -78.98 90 -80 90 C-80.24363281 90.71285156 -80.48726562 91.42570312 -80.73828125 92.16015625 C-84.28199959 100.13626532 -91.22905947 106.66968512 -98 112 C-102.02423424 110.49536375 -103.52065616 108.14945708 -105.75 104.5625 C-106.36359375 103.59441406 -106.9771875 102.62632812 -107.609375 101.62890625 C-109 99 -109 99 -109 96 C-105.7 94.35 -102.4 92.7 -99 91 C-100.27875 90.34 -101.5575 89.68 -102.875 89 C-103.95394531 88.443125 -103.95394531 88.443125 -105.0546875 87.875 C-106.94848977 86.86326254 -106.94848977 86.86326254 -109 87 C-109.81791016 88.21623047 -109.81791016 88.21623047 -110.65234375 89.45703125 C-113 92 -113 92 -116.56640625 92.63671875 C-118.57747186 92.66227481 -120.5885376 92.68782453 -122.59960938 92.71289062 C-126.28514129 92.80438844 -127.84092708 92.89395139 -131 95 C-132.90112305 95.22705078 -132.90112305 95.22705078 -135.01171875 95.1953125 C-136.14770508 95.18564453 -136.14770508 95.18564453 -137.30664062 95.17578125 C-138.48516602 95.15064453 -138.48516602 95.15064453 -139.6875 95.125 C-140.48478516 95.11597656 -141.28207031 95.10695313 -142.10351562 95.09765625 C-144.069139 95.07411585 -146.03460775 95.03824547 -148 95 C-148.50734284 92.6263603 -149.00602386 90.25142575 -149.5 87.875 C-149.64308594 87.20984375 -149.78617187 86.5446875 -149.93359375 85.859375 C-150.7612283 81.83943578 -151.15330658 78.10095101 -151 74 C-152.299375 74.495 -152.299375 74.495 -153.625 75 C-156.9740319 75.99230575 -159.53878194 76.07756231 -163 76 C-162.94199219 76.83144531 -162.88398438 77.66289062 -162.82421875 78.51953125 C-162.77910156 79.60621094 -162.73398438 80.69289063 -162.6875 81.8125 C-162.62949219 82.89144531 -162.57148438 83.97039062 -162.51171875 85.08203125 C-163 88 -163 88 -165.19213867 89.72802734 C-168.52234426 91.23662408 -169.89422785 91.08386745 -173.4140625 90.26953125 C-174.42210937 90.04330078 -175.43015625 89.81707031 -176.46875 89.58398438 C-178.03109375 89.20209961 -178.03109375 89.20209961 -179.625 88.8125 C-180.67429688 88.57724609 -181.72359375 88.34199219 -182.8046875 88.09960938 C-190.53330955 86.31112696 -190.53330955 86.31112696 -194 84 C-196.13885117 83.65171449 -196.13885117 83.65171449 -198.5 83.5625 C-204.22801064 83.10628676 -209.51519376 81.65795474 -215 80 C-214.53287145 73.92810117 -213.4530888 68.51701945 -211.453125 62.7734375 C-211.20004578 62.02268951 -210.94696655 61.27194153 -210.68621826 60.4984436 C-209.8826615 58.12096975 -209.06669939 55.74798699 -208.25 53.375 C-207.71790254 51.80888143 -207.18664676 50.24247662 -206.65625 48.67578125 C-205.6155554 45.60498574 -204.57034846 42.53578763 -203.52148438 39.46777344 C-201.31059023 32.99089228 -199.1544478 26.49584065 -197 20 C-192.67731338 20.58567481 -188.71731311 21.21380862 -184.625 22.75 C-183.34496094 23.20632813 -183.34496094 23.20632813 -182.0390625 23.671875 C-180 25 -180 25 -179.2109375 27.640625 C-179.10652344 28.80851562 -179.10652344 28.80851562 -179 30 C-176.54256214 30.36173964 -174.08441207 30.71468169 -171.625 31.0625 C-170.92632812 31.16626953 -170.22765625 31.27003906 -169.5078125 31.37695312 C-165.64983167 32.05029848 -165.64983167 32.05029848 -162 31 C-162 32.98 -162 34.96 -162 37 C-161.01 36.67 -160.02 36.34 -159 36 C-158.67 34.35 -158.34 32.7 -158 31 C-154.22949445 29.6297431 -151.4570367 30.37012268 -147.625 31.3125 C-146.52414063 31.57675781 -145.42328125 31.84101563 -144.2890625 32.11328125 C-137.75206737 33.87563029 -137.75206737 33.87563029 -135 35 C-134.67 35.99 -134.34 36.98 -134 38 C-130.535 37.505 -130.535 37.505 -127 37 C-126.67 37.99 -126.34 38.98 -126 40 C-124.52853516 39.70802734 -124.52853516 39.70802734 -123.02734375 39.41015625 C-118.6594577 38.78617253 -114.83835574 39.51817146 -110.5625 40.4375 C-109.83095703 40.58509766 -109.09941406 40.73269531 -108.34570312 40.88476562 C-106.56168879 41.24623258 -104.78051398 41.6216675 -103 42 C-103 44.31 -103 46.62 -103 49 C-101.8553125 48.505 -101.8553125 48.505 -100.6875 48 C-98 47 -98 47 -95 47 C-95 42.05 -95 37.1 -95 32 C-90.73443079 29.8672154 -90.26439751 29.70043506 -86 31 C-84.09607836 31.83844926 -82.21932746 32.74013927 -80.3671875 33.6875 C-79.31402344 34.22117187 -78.26085937 34.75484375 -77.17578125 35.3046875 C-75.54189453 36.14386719 -75.54189453 36.14386719 -73.875 37 C-71.70659298 38.1058621 -69.53735962 39.21010582 -67.3671875 40.3125 C-66.40925293 40.80363281 -65.45131836 41.29476562 -64.46435547 41.80078125 C-61.95942259 43.08617299 -61.95942259 43.08617299 -59 44 C-59 40.7 -59 37.4 -59 34 C-52.09070686 31.02638017 -44.53061072 29.59293996 -37 30 C-37 31.65 -37 33.3 -37 35 C-36.39671875 34.71125 -35.7934375 34.4225 -35.171875 34.125 C-34.37265625 33.75375 -33.5734375 33.3825 -32.75 33 C-31.96109375 32.62875 -31.1721875 32.2575 -30.359375 31.875 C-28 31 -28 31 -24 31 C-23.731875 30.401875 -23.46375 29.80375 -23.1875 29.1875 C-22 27 -22 27 -20.625 25.6875 C-18.76573538 23.91208756 -18.76573538 23.91208756 -17.3125 20.8125 C-15.59696189 17.65404805 -13.54857237 15.46282467 -10.9375 13 C-7.27838529 9.51706488 -5.77503506 6.67114489 -4 2 C-1 0 -1 0 0 0 Z " fill="#B8C6D8" transform="translate(239,287)"/>
<path d="M0 0 C0.99 0 1.98 0 3 0 C4.71228665 2.26530496 6.2090036 4.46507445 7.6875 6.875 C8.10322266 7.52597656 8.51894531 8.17695312 8.94726562 8.84765625 C12 13.70997537 12 13.70997537 12 16 C7.545 18.475 7.545 18.475 3 21 C5.40921705 23.40921705 7.94334509 24.53812156 11 26 C11.4021875 25.071875 11.4021875 25.071875 11.8125 24.125 C13 22 13 22 16 20 C18.30535694 19.75349768 20.62104134 19.59722807 22.9375 19.5 C27.59671739 19.45109627 27.59671739 19.45109627 31.89453125 17.9765625 C35.36442938 16.36714778 38.98171081 16.79438344 42.75 16.875 C46.83375 16.936875 46.83375 16.936875 51 17 C52.98 27.395 52.98 27.395 55 38 C59.95 36.515 59.95 36.515 65 35 C65.01417969 34.24074219 65.02835938 33.48148438 65.04296875 32.69921875 C65.09066406 31.70535156 65.13835937 30.71148437 65.1875 29.6875 C65.22230469 28.70136719 65.25710937 27.71523438 65.29296875 26.69921875 C66 24 66 24 67.8515625 22.00390625 C72.88015938 20.40049509 77.18250842 21.95109321 82.1875 23.25 C83.19748047 23.49363281 84.20746094 23.73726562 85.24804688 23.98828125 C92.55359191 25.77679595 92.55359191 25.77679595 95 27 C95 27.66 95 28.32 95 29 C95.98097656 28.79503906 96.96195313 28.59007813 97.97265625 28.37890625 C102.43626807 27.74124742 106.1517969 28.72589684 110.4375 29.9375 C111.16904297 30.13279297 111.90058594 30.32808594 112.65429688 30.52929688 C114.43942056 31.00766335 116.22020596 31.50217046 118 32 C117.41892609 39.00070712 115.5238473 45.24941425 113.32421875 51.90234375 C112.95778763 53.02065079 112.59135651 54.13895782 112.21382141 55.29115295 C111.44024304 57.64146532 110.6625932 59.99044109 109.88110352 62.33813477 C108.68516225 65.9445496 107.51509842 69.55873171 106.34570312 73.17382812 C105.59011111 75.4588529 104.8330028 77.74337696 104.07421875 80.02734375 C103.55211067 81.65530128 103.55211067 81.65530128 103.01945496 83.31614685 C102.68263199 84.31130814 102.34580902 85.30646942 101.9987793 86.33178711 C101.70867477 87.21144638 101.41857025 88.09110565 101.11967468 88.99742126 C100 91 100 91 98.0728302 91.82496643 C94.94705643 92.08891248 92.38481651 91.34247685 89.375 90.5 C88.22773438 90.2009375 87.08046875 89.901875 85.8984375 89.59375 C84.94195312 89.0678125 83.98546875 88.541875 83 88 C82.01 84.535 82.01 84.535 81 81 C75.72 81 70.44 81 65 81 C64.67 79.35 64.34 77.7 64 76 C63.01 76.495 63.01 76.495 62 77 C61.34786708 79.02463255 61.34786708 79.02463255 61 81 C58.93690624 80.88521587 56.87451646 80.75773802 54.8125 80.625 C53.66394531 80.55539063 52.51539063 80.48578125 51.33203125 80.4140625 C48.1826011 80.02269134 45.88987662 79.24425243 43 78 C40.29113059 77.83201738 40.29113059 77.83201738 38 78 C37.34 76.35 36.68 74.7 36 73 C35.01 73 34.02 73 33 73 C32.67 72.01 32.34 71.02 32 70 C31.0925 70.515625 30.185 71.03125 29.25 71.5625 C21.71424706 74.80302662 12.56612886 72.18253717 5 70 C5 67.69 5 65.38 5 63 C2.69 63.99 0.38 64.98 -2 66 C-2.33 70.95 -2.66 75.9 -3 81 C-9.26700728 82.27686822 -12.72356157 81.80509236 -18.25 78.4375 C-19.54733247 77.69513662 -20.84552337 76.95427155 -22.14453125 76.21484375 C-22.78600098 75.84214355 -23.4274707 75.46944336 -24.08837891 75.08544922 C-26.98460035 73.44092808 -29.95075672 71.9739313 -32.9375 70.5 C-33.91589844 70.0153125 -34.89429688 69.530625 -35.90234375 69.03125 C-36.59457031 68.6909375 -37.28679687 68.350625 -38 68 C-38 71.3 -38 74.6 -38 78 C-45.34553335 81.44790341 -51.94241975 82.14136106 -60 82 C-60.33 80.68 -60.66 79.36 -61 78 C-61.6290625 78.28875 -62.258125 78.5775 -62.90625 78.875 C-68.59940577 81.34432057 -72.79913784 82.80011125 -79 82 C-81.84546629 80.86572478 -84.32744919 79.52717189 -87 78 C-86.505 82.95 -86.505 82.95 -86 88 C-91.95098874 90.21682402 -97.86152818 92.36307418 -104 94 C-107.23179671 89.45260463 -109.55297696 84.86781079 -111.75 79.75 C-112.44253578 78.16398714 -113.13524978 76.57805209 -113.828125 74.9921875 C-114.18197266 74.17717773 -114.53582031 73.36216797 -114.90039062 72.52246094 C-116.7428441 68.29594465 -118.62321867 64.0863554 -120.5 59.875 C-121.17725676 58.35163959 -121.85435641 56.82820932 -122.53125 55.3046875 C-123.25828125 53.66886719 -123.25828125 53.66886719 -124 52 C-124.73992187 52.12761719 -125.47984375 52.25523438 -126.2421875 52.38671875 C-129 52 -129 52 -131.1328125 49.33203125 C-131.81562013 48.16966418 -132.47911064 46.99577951 -133.125 45.8125 C-133.45886719 45.23435547 -133.79273438 44.65621094 -134.13671875 44.06054688 C-135.10442988 42.38128345 -136.05253496 40.6907692 -137 39 C-137.59554687 38.11699219 -138.19109375 37.23398438 -138.8046875 36.32421875 C-140 34 -140 34 -140.03125 31.91015625 C-136.71541837 25.76833176 -126.54454338 22.49419187 -120.1328125 20.5078125 C-110.26875853 18.15922822 -97.93844559 16.86188901 -88.7578125 21.87109375 C-83.78189503 25.06673853 -80.08958155 28.30217926 -78 34 C-77.69472869 36.76682414 -77.80377512 39.20379548 -78 42 C-74.7 40.68 -71.4 39.36 -68 38 C-68.13019531 37.18015625 -68.26039062 36.3603125 -68.39453125 35.515625 C-68.53246094 34.43796875 -68.67039062 33.3603125 -68.8125 32.25 C-68.96332031 31.18265625 -69.11414063 30.1153125 -69.26953125 29.015625 C-69 26 -69 26 -67.2109375 23.84375 C-62.6289552 21.2127334 -57.85611679 19.7673179 -52.8125 18.25 C-51.80251953 17.93417969 -50.79253906 17.61835937 -49.75195312 17.29296875 C-42.33206507 15 -42.33206507 15 -40 15 C-39.505 15.99 -39.505 15.99 -39 17 C-37.35 16.34 -35.7 15.68 -34 15 C-29.71 18.96 -25.42 22.92 -21 27 C-19.89459074 24.21081851 -19.89459074 24.21081851 -20 22 C-18.86626361 20.83190796 -17.72473933 19.67062989 -16.55078125 18.54296875 C-13.52088497 15.52833644 -10.79377767 12.23178518 -8 9 C-6.70939773 7.51990454 -5.4177671 6.040705 -4.125 4.5625 C-3.26261719 3.57443359 -3.26261719 3.57443359 -2.3828125 2.56640625 C-1.61025568 1.69127832 -0.82543714 0.82543714 0 0 Z " fill="#B7C5D8" transform="translate(166,31)"/>
<path d="M0 0 C15.59400562 11.33053813 25.81504488 27.83461096 29.5078125 46.671875 C30.12898296 50.87217049 30.2190726 54.76459645 30 59 C29.4225 58.236875 28.845 57.47375 28.25 56.6875 C26.16642802 53.99108421 26.16642802 53.99108421 23.75 52.3125 C23.1725 51.879375 22.595 51.44625 22 51 C22 50.34 22 49.68 22 49 C21.32453125 48.91234375 20.6490625 48.8246875 19.953125 48.734375 C16.22443034 47.80713347 13.10564613 46.05847153 9.75 44.25 C-7.8077258 35.20278758 -28.06381346 31.45282211 -47.6640625 30.2734375 C-51.2028535 29.85919775 -53.80666874 28.56535846 -57 27 C-59.31738209 26.24891173 -61.64415631 25.62501976 -64 25 C-64 24.34 -64 23.68 -64 23 C-65.32 22.67 -66.64 22.34 -68 22 C-68 21.34 -68 20.68 -68 20 C-68.99 19.67 -69.98 19.34 -71 19 C-70.071875 18.87625 -70.071875 18.87625 -69.125 18.75 C-68.42375 18.5025 -67.7225 18.255 -67 18 C-66.7215625 17.3503125 -66.443125 16.700625 -66.15625 16.03125 C-65 14 -65 14 -62.8359375 13.171875 C-62.02382812 13.03265625 -61.21171875 12.8934375 -60.375 12.75 C-59.55773437 12.60046875 -58.74046875 12.4509375 -57.8984375 12.296875 C-57.27195313 12.19890625 -56.64546875 12.1009375 -56 12 C-63.75254781 11.28069144 -69.27760738 11.71798222 -75.80859375 16.15234375 C-79.97853889 19.66817985 -82.86968285 23.77914225 -85.33203125 28.6171875 C-87.39781691 31.56830988 -88.83895936 32.038235 -92.25 33.0625 C-96.93843614 34.58795399 -100.82140791 36.39998714 -105 39 C-103.53450286 25.0777772 -94.99155229 13.90360689 -84.6171875 5.05859375 C-59.78350221 -14.47476767 -26.95396669 -17.22358471 0 0 Z " fill="#EEBFAE" transform="translate(197,150)"/>
<path d="M0 0 C0.99 0.66 1.98 1.32 3 2 C2.18015625 2.09796875 1.3603125 2.1959375 0.515625 2.296875 C-0.56203125 2.44640625 -1.6396875 2.5959375 -2.75 2.75 C-3.81734375 2.88921875 -4.8846875 3.0284375 -5.984375 3.171875 C-9.39974598 4.1097748 -10.75507663 5.31916918 -13 8 C-12.67 8.99 -12.34 9.98 -12 11 C-9.69 11 -7.38 11 -5 11 C-5.99 11.33 -6.98 11.66 -8 12 C-8 12.66 -8 13.32 -8 14 C-6.989375 14.103125 -5.97875 14.20625 -4.9375 14.3125 C-0.87733022 15.02141853 2.24922981 16.32554902 6 18 C8.31913662 18.74430216 10.64456777 19.37508941 13 20 C12.50886719 20.35707031 12.01773438 20.71414062 11.51171875 21.08203125 C9.28627194 23.90553095 9.70749078 26.15218954 9.8125 29.6875 C9.83957031 30.86699219 9.86664063 32.04648438 9.89453125 33.26171875 C9.94673828 34.61716797 9.94673828 34.61716797 10 36 C9.34 36 8.68 36 8 36 C7.7215625 37.2375 7.7215625 37.2375 7.4375 38.5 C4.736825 45.07555652 0.62625058 49.6479543 -5.9375 52.5 C-12.0033257 54.55558995 -17.0570122 55.05635105 -23.125 52.5625 C-27.82113058 49.96385067 -30.83646205 45.85976517 -33 41 C-33.15625 38.21484375 -33.15625 38.21484375 -33 36 C-32.34 36 -31.68 36 -31 36 C-30.97274659 34.2709226 -30.95349013 32.54171824 -30.9375 30.8125 C-30.92589844 29.84957031 -30.91429688 28.88664062 -30.90234375 27.89453125 C-30.88714946 25.02971195 -30.88714946 25.02971195 -31.69140625 22.4765625 C-32.33554887 17.30711411 -28.00096959 12.92257254 -25 9 C-22.83579932 6.68686508 -20.60376001 4.79696114 -18 3 C-17.113125 2.38125 -16.22625 1.7625 -15.3125 1.125 C-10.30421267 -0.57592777 -5.24106736 -0.58234082 0 0 Z " fill="#ACACAC" transform="translate(141,161)"/>
<path d="M0 0 C3.74876715 2.66739201 6.19631145 5.2051229 8.25 9.3125 C8.80014179 15.69414474 7.89854248 20.0036063 4.25 25.3125 C-1.10434412 31.48967206 -1.10434412 31.48967206 -4.75 33.3125 C-4.36451945 39.55994338 -3.39051908 45.1532717 -1.37109375 51.0859375 C-0.75 53.3125 -0.75 53.3125 -0.75 57.3125 C-3.72 57.9725 -6.69 58.6325 -9.75 59.3125 C-10.04132812 58.64943848 -10.33265625 57.98637695 -10.6328125 57.30322266 C-16.64300643 43.62672397 -22.66820764 29.95732355 -28.75 16.3125 C-30.4 16.6425 -32.05 16.9725 -33.75 17.3125 C-34.78325986 15.88390593 -35.80127634 14.44427617 -36.8125 13 C-37.38097656 12.19949219 -37.94945312 11.39898437 -38.53515625 10.57421875 C-38.93605469 9.82785156 -39.33695313 9.08148438 -39.75 8.3125 C-38.75 5.3125 -38.75 5.3125 -36.4921875 3.99609375 C-35.54601563 3.58488281 -34.59984375 3.17367187 -33.625 2.75 C-32.69429687 2.33621094 -31.76359375 1.92242187 -30.8046875 1.49609375 C-21.64864323 -2.05158069 -9.35536185 -4.35174082 0 0 Z " fill="#FCEBA9" transform="translate(73.75,57.6875)"/>
<path d="M0 0 C1.26499568 2.58762905 2.43270514 5.16608886 3.5625 7.8125 C4.27268589 9.44694138 4.98365403 11.08104302 5.6953125 12.71484375 C6.06817383 13.5744873 6.44103516 14.43413086 6.82519531 15.31982422 C8.02554484 18.0582775 9.25366093 20.7825212 10.4921875 23.50390625 C10.90009521 24.40069092 11.30800293 25.29747559 11.72827148 26.22143555 C12.52267287 27.96469189 13.31900106 29.70707172 14.11743164 31.44848633 C14.47957764 32.24665771 14.84172363 33.0448291 15.21484375 33.8671875 C15.53573975 34.56956543 15.85663574 35.27194336 16.18725586 35.99560547 C16.99167011 37.97945678 17.53457801 39.91306066 18 42 C20.97 41.505 20.97 41.505 24 41 C25.03325986 42.42859407 26.05127634 43.86822383 27.0625 45.3125 C27.63097656 46.11300781 28.19945312 46.91351563 28.78515625 47.73828125 C29.18605469 48.48464844 29.58695312 49.23101562 30 50 C29.67 50.99 29.34 51.98 29 53 C26.58034551 54.18622086 24.26223821 55.18350207 21.75 56.125 C20.74646484 56.52138672 20.74646484 56.52138672 19.72265625 56.92578125 C13.83263687 59.20541547 8.85835869 60.15042192 2.5625 60.1875 C1.47066406 60.20167969 0.37882812 60.21585937 -0.74609375 60.23046875 C-5.98909427 59.85911577 -9.90207931 58.5308539 -13.8125 55 C-14.39644531 54.484375 -14.98039063 53.96875 -15.58203125 53.4375 C-18.02670344 50.95915464 -18.26090784 48.88200751 -18.4375 45.5 C-18.36667282 38.50834598 -15.09532378 33.23337812 -10.3359375 28.26171875 C-6.6056338 25 -6.6056338 25 -4 25 C-4.15670166 24.45061768 -4.31340332 23.90123535 -4.47485352 23.33520508 C-5.18223482 20.83072145 -5.87248263 18.32182048 -6.5625 15.8125 C-6.80935547 14.94818359 -7.05621094 14.08386719 -7.31054688 13.19335938 C-9.47053761 5.25311176 -9.47053761 5.25311176 -8 1 C-2.25 -1.125 -2.25 -1.125 0 0 Z " fill="#FCEBA9" transform="translate(244,314)"/>
<path d="M0 0 C0.70125 0.28875 1.4025 0.5775 2.125 0.875 C3.07375 1.24625 4.0225 1.6175 5 2 C5.86625 2.3403125 6.7325 2.680625 7.625 3.03125 C11.74695019 4.21440237 15.60913915 4.45147346 19.875 4.625 C20.65875 4.66367187 21.4425 4.70234375 22.25 4.7421875 C24.16631367 4.83566622 26.08312319 4.91888495 28 5 C27.34 5.33 26.68 5.66 26 6 C26.29970703 6.88171875 26.29970703 6.88171875 26.60546875 7.78125 C27.17195695 10.96704502 25.67166914 12.83758772 24.18359375 15.58203125 C22.35900107 19.30949947 21.18228795 23.21865409 19.9296875 27.16796875 C19.05155503 29.84295212 18.17322802 32.43981638 17 35 C13.93405406 36.53297297 10.72888147 36.12131455 7.3671875 36.09765625 C6.23943405 36.09553383 6.23943405 36.09553383 5.08889771 36.09336853 C2.6842249 36.08776465 0.27964473 36.07521157 -2.125 36.0625 C-3.75390491 36.0574855 -5.38281127 36.0529225 -7.01171875 36.04882812 C-11.00784827 36.03779397 -15.00390842 36.02052679 -19 36 C-18.3794107 31.80564761 -17.74200758 29.08041257 -15.25 25.625 C-14.70859375 24.85027344 -14.1671875 24.07554687 -13.609375 23.27734375 C-13.07828125 22.52582031 -12.5471875 21.77429688 -12 21 C-8.232986 15.38351828 -5.18794207 9.52362298 -2.234375 3.44140625 C-1 1 -1 1 0 0 Z " fill="#BBC6D3" transform="translate(227,374)"/>
<path d="M0 0 C2.64 0.66 5.28 1.32 8 2 C8 11.9 8 21.8 8 32 C8.66 32 9.32 32 10 32 C10.12117188 30.83082031 10.24234375 29.66164063 10.3671875 28.45703125 C10.53608401 26.90881329 10.70537568 25.36063839 10.875 23.8125 C10.99294922 22.65911133 10.99294922 22.65911133 11.11328125 21.48242188 C11.57528104 17.34219296 12.1839193 13.80766499 14 10 C16.31 10 18.62 10 21 10 C21.62076083 14.96608667 21.16450159 17.25219365 18.0625 21.25 C17.24458984 22.21679688 17.24458984 22.21679688 16.41015625 23.203125 C13.85473008 26.45934671 13.67707134 29.7825323 13.69921875 33.828125 C14.03678543 36.26561945 14.79251802 37.80413961 16 39.9375 C18.46003448 44.29453289 18.40826885 48.10077386 18 53 C18.99 53.33 19.98 53.66 21 54 C21 54.99 21 55.98 21 57 C19.24970238 56.68917128 17.49977306 56.37626821 15.75 56.0625 C14.77546875 55.88847656 13.8009375 55.71445312 12.796875 55.53515625 C10.50145973 55.0959497 8.26250202 54.57833619 6 54 C5.32492934 50.93929066 4.66145078 47.8761791 4 44.8125 C3.80921875 43.94818359 3.6184375 43.08386719 3.421875 42.19335938 C3.24140625 41.35224609 3.0609375 40.51113281 2.875 39.64453125 C2.70742188 38.87471924 2.53984375 38.10490723 2.3671875 37.31176758 C1.97449085 34.83939753 1.93814715 32.49924191 2 30 C-0.18436599 30.80249374 -0.18436599 30.80249374 -0.68603516 32.94946289 C-0.88503418 33.7821167 -1.0840332 34.61477051 -1.2890625 35.47265625 C-1.50820313 36.37177734 -1.72734375 37.27089844 -1.953125 38.19726562 C-2.17484375 39.14279297 -2.3965625 40.08832031 -2.625 41.0625 C-2.85445312 42.01189453 -3.08390625 42.96128906 -3.3203125 43.93945312 C-3.88756933 46.29120541 -4.44472728 48.64538934 -5 51 C-8.3 50.34 -11.6 49.68 -15 49 C-14.39379814 43.59820566 -13.10695893 38.78557521 -11.34765625 33.65234375 C-11.08746201 32.87742081 -10.82726776 32.10249786 -10.55918884 31.30409241 C-9.7326207 28.84660929 -8.89773675 26.39204868 -8.0625 23.9375 C-7.5053015 22.28599541 -6.94865571 20.63430423 -6.39257812 18.98242188 C-5.36938383 15.94536326 -4.34301745 12.90942009 -3.31274414 9.87475586 C-2.19697552 6.58697379 -1.09443605 3.29495453 0 0 Z " fill="#FBEAA9" transform="translate(46,314)"/>
<path d="M0 0 C1.5627962 0.14262412 3.12522696 0.28925511 4.6875 0.4375 C5.99267578 0.55931641 5.99267578 0.55931641 7.32421875 0.68359375 C9.92289271 0.9908822 12.44244733 1.45162384 15 2 C15.67301289 5.24871916 16.3372951 8.49916379 17 11.75 C17.19078125 12.67039062 17.3815625 13.59078125 17.578125 14.5390625 C17.84882813 15.87324219 17.84882813 15.87324219 18.125 17.234375 C18.29257812 18.05131836 18.46015625 18.86826172 18.6328125 19.70996094 C19 22 19 22 19 26 C19.66 26 20.32 26 21 26 C21.12117188 25.31035156 21.24234375 24.62070313 21.3671875 23.91015625 C22.43859906 17.90200987 23.63482823 11.94824843 25 6 C29.15771494 4.68461673 31.8879297 5.65566932 36 7 C35.1884345 12.0540762 33.49518971 16.80207171 31.875 21.640625 C31.41456299 23.02480621 31.41456299 23.02480621 30.94482422 24.43695068 C30.2973738 26.38065971 29.64841542 28.323867 28.99804688 30.26660156 C27.99940601 33.25177559 27.00721185 36.23903895 26.015625 39.2265625 C25.38580164 41.11471179 24.7556063 43.00273705 24.125 44.890625 C23.82706543 45.78847717 23.52913086 46.68632935 23.22216797 47.61138916 C22.94518066 48.43604675 22.66819336 49.26070435 22.3828125 50.11035156 C22.13934082 50.83917542 21.89586914 51.56799927 21.64501953 52.31890869 C21 54 21 54 20 55 C17.66055264 54.71269945 15.3260857 54.38063221 13 54 C12.97494385 53.38479492 12.9498877 52.76958984 12.92407227 52.13574219 C12.80781513 49.34029844 12.68522358 46.54516702 12.5625 43.75 C12.52318359 42.78191406 12.48386719 41.81382813 12.44335938 40.81640625 C12.40146484 39.88183594 12.35957031 38.94726562 12.31640625 37.984375 C12.27974854 37.12553711 12.24309082 36.26669922 12.20532227 35.38183594 C12.03761836 32.70190314 12.03761836 32.70190314 11 29 C9.68 34.61 8.36 40.22 7 46 C4.69 46 2.38 46 0 46 C-0.46500065 42.35749493 -0.74067401 40.11534244 1.3359375 36.98828125 C1.88507813 36.29089844 2.43421875 35.59351563 3 34.875 C6.54298658 30.00025251 6.61078966 25.91558911 6.50390625 20.015625 C5.95019632 16.70195008 4.73710892 14.83543969 3 12 C2.70703125 9.54296875 2.70703125 9.54296875 2.8125 7.1875 C2.83957031 6.39730469 2.86664063 5.60710937 2.89453125 4.79296875 C2.92933594 4.20128906 2.96414062 3.60960937 3 3 C2.01 3 1.02 3 0 3 C0 2.01 0 1.02 0 0 Z " fill="#FBEBA9" transform="translate(241,60)"/>
<path d="M0 0 C1.25143119 6.50744218 1.25143119 6.50744218 0.046875 8.8671875 C-1.30880848 11.62913967 -1.33598056 13.80807175 -1.375 16.875 C-1.41753906 18.38707031 -1.41753906 18.38707031 -1.4609375 19.9296875 C-1.20822635 23.14726376 -1.20822635 23.14726376 0.9765625 25.859375 C3.53619299 29.83223777 3.65811655 32.75576852 3.75 37.375 C3.77964844 38.11105469 3.80929688 38.84710938 3.83984375 39.60546875 C3.90988033 41.4030743 3.95728119 43.2015379 4 45 C5.32 45 6.64 45 8 45 C8 45.66 8 46.32 8 47 C1.565 48.98 1.565 48.98 -5 51 C-5.66 46.38 -6.32 41.76 -7 37 C-7.60328125 37.86625 -8.2065625 38.7325 -8.828125 39.625 C-9.63472862 40.75049342 -10.44205831 41.87546674 -11.25 43 C-11.64574219 43.57234375 -12.04148438 44.1446875 -12.44921875 44.734375 C-13.640625 46.375 -13.640625 46.375 -16 49 C-20 49 -20 49 -21.73828125 47.828125 C-22.25777344 47.30734375 -22.77726562 46.7865625 -23.3125 46.25 C-24.11107422 45.48429687 -24.11107422 45.48429687 -24.92578125 44.703125 C-26 43 -26 43 -26.015625 41.1484375 C-24.49563596 37.93307606 -21.99917062 35.76717181 -19.4375 33.375 C-17.57320158 31.61927906 -15.77871587 29.84611367 -14 28 C-14 27.34 -14 26.68 -14 26 C-14.83144531 25.67386719 -15.66289062 25.34773438 -16.51953125 25.01171875 C-17.60621094 24.57472656 -18.69289062 24.13773437 -19.8125 23.6875 C-20.89144531 23.25824219 -21.97039062 22.82898438 -23.08203125 22.38671875 C-25.69782741 21.14360277 -27.25965722 20.27771177 -29 18 C-29 17.34 -29 16.68 -29 16 C-32.00950123 14.38274466 -34.97103608 13.32417377 -38.25 12.375 C-39.14203125 12.11460937 -40.0340625 11.85421875 -40.953125 11.5859375 C-41.62859375 11.39257812 -42.3040625 11.19921875 -43 11 C-43 8.03 -43 5.06 -43 2 C-38.85297562 3.57621342 -34.90650469 5.48171993 -30.94921875 7.4765625 C-30.29041214 7.80667328 -29.63160553 8.13678406 -28.95283508 8.47689819 C-26.86343773 9.52437984 -24.77545402 10.5746448 -22.6875 11.625 C-21.26506663 12.33872639 -19.84254153 13.05227 -18.41992188 13.765625 C-14.94537324 15.50796426 -11.47275275 17.25406559 -8 19 C-8 13.06 -8 7.12 -8 1 C-5.29120665 -0.35439668 -2.99066732 -0.06501451 0 0 Z " fill="#FAEAA9" transform="translate(193,325)"/>
<path d="M0 0 C1.134375 0.020625 2.26875 0.04125 3.4375 0.0625 C3.9726499 2.58103031 4.49079429 5.10120748 5 7.625 C5.15146484 8.32947266 5.30292969 9.03394531 5.45898438 9.75976562 C6.39052517 14.4607971 6.48650661 18.30620865 5.4375 23.0625 C4.921875 23.825625 4.40625 24.58875 3.875 25.375 C1.40007819 30.00202772 1.75918376 35.07790853 2.90625 40.125 C4.59206066 44.7810485 7.31932485 46.59159491 11.4375 49.0625 C11.4375 49.7225 11.4375 50.3825 11.4375 51.0625 C9.97869891 50.92142253 8.52046449 50.77447585 7.0625 50.625 C6.25039062 50.54378906 5.43828125 50.46257812 4.6015625 50.37890625 C2.4375 50.0625 2.4375 50.0625 0.4375 49.0625 C-0.17749291 46.24059472 -0.68746846 43.47474246 -1.125 40.625 C-1.80964653 35.18570834 -1.80964653 35.18570834 -3.5625 30.0625 C-4.8825 32.7025 -6.2025 35.3425 -7.5625 38.0625 C-9.60554155 35.63030768 -10.94605046 33.29831365 -12.125 30.375 C-13.17256978 26.98977108 -13.17256978 26.98977108 -15.5625 26.0625 C-15.62308594 26.96613281 -15.68367187 27.86976562 -15.74609375 28.80078125 C-15.82988281 29.98027344 -15.91367188 31.15976563 -16 32.375 C-16.08121094 33.54675781 -16.16242188 34.71851563 -16.24609375 35.92578125 C-16.5625 39.0625 -16.5625 39.0625 -17.5625 42.0625 C-20.5325 41.7325 -23.5025 41.4025 -26.5625 41.0625 C-27.05480769 33.80096154 -27.05480769 33.80096154 -24.5625 30.0625 C-23.9025 29.4025 -23.2425 28.7425 -22.5625 28.0625 C-22.89765625 27.48371094 -23.2328125 26.90492187 -23.578125 26.30859375 C-25.19720614 22.61426178 -24.16670632 18.93163774 -23.5625 15.0625 C-23.39105469 13.91523437 -23.21960938 12.76796875 -23.04296875 11.5859375 C-22.56198084 8.40934107 -22.06760406 5.23533811 -21.5625 2.0625 C-17.9325 2.0625 -14.3025 2.0625 -10.5625 2.0625 C-9.31658309 7.20190726 -8.28961496 11.7412418 -8.5625 17.0625 C-7.9025 17.0625 -7.2425 17.0625 -6.5625 17.0625 C-6.42972656 15.91910156 -6.29695313 14.77570313 -6.16015625 13.59765625 C-5.9819969 12.1067438 -5.80359918 10.61585982 -5.625 9.125 C-5.53798828 8.37025391 -5.45097656 7.61550781 -5.36132812 6.83789062 C-4.54307223 0.07970302 -4.54307223 0.07970302 0 0 Z " fill="#FBEAA9" transform="translate(208.5625,53.9375)"/>
<path d="M0 0 C0.33 4.29 0.66 8.58 1 13 C3.98560076 10.01439924 6.01780635 7.69975383 8.25 4.25 C8.77078125 3.45078125 9.2915625 2.6515625 9.828125 1.828125 C10.21484375 1.22484375 10.6015625 0.6215625 11 0 C14.92300272 1.82504909 17.73787272 4.18270826 21 7 C19.57699887 11.68904588 16.84303666 14.51610475 13.375 17.8125 C12.6015625 18.56563477 12.6015625 18.56563477 11.8125 19.33398438 C10.54840846 20.56296227 9.27511194 21.78246001 8 23 C10.72104784 24.81403189 12.82731654 25.69396378 15.875 26.75 C20.88244194 28.6904746 22.83630993 30.75161619 26 35 C29.45603888 37.48125868 32.93958322 38.77243214 37 40 C37 42.31 37 44.62 37 47 C33.48746851 46.4169623 30.65557498 45.50753101 27.48828125 43.890625 C26.64716797 43.46523437 25.80605469 43.03984375 24.93945312 42.6015625 C24.07255859 42.15554687 23.20566406 41.70953125 22.3125 41.25 C21.46494141 40.81945312 20.61738281 40.38890625 19.74414062 39.9453125 C18.03487118 39.07702962 16.32669404 38.20659303 14.61962891 37.33398438 C10.42535054 35.19814682 6.21288722 33.09883505 2 31 C2.01160156 32.28777344 2.02320312 33.57554688 2.03515625 34.90234375 C2.0445327 36.58072772 2.05363305 38.25911326 2.0625 39.9375 C2.07087891 40.78763672 2.07925781 41.63777344 2.08789062 42.51367188 C2.09111328 43.32255859 2.09433594 44.13144531 2.09765625 44.96484375 C2.10289307 45.7137085 2.10812988 46.46257324 2.11352539 47.23413086 C2 49 2 49 1 50 C-1.33297433 50.04092937 -3.66705225 50.04241723 -6 50 C-6.1434745 46.4131376 -6.1869086 43.53736223 -5 40.125 C-3.52200838 35.50627617 -2.81848229 30.63034711 -4.86328125 26.078125 C-5.89740665 24.37839888 -6.94838328 22.68896018 -8 21 C-9.39514338 15.76821231 -9.09567758 10.37920597 -9 5 C-10.32 5 -11.64 5 -13 5 C-13 4.34 -13 3.68 -13 3 C-11.58603098 2.49242138 -10.16868271 1.99425075 -8.75 1.5 C-7.96109375 1.2215625 -7.1721875 0.943125 -6.359375 0.65625 C-4 0 -4 0 0 0 Z " fill="#FBEAA9" transform="translate(120,55)"/>
<path d="M0 0 C3.3 0 6.6 0 10 0 C10.33965474 2.18652739 10.67142477 4.37428025 11 6.5625 C11.185625 7.78066406 11.37125 8.99882812 11.5625 10.25390625 C11.98555077 13.87627848 12.07501425 17.35712046 12 21 C12.66 21 13.32 21 14 21 C14.99 18.03 15.98 15.06 17 12 C19.90092502 14.90092502 20.55461795 15.96517325 21.6875 19.6875 C21.93886719 20.49574219 22.19023438 21.30398438 22.44921875 22.13671875 C22.63097656 22.75160156 22.81273438 23.36648438 23 24 C23.66 24 24.32 24 25 24 C25.66 18.72 26.32 13.44 27 8 C30.3 8.33 33.6 8.66 37 9 C37.29744153 14.05650599 36.97908145 16.875118 34 21 C33.34 21.99 32.68 22.98 32 24 C32.66 24.66 33.32 25.32 34 26 C34.72639532 33.55451128 32.72706483 40.68053477 31 48 C27.7 48 24.4 48 21 48 C19.79534844 43.34201396 18.71452588 38.76350585 18 34 C17.67 34 17.34 34 17 34 C16.01 39.28 15.02 44.56 14 50 C11.69 50 9.38 50 7 50 C2.6545029 30.55073629 2.6545029 30.55073629 7.0546875 23.02734375 C8.87974023 19.11328437 8.78290147 15.18653246 8 11 C6.03695808 6.5719169 3.41279457 3.41279457 0 0 Z " fill="#FAE9A9" transform="translate(89,326)"/>
<path d="M0 0 C7.79424172 -0.26876696 15.33359646 0.55728395 23 2 C23.33 2.33 23.66 2.66 24 3 C25.68279043 3.2987027 27.37162045 3.56363602 29.0625 3.8125 C33.47496215 4.58185237 36.8133831 5.70325915 40.69921875 7.859375 C44.84255559 9.9134571 49.26025461 11.26879472 53.6328125 12.75390625 C60.94413862 15.45960582 65.10990911 18.22741553 69 25 C69.875 28.5 69.875 28.5 70 31 C67.7890625 31.703125 67.7890625 31.703125 65 32 C62.7109375 30.671875 62.7109375 30.671875 60.375 28.75 C55.85922595 25.34964918 51.9392568 23.79875986 46.4453125 22.60546875 C44 22 44 22 42.10449219 21.03125 C38.61624003 19.32192551 34.89929302 18.65699044 31.125 17.8125 C29.93970703 17.52729492 29.93970703 17.52729492 28.73046875 17.23632812 C24.07182248 16.18600105 20.74578536 16.09293093 16 17 C15.34 16.34 14.68 15.68 14 15 C12.8553125 15.2784375 12.8553125 15.2784375 11.6875 15.5625 C8.13073423 16.14150838 6.9067721 14.98884407 4 13 C3.01 12.67 2.02 12.34 1 12 C-0.26237731 9.47524538 -0.09856404 7.68799534 -0.0625 4.875 C-0.05347656 3.96492187 -0.04445312 3.05484375 -0.03515625 2.1171875 C-0.02355469 1.41851562 -0.01195312 0.71984375 0 0 Z " fill="#FCFCFC" transform="translate(153,184)"/>
<path d="M0 0 C1.65625 1.09375 1.65625 1.09375 3.96875 3.09375 C2.3070696 7.21792063 -0.65463018 10.15929039 -3.65625 13.34375 C-4.171875 13.89804688 -4.6875 14.45234375 -5.21875 15.0234375 C-6.48550035 16.3840212 -7.75782815 17.73940837 -9.03125 19.09375 C-4.01589948 18.76414784 -4.01589948 18.76414784 -0.03125 16.09375 C1.84375 16.15625 1.84375 16.15625 3.96875 17.09375 C6.21875 19.65625 6.21875 19.65625 7.96875 22.09375 C2.47848333 27.22980592 -3.73586556 29.203714 -11.15625 29.53125 C-15.91624305 29.34646766 -19.52546264 28.42285311 -23.03125 25.09375 C-25.51535337 21.62927349 -26.81071023 18.26996209 -27.59375 14.09375 C-26.62196576 8.91090071 -24.42390843 4.81032659 -20.08203125 1.6953125 C-14.05889763 -1.35410165 -6.36850932 -2.84133493 0 0 Z " fill="#FAEAA9" transform="translate(171.03125,59.90625)"/>
<path d="M0 0 C3.76746535 2.51164356 6.17522011 4.40066033 7.625 8.75 C8.03610876 12.97177069 8.10043683 16.62396541 6.4375 20.5625 C2.78665597 24.96869107 -1.40972306 28.39482755 -7.1796875 29.0859375 C-13.57301126 29.1672775 -17.51439488 29.07053789 -22.375 24.75 C-20.81682816 21.10015184 -18.56375601 18.5814046 -15.875 15.6875 C-13.46963269 13.09079665 -11.34095796 10.69893694 -9.375 7.75 C-9.98988281 7.95496094 -10.60476562 8.15992188 -11.23828125 8.37109375 C-14.6171875 9.49739583 -17.99609375 10.62369792 -21.375 11.75 C-24.0625 9.8125 -24.0625 9.8125 -26.375 7.75 C-24.99590338 4.34155912 -23.76936506 3.08262465 -20.4375 1.5625 C-19.74785156 1.23894531 -19.05820313 0.91539062 -18.34765625 0.58203125 C-12.30472567 -1.96676917 -6.17370795 -2.2865585 0 0 Z " fill="#FBEAA9" transform="translate(155.375,342.25)"/>
<path d="M0 0 C3.39388636 4.09262766 3.46617251 6.82516014 3.40625 12.0234375 C2.86422594 16.91671026 0.17354302 19.59461413 -3.3125 22.8125 C-8.65302614 26.45968858 -12.55271287 26.77681482 -18.875 26.5625 C-18.875 25.9025 -18.875 25.2425 -18.875 24.5625 C-19.473125 24.335625 -20.07125 24.10875 -20.6875 23.875 C-23.61127001 22.12073799 -24.51347463 20.69400836 -25.875 17.5625 C-26.65159441 11.64096761 -25.77353427 8.22204504 -22.3671875 3.32421875 C-19.56836814 0.01985348 -16.51603332 -1.89048889 -12.4375 -3.25 C-7.30148887 -3.62580569 -4.009727 -3.39955115 0 0 Z " fill="#FBEBA9" transform="translate(221.875,328.4375)"/>
<path d="M0 0 C3.52006403 1.86778908 4.60969495 3.2193899 6.375 6.75 C7.41907627 12.17919662 6.87273596 16.21961865 4.4375 21.1875 C0.95490775 25.20587568 -2.78171269 28.30692315 -8.0859375 29.44921875 C-13.16133923 29.73118551 -16.22518759 28.2480944 -20 25 C-22.3294429 22.12702042 -22.95186952 20.36441652 -23.4375 16.6875 C-22.79764968 11.29447589 -21.28144143 7.22239236 -17.33984375 3.3828125 C-11.96477644 -0.52432061 -6.47908575 -1.08661783 0 0 Z " fill="#FBEAA9" transform="translate(105,76)"/>
<path d="M0 0 C3.055293 1.29835063 3.82945811 2.25826288 6 5 C7.41009845 9.77866697 7.4686325 12.64530496 5.4375 17.1875 C2.73160899 21.96039108 -0.71645552 25.23881851 -6 27 C-14.835 27.57 -14.835 27.57 -19 24 C-22.22557511 19.2172507 -22.28792938 15.56663461 -22 10 C-21.34 10 -20.68 10 -20 10 C-19.814375 9.278125 -19.62875 8.55625 -19.4375 7.8125 C-15.44036168 -0.00798801 -8.24789372 -1.51314742 0 0 Z " fill="#FBEBA9" transform="translate(86,331)"/>
<path d="M0 0 C3.66195861 1.59215592 6.20204902 3.40409804 8 7 C8.88216716 11.90523718 8.42184073 15.93518651 6 20.3125 C3.08896702 24.40102947 -0.13360834 26.72671473 -5 28 C-9.1750858 28.4670435 -12.43414763 28.11892531 -15.90234375 25.640625 C-18.78009493 22.68839085 -20.37699148 20.09764295 -20.625 15.9375 C-19.59412656 9.44299732 -15.97701363 5.21785955 -10.99609375 1.13671875 C-7.40886323 -0.90610724 -3.97461787 -0.75457971 0 0 Z " fill="#FBEAA9" transform="translate(235,72)"/>
<path d="M0 0 C3.125 2.4375 3.125 2.4375 5 5 C5.33 5.33 5.66 5.66 6 6 C6.57396742 10.99633936 6.55260648 14.91452299 4.25 19.4375 C0.22489336 24.02164923 -2.69838914 25.81438622 -8.875 26.3125 C-12.0362121 26.26601159 -13.02416887 25.98581393 -15.875 24.3125 C-18.7044743 21.2333662 -19.89488835 19.14670325 -20.1015625 14.92578125 C-19.85673895 9.37958629 -18.25183786 6.32381807 -14.47265625 2.3125 C-10.49459521 -1.23293371 -5.01441156 -0.67292969 0 0 Z " fill="#E2EEF4" transform="translate(133,178)"/>
<path d="M0 0 C1.90392164 0.83844926 3.78067254 1.74013927 5.6328125 2.6875 C6.68597656 3.22117187 7.73914063 3.75484375 8.82421875 4.3046875 C9.91347656 4.86414063 11.00273437 5.42359375 12.125 6 C14.29340702 7.1058621 16.46264038 8.21010582 18.6328125 9.3125 C19.59074707 9.80363281 20.54868164 10.29476563 21.53564453 10.80078125 C24.04057741 12.08617299 24.04057741 12.08617299 27 13 C27 9.7 27 6.4 27 3 C27.33 3 27.66 3 28 3 C28 7.95 28 12.9 28 18 C23.39574269 16.46524756 19.40061214 14.84985546 15.0703125 12.7421875 C14.43511688 12.43427277 13.79992126 12.12635803 13.14547729 11.80911255 C11.13696251 10.83450633 9.13096259 9.85484669 7.125 8.875 C5.75537199 8.20929859 4.38558185 7.54393067 3.015625 6.87890625 C-0.32512247 5.25706637 -3.66241444 3.62840162 -7 2 C-7 7.28 -7 12.56 -7 18 C-19.75 22 -19.75 22 -22 22 C-21.67 19.03 -21.34 16.06 -21 13 C-21.86882812 12.93941406 -22.73765625 12.87882812 -23.6328125 12.81640625 C-24.78523438 12.73261719 -25.93765625 12.64882813 -27.125 12.5625 C-28.26195313 12.48128906 -29.39890625 12.40007812 -30.5703125 12.31640625 C-33.7540478 12.02269035 -36.85510907 11.56875687 -40 11 C-40 12.65 -40 14.3 -40 16 C-40.66 16 -41.32 16 -42 16 C-42.99 14.02 -43.98 12.04 -45 10 C-46.32 10.99 -47.64 11.98 -49 13 C-49 11.02 -49 9.04 -49 7 C-46.36 6.67 -43.72 6.34 -41 6 C-40.67 6.99 -40.34 7.98 -40 9 C-39.01902344 8.80535156 -38.03804687 8.61070312 -37.02734375 8.41015625 C-32.6594577 7.78617253 -28.83835574 8.51817146 -24.5625 9.4375 C-23.83095703 9.58509766 -23.09941406 9.73269531 -22.34570312 9.88476562 C-20.56168879 10.24623258 -18.78051398 10.6216675 -17 11 C-17 13.31 -17 15.62 -17 18 C-16.236875 17.67 -15.47375 17.34 -14.6875 17 C-12 16 -12 16 -9 16 C-9 11.05 -9 6.1 -9 1 C-4.73443079 -1.1327846 -4.26439751 -1.29956494 0 0 Z " fill="#B1B7C5" transform="translate(153,318)"/>
<path d="M0 0 C-0.33 2.64 -0.66 5.28 -1 8 C-0.20335937 8.06058594 0.59328125 8.12117188 1.4140625 8.18359375 C11.93848858 9.01581722 11.93848858 9.01581722 17 10 C17.33 8.35 17.66 6.7 18 5 C19.5 6.375 19.5 6.375 21 8 C21 8.66 21 9.32 21 10 C13.30930454 14.36971333 5.58477032 12.980481 -2.75 10.9375 C-3.8225 10.628125 -4.895 10.31875 -6 10 C-6 7.69 -6 5.38 -6 3 C-8.31 3.99 -10.62 4.98 -13 6 C-13.33 10.95 -13.66 15.9 -14 21 C-20.26700728 22.27686822 -23.72356157 21.80509236 -29.25 18.4375 C-30.54733247 17.69513662 -31.84552337 16.95427155 -33.14453125 16.21484375 C-33.78600098 15.84214355 -34.4274707 15.46944336 -35.08837891 15.08544922 C-37.98460035 13.44092808 -40.95075672 11.9739313 -43.9375 10.5 C-44.91589844 10.0153125 -45.89429688 9.530625 -46.90234375 9.03125 C-47.59457031 8.6909375 -48.28679687 8.350625 -49 8 C-49 11.3 -49 14.6 -49 18 C-49.33 18 -49.66 18 -50 18 C-50 13.05 -50 8.1 -50 3 C-45.41587617 4.52804128 -41.55958289 6.10296276 -37.2890625 8.2578125 C-36.67606293 8.56572723 -36.06306335 8.87364197 -35.43148804 9.19088745 C-33.49406342 10.16515063 -31.5595124 11.14496917 -29.625 12.125 C-28.30357212 12.7907353 -26.98195924 13.45610353 -25.66015625 14.12109375 C-22.43758453 15.74248806 -19.21896696 17.37138131 -16 19 C-15.67 13.72 -15.34 8.44 -15 3 C-12.89625 2.319375 -10.7925 1.63875 -8.625 0.9375 C-7.44164062 0.55464844 -6.25828125 0.17179687 -5.0390625 -0.22265625 C-2 -1 -2 -1 0 0 Z " fill="#B1B7C5" transform="translate(177,91)"/>
<path d="M0 0 C2.00720923 0.28674418 4.0085944 0.61866701 6 1 C6.33 2.98 6.66 4.96 7 7 C7.66 7 8.32 7 9 7 C10 10 10 10 9.171875 12.33984375 C6.3454182 17.50356291 4.24437081 20.42357127 -1.4375 22.375 C-2.38109375 22.64570313 -3.3246875 22.91640625 -4.296875 23.1953125 C-7.93645369 24.2787709 -10.78865309 26.00182859 -14 28 C-12.88681603 17.42475227 -7.49322156 7.49322156 0 0 Z " fill="#EDC8BA" transform="translate(106,161)"/>
<path d="M0 0 C3.1875 1.75 3.1875 1.75 5 5 C5.38842946 9.03651691 5.28998615 12.95952637 5 17 C-0.32677123 16.54857871 -3.46795837 15.93970268 -8 13 C-10.69254991 12.29329272 -10.69254991 12.29329272 -13 12 C-13 11.34 -13 10.68 -13 10 C-14.32 9.67 -15.64 9.34 -17 9 C-17 8.34 -17 7.68 -17 7 C-17.99 6.67 -18.98 6.34 -20 6 C-19.38125 5.9175 -18.7625 5.835 -18.125 5.75 C-15.82027141 5.20605562 -15.82027141 5.20605562 -14.9375 3 C-14.628125 2.34 -14.31875 1.68 -14 1 C-9.34777087 -0.55074304 -4.85362078 -0.58101738 0 0 Z " fill="#D8D7D6" transform="translate(146,163)"/>
<path d="M0 0 C0.75667969 0.0928125 1.51335937 0.185625 2.29296875 0.28125 C1.18640144 3.39975786 -0.20110755 6.22727804 -1.83203125 9.09375 C-5.37349162 15.35698554 -8.51601081 21.8201374 -11.70751953 28.26611328 C-13.36548237 31.60876723 -15.03688199 34.9446712 -16.70703125 38.28125 C-18.02703125 37.62125 -19.34703125 36.96125 -20.70703125 36.28125 C-18.29312331 27.83257221 -9.32382628 0.96870922 0 0 Z " fill="#D6DCE5" transform="translate(97.70703125,16.71875)"/>
<path d="M0 0 C2.9375 1.5 2.9375 1.5 5 4 C5.67155698 8.70089885 5.70912638 10.79185876 3.3125 14.875 C0.93441522 17.0602671 -0.93132365 18.06234889 -4 19 C-6.65034316 13.09696295 -9 7.57457099 -9 1 C-5.89951072 -0.55024464 -3.42105782 -0.28992015 0 0 Z " fill="#BBC2D1" transform="translate(70,68)"/>
<path d="M0 0 C0.99 0.33 1.98 0.66 3 1 C4.16796875 3.80078125 4.16796875 3.80078125 5.1875 7.3125 C5.53167969 8.46363281 5.87585938 9.61476563 6.23046875 10.80078125 C7 14 7 14 7 18 C2.49073517 18.90381779 -0.80833021 19.55935521 -5.0625 17.5625 C-7.24441826 14.67673714 -7.71637317 12.6526452 -7.5 9.03515625 C-6.61395072 5.42865881 -4.63387943 3.57116802 -2 1 C-1.34 0.67 -0.68 0.34 0 0 Z " fill="#BAC1D1" transform="translate(240,343)"/>
<path d="M0 0 C17.00347735 6.76111197 17.00347735 6.76111197 21 10 C22.0625 13.3125 22.0625 13.3125 22 16 C22.66 16 23.32 16 24 16 C24.556875 16.598125 25.11375 17.19625 25.6875 17.8125 C27.97341327 20.22714201 27.97341327 20.22714201 31.5 21.5 C34.88984396 22.95279027 36.6246227 24.24456233 39 27 C34.59780431 26.33300065 30.99144754 24.91896516 27 23 C26.67 22.34 26.34 21.68 26 21 C23.88672575 20.09274566 23.88672575 20.09274566 21.4375 19.375 C20.19806641 18.98441406 20.19806641 18.98441406 18.93359375 18.5859375 C18.29550781 18.39257812 17.65742187 18.19921875 17 18 C17 17.34 17 16.68 17 16 C16.34 16 15.68 16 15 16 C15 15.34 15 14.68 15 14 C14.34 14 13.68 14 13 14 C13 13.34 13 12.68 13 12 C12.113125 11.773125 11.22625 11.54625 10.3125 11.3125 C6.51670371 9.80850525 4.5925379 8.12629571 2 5 C2 4.01 2 3.02 2 2 C1.34 2 0.68 2 0 2 C0 1.34 0 0.68 0 0 Z " fill="#D2D9E3" transform="translate(78,260)"/>
<path d="M0 0 C0.99 0.495 0.99 0.495 2 1 C1.67 1.66 1.34 2.32 1 3 C1.66386719 2.7834375 2.32773438 2.566875 3.01171875 2.34375 C3.89472656 2.0653125 4.77773437 1.786875 5.6875 1.5 C6.55761719 1.2215625 7.42773438 0.943125 8.32421875 0.65625 C10.99391677 0.00149195 13.26396684 -0.11831495 16 0 C15.67 0.66 15.34 1.32 15 2 C14.7724985 3.87056791 14.59037189 5.74685958 14.4375 7.625 C14.35371094 8.62789062 14.26992187 9.63078125 14.18359375 10.6640625 C14.12300781 11.43492188 14.06242188 12.20578125 14 13 C10 14.33333333 6 15.66666667 2 17 C1.34 11.39 0.68 5.78 0 0 Z " fill="#D3DBE6" transform="translate(218,53)"/>
<path d="M0 0 C1.84904262 0.50848672 3.68072387 1.08107462 5.5 1.6875 C6.6875 4.75 6.6875 4.75 7.5 7.6875 C8.16 7.6875 8.82 7.6875 9.5 7.6875 C8.88461538 13.22596154 8.88461538 13.22596154 6.9375 15.5625 C6.2259375 16.119375 6.2259375 16.119375 5.5 16.6875 C3.82700041 16.03688905 2.16140763 15.36716676 0.5 14.6875 C-0.221875 14.419375 -0.94375 14.15125 -1.6875 13.875 C-4.16231647 12.25356852 -4.5206889 10.41558093 -5.5 7.6875 C-6.16 7.3575 -6.82 7.0275 -7.5 6.6875 C-4.99842271 -0.62480284 -4.99842271 -0.62480284 0 0 Z " fill="#FEE3D6" transform="translate(183.5,153.3125)"/>
<path d="M0 0 C0.99 0.66 1.98 1.32 3 2 C1.70903235 13.07253022 -6.01760034 22.86188452 -12 32 C-12.391875 32.65355469 -12.78375 33.30710937 -13.1875 33.98046875 C-15.54719557 37.86106186 -15.54719557 37.86106186 -18.11328125 38.6484375 C-18.73589844 38.76445312 -19.35851562 38.88046875 -20 39 C-17.81413958 34.53720163 -15.53923501 30.14391631 -13.16064453 25.78027344 C-9.42321218 18.90452565 -6.16144754 11.98570131 -3.2265625 4.73046875 C-2 2 -2 2 0 0 Z " fill="#D4DCE7" transform="translate(223,371)"/>
<path d="M0 0 C-0.201578 1.94056433 -0.43731739 3.87760148 -0.6875 5.8125 C-0.81511719 6.89144531 -0.94273438 7.97039062 -1.07421875 9.08203125 C-2 12 -2 12 -4.31640625 13.87109375 C-8.19229674 15.50156297 -10.82432405 15.2783784 -15 15 C-16 14 -16 14 -16.0625 10.875 C-15.34409299 6.36862875 -12.64851166 4.09234337 -9.2109375 1.3125 C-5.88612167 -0.66124226 -3.77371683 -0.5503337 0 0 Z " fill="#FBFBFB" transform="translate(109,185)"/>
<path d="M0 0 C18.43338089 2.05891902 36.54382069 4.89342258 53 14 C53.495 14.99 53.495 14.99 54 16 C54.99 16.33 55.98 16.66 57 17 C57.495 18.485 57.495 18.485 58 20 C57.3296875 19.72027344 56.659375 19.44054687 55.96875 19.15234375 C51.88169046 17.56591932 47.7088029 16.25575794 43.52734375 14.94335938 C40.60763929 13.99666732 38.02220392 13.01351543 35.39453125 11.4140625 C32.63261275 9.78304374 30.34448617 9.30696771 27.1875 8.8125 C26.21167969 8.65394531 25.23585937 8.49539062 24.23046875 8.33203125 C23.49441406 8.22246094 22.75835937 8.11289063 22 8 C21.67 7.01 21.34 6.02 21 5 C13.2472493 3.48462814 5.89957062 2.72009395 -2 3 C-1.34 2.01 -0.68 1.02 0 0 Z " fill="#D3D1D1" transform="translate(155,180)"/>
<path d="M0 0 C0.99 0.66 1.98 1.32 3 2 C1.6145759 6.23909658 -0.32712012 8.70658025 -3.5 11.8125 C-4.2940625 12.60269531 -5.088125 13.39289063 -5.90625 14.20703125 C-8 16 -8 16 -10 16 C-12.45661059 12.99747595 -13 11.35029252 -13 7.4375 C-12 4 -12 4 -9.875 1.5625 C-6.29621811 -0.38249016 -4.02035732 -0.44670637 0 0 Z " fill="#B9C4D1" transform="translate(164,64)"/>
<path d="M0 0 C3.875 1.75 3.875 1.75 5 4 C5.49055907 8.33327174 5.47744439 10.32000344 2.9375 13.9375 C-0.70247412 16.49322651 -2.63746537 16.56551375 -7 16 C-7.99 15.34 -8.98 14.68 -10 14 C-9.46823005 9.86186295 -7.22067834 7.72917682 -4.4375 4.75 C-3.61121094 3.85796875 -2.78492188 2.9659375 -1.93359375 2.046875 C-1.29550781 1.37140625 -0.65742188 0.6959375 0 0 Z " fill="#B9C4D2" transform="translate(151,350)"/>
<path d="M0 0 C0.66 0 1.32 0 2 0 C2.01981934 0.77190674 2.03963867 1.54381348 2.06005859 2.33911133 C2.15521143 5.83058958 2.26493047 9.32146152 2.375 12.8125 C2.4059375 14.02744141 2.436875 15.24238281 2.46875 16.49414062 C2.50742188 17.65751953 2.54609375 18.82089844 2.5859375 20.01953125 C2.6173584 21.09307861 2.6487793 22.16662598 2.68115234 23.27270508 C2.81592307 26.2160765 2.81592307 26.2160765 5 29 C4.071875 30.299375 4.071875 30.299375 3.125 31.625 C1.15345216 34.75628186 0.01033009 37.46384469 -1 41 C-1.33 41 -1.66 41 -2 41 C-2.0493521 35.48243524 -2.08569662 29.96499829 -2.10986328 24.44726562 C-2.11993534 22.56931318 -2.13359362 20.69137647 -2.15087891 18.81347656 C-2.17507453 16.1177991 -2.18647083 13.42232854 -2.1953125 10.7265625 C-2.20563507 9.88380768 -2.21595764 9.04105286 -2.22659302 8.17276001 C-2.22699144 6.11378753 -2.12257588 4.05532065 -2 2 C-1.34 1.34 -0.68 0.68 0 0 Z " fill="#DBE1E9" transform="translate(62,125)"/>
<path d="M0 0 C1.54300781 -0.03867187 1.54300781 -0.03867187 3.1171875 -0.078125 C6.4998189 0.29088933 8.36435854 1.31449492 11.125 3.25 C11.785 2.26 12.445 1.27 13.125 0.25 C13.79786212 2.66509441 14.46346012 5.08180356 15.125 7.5 C15.31578125 8.18191406 15.5065625 8.86382812 15.703125 9.56640625 C16.62457044 12.95600912 17.125 15.70778976 17.125 19.25 C15.145 20.24 15.145 20.24 13.125 21.25 C13.00382812 20.65832031 12.88265625 20.06664062 12.7578125 19.45703125 C11.52806667 13.15231894 11.52806667 13.15231894 9.125 7.25 C4.56692435 4.30930603 0.25595903 4.1387068 -5.0625 4.1875 C-6.33480469 4.19652344 -7.60710937 4.20554687 -8.91796875 4.21484375 C-9.89378906 4.22644531 -10.86960938 4.23804688 -11.875 4.25 C-8.30939167 0.34480992 -5.15171002 0.07708294 0 0 Z " fill="#AFB6C3" transform="translate(216.875,317.75)"/>
<path d="M0 0 C2.97 0.495 2.97 0.495 6 1 C7.47262774 8.24041971 7.47262774 8.24041971 5.25 11.8125 C4.5075 12.534375 3.765 13.25625 3 14 C2.484375 14.598125 1.96875 15.19625 1.4375 15.8125 C0 17 0 17 -3 17 C-3.33 15.68 -3.66 14.36 -4 13 C-4.66 13.66 -5.32 14.32 -6 15 C-6.33 14.34 -6.66 13.68 -7 13 C-7.99 13.495 -7.99 13.495 -9 14 C-7.65070536 10.16336928 -5.92248975 7.34827431 -3.375 4.1875 C-2.42753906 3.00220703 -2.42753906 3.00220703 -1.4609375 1.79296875 C-0.97882813 1.20128906 -0.49671875 0.60960937 0 0 Z " fill="#F1D3C7" transform="translate(106,161)"/>
<path d="M0 0 C0.09796875 0.66386719 0.1959375 1.32773438 0.296875 2.01171875 C1.49716292 9.31702884 1.49716292 9.31702884 6 15 C12.18754439 18.73007995 18.08035136 18.05575522 25 17 C21.30990099 20.8592726 18.44895845 21.8850033 13.0625 22.3125 C8.14371671 22.19162253 4.4853957 20.4853957 1 17 C0.34 17.66 -0.32 18.32 -1 19 C-1.50744423 17.10614563 -2.00564574 15.20981334 -2.5 13.3125 C-2.7784375 12.25675781 -3.056875 11.20101562 -3.34375 10.11328125 C-3.94997664 7.23731322 -4.36754754 4.91485621 -4 2 C-1 0 -1 0 0 0 Z " fill="#AFB5C3" transform="translate(78,91)"/>
<path d="M0 0 C1.90625 0.41796875 1.90625 0.41796875 4.40625 2.04296875 C6.37567769 5.16122926 6.58552401 6.79517402 5.90625 10.41796875 C3.59375 12.85546875 3.59375 12.85546875 0.90625 14.41796875 C-0.08375 14.08796875 -1.07375 13.75796875 -2.09375 13.41796875 C-1.43375 12.75796875 -0.77375 12.09796875 -0.09375 11.41796875 C-0.4122677 9.30976078 -0.4122677 9.30976078 -1.09375 7.41796875 C-4.01009129 7.16775305 -4.01009129 7.16775305 -7.09375 7.41796875 C-7.75375 8.40796875 -8.41375 9.39796875 -9.09375 10.41796875 C-9.84375 8.23046875 -9.84375 8.23046875 -10.09375 5.41796875 C-7.62893938 0.59551318 -5.1388211 -0.35473205 0 0 Z " fill="#BECCDE" transform="translate(211.09375,337.58203125)"/>
<path d="M0 0 C1.16898166 3.63683183 1.02874952 6.93834538 0.87890625 10.734375 C0.83056641 12.02988281 0.78222656 13.32539063 0.73242188 14.66015625 C0.67590496 16.02344263 0.61926274 17.38672383 0.5625 18.75 C0.50924178 20.12888612 0.45650166 21.50779235 0.40429688 22.88671875 C0.27463047 26.25804533 0.13966346 29.62907518 0 33 C-1.65 33 -3.3 33 -5 33 C-4.83628906 32.34644531 -4.67257813 31.69289063 -4.50390625 31.01953125 C-3.87151437 27.23008226 -3.89303291 23.51509049 -3.9375 19.6875 C-3.94201172 18.94693359 -3.94652344 18.20636719 -3.95117188 17.44335938 C-3.96287825 15.62887101 -3.98081102 13.81442466 -4 12 C-4.99 12.66 -5.98 13.32 -7 14 C-7 12.35 -7 10.7 -7 9 C-6.34 9 -5.68 9 -5 9 C-4.5978125 8.1646875 -4.5978125 8.1646875 -4.1875 7.3125 C-2.89877353 4.80287477 -1.47073522 2.40665764 0 0 Z " fill="#D7DDE7" transform="translate(243,273)"/>
<path d="M0 0 C0.99 0.33 1.98 0.66 3 1 C3 2.65 3 4.3 3 6 C6.47147842 6.74957157 6.47147842 6.74957157 10 7 C10.33 6.01 10.66 5.02 11 4 C11.33 4 11.66 4 12 4 C12.35659503 7.20935531 12.29619066 8.58988985 10.375 11.25 C7.4257533 13.42312914 5.66726666 14 2 14 C-1.48839703 12.06200165 -2.72696568 10.77092042 -4.0625 7 C-4 4 -4 4 -2.0625 1.625 C-1.381875 1.08875 -0.70125 0.5525 0 0 Z " fill="#BDCCDE" transform="translate(226,75)"/>
<path d="M0 0 C0.99 0.33 1.98 0.66 3 1 C2.01 1.495 2.01 1.495 1 2 C1 3.65 1 5.3 1 7 C4.41642759 7.25015873 4.41642759 7.25015873 8 7 C8.66 6.01 9.32 5.02 10 4 C10.31785906 7.49644963 10.39644605 9.397402 8.4375 12.375 C5.06489221 14.62340519 2.97487617 14.56783945 -1 14 C-3.4375 12.375 -3.4375 12.375 -5 10 C-5.5625 7 -5.5625 7 -5 4 C-2.6875 1.5625 -2.6875 1.5625 0 0 Z " fill="#BBCBE0" transform="translate(96,78)"/>
<path d="M0 0 C3.02245069 0.08792584 4.0062956 0.29784214 6.625 2 C8.59442769 5.11826051 8.80427401 6.75220527 8.125 10.375 C5.8125 12.8125 5.8125 12.8125 3.125 14.375 C2.135 14.045 1.145 13.715 0.125 13.375 C0.785 12.715 1.445 12.055 2.125 11.375 C2.125 10.055 2.125 8.735 2.125 7.375 C-0.1765411 6.59697813 -0.1765411 6.59697813 -2.875 6.375 C-5.18004044 7.70653266 -5.18004044 7.70653266 -6.875 9.375 C-5.89673913 0.57065217 -5.89673913 0.57065217 0 0 Z " fill="#BBCBE0" transform="translate(76.875,341.625)"/>
<path d="M0 0 C0.33 1.32 0.66 2.64 1 4 C0.34773438 4.06316406 -0.30453125 4.12632812 -0.9765625 4.19140625 C-6.79311192 5.00640949 -10.42626482 6.15724604 -14.03515625 10.92578125 C-15.47357728 14.01809529 -15.22774078 16.66358935 -14.72265625 19.984375 C-14.81417969 20.64953125 -14.90570313 21.3146875 -15 22 C-17.49609375 23.765625 -17.49609375 23.765625 -20 25 C-20.61158301 14.5011583 -20.61158301 14.5011583 -18.625 9.625 C-13.77972323 4.77972323 -7.05895931 0 0 0 Z " fill="#C6C4C3" transform="translate(109,181)"/>
<path d="M0 0 C2.89683868 2.2015974 4.39297231 3.78594462 6 7 C6.039992 8.99960012 6.04346799 11.00047242 6 13 C4.948125 12.236875 3.89625 11.47375 2.8125 10.6875 C1.54266537 9.79025158 0.27188669 8.89433717 -1 8 C-2.175625 7.1646875 -2.175625 7.1646875 -3.375 6.3125 C-7.09168464 4.45415768 -10.93348762 3.75305785 -15 3 C-12.6263653 -1.74726941 -4.56395732 -0.6138656 0 0 Z " fill="#FCFCFC" transform="translate(144,166)"/>
<path d="M0 0 C3.3 0.33 6.6 0.66 10 1 C9.67 1.66 9.34 2.32 9 3 C9.33 3.66 9.66 4.32 10 5 C10.07033769 6.87379605 10.0843022 8.75001102 10.0625 10.625 C10.05347656 11.62789063 10.04445312 12.63078125 10.03515625 13.6640625 C10.02355469 14.43492187 10.01195312 15.20578125 10 16 C8.35 16.66 6.7 17.32 5 18 C5 13.71 5 9.42 5 5 C3.35 5.33 1.7 5.66 0 6 C0 4.02 0 2.04 0 0 Z " fill="#AEC3D6" transform="translate(201,358)"/>
<path d="M0 0 C0.66 0 1.32 0 2 0 C2 2.31 2 4.62 2 7 C2.99 7.04125 3.98 7.0825 5 7.125 C9.9280718 7.80750282 13.42133964 10.69282422 17 14 C17.99 15.485 17.99 15.485 19 17 C22.09407834 18.46078606 22.09407834 18.46078606 25.625 19.6875 C26.81351563 20.12449219 28.00203125 20.56148438 29.2265625 21.01171875 C30.14179688 21.33785156 31.05703125 21.66398437 32 22 C31.34 22.99 30.68 23.98 30 25 C24.65407113 22.76658972 19.59771791 20.56323138 15 17 C14.67 16.01 14.34 15.02 14 14 C11.117472 12.19517391 8.00091367 11.31605396 4.75 10.375 C3.85796875 10.11460937 2.9659375 9.85421875 2.046875 9.5859375 C1.37140625 9.39257812 0.6959375 9.19921875 0 9 C0 6.03 0 3.06 0 0 Z " fill="#E8DBA9" transform="translate(150,327)"/>
<path d="M0 0 C0 4.29 0 8.58 0 13 C1.32 12.67 2.64 12.34 4 12 C4.33 13.98 4.66 15.96 5 18 C1.7 17.67 -1.6 17.34 -5 17 C-4.67 16.34 -4.34 15.68 -4 15 C-4.29546665 11.93508475 -4.71062328 8.89701771 -5.13671875 5.84765625 C-5 3 -5 3 -3.08203125 1.12109375 C-1 0 -1 0 0 0 Z " fill="#ADC0D2" transform="translate(102,54)"/>
<path d="M0 0 C3.72433382 1.2125738 7.37802806 2.50859979 11 4 C11 4.66 11 5.32 11 6 C11.5775 6.20625 12.155 6.4125 12.75 6.625 C15.98462874 8.60171756 17.25888793 10.64214101 19 14 C19.40952176 19.15997423 18.84827786 23.91033281 18 29 C14.125 24.25 14.125 24.25 13 22 C13.99 22 14.98 22 16 22 C15.75451137 15.12631837 13.90155042 10.90155042 9 6 C6.32852264 4.45548805 6.32852264 4.45548805 4 4 C4 3.34 4 2.68 4 2 C2.68 1.67 1.36 1.34 0 1 C0 0.67 0 0.34 0 0 Z " fill="#CFCCCB" transform="translate(208,195)"/>
<path d="M0 0 C6.93 0.495 6.93 0.495 14 1 C14 1.33 14 1.66 14 2 C12.02 2 10.04 2 8 2 C8.08701172 3.24716797 8.08701172 3.24716797 8.17578125 4.51953125 C8.22089844 5.60621094 8.26601562 6.69289063 8.3125 7.8125 C8.39951172 9.43091797 8.39951172 9.43091797 8.48828125 11.08203125 C8.32714844 12.04496094 8.16601562 13.00789063 8 14 C5.525 15.485 5.525 15.485 3 17 C3 12.38 3 7.76 3 3 C2.01 2.67 1.02 2.34 0 2 C0 1.34 0 0.68 0 0 Z " fill="#AFBCCD" transform="translate(68,361)"/>
<path d="M0 0 C3.3 0 6.6 0 10 0 C10.66 5.94 11.32 11.88 12 18 C11.01 18.66 10.02 19.32 9 20 C8.98582031 19.443125 8.97164062 18.88625 8.95703125 18.3125 C8.46496282 10.43940518 5.52284571 5.52284571 0 0 Z " fill="#EFE1A9" transform="translate(89,326)"/>
<path d="M0 0 C0.33 0 0.66 0 1 0 C1.12117187 0.66386719 1.24234375 1.32773438 1.3671875 2.01171875 C2.62648275 10.79483544 2.62648275 10.79483544 8.125 17.1875 C9.07375 17.785625 10.0225 18.38375 11 19 C11 19.66 11 20.32 11 21 C9.54119891 20.85892253 8.08296449 20.71197585 6.625 20.5625 C5.40683594 20.44068359 5.40683594 20.44068359 4.1640625 20.31640625 C2 20 2 20 0 19 C-0.703125 16.26953125 -0.703125 16.26953125 -1.25 12.8125 C-1.44078125 11.68457031 -1.6315625 10.55664062 -1.828125 9.39453125 C-2.01291139 5.74499996 -1.36645012 3.36003967 0 0 Z " fill="#EADDA9" transform="translate(209,84)"/>
<path d="M0 0 C1.87803953 2.81705929 2.40631756 4.17690401 3.03515625 7.37890625 C3.20466797 8.21744141 3.37417969 9.05597656 3.54882812 9.91992188 C3.71833984 10.79197266 3.88785156 11.66402344 4.0625 12.5625 C4.40512389 14.29345116 4.75006599 16.02394554 5.09765625 17.75390625 C5.24726807 18.52033447 5.39687988 19.2867627 5.55102539 20.07641602 C5.93747913 22.06846521 5.93747913 22.06846521 7 24 C9.58605332 24.4683265 9.58605332 24.4683265 12.5625 24.625 C13.57441406 24.69976562 14.58632813 24.77453125 15.62890625 24.8515625 C16.80259766 24.92503906 16.80259766 24.92503906 18 25 C18.33 26.32 18.66 27.64 19 29 C17.24970238 28.68917128 15.49977306 28.37626821 13.75 28.0625 C12.28820312 27.80146484 12.28820312 27.80146484 10.796875 27.53515625 C8.50145973 27.0959497 6.26250202 26.57833619 4 26 C3.32492934 22.93929066 2.66145078 19.8761791 2 16.8125 C1.80921875 15.94818359 1.6184375 15.08386719 1.421875 14.19335938 C1.24140625 13.35224609 1.0609375 12.51113281 0.875 11.64453125 C0.70742188 10.87471924 0.53984375 10.10490723 0.3671875 9.31176758 C-0.02550915 6.83939753 -0.06185285 4.49924191 0 2 C-0.66 1.67 -1.32 1.34 -2 1 C-1.34 0.67 -0.68 0.34 0 0 Z " fill="#EADDA9" transform="translate(48,342)"/>
<path d="M0 0 C14.59489403 4.46339114 14.59489403 4.46339114 19 11 C22.45603888 13.48125868 25.93958322 14.77243214 30 16 C30 18.31 30 20.62 30 23 C29.67 23 29.34 23 29 23 C29 21.02 29 19.04 29 17 C27.96875 16.9175 26.9375 16.835 25.875 16.75 C20.62276046 15.73343751 16.41329907 13.17180998 13 9 C13 8.34 13 7.68 13 7 C12.40832031 6.80664062 11.81664062 6.61328125 11.20703125 6.4140625 C7.0853355 5.05585281 3.0049476 3.67949415 -1 2 C-0.67 1.34 -0.34 0.68 0 0 Z " fill="#E9DCAA" transform="translate(127,79)"/>
<path d="M0 0 C1.5627962 0.14262412 3.12522696 0.28925511 4.6875 0.4375 C5.99267578 0.55931641 5.99267578 0.55931641 7.32421875 0.68359375 C9.92289271 0.9908822 12.44244733 1.45162384 15 2 C15.67301289 5.24871916 16.3372951 8.49916379 17 11.75 C17.19078125 12.67039062 17.3815625 13.59078125 17.578125 14.5390625 C17.84882813 15.87324219 17.84882813 15.87324219 18.125 17.234375 C18.29257812 18.05131836 18.46015625 18.86826172 18.6328125 19.70996094 C19 22 19 22 19 26 C19.66 26.33 20.32 26.66 21 27 C20.01 27.33 19.02 27.66 18 28 C15.88333977 20.04135755 14.25963438 12.13917599 13 4 C8.71 3.67 4.42 3.34 0 3 C0 2.01 0 1.02 0 0 Z " fill="#E8DCA9" transform="translate(241,60)"/>
<path d="M0 0 C0.33 0 0.66 0 1 0 C1.08636719 0.58007812 1.17273438 1.16015625 1.26171875 1.7578125 C2.27805122 7.40824806 3.53331403 11.09164977 8 15 C15.56425998 18.78930671 23.74678753 18.3210904 32 18 C32 18.33 32 18.66 32 19 C28.1413258 19.89820163 24.52163233 20.16418356 20.5625 20.1875 C19.47066406 20.20167969 18.37882812 20.21585937 17.25390625 20.23046875 C12.01090573 19.85911577 8.09792069 18.5308539 4.1875 15 C3.60355469 14.484375 3.01960937 13.96875 2.41796875 13.4375 C0.47769063 11.47049628 0.01610237 10.39289787 -0.09765625 7.6171875 C-0.08605469 6.71226562 -0.07445312 5.80734375 -0.0625 4.875 C-0.05347656 3.96492188 -0.04445312 3.05484375 -0.03515625 2.1171875 C-0.02355469 1.41851562 -0.01195312 0.71984375 0 0 Z " fill="#ECDEAA" transform="translate(226,354)"/>
<path d="M0 0 C0.33 0 0.66 0 1 0 C1.8125 3.25 1.8125 3.25 2 7 C-0.375 9.3125 -0.375 9.3125 -3 11 C-3.33 11.66 -3.66 12.32 -4 13 C-4.99 13 -5.98 13 -7 13 C-7.3190184 5.98159509 -7.3190184 5.98159509 -5 3 C-2.375 2.25 -2.375 2.25 0 2 C0 1.34 0 0.68 0 0 Z " fill="#F8E3DB" transform="translate(110,165)"/>
<path d="M0 0 C5.28 0 10.56 0 16 0 C16 0.33 16 0.66 16 1 C14.80375 1.185625 13.6075 1.37125 12.375 1.5625 C6.10381156 3.09693973 3.40839998 7.88740003 0 13 C0 8.71 0 4.42 0 0 Z " fill="#AAABAF" transform="translate(0,0)"/>
<path d="M0 0 C5.20647532 -0.54805003 8.84436559 0.97703901 13.5234375 2.984375 C15.69925058 3.87666427 17.78863804 4.54483769 20.0625 5.125 C21.5165625 5.558125 21.5165625 5.558125 23 6 C23.33 6.66 23.66 7.32 24 8 C24.99 8.33 25.98 8.66 27 9 C27.33 9.99 27.66 10.98 28 12 C27.3296875 11.72027344 26.659375 11.44054687 25.96875 11.15234375 C21.88169046 9.56591932 17.7088029 8.25575794 13.52734375 6.94335938 C8.42379261 5.28857158 4.4316428 2.95442853 0 0 Z " fill="#E0E0E0" transform="translate(185,188)"/>
<path d="M0 0 C0.66 0 1.32 0 2 0 C2.13277344 0.68707031 2.26554687 1.37414062 2.40234375 2.08203125 C2.57894531 2.98308594 2.75554687 3.88414062 2.9375 4.8125 C3.11152344 5.70582031 3.28554687 6.59914063 3.46484375 7.51953125 C3.97741153 10.11397171 3.97741153 10.11397171 5 13 C6.794375 13.2165625 6.794375 13.2165625 8.625 13.4375 C12.1005158 13.87039343 15.54950034 14.39616256 19 15 C15.28206323 17.47862452 12.30720653 17.53102546 8 17 C4.53163098 15.61265239 3.27652966 14.41002674 1.1875 11.3125 C-0.27368655 7.23655856 -0.22263036 4.30418692 0 0 Z " fill="#E5D9AB" transform="translate(64,341)"/>
<path d="M0 0 C0.33 4.29 0.66 8.58 1 13 C1.99 13.33 2.98 13.66 4 14 C4 14.66 4 15.32 4 16 C-2.875 15.125 -2.875 15.125 -4 14 C-4.15126231 12.02486333 -4.22173766 10.04321865 -4.25 8.0625 C-4.27578125 6.98097656 -4.3015625 5.89945313 -4.328125 4.78515625 C-4.16570312 3.40650391 -4.16570312 3.40650391 -4 2 C-1 0 -1 0 0 0 Z " fill="#ADB9C9" transform="translate(236,53)"/>
<path d="M0 0 C0 1.65 0 3.3 0 5 C0.66 5.33 1.32 5.66 2 6 C0.02 6.99 -1.96 7.98 -4 9 C-4.33 6.69 -4.66 4.38 -5 2 C-5.59167969 2.144375 -6.18335938 2.28875 -6.79296875 2.4375 C-10.92529941 3.40822694 -14.7229762 4.27593702 -19 4 C-14.65203404 -0.34796596 -5.88436514 -0.31807379 0 0 Z " fill="#AEB2BD" transform="translate(202,317)"/>
<path d="M0 0 C2 3 2 3 3.625 6 C6.76448098 9.96566019 9.21665013 10.56499504 14 12 C14 12.33 14 12.66 14 13 C9.38 13 4.76 13 0 13 C0 8.71 0 4.42 0 0 Z " fill="#AAABAE" transform="translate(0,413)"/>
<path d="M0 0 C0.66 0.33 1.32 0.66 2 1 C-1.3 4.63 -4.6 8.26 -8 12 C-9.32 10.68 -10.64 9.36 -12 8 C-12 7.34 -12 6.68 -12 6 C-10.04669132 4.96958487 -8.08718472 3.9509107 -6.125 2.9375 C-5.03445312 2.36902344 -3.94390625 1.80054688 -2.8203125 1.21484375 C-1.42425781 0.61349609 -1.42425781 0.61349609 0 0 Z " fill="#F3E5A9" transform="translate(149,379)"/>
<path d="M0 0 C0.33 0 0.66 0 1 0 C1.33 1.65 1.66 3.3 2 5 C4.45743786 5.36173964 6.91558793 5.71468169 9.375 6.0625 C10.42300781 6.2181543 10.42300781 6.2181543 11.4921875 6.37695312 C15.35016833 7.05029848 15.35016833 7.05029848 19 6 C18.67 8.31 18.34 10.62 18 13 C19.98 13 21.96 13 24 13 C24 13.33 24 13.66 24 14 C20.7 14.66 17.4 15.32 14 16 C14 13.36 14 10.72 14 8 C13.07316406 7.93941406 12.14632812 7.87882812 11.19140625 7.81640625 C9.99386719 7.73261719 8.79632813 7.64882813 7.5625 7.5625 C6.36753906 7.48128906 5.17257813 7.40007812 3.94140625 7.31640625 C1 7 1 7 0 6 C-0.04080783 4.00041636 -0.04254356 1.99954746 0 0 Z " fill="#B0B1BF" transform="translate(58,312)"/>
<path d="M0 0 C0.66 0 1.32 0 2 0 C2.99 1.98 3.98 3.96 5 6 C3.04669132 7.03041513 1.08718472 8.0490893 -0.875 9.0625 C-1.96554688 9.63097656 -3.05609375 10.19945312 -4.1796875 10.78515625 C-5.11039063 11.18605469 -6.04109375 11.58695313 -7 12 C-7.66 11.67 -8.32 11.34 -9 11 C-7.5489926 9.16086305 -6.08898341 7.3288247 -4.625 5.5 C-3.81289062 4.4790625 -3.00078125 3.458125 -2.1640625 2.40625 C-1.44992188 1.6121875 -0.73578125 0.818125 0 0 Z " fill="#F9E9A9" transform="translate(166,39)"/>
<path d="M0 0 C5.28 0 10.56 0 16 0 C16 3.96 16 7.92 16 12 C15.01 10.68 14.02 9.36 13 8 C8.97535189 3.17042227 5.98655255 2.11613692 0 1 C0 0.67 0 0.34 0 0 Z " fill="#AAABAE" transform="translate(292,0)"/>
<path d="M0 0 C0.33 0 0.66 0 1 0 C1 4.29 1 8.58 1 13 C-3.29 13 -7.58 13 -12 13 C-9 11 -9 11 -6 9.3125 C-2.25545201 6.42607759 -1.52101385 4.39404 0 0 Z " fill="#AAABAE" transform="translate(307,413)"/>
<path d="M0 0 C1 4 1 4 0 8 C3.96 8.33 7.92 8.66 12 9 C12 9.33 12 9.66 12 10 C6.72 10 1.44 10 -4 10 C-4 7.69 -4 5.38 -4 3 C-5.65 3 -7.3 3 -9 3 C-9.33 3.66 -9.66 4.32 -10 5 C-10 4.01 -10 3.02 -10 2 C-6.7 1.34 -3.4 0.68 0 0 Z " fill="#B1B3C3" transform="translate(235,102)"/>
<path d="M0 0 C0 0.33 0 0.66 0 1 C-7.68897931 0.48594306 -15.34855794 -0.0765501 -23 -1 C-23 1.64 -23 4.28 -23 7 C-25 4 -25 4 -24.625 0.8125 C-24.41875 -0.115625 -24.2125 -1.04375 -24 -2 C-15.86324198 -4.71225267 -7.95519396 -2.26137493 0 0 Z " fill="#DEDEDE" transform="translate(176,185)"/>
<path d="M0 0 C17.31520396 -0.75648949 17.31520396 -0.75648949 24 4 C26.57666584 6.70880255 27.82104928 8.46314783 29 12 C26.22993998 10.87145703 24.84397669 9.82614545 22.8125 7.5625 C16.47139659 1.78505023 8.25443867 1.44743686 0 1 C0 0.67 0 0.34 0 0 Z " fill="#E7DAAA" transform="translate(53,56)"/>
<path d="M0 0 C3.63 0 7.26 0 11 0 C12.24591691 5.13940726 13.27288504 9.6787418 13 15 C13.66 15.33 14.32 15.66 15 16 C14.01 16.33 13.02 16.66 12 17 C11.01 12.38 10.02 7.76 9 3 C2.67082039 2.47825081 2.67082039 2.47825081 0 4 C0 2.68 0 1.36 0 0 Z " fill="#E7DBA9" transform="translate(187,56)"/>
<path d="M0 0 C0.33 0.66 0.66 1.32 1 2 C1.99 2.33 2.98 2.66 4 3 C4 4.98 4 6.96 4 9 C5.010625 8.95875 6.02125 8.9175 7.0625 8.875 C11.18076052 9.00573843 14.11830533 9.73250786 18 11 C14.49510444 12.16829852 12.10846645 11.92852125 8.4375 11.625 C7.28121094 11.53476563 6.12492188 11.44453125 4.93359375 11.3515625 C2 11 2 11 0 10 C0 6.7 0 3.4 0 0 Z " fill="#DFC4BF" transform="translate(151,170)"/>
<path d="M0 0 C5.07678579 0.12223401 7.74438375 1.57039578 11.5 4.9375 C13.33916953 8.61583905 12.92044152 12.27484695 12.6875 16.3125 C12.3575 16.3125 12.0275 16.3125 11.6875 16.3125 C11.60113281 15.70921875 11.51476562 15.1059375 11.42578125 14.484375 C10.69890493 10.34984915 10.26447577 7.91984292 7.3125 4.8125 C4.17028411 2.99168078 4.17028411 2.99168078 0.6875 2.3125 C0.0275 2.9725 -0.6325 3.6325 -1.3125 4.3125 C-3.7875 3.3225 -3.7875 3.3225 -6.3125 2.3125 C-3.9183839 -0.0816161 -3.27463689 0.01651077 0 0 Z " fill="#E5DAAC" transform="translate(230.3125,71.6875)"/>
<path d="M0 0 C1.29571936 2.491768 2.36005208 4.93286221 3.375 7.5625 C5.29667559 11.71663925 5.29667559 11.71663925 9 14 C11.99225136 14.52286745 14.96954666 14.8122155 18 15 C14.91111478 17.05925681 14.29064073 17.2390374 10.8125 17.125 C9.554375 17.08375 8.29625 17.0425 7 17 C7 16.34 7 15.68 7 15 C6.401875 14.773125 5.80375 14.54625 5.1875 14.3125 C2.26372999 12.55823799 1.36152537 11.13150836 0 8 C-0.23738786 5.27761579 -0.13944193 2.742358 0 0 Z " fill="#E6DAAA" transform="translate(196,338)"/>
<path d="M0 0 C1.60488281 -0.02126953 1.60488281 -0.02126953 3.2421875 -0.04296875 C6.125 0.1875 6.125 0.1875 9.125 2.1875 C8.30515625 2.28546875 7.4853125 2.3834375 6.640625 2.484375 C5.02414063 2.70867187 5.02414063 2.70867187 3.375 2.9375 C2.30765625 3.07671875 1.2403125 3.2159375 0.140625 3.359375 C-3.297232 4.30344972 -4.52816175 5.5869495 -6.875 8.1875 C-7.535 8.1875 -8.195 8.1875 -8.875 8.1875 C-6.65292335 0.03988563 -6.65292335 0.03988563 0 0 Z " fill="#C3C3C2" transform="translate(134.875,160.8125)"/>
<path d="M0 0 C4.91369797 1.64697356 8.79961077 4.74586049 12.8203125 7.9453125 C11.8303125 8.4403125 11.8303125 8.4403125 10.8203125 8.9453125 C8.68359375 7.984375 8.68359375 7.984375 6.1328125 6.5703125 C1.88143632 4.34281351 -1.41296745 3.25618555 -6.1796875 2.9453125 C-6.1796875 2.2853125 -6.1796875 1.6253125 -6.1796875 0.9453125 C-7.1696875 0.6153125 -8.1596875 0.2853125 -9.1796875 -0.0546875 C-6.0228147 -1.6331239 -3.37204097 -0.69800265 0 0 Z " fill="#D8D8D8" transform="translate(135.1796875,169.0546875)"/>
<path d="M0 0 C9.83178808 -0.61986755 9.83178808 -0.61986755 14.0625 1.625 C16.79718719 4.9771972 18.11293673 7.76546616 17.890625 12.1640625 C17.65589461 14.11784783 17.33434882 16.06077687 17 18 C16.67 18 16.34 18 16 18 C15.96261719 17.40832031 15.92523438 16.81664063 15.88671875 16.20703125 C15.49180622 11.46033751 15.11705121 7.80972926 12 4 C8.49778204 1.40576447 4.2161802 1.42161802 0 1 C0 0.67 0 0.34 0 0 Z " fill="#E9DCA9" transform="translate(94,76)"/>
<path d="M0 0 C1.27230469 0.01804688 2.54460937 0.03609375 3.85546875 0.0546875 C5.31919922 0.08949219 5.31919922 0.08949219 6.8125 0.125 C6.8125 0.455 6.8125 0.785 6.8125 1.125 C2.5225 1.125 -1.7675 1.125 -6.1875 1.125 C-6.5175 4.095 -6.8475 7.065 -7.1875 10.125 C-8.1775 10.125 -9.1675 10.125 -10.1875 10.125 C-10.8475 9.135 -11.5075 8.145 -12.1875 7.125 C-10.32786215 0.19362254 -6.59253016 -0.12096386 0 0 Z " fill="#AEB8C4" transform="translate(189.1875,50.875)"/>
<path d="M0 0 C3.3 0.33 6.6 0.66 10 1 C8.515 2.485 8.515 2.485 7 4 C6.41781668 7.4223884 6.41781668 7.4223884 6.3125 11.1875 C6.24675781 12.45980469 6.18101562 13.73210937 6.11328125 15.04296875 C6.07589844 16.01878906 6.03851563 16.99460937 6 18 C5.67 18 5.34 18 5 18 C5 13.71 5 9.42 5 5 C3.35 5.33 1.7 5.66 0 6 C0 4.02 0 2.04 0 0 Z " fill="#AEB5C0" transform="translate(201,358)"/>
<path d="M0 0 C4.95 0 9.9 0 15 0 C15 1.32 15 2.64 15 4 C10 4 5 4 0 4 C0 2.68 0 1.36 0 0 Z " fill="#E7EAEF" transform="translate(25,416)"/>
<path d="M0 0 C2 3 2 3 1.875 6.3125 C0.68311269 11.33545364 -1.26934014 14.51657726 -5.1875 17.875 C-9.14628986 19.45851594 -12.79026692 19.24763136 -17 19 C-17 18.67 -17 18.34 -17 18 C-16.40832031 17.90203125 -15.81664063 17.8040625 -15.20703125 17.703125 C-9.39211801 16.6027499 -5.33828059 15.27359282 -1.75 10.25 C-0.62477001 6.87431002 -0.35387781 3.53877808 0 0 Z " fill="#B3B7B9" transform="translate(139,186)"/>
<path d="M0 0 C0.33 0 0.66 0 1 0 C1.86759552 3.26742273 2.71673443 6.53936481 3.5625 9.8125 C3.80935547 10.74126953 4.05621094 11.67003906 4.31054688 12.62695312 C4.53935547 13.51962891 4.76816406 14.41230469 5.00390625 15.33203125 C5.21861572 16.15421143 5.4333252 16.9763916 5.65454102 17.82348633 C6 20 6 20 5 23 C2.77437293 19.6615594 1.83397339 16.44538423 0.8125 12.625 C0.62236328 11.965 0.43222656 11.305 0.23632812 10.625 C-0.81303039 6.73733967 -1.17495858 3.87661494 0 0 Z " fill="#EBDDA9" transform="translate(236,315)"/>
<path d="M0 0 C0 2.31 0 4.62 0 7 C1.65 7 3.3 7 5 7 C4.67 7.66 4.34 8.32 4 9 C1.36 9 -1.28 9 -4 9 C-4 7.35 -4 5.7 -4 4 C-4.66 3.67 -5.32 3.34 -6 3 C-2.25 0 -2.25 0 0 0 Z " fill="#AFB4C1" transform="translate(110,104)"/>
<path d="M0 0 C19.02556486 3.19898878 19.02556486 3.19898878 26 9 C24.58194169 8.71517632 23.16559621 8.42181856 21.75 8.125 C20.96109375 7.96257812 20.1721875 7.80015625 19.359375 7.6328125 C17 7 17 7 15.08984375 6.0234375 C11.47005849 4.25075762 7.49869743 3.65267271 3.58203125 2.78125 C2.72996094 2.5234375 1.87789062 2.265625 1 2 C0.67 1.34 0.34 0.68 0 0 Z " fill="#CAC6C6" transform="translate(178,184)"/>
<path d="M0 0 C2.33223736 3.49835604 3.15245549 6.91404733 4.125 10.9375 C4.30675781 11.65357422 4.48851563 12.36964844 4.67578125 13.10742188 C5.52085109 16.53535554 6 19.44772031 6 23 C5.34 23 4.68 23 4 23 C3.13003414 19.92090233 2.28184148 16.83621369 1.4375 13.75 C1.19064453 12.87730469 0.94378906 12.00460938 0.68945312 11.10546875 C0.46064453 10.26113281 0.23183594 9.41679688 -0.00390625 8.546875 C-0.21861572 7.77182617 -0.4333252 6.99677734 -0.65454102 6.19824219 C-1.0298967 3.80975982 -0.74681558 2.279036 0 0 Z " fill="#E7DBA9" transform="translate(67,92)"/>
<path d="M0 0 C7.32215357 -0.36010591 7.32215357 -0.36010591 10 1.0625 C11.52690415 4.02087678 11.18468872 6.73716599 11 10 C10.01 10.495 10.01 10.495 9 11 C8.34 8.69 7.68 6.38 7 4 C4.36 3.34 1.72 2.68 -1 2 C-0.67 1.34 -0.34 0.68 0 0 Z " fill="#E7DCAF" transform="translate(76,340)"/>
<path d="M0 0 C0.66 0.33 1.32 0.66 2 1 C2.29797657 3.93010297 2.50083081 6.14262846 2 9 C-0.5625 12.0625 -0.5625 12.0625 -4 14 C-7.875 13.8125 -7.875 13.8125 -11 13 C-11 12.67 -11 12.34 -11 12 C-8.98177083 11.54427083 -6.96354167 11.08854167 -4.9453125 10.6328125 C-2.79280036 10.09525572 -2.79280036 10.09525572 -1 8 C-0.54188325 6.02764667 -0.54188325 6.02764667 -0.375 3.875 C-0.25125 2.59625 -0.1275 1.3175 0 0 Z " fill="#CCD5D9" transform="translate(132,185)"/>
<path d="M0 0 C2.00720923 0.28674418 4.0085944 0.61866701 6 1 C6.33 1.99 6.66 2.98 7 4 C7.66 3.67 8.32 3.34 9 3 C9 3.99 9 4.98 9 6 C6.03 6 3.06 6 0 6 C-0.38218767 4.34385343 -0.71395102 2.67542976 -1 1 C-0.67 0.67 -0.34 0.34 0 0 Z " fill="#DBDEE5" transform="translate(74,414)"/>
<path d="M0 0 C0.33 0 0.66 0 1 0 C1.66 2.31 2.32 4.62 3 7 C5.64 7.66 8.28 8.32 11 9 C11 9.66 11 10.32 11 11 C3.74418605 11.48372093 3.74418605 11.48372093 0.5 9.375 C-1.39387281 6.37636806 -1.38721999 4.48497993 -1 1 C-0.67 0.67 -0.34 0.34 0 0 Z " fill="#E9DDAC" transform="translate(90,83)"/>
<path d="M0 0 C7.26948775 -0.60579065 7.26948775 -0.60579065 10.5625 2.125 C12.30506081 5.61012162 12.03063371 7.30689588 11 11 C10.67 11 10.34 11 10 11 C9.71125 10.05125 9.4225 9.1025 9.125 8.125 C8.23174891 4.94788422 8.23174891 4.94788422 6 3 C3.67724823 2.59952556 1.34260643 2.2602896 -1 2 C-0.67 1.34 -0.34 0.68 0 0 Z " fill="#EBDEAA" transform="translate(207,336)"/>
<path d="M0 0 C0.66 0.66 1.32 1.32 2 2 C0.90833564 3.6748823 -0.19873637 5.33973123 -1.3125 7 C-1.92738281 7.928125 -2.54226562 8.85625 -3.17578125 9.8125 C-3.77777344 10.534375 -4.37976563 11.25625 -5 12 C-5.99 12 -6.98 12 -8 12 C-6.71999898 6.99635967 -4.82671924 4.43423522 -1 1 C-0.67 0.67 -0.34 0.34 0 0 Z " fill="#DAE0E9" transform="translate(73,151)"/>
<path d="M0 0 C0.66 0.66 1.32 1.32 2 2 C2.33 1.67 2.66 1.34 3 1 C5.65463121 0.54540142 8.32189138 0.29756762 11 0 C11.66 1.65 12.32 3.3 13 5 C12.01 5 11.02 5 10 5 C10 4.01 10 3.02 10 2 C9.46375 2.495 8.9275 2.99 8.375 3.5 C5.40641555 5.37489544 3.44687573 5.23501425 0 5 C-0.5625 3.0625 -0.5625 3.0625 -1 1 C-0.67 0.67 -0.34 0.34 0 0 Z " fill="#E8EAEF" transform="translate(109,415)"/>
<path d="M0 0 C0.66 0 1.32 0 2 0 C1.34 2.97 0.68 5.94 0 9 C0.66 9 1.32 9 2 9 C2.33 10.32 2.66 11.64 3 13 C0.525 14.485 0.525 14.485 -2 16 C-2.05423638 14.08364783 -2.09289963 12.16685075 -2.125 10.25 C-2.14820312 9.18265625 -2.17140625 8.1153125 -2.1953125 7.015625 C-2.00487687 4.07529894 -1.52670104 2.47638122 0 0 Z " fill="#BBBBBB" transform="translate(91,190)"/>
<path d="M0 0 C0 2.64 0 5.28 0 8 C-0.66 7.01 -1.32 6.02 -2 5 C-4.45224694 5.10613836 -4.45224694 5.10613836 -7 6 C-8.23290201 8.45704762 -8.23290201 8.45704762 -9 11 C-9.99 11.495 -9.99 11.495 -11 12 C-9.91244877 6.92476094 -5.9431747 0 0 0 Z " fill="#F7D9CE" transform="translate(112,162)"/>
<path d="M0 0 C0.66 0.99 1.32 1.98 2 3 C4.78796888 6.00807169 7.17089886 8.43999583 11 10 C8.0709637 10.83686751 6.2923726 11.07479299 3.3125 10.3125 C0.60990226 8.77859317 -0.15025944 7.97409196 -1 5 C-0.625 2.25 -0.625 2.25 0 0 Z " fill="#EBDEAB" transform="translate(221,80)"/>
<path d="M0 0 C0.33 0 0.66 0 1 0 C1 2.31 1 4.62 1 7 C2.32 6.67 3.64 6.34 5 6 C5.33 7.98 5.66 9.96 6 12 C2.7 11.67 -0.6 11.34 -4 11 C-4 10.67 -4 10.34 -4 10 C-2.35 10 -0.7 10 1 10 C0.67 9.34 0.34 8.68 0 8 C-0.13415472 5.3276379 -0.04318541 2.67749512 0 0 Z " fill="#AFB5BF" transform="translate(101,60)"/>
<path d="M0 0 C0.66 0 1.32 0 2 0 C3.38232443 1.62626404 4.71937515 3.2925002 6 5 C4.37660195 6.70884005 2.70680947 8.37446717 1 10 C0.34 10 -0.32 10 -1 10 C-0.67 6.7 -0.34 3.4 0 0 Z " fill="#AEB9C8" transform="translate(126,368)"/>
<path d="M0 0 C1.65 0 3.3 0 5 0 C5.33 1.65 5.66 3.3 6 5 C3.625 5.625 3.625 5.625 1 6 C0.34 5.34 -0.32 4.68 -1 4 C-0.625 1.875 -0.625 1.875 0 0 Z " fill="#FFF4EF" transform="translate(182,158)"/>
<path d="M0 0 C0.99 0.66 1.98 1.32 3 2 C3.73854962 7.00572519 3.73854962 7.00572519 3 10 C1.18452819 12.20487735 -0.5856866 13.39045773 -3 15 C-3 13.35 -3 11.7 -3 10 C-2.34 10 -1.68 10 -1 10 C-0.67 6.7 -0.34 3.4 0 0 Z " fill="#BABBBB" transform="translate(111,187)"/>
<path d="M0 0 C2.5 0.75 2.5 0.75 5.5 2.75 C3.6128125 2.87375 3.6128125 2.87375 1.6875 3 C-1.83811212 3.41557143 -1.83811212 3.41557143 -4.5 5.8125 C-4.83 6.451875 -5.16 7.09125 -5.5 7.75 C-6.16 7.42 -6.82 7.09 -7.5 6.75 C-6.08523242 2.61452554 -5.00146163 -0.50014616 0 0 Z " fill="#FDDAC9" transform="translate(183.5,153.25)"/>
<path d="M0 0 C6.24723226 -0.82200425 10.71317837 2.07448606 16 5 C16 5.66 16 6.32 16 7 C8.375 5.25 8.375 5.25 5 3 C3.34450469 2.61500109 1.6777567 2.27206865 0 2 C0 1.34 0 0.68 0 0 Z " fill="#C8C8C8" transform="translate(133,173)"/>
<path d="M0 0 C0.99 0.33 1.98 0.66 3 1 C1.515 2.485 1.515 2.485 0 4 C0.33 4.99 0.66 5.98 1 7 C0.01 7 -0.98 7 -2 7 C-2.33 7.66 -2.66 8.32 -3 9 C-4.5 7.625 -4.5 7.625 -6 6 C-6 5.34 -6 4.68 -6 4 C-3.1875 1.8125 -3.1875 1.8125 0 0 Z " fill="#B1B7C4" transform="translate(161,370)"/>
<path d="M0 0 C0.6875 1.6875 0.6875 1.6875 1 4 C-0.89320076 8.10193497 -3.74330835 10.91934573 -7 14 C-7 12.35 -7 10.7 -7 9 C-6.34 9 -5.68 9 -5 9 C-4.5978125 8.1646875 -4.5978125 8.1646875 -4.1875 7.3125 C-2.89877353 4.80287477 -1.47073522 2.40665764 0 0 Z " fill="#E1E7ED" transform="translate(243,273)"/>
<path d="M0 0 C0.66 0 1.32 0 2 0 C2.33 0.99 2.66 1.98 3 3 C0.19195732 5.96404505 -2.18315774 8.44499019 -6 10 C-6 7 -6 7 -3.5625 4.4375 C-2.716875 3.633125 -1.87125 2.82875 -1 2 C-0.67 1.34 -0.34 0.68 0 0 Z " fill="#EFD1C8" transform="translate(113,168)"/>
<path d="M0 0 C0.33 0.66 0.66 1.32 1 2 C1.66 2 2.32 2 3 2 C2.38461538 7.53846154 2.38461538 7.53846154 0.4375 9.875 C-0.2740625 10.431875 -0.2740625 10.431875 -1 11 C-3.475 10.01 -3.475 10.01 -6 9 C-2.25 7 -2.25 7 0 7 C0 4.69 0 2.38 0 0 Z " fill="#FDD9C8" transform="translate(190,159)"/>
<path d="M0 0 C1.65 0.33 3.3 0.66 5 1 C3.02 1.99 3.02 1.99 1 3 C1.33 4.32 1.66 5.64 2 7 C3.32 7 4.64 7 6 7 C6.66 5.68 7.32 4.36 8 3 C8.042721 4.66611905 8.04063832 6.33382885 8 8 C7 9 7 9 4.125 9.375 C1 9 1 9 -1 6.75 C-2 4 -2 4 -1.1875 1.6875 C-0.795625 1.130625 -0.40375 0.57375 0 0 Z " fill="#FEEBE2" transform="translate(181,156)"/>
<path d="M0 0 C2.48088355 0.28062943 4.95909185 0.57390599 7.4375 0.875 C8.49807617 0.99294922 8.49807617 0.99294922 9.58007812 1.11328125 C11.39673432 1.33927676 13.20062522 1.66300727 15 2 C15.33 2.66 15.66 3.32 16 4 C11.38 4 6.76 4 2 4 C1.34 2.68 0.68 1.36 0 0 Z " fill="#B3BBCD" transform="translate(117,326)"/>
<path d="M0 0 C0.33 0 0.66 0 1 0 C1.33 3.3 1.66 6.6 2 10 C-0.97 9.505 -0.97 9.505 -4 9 C-2.94124926 5.59687262 -1.99097846 2.98646769 0 0 Z " fill="#B1B8C4" transform="translate(182,374)"/>
<path d="M0 0 C0.33 0.66 0.66 1.32 1 2 C1.66 2 2.32 2 3 2 C3.33 2.99 3.66 3.98 4 5 C2.02 6.32 0.04 7.64 -2 9 C-2.66 8.67 -3.32 8.34 -4 8 C-3.835 7.38125 -3.67 6.7625 -3.5 6.125 C-2.92365356 4.03936614 -2.92365356 4.03936614 -3 2 C-2.01 1.34 -1.02 0.68 0 0 Z " fill="#AFB6C3" transform="translate(149,51)"/>
<path d="M0 0 C4.65517241 1.81034483 4.65517241 1.81034483 6.875 3.03125 C9.23902266 4.10896621 11.16996887 4.39735019 13.75 4.625 C14.94882813 4.73714844 14.94882813 4.73714844 16.171875 4.8515625 C16.77515625 4.90054687 17.3784375 4.94953125 18 5 C18 5.33 18 5.66 18 6 C6.1807041 6.68850267 6.1807041 6.68850267 2.25 4.125 C1.5075 3.42375 0.765 2.7225 0 2 C0 1.34 0 0.68 0 0 Z " fill="#EBDDAA" transform="translate(133,365)"/>
<path d="M0 0 C10.74739021 -0.68844492 10.74739021 -0.68844492 14.6875 1.875 C15.450625 2.57625 16.21375 3.2775 17 4 C17 4.66 17 5.32 17 6 C12.2815534 4.16504854 12.2815534 4.16504854 10.1875 2.9375 C6.86926622 1.51539981 3.58514351 1.35851435 0 1 C0 0.67 0 0.34 0 0 Z " fill="#E7DAAA" transform="translate(158,59)"/>
<path d="M0 0 C3.3 0 6.6 0 10 0 C9.67 1.32 9.34 2.64 9 4 C8.2575 3.814375 7.515 3.62875 6.75 3.4375 C4.05009037 3.00796892 2.55368923 3.14877026 0 4 C0 2.68 0 1.36 0 0 Z " fill="#E8EAEF" transform="translate(41,416)"/>
<path d="M0 0 C0.33 0 0.66 0 1 0 C1.06058594 1.03640625 1.12117188 2.0728125 1.18359375 3.140625 C1.26803371 4.51042873 1.35267997 5.88021975 1.4375 7.25 C1.47681641 7.93191406 1.51613281 8.61382812 1.55664062 9.31640625 C1.73006545 12.06452265 1.92014203 14.68474369 2.59765625 17.359375 C3 19 3 19 2 21 C1.34 21 0.68 21 0 21 C0 14.07 0 7.14 0 0 Z " fill="#B8B9B2" transform="translate(54,325)"/>
<path d="M0 0 C0.33 0 0.66 0 1 0 C1.09038099 5.15171623 0.84681133 9.91913204 0 15 C-3.875 10.25 -3.875 10.25 -5 8 C-4.0409375 7.690625 -4.0409375 7.690625 -3.0625 7.375 C-0.65074923 6.10461791 -0.65074923 6.10461791 -0.25 2.875 C-0.1675 1.92625 -0.085 0.9775 0 0 Z " fill="#BBBBBB" transform="translate(226,209)"/>
<path d="M0 0 C3.95677402 1.67401978 6.84464213 4.13149285 10 7 C10 7.66 10 8.32 10 9 C6.60807637 8.40716379 4.7892243 7.23256811 2.25 4.9375 C1.63640625 4.38964844 1.0228125 3.84179688 0.390625 3.27734375 C-0.06828125 2.85582031 -0.5271875 2.43429688 -1 2 C-0.67 1.34 -0.34 0.68 0 0 Z " fill="#E9DCAA" transform="translate(131,55)"/>
<path d="M0 0 C0.66 0 1.32 0 2 0 C2 0.66 2 1.32 2 2 C3.65 2 5.3 2 7 2 C7 3.32 7 4.64 7 6 C4.69 6 2.38 6 0 6 C0 4.02 0 2.04 0 0 Z " fill="#E7E9EE" transform="translate(56,414)"/>
<path d="M0 0 C3.3 0 6.6 0 10 0 C8.02 0.99 8.02 0.99 6 2 C6.66 3.65 7.32 5.3 8 7 C4.2047869 5.50902342 2.38957269 3.24299151 0 0 Z " fill="#E7DBAA" transform="translate(89,326)"/>
<path d="M0 0 C0.66 0.33 1.32 0.66 2 1 C1.57847656 1.44730469 1.15695313 1.89460937 0.72265625 2.35546875 C-3.5377979 6.98399766 -3.5377979 6.98399766 -5 13 C-5.66 13 -6.32 13 -7 13 C-7.4375 10.4375 -7.4375 10.4375 -7 7 C-4.91317274 4.3796981 -2.53313752 2.1841849 0 0 Z " fill="#D3D3D3" transform="translate(98,186)"/>
<path d="M0 0 C0 4.13781054 -1.71509607 5.20919996 -4.5 8.1875 C-5.3353125 9.08855469 -6.170625 9.98960937 -7.03125 10.91796875 C-7.6809375 11.60503906 -8.330625 12.29210937 -9 13 C-9.66 12.67 -10.32 12.34 -11 12 C-7.37 8.04 -3.74 4.08 0 0 Z " fill="#ACB7C4" transform="translate(152,385)"/>
<path d="M0 0 C0.33 0 0.66 0 1 0 C2.03590199 5.05002222 2.10251672 9.87416389 2 15 C1.67 15 1.34 15 1 15 C0.34 11.7 -0.32 8.4 -1 5 C-1.99 5 -2.98 5 -4 5 C-2.69254251 3.31295807 -1.35827971 1.64639965 0 0 Z " fill="#BABDBD" transform="translate(186,361)"/>
<path d="M0 0 C1.13199353 0.9080162 2.25532363 1.82683826 3.375 2.75 C4.00148437 3.26046875 4.62796875 3.7709375 5.2734375 4.296875 C7.08312318 6.08199481 8.00117455 7.67949644 9 10 C5.17647894 8.4422692 2.70794407 6.08404742 0 3 C0 2.01 0 1.02 0 0 Z " fill="#E7DBAA" transform="translate(167,365)"/>
<path d="M0 0 C0.66 0 1.32 0 2 0 C2 2.31 2 4.62 2 7 C3.32 7 4.64 7 6 7 C6 7.66 6 8.32 6 9 C4.02 9 2.04 9 0 9 C0 6.03 0 3.06 0 0 Z " fill="#DED3AA" transform="translate(150,327)"/>
<path d="M0 0 C0.66 0.33 1.32 0.66 2 1 C1.45276317 4.37462715 0.9451 6.08235 -1 9 C-1.99 8.67 -2.98 8.34 -4 8 C-2.68 5.36 -1.36 2.72 0 0 Z " fill="#D9DFE7" transform="translate(230,221)"/>
<path d="M0 0 C1.98 0 3.96 0 6 0 C6 1.65 6 3.3 6 5 C6.66 5.33 7.32 5.66 8 6 C6.35 6.33 4.7 6.66 3 7 C2.814375 5.824375 2.814375 5.824375 2.625 4.625 C2.20882007 1.85942178 2.20882007 1.85942178 0 0 Z " fill="#B2B7C6" transform="translate(196,317)"/>
<path d="M0 0 C0.33 0 0.66 0 1 0 C1 5.28 1 10.56 1 16 C0.67 16 0.34 16 0 16 C-0.39278091 14.27478537 -0.76349151 12.54453752 -1.125 10.8125 C-1.33382812 9.84957031 -1.54265625 8.88664063 -1.7578125 7.89453125 C-2.02891012 4.65447747 -1.42381175 2.88453715 0 0 Z " fill="#CED7E2" transform="translate(37,159)"/>
<path d="M0 0 C3.96 0 7.92 0 12 0 C12 0.33 12 0.66 12 1 C11.32453125 1.10957031 10.6490625 1.21914062 9.953125 1.33203125 C9.06109375 1.49058594 8.1690625 1.64914063 7.25 1.8125 C6.36828125 1.96332031 5.4865625 2.11414063 4.578125 2.26953125 C1.8089089 3.05414248 0.1740599 4.14595359 -2 6 C-1.34 4.02 -0.68 2.04 0 0 Z " fill="#BEB8B7" transform="translate(129,161)"/>
<path d="M0 0 C0.66 0 1.32 0 2 0 C2.33 0.66 2.66 1.32 3 2 C3.99 1.67 4.98 1.34 6 1 C4.68197635 4.64991166 3.40785992 6.7895201 1 10 C0.67 6.7 0.34 3.4 0 0 Z " fill="#AEB2BB" transform="translate(124,46)"/>
<path d="M0 0 C10.52631579 5.05263158 10.52631579 5.05263158 12 8 C6.80421104 6.63919813 3.86388964 4.58789752 0 1 C0 0.67 0 0.34 0 0 Z " fill="#E7E7E7" transform="translate(136,170)"/>
<path d="M0 0 C0.33 0 0.66 0 1 0 C1.66 3.96 2.32 7.92 3 12 C0 11 0 11 -2 9 C-1.7578125 6.8359375 -1.7578125 6.8359375 -1.125 4.375 C-0.92132813 3.55773437 -0.71765625 2.74046875 -0.5078125 1.8984375 C-0.34023437 1.27195312 -0.17265625 0.64546875 0 0 Z " fill="#DFD4AA" transform="translate(209,84)"/>
<path d="M0 0 C0.33 0.66 0.66 1.32 1 2 C1.66 2.309375 2.32 2.61875 3 2.9375 C5 4 5 4 6 7 C1.32307692 5.52307692 1.32307692 5.52307692 -0.3125 2.875 C-0.539375 2.25625 -0.76625 1.6375 -1 1 C-0.67 0.67 -0.34 0.34 0 0 Z " fill="#E7DAA9" transform="translate(130,347)"/>
<path d="M0 0 C1.44096586 0.42594588 2.87768712 0.86626633 4.3125 1.3125 C5.11300781 1.55613281 5.91351563 1.79976562 6.73828125 2.05078125 C9.09964573 3.04182023 10.33879993 4.08074943 12 6 C11.01 6.33 10.02 6.66 9 7 C6.73828125 5.8203125 6.73828125 5.8203125 4.3125 4.125 C3.50425781 3.57070312 2.69601563 3.01640625 1.86328125 2.4453125 C1.24839844 1.96835938 0.63351563 1.49140625 0 1 C0 0.67 0 0.34 0 0 Z " fill="#E7E7E7" transform="translate(209,209)"/>
<path d="M0 0 C4.875 4.75 4.875 4.75 6 7 C3.03 6.505 3.03 6.505 0 6 C0 4.02 0 2.04 0 0 Z " fill="#FBEBA9" transform="translate(209,97)"/>
<path d="M0 0 C3.26296197 0.22503186 4.04203745 1.04787598 6.25 3.5625 C7.11625 4.7690625 7.11625 4.7690625 8 6 C5 6 5 6 3.5 4.625 C3.005 4.08875 2.51 3.5525 2 3 C1.01 2.34 0.02 1.68 -1 1 C-0.67 0.67 -0.34 0.34 0 0 Z " fill="#E8DBA9" transform="translate(171,76)"/>
<path d="M0 0 C4.8 2.46153846 4.8 2.46153846 5.8125 5.1875 C5.874375 5.785625 5.93625 6.38375 6 7 C3.11562221 5.70700306 1.12780579 4.34058637 -1 2 C-0.67 1.34 -0.34 0.68 0 0 Z " fill="#D2DAE4" transform="translate(246,182)"/>
<path d="M0 0 C0.33 0 0.66 0 1 0 C1.33 1.65 1.66 3.3 2 5 C2.66 4.67 3.32 4.34 4 4 C3.67 6.64 3.34 9.28 3 12 C1.09598862 10.09598862 0.06479561 8.66574314 -0.19921875 5.953125 C-0.1886578 3.96766727 -0.09915043 1.9830086 0 0 Z " fill="#DFD5AA" transform="translate(248,81)"/>
<path d="M0 0 C1.65 0 3.3 0 5 0 C5 2.31 5 4.62 5 7 C1.125 2.25 1.125 2.25 0 0 Z " fill="#F9EAA9" transform="translate(94,327)"/>
<path d="M0 0 C1.65 0 3.3 0 5 0 C5 1.32 5 2.64 5 4 C3.35 4 1.7 4 0 4 C0 2.68 0 1.36 0 0 Z " fill="#E7E9EE" transform="translate(98,416)"/>
<path d="M0 0 C1 3 1 3 0.0625 5.1875 C-0.4634375 6.0846875 -0.4634375 6.0846875 -1 7 C-1 5.68 -1 4.36 -1 3 C-3.31 3.33 -5.62 3.66 -8 4 C-5.33440687 2.22293791 -2.9719385 1.12451727 0 0 Z " fill="#B2B9C3" transform="translate(220,355)"/>
<path d="M0 0 C0.33 1.32 0.66 2.64 1 4 C2.98 3.01 4.96 2.02 7 1 C7 2.65 7 4.3 7 6 C4.69 5.67 2.38 5.34 0 5 C0 3.35 0 1.7 0 0 Z " fill="#B5BFCE" transform="translate(76,320)"/>
<path d="M0 0 C0.33 0.99 0.66 1.98 1 3 C-0.98 4.98 -2.96 6.96 -5 9 C-5.66 8.67 -6.32 8.34 -7 8 C-4.69 5.36 -2.38 2.72 0 0 Z " fill="#DEE3EA" transform="translate(220,308)"/>
<path d="M0 0 C0.33 1.32 0.66 2.64 1 4 C-1.31 5.98 -3.62 7.96 -6 10 C-4.21739173 6.43478346 -2.24007711 3.28544643 0 0 Z " fill="#D5DDE8" transform="translate(232,292)"/>
<path d="M0 0 C-0.33 0.99 -0.66 1.98 -1 3 C-3.97 3 -6.94 3 -10 3 C-10 2.67 -10 2.34 -10 2 C-3.375 0 -3.375 0 0 0 Z " fill="#D9E0EA" transform="translate(94,406)"/>
<path d="M0 0 C2 3.75 2 3.75 2 6 C2.99 6.33 3.98 6.66 5 7 C4.67 7.99 4.34 8.98 4 10 C2 8.375 2 8.375 0 6 C-0.25 2.75 -0.25 2.75 0 0 Z " fill="#DDE4ED" transform="translate(238,183)"/>
<path d="M0 0 C1.43088528 2.86177057 0.59991697 4.93375773 0 8 C-0.99 7.34 -1.98 6.68 -3 6 C-2.625 3.5625 -2.625 3.5625 -2 1 C-1.34 0.67 -0.68 0.34 0 0 Z " fill="#B0BFD2" transform="translate(181,52)"/>
<path d="M0 0 C0.66 0 1.32 0 2 0 C2.99 1.98 3.98 3.96 5 6 C4.01 6.33 3.02 6.66 2 7 C1.01 5.02 0.02 3.04 -1 1 C-0.67 0.67 -0.34 0.34 0 0 Z " fill="#E3D7A9" transform="translate(166,39)"/>
</svg>
