<?xml version="1.0" encoding="UTF-8" standalone="no"?>
<!-- Created with Inkscape (http://www.inkscape.org/) -->

<svg
   width="78.699791mm"
   height="23.875938mm"
   viewBox="0 0 78.699791 23.875938"
   version="1.1"
   id="svg1"
   inkscape:version="1.3.2 (091e20ef0f, 2023-11-25)"
   sodipodi:docname="victory.svg"
   xmlns:inkscape="http://www.inkscape.org/namespaces/inkscape"
   xmlns:sodipodi="http://sodipodi.sourceforge.net/DTD/sodipodi-0.dtd"
   xmlns:xlink="http://www.w3.org/1999/xlink"
   xmlns="http://www.w3.org/2000/svg"
   xmlns:svg="http://www.w3.org/2000/svg">
  <sodipodi:namedview
     id="namedview1"
     pagecolor="#ffffff"
     bordercolor="#000000"
     borderopacity="0.25"
     inkscape:showpageshadow="2"
     inkscape:pageopacity="0.0"
     inkscape:pagecheckerboard="0"
     inkscape:deskcolor="#d1d1d1"
     inkscape:document-units="mm"
     inkscape:zoom="1.4485269"
     inkscape:cx="53.847809"
     inkscape:cy="71.451901"
     inkscape:window-width="1920"
     inkscape:window-height="1011"
     inkscape:window-x="1920"
     inkscape:window-y="32"
     inkscape:window-maximized="1"
     inkscape:current-layer="layer1" />
  <defs
     id="defs1">
    <linearGradient
       inkscape:collect="always"
       xlink:href="#linearGradient3"
       id="linearGradient7"
       x1="66.792709"
       y1="177.90581"
       x2="136.78618"
       y2="177.90581"
       gradientUnits="userSpaceOnUse"
       gradientTransform="matrix(1.1007978,0,0,1.1007978,20.433668,-117.22536)" />
    <linearGradient
       id="linearGradient3"
       inkscape:collect="always">
      <stop
         style="stop-color:#ffffff;stop-opacity:1;"
         offset="0"
         id="stop3" />
      <stop
         style="stop-color:#ffc300;stop-opacity:1;"
         offset="0.47933742"
         id="stop25" />
      <stop
         style="stop-color:#ffed28;stop-opacity:1;"
         offset="0.53063458"
         id="stop26" />
      <stop
         style="stop-color:#ffc200;stop-opacity:1;"
         offset="0.61921185"
         id="stop21" />
      <stop
         style="stop-color:#ff0000;stop-opacity:1;"
         offset="0.91063964"
         id="stop6" />
      <stop
         style="stop-color:#960000;stop-opacity:1;"
         offset="1"
         id="stop22" />
    </linearGradient>
  </defs>
  <g
     inkscape:label="Layer 1"
     inkscape:groupmode="layer"
     id="layer1"
     transform="translate(-93.133333,-66.674998)">
    <path
       style="font-size:21.7469px;font-family:'SINGLE FIGHTER';-inkscape-font-specification:'SINGLE FIGHTER, Normal';stroke:url(#linearGradient7);stroke-width:1.6512;stroke-linecap:round;stroke-linejoin:bevel;stroke-miterlimit:0.3;paint-order:stroke fill markers"
       d="m 109.63199,67.500598 c -0.64773,0.83887 -0.97691,1.306088 -0.97691,1.401656 h -0.0425 v -0.04247 c 0,-0.01062 0.0849,-0.169897 0.25484,-0.467218 v -0.08495 c -0.10618,0 -0.30794,0.212372 -0.59464,0.637116 l -0.085,-0.04247 c -1.30609,1.847637 -2.25114,3.143106 -2.84578,3.907646 v -0.04247 c 1.86887,-2.633413 3.07939,-4.353627 3.61032,-5.139404 v -0.04247 c -0.14866,0.169897 -0.23361,0.254846 -0.25485,0.254846 v -0.08495 h -0.0425 c -0.13804,0.106186 -0.55217,0.584024 -1.23176,1.444131 v -0.127424 c -0.0319,0 -0.39289,0.509693 -1.10433,1.529079 -0.0319,0 -0.0425,-0.01062 -0.0425,-0.04247 -0.0425,0.01062 -0.15928,0.159279 -0.33979,0.467218 -0.5097,0.700828 -0.88135,1.136191 -1.10434,1.316707 -0.0425,0.201754 -0.0956,0.297321 -0.16989,0.297321 0,0.03186 0.0106,0.04248 0.0425,0.04248 0,0.06371 -0.0743,0.106186 -0.21237,0.127423 0,0.180516 -0.12743,0.361032 -0.38227,0.552167 v -0.04247 c 0.26546,-0.38227 0.47784,-0.722065 0.63711,-1.019386 v -0.04247 h -0.0425 c -0.0956,0.04247 -0.30794,0.297321 -0.63712,0.76454 -0.55216,0.966293 -0.94505,1.571553 -1.18928,1.8264 -0.0956,0.276083 -0.29732,0.552167 -0.59464,0.849488 -0.65836,0.9132 -1.10434,1.571553 -1.35918,1.996298 l -1.31671,1.868874 c -0.350414,0.594642 -0.594642,0.891963 -0.722065,0.891963 v 0.04247 l 0.04247,0.08495 c -0.07433,0.01062 -0.201753,0.180516 -0.382269,0.509693 -0.403507,0.573404 -0.700828,0.945056 -0.891963,1.104335 0,0.116804 -0.127423,0.276083 -0.38227,0.467218 h -0.04247 v -0.04247 h 0.08495 v -0.127423 h -0.08495 v 0.08495 h -0.04247 v -0.04247 c 0.297321,-0.435363 0.573405,-0.817633 0.849489,-1.146809 l 0.08495,0.04247 h 0.04247 c 0.05309,0 0.08495,-0.03186 0.08495,-0.08495 h -0.169898 l 1.953819,-2.760837 1.01939,-1.529079 c 0,-0.03185 -0.0106,-0.07433 -0.0425,-0.127423 0.13804,-0.201753 0.21237,-0.329177 0.21237,-0.38227 0.27608,-0.22299 0.53093,-0.584023 0.76454,-1.06186 v -0.04247 l -0.1699,0.08495 c -0.12742,0.222991 -0.21237,0.339796 -0.25485,0.339796 l 0.0425,0.08495 c -0.0425,0.08495 -0.085,0.127423 -0.12743,0.127423 h -0.0849 v -0.08495 h -0.0849 v 0.254846 c -0.12743,0 -0.22299,0.05309 -0.29732,0.169898 0,0.03186 0.0106,0.07433 0.0425,0.127423 0,0.03186 -0.0319,0.04248 -0.085,0.04248 -0.33979,0.392888 -1.412273,1.90073 -3.228054,4.502288 -0.286703,0.339795 -0.424744,0.541549 -0.424744,0.594642 h -0.04248 v -0.04248 l 0.04248,-0.08495 c 0,-0.05309 -0.04248,-0.08495 -0.127424,-0.08495 0.03186,-0.116805 0.07433,-0.212373 0.127424,-0.297321 v -0.04247 h -0.127424 v -0.04247 l 0.169898,-0.169898 v -0.08495 h -0.08495 v -0.04247 h 0.08495 c 0,-0.03186 -0.01062,-0.04247 -0.04247,-0.04247 0,-0.03186 0.01062,-0.07433 0.04247,-0.127423 -0.03186,-0.05309 -0.04247,-0.106186 -0.04247,-0.169897 l 0.04247,-0.212372 c -0.03186,0 -0.04247,-0.01062 -0.04247,-0.04248 h 0.127423 v -0.04247 l -0.127423,-0.169898 v -0.04247 l 0.08495,0.04247 h 0.04247 v -0.04247 c 0,-0.07433 -0.03186,-0.159279 -0.08495,-0.254847 v -0.08495 l 0.08495,0.04247 h 0.04247 v -0.08495 l -0.04247,-0.08495 c 0.03186,-0.03186 0.09557,-0.201753 0.169897,-0.509693 -0.138041,0 -0.212372,-0.03186 -0.212372,-0.08495 0.04247,-0.08495 0.08495,-0.127423 0.127424,-0.127423 0,-0.05309 -0.03186,-0.116805 -0.08495,-0.212372 0,-0.05309 0.04247,-0.08495 0.127423,-0.08495 v -0.04247 l -0.04247,-0.08495 c 0.03185,0 0.04247,-0.01062 0.04247,-0.04248 l -0.04247,-0.08495 c 0.05309,-0.03186 0.09557,-0.04247 0.127423,-0.04247 v -0.08495 h -0.08495 c 0.08495,-0.127423 0.127423,-0.22299 0.127423,-0.297321 h -0.127423 c 0.05309,-0.07433 0.08495,-0.116804 0.08495,-0.127423 v -0.04247 c 0,-0.05309 -0.04247,-0.08495 -0.127423,-0.08495 v -0.04247 l 0.04247,-0.212373 h 0.04247 v 0.08495 h 0.08495 c 0,-0.254846 0.08495,-0.382269 0.254847,-0.382269 v -0.08495 c 0,-0.05309 -0.03186,-0.07433 -0.08495,-0.08495 h -0.04247 c -0.127424,0.138042 -0.191135,0.212372 -0.212373,0.212372 h -0.04247 v -0.127423 l 0.08495,0.04247 h 0.04247 c 0,-0.03186 0.01062,-0.07433 0.04247,-0.127423 -0.05309,-0.09557 -0.08495,-0.180516 -0.08495,-0.254847 v -0.212372 c 0,-0.06371 0.04247,-0.254846 0.127423,-0.552167 0,-0.05309 -0.03186,-0.116805 -0.08495,-0.212372 v -0.04247 l 0.127424,0.08495 h 0.04247 c 0,-0.127423 -0.04247,-0.403507 -0.127423,-0.807014 v -0.08495 h 0.04247 c 0,0.08495 0.03186,0.127423 0.08495,0.127423 h 0.04247 v -0.04247 c 0,-0.06371 -0.08495,-0.265465 -0.254846,-0.594641 0.05309,-0.4566 0.08495,-0.711447 0.08495,-0.76454 0.169897,-0.361032 0.254846,-0.594642 0.254846,-0.722065 -0.09557,-0.03186 -0.159279,-0.04247 -0.169897,-0.04247 l 0.04247,-0.424745 v -0.127423 l -0.04247,-0.297321 0.08495,-0.04247 c -0.116804,-0.477837 -0.286702,-0.722065 -0.509693,-0.722065 -0.626497,0.08495 -1.008767,0.127423 -1.146809,0.127423 h -0.807014 l -0.297321,-0.04247 c 0,0.03186 -0.138041,0.06371 -0.424744,0.08495 0,-0.05309 -0.03186,-0.07433 -0.08495,-0.08495 -0.116804,0.06371 -0.169897,0.127423 -0.169897,0.169897 v 0.04247 c 0.05309,0 0.138042,-0.03186 0.254846,-0.08495 v 0.509693 h 0.08495 c 0.05309,-0.254847 0.127423,-0.38227 0.212372,-0.38227 l -0.04247,-0.08495 c 0.05309,0 0.116804,-0.03186 0.212372,-0.08495 h 0.04247 v 0.04247 l -0.424744,0.594642 v 0.04247 h 0.04248 l 0.08495,-0.04247 v 0.04247 c -0.138042,0.127423 -0.212372,0.265465 -0.212372,0.424744 v 0.04247 h 0.04247 l 0.212372,-0.169898 v 0.04247 l -0.08495,0.127424 v 0.04247 h 0.08495 l -0.04247,0.212372 v 0.212372 l 0.04247,0.424744 c -0.03186,0 -0.116805,0.116805 -0.254847,0.339796 l 0.04247,0.08495 c 0.09557,-0.04247 0.276083,-0.276084 0.552167,-0.722065 v 0.08495 c -0.138042,0.414126 -0.254846,0.626498 -0.339795,0.637117 0,0.286702 -0.03186,0.626497 -0.08495,1.019386 0.04247,0.594641 0.106186,0.891962 0.212372,0.891962 h 0.08495 l -0.04247,-0.509693 v -0.04247 l 0.04247,-0.254847 c -0.03186,-0.04247 -0.04247,-0.116804 -0.04247,-0.212372 l 0.04247,-0.297321 c -0.04247,0 -0.07433,-0.03185 -0.08495,-0.08495 0.03186,0 0.07433,-0.01062 0.127423,-0.04247 -0.08495,-0.201753 -0.127423,-0.329177 -0.127423,-0.38227 v -0.04247 c 0.06371,0 0.116805,0.01062 0.169898,0.04247 h 0.04247 c 0,-0.05309 -0.03186,-0.07433 -0.08495,-0.08495 l 0.08495,-0.297321 h 0.04247 c 0.08495,0.424744 0.127424,0.934437 0.127424,1.529079 v 1.146809 l -0.04247,0.08495 h 0.04247 c -0.03186,0.361032 -0.04247,0.573404 -0.04247,0.637116 h -0.04247 c 0,-0.09557 -0.04247,-0.329177 -0.127423,-0.679591 0.03186,0 0.04247,-0.01062 0.04247,-0.04247 -0.03186,0 -0.05309,-0.04248 -0.08495,-0.127423 -0.03186,0 -0.04247,0.01062 -0.04247,0.04247 -0.03186,0 -0.07433,-0.01062 -0.127423,-0.04247 -0.04247,0 -0.08495,0.138041 -0.127424,0.424744 l 0.08495,0.849488 h 0.08495 c 0,-0.106186 0.03186,-0.191135 0.08495,-0.254846 v -0.08495 c 0,-0.02124 -0.05309,-0.08495 -0.169898,-0.212372 0.03186,0 0.07433,0.01062 0.127423,0.04247 0.05309,0 0.08495,-0.03186 0.08495,-0.08495 v -0.08495 c -0.116804,-0.127423 -0.169897,-0.233609 -0.169897,-0.339795 h 0.169897 l 0.127423,1.06186 h 0.04247 l 0.08495,-0.04247 c 0.05309,0.254847 0.08495,0.403507 0.08495,0.424744 h -0.08495 v -0.169897 h -0.08495 c -0.169898,2.516609 -0.254847,4.226204 -0.254847,5.139404 0,0.541549 0.04247,1.008767 0.127424,1.401655 0.286702,0.817633 0.467218,1.412275 0.552167,1.783926 0.116805,0.191135 0.169898,0.339795 0.169898,0.424744 0.329176,0.148661 0.499074,0.30794 0.509693,0.467219 0.520311,-0.04247 0.860107,-0.08495 1.019386,-0.127424 0.06371,0 0.361032,-0.307939 0.891962,-0.934437 1.008768,-1.210521 1.518461,-1.858255 1.529079,-1.953823 0.711445,-0.860107 1.061865,-1.348563 1.061865,-1.486604 0.2867,-0.286703 0.66897,-0.817633 1.1468,-1.571554 l -0.0425,-0.08495 0.21237,-0.127423 -0.12742,-0.169897 v -0.04248 c 0.22299,0 0.4566,-0.254846 0.72206,-0.764539 v -0.04247 h -0.0425 c -0.0743,0 -0.1168,0.05309 -0.12742,0.169898 h -0.085 c 0.085,-0.180516 0.1699,-0.286702 0.25484,-0.297321 l 0.0849,0.04247 c 0,-0.03186 0.0106,-0.04247 0.0425,-0.04247 l -0.085,-0.127423 v -0.04247 c 0,-0.03186 0.0106,-0.04247 0.0425,-0.04247 0.35042,-0.626498 0.55217,-0.934437 0.59465,-0.934437 0.52031,-0.976912 1.12557,-1.953823 1.82639,-2.930735 0.12743,-0.38227 0.3398,-0.743302 0.63712,-1.104335 l -0.0425,-0.08495 -0.085,0.04247 h -0.0425 c 0.12743,-0.244228 0.30794,-0.520312 0.55217,-0.849488 -0.0743,0 -0.20175,0.08495 -0.38227,0.254846 v -0.04247 c 1.06186,-1.316707 1.78393,-2.389186 2.1662,-3.228056 v -0.08495 c -0.32918,0.30794 -0.52032,0.467219 -0.55217,0.467219 -0.0743,0.392888 -0.36103,0.860107 -0.84949,1.401656 v -0.04248 c 0.20175,-0.297321 0.29732,-0.445981 0.29732,-0.467218 v -0.04248 c -0.53093,0.615879 -1.17866,1.539698 -1.95382,2.760837 l -0.0849,-0.04247 h -0.0425 l -0.0425,0.297321 -0.0849,-0.04248 h -0.0425 c 0,0.116805 -0.0425,0.169898 -0.12743,0.169898 l 0.085,-0.254847 c 2.7396,-3.758985 4.33239,-6.010129 4.79961,-6.753432 z m -1.01938,0.38227 h 0.0425 v 0.08495 h -0.0425 z m -0.80702,1.019386 c 0.0425,-0.08495 0.085,-0.127424 0.12743,-0.127424 v 0.04248 c -0.0425,0.08495 -0.0849,0.127423 -0.12743,0.127423 z m -0.21237,0.254846 h 0.0425 v 0.169898 h -0.0425 z m -0.12742,0.169898 h 0.0425 v 0.08495 h -0.0425 z m -0.12743,0.169897 h 0.0425 v 0.08495 h -0.0425 z m -0.0849,0.127424 h 0.0425 v 0.08495 h -0.0425 z m -0.0849,0.127423 h 0.0425 v 0.08495 h -0.0425 z m 0,1.529079 v 0.08495 h 0.0425 v -0.08495 z m -11.510571,0.127423 0.297321,-0.04247 h 0.169898 v 0.04247 l -0.212372,0.04248 h -0.254847 z m -1.231758,-0.04247 c -0.307939,0.127423 -0.467218,0.212372 -0.467218,0.254846 0.371651,0.339796 0.552167,0.615879 0.552167,0.849489 v 0.29732 h 0.08495 v -0.552167 c 0,-0.07433 -0.03186,-0.159279 -0.08495,-0.254846 0.03186,0 0.05309,-0.04248 0.08495,-0.127424 -0.05309,-0.03186 -0.106186,-0.04247 -0.169898,-0.04247 v -0.212372 l 0.04247,-0.212372 z m 2.421042,0.127423 c 0,-0.05309 0.03186,-0.07433 0.08495,-0.08495 h 0.04247 v 0.04248 c 0,0.05309 -0.03186,0.08495 -0.08495,0.08495 h -0.04247 z m 0.254847,0.04247 c 0.03185,0 0.07433,-0.01062 0.127423,-0.04247 h 0.08495 c 0,0.05309 -0.03186,0.08495 -0.08495,0.08495 H 97.10204 Z m 9.64169,0.467219 h 0.0425 v 0.08495 h -0.0425 z m -11.595514,0.254846 h 0.169898 v 0.04247 l -0.212372,0.679591 h -0.04247 v -0.509693 l 0.08495,0.04247 h 0.04247 v -0.04247 z m 0.04247,0.594642 c 0.04247,-0.08495 0.08495,-0.127423 0.127423,-0.127423 h 0.08495 l -0.04247,0.212372 h -0.08495 c -0.04247,0 -0.07433,-0.03186 -0.08495,-0.08495 z m 10.066439,0 h 0.0425 v 0.08495 h -0.0425 z m -10.788504,0.04247 v 0.594642 l -0.04247,0.29732 c 0.03186,0 0.04247,0.05309 0.04247,0.169898 v 0.127423 h 0.08495 v -0.339795 l 0.04247,-0.212372 c -0.03186,0 -0.04247,-0.01062 -0.04247,-0.04247 0.03186,-0.244228 0.04247,-0.392889 0.04247,-0.424745 -0.03186,-0.09557 -0.04247,-0.159279 -0.04247,-0.169897 z m 3.058158,0.08495 h 0.04247 v 0.08495 h -0.04247 z m 7.517976,0.169897 h 0.0425 v 0.08495 h -0.0425 z m -1.01939,0.254847 h 0.0425 v 0.08495 h -0.0425 z m 1.95382,0.08495 h 0.0425 v 0.08495 h -0.0425 z m -1.23176,0.08495 h 0.0425 v 0.08495 h -0.0425 z m -0.16989,0.254847 h 0.0425 v 0.04247 c -0.20175,0.286703 -0.29732,0.477837 -0.29732,0.552168 h -0.0849 c 0,-0.04248 0.11681,-0.244228 0.3398,-0.594642 z m -0.93444,0.169897 h 0.0425 v 0.04247 c -0.27608,0.477837 -0.5734,0.9132 -0.89196,1.316707 v -0.04248 c 0.55217,-0.817632 0.83887,-1.252995 0.84949,-1.316707 z m 2.03877,0.424745 c 0,-0.08495 0.0319,-0.127424 0.0849,-0.127424 0,0.01062 -0.0106,0.07433 -0.0425,0.169898 h -0.0425 z m -1.57155,0.127423 c 0,-0.05309 0.0318,-0.07433 0.0849,-0.08495 v 0.127423 h -0.0849 z m -0.085,0.08495 c 0.0531,0.03186 0.0956,0.04247 0.12742,0.04247 v 0.04247 c -0.1168,0 -0.20175,0.09557 -0.25484,0.29732 h -0.0425 v -0.04247 c 0,-0.02124 0.0531,-0.138042 0.1699,-0.339795 z m 0.93444,0.212372 c 0.0425,-0.08495 0.0849,-0.127423 0.12742,-0.127423 v 0.04247 c -0.0425,0.08495 -0.085,0.127423 -0.12742,0.127423 z m -7.645398,-0.04247 h 0.04247 l 0.04247,0.509693 v 0.212372 h -0.04247 l -0.04247,-0.382269 z m 7.560448,0.127424 h 0.0425 v 0.08495 h -0.0425 z m -1.23176,0.382269 c 0,-0.116804 0.0531,-0.201753 0.1699,-0.254846 v 0.04247 c -0.0743,0.138042 -0.12743,0.212372 -0.1699,0.212372 z m 1.14681,-0.254846 h 0.0425 v 0.08495 h -0.0425 z m -2.67589,0.169898 v 0.08495 h 0.0425 v -0.08495 z m 0.59464,0.169897 h 0.0425 v 0.08495 h -0.0425 z m 0.76454,0.08495 h 0.0425 v 0.08495 h -0.0425 z m -0.84949,0.04247 h 0.0425 v 0.08495 h -0.0425 z m -0.085,0.127424 h 0.0425 v 0.08495 h -0.0425 z m -0.0849,0.127423 h 0.0425 v 0.08495 h -0.0425 z m -0.21238,0.297321 h 0.0425 v 0.08495 h -0.0425 z m -0.0849,0.127423 h 0.0425 v 0.08495 h -0.0425 z m -0.0849,0.127423 h 0.0425 v 0.08495 h -0.0425 z m -0.46722,0.679591 h 0.0425 v 0.08495 h -0.0425 z m -0.89197,0.08495 h 0.0425 v 0.08495 h -0.0425 z m 0.80702,0.04247 h 0.0425 v 0.08495 h -0.0425 z m -0.84949,0.169898 h 0.085 c -0.0319,0.05309 -0.0425,0.09557 -0.0425,0.127423 h -0.0425 z m 0.50969,0.254846 c 0,-0.04247 0.0531,-0.08495 0.1699,-0.127423 v 0.04247 c 0,0.05309 -0.0319,0.08495 -0.085,0.08495 z m -0.63711,-0.04247 h 0.0425 v 0.08495 h -0.0425 z m 0.59464,0.127423 h 0.0849 c -0.0319,0.05309 -0.0425,0.09557 -0.0425,0.127423 h -0.085 c 0.0319,-0.05309 0.0425,-0.09557 0.0425,-0.127423 z m -0.93444,0.04247 h 0.0425 v 0.08495 h -0.0425 z m 0.21237,0.04247 h 0.0425 v 0.08495 h -0.0425 z m 2.59094,0.04247 h 0.085 v 0.08495 h -0.085 z m -1.95382,0.04248 h 0.0425 v 0.08495 h -0.0425 z m -1.01939,0.254846 h 0.0425 v 0.08495 h -0.0425 z m -3.780219,0.08495 h 0.08495 v 0.04247 h -0.08495 z m 3.737749,0.04247 c 0.05309,0.03186 0.09557,0.04247 0.12742,0.04247 0,0.05309 -0.0319,0.08495 -0.085,0.08495 l -0.08495,-0.04248 z m -0.127423,0.169897 H 99.9903 v 0.08495 c 0,0.05309 -0.03186,0.08495 -0.08495,0.08495 0,-0.03186 -0.01062,-0.07433 -0.04247,-0.127423 z m -0.424745,0.76454 h 0.04248 v 0.08495 h -0.04248 z m -0.212372,0.297321 h 0.04248 v 0.08495 h -0.04248 z m -3.865172,0.127423 h 0.04247 v 0.254846 h -0.04247 z m 7.093232,0.297321 h 0.0425 v 0.127423 h -0.085 c 0.0319,-0.05309 0.0425,-0.09557 0.0425,-0.127423 z m -3.610329,0.169897 c 0,-0.05309 0.03185,-0.07433 0.08495,-0.08495 v 0.04247 c 0,0.05309 -0.03185,0.08495 -0.08495,0.08495 z m -0.169898,0.212373 h 0.04247 v 0.08495 h -0.04247 z m -3.355479,0.254846 h 0.04247 v 0.127423 h -0.04247 z m 2.930735,0.339795 h 0.04247 v 0.08495 h -0.04247 z m 3.525381,0 h 0.0849 v 0.04247 h -0.0849 z m -3.695279,0.212372 h 0.08495 c -0.05309,0.06371 -0.08495,0.127424 -0.08495,0.169898 h -0.04247 v -0.04247 c 0.03185,-0.05309 0.04247,-0.09557 0.04247,-0.127424 z m -0.212372,0.04247 h 0.08495 v 0.04247 h -0.08495 z m -0.169898,0.424744 c 0.03186,0 0.07433,-0.01062 0.127424,-0.04247 v 0.04247 c 0,0.05309 -0.03186,0.08495 -0.08495,0.08495 h -0.04247 z m -0.254846,0.38227 h 0.08495 c 0,0.05309 -0.03186,0.08495 -0.08495,0.08495 z m -0.297321,0.764539 h 0.04247 v 0.212372 h -0.04247 z m 0.722065,2.293619 c 0,-0.05309 0.03186,-0.07433 0.08495,-0.08495 v 0.08495 z m -0.212372,0.212372 c 0.04247,-0.08495 0.08495,-0.127424 0.127423,-0.127424 v 0.04248 c -0.04247,0.08495 -0.08495,0.127423 -0.127423,0.127423 z m -0.976912,0.212372 h 0.08495 v 0.04247 h -0.08495 z m 0.04247,0.169897 h 0.08495 v 0.04248 h -0.08495 z m 0.127423,0.254847 c 0.04247,0 0.106186,-0.03186 0.169898,-0.08495 h 0.04247 c 0,0.04247 -0.05309,0.08495 -0.169898,0.127423 h -0.04247 z m 0.297321,0.38227 h 0.08495 v 0.04247 h -0.08495 z m -0.552167,0.254846 h 0.04247 v 0.08495 h -0.04247 z m 0.08495,0.04247 h 0.08495 v 0.04247 h -0.08495 z m 0.552168,0 h 0.08495 v 0.04247 h -0.08495 z M 112.28664,70.314528 c -0.62649,0.849488 -0.94505,1.327325 -0.94505,1.454749 -0.0212,0 -0.0425,-0.02124 -0.0425,-0.04247 -0.29732,0.329177 -0.53093,0.679591 -0.70082,1.051242 -0.39289,0.573405 -0.88135,1.337944 -1.43352,2.283 -0.0743,0.254846 -0.19113,0.488456 -0.37165,0.711446 0.0106,0.02124 0.0212,0.04247 0.0531,0.04247 l -0.21238,0.350414 -0.085,-0.04247 c 0.19114,-0.499074 0.32918,-0.753921 0.41413,-0.753921 0,-0.02124 -0.0212,-0.04247 -0.0425,-0.04247 0.35041,-0.775158 0.75392,-1.44413 1.17866,-2.017535 0.36103,-0.541549 0.54155,-0.849488 0.54155,-0.923818 0.18052,-0.127424 0.31856,-0.286703 0.41412,-0.488456 l -0.0106,-0.04247 h -0.0425 c -0.0637,0.06371 -0.10618,0.08495 -0.1168,0.08495 0,-0.05309 0.0212,-0.116804 0.0743,-0.212372 v -0.05309 l -0.12743,0.09557 h -0.0425 c 0.1168,-0.148661 0.1699,-0.244228 0.1699,-0.265465 v -0.04247 c -0.0531,0.02124 -0.10619,0.04247 -0.1699,0.04247 -0.37165,0.552167 -0.63712,0.838869 -0.7964,0.838869 -0.0849,0.201754 -0.15927,0.30794 -0.24422,0.30794 -0.13805,0.276084 -0.29732,0.509693 -0.44598,0.700828 -0.0319,0 -0.0425,-0.02124 -0.0531,-0.04247 -0.0212,0 -0.0637,0.05309 -0.1168,0.169898 -0.10619,0.212372 -0.1699,0.307939 -0.21237,0.307939 -0.11681,0.286703 -0.20176,0.435363 -0.24423,0.445982 -0.0319,0.201753 -0.0956,0.307939 -0.20176,0.307939 v 0.08495 l 0.0425,0.08495 c -0.0956,0 -0.22299,0.180516 -0.37165,0.53093 l 0.0531,0.08495 c -0.0319,0 -0.0743,0.02124 -0.12742,0.04247 -0.25485,0.584024 -0.40351,0.881344 -0.4566,0.881344 -0.0849,0.361033 -0.21237,0.658354 -0.36104,0.881345 v 0.04247 l 0.0531,0.09557 c -0.0637,0.08495 -0.10619,0.127424 -0.12743,0.127424 0,0.03186 0.0106,0.04247 0.0425,0.04247 0,0.04247 -0.10619,0.265465 -0.32918,0.658354 0.0319,0.05309 0.0425,0.116804 0.0531,0.180516 -0.0637,0 -0.13805,0.08495 -0.25485,0.265465 0,0.03186 0.0212,0.07433 0.0425,0.127423 l -0.31855,0.573405 c 0,0.03186 0.0106,0.07433 0.0425,0.127423 -0.0319,0.05309 -0.0425,0.116805 -0.0425,0.180516 -0.0849,0.05309 -0.1699,0.191135 -0.24423,0.435363 v 0.138042 l 0.0531,0.08495 c -0.10619,0.14866 -0.20175,0.307939 -0.2867,0.488455 l 0.0425,0.08495 -0.085,0.127424 v 0.05309 l 0.0425,0.08495 c -0.0637,0.23361 -0.12743,0.350414 -0.20176,0.350414 v 0.04247 l 0.0531,0.22299 -0.1699,0.169898 c 0.0425,0.09557 0.0849,0.138042 0.12742,0.138042 -0.0637,0.222991 -0.12742,0.371651 -0.20175,0.435363 v 0.04247 l 0.0425,0.09557 c -0.0212,0 -0.0425,0.01062 -0.0425,0.04247 l 0.0106,0.04247 0.0425,0.08495 c -0.0425,0.233609 -0.0956,0.350414 -0.1699,0.350414 0,0.03186 0.0212,0.05309 0.0531,0.05309 l -0.0425,0.30794 h 0.0849 v 0.08495 c 0,0.05309 -0.0212,0.08495 -0.0743,0.08495 0,0.05309 0.0212,0.148661 0.0849,0.265465 -0.0425,0 -0.0743,0.03186 -0.0849,0.08495 v 0.138042 h 0.0849 c 0.0212,-0.14866 0.0637,-0.222991 0.12742,-0.222991 h 0.0425 c 0,0.08495 0.0425,0.127424 0.12742,0.127424 0,0.03185 -0.0106,0.05309 -0.0425,0.05309 -0.0106,0.584023 -0.0212,1.019386 -0.0106,1.316707 l 0.0106,0.573404 c 0,0.07433 0.0318,0.169898 0.0956,0.265465 0,0.05309 -0.0318,0.138042 -0.0849,0.254847 0.0956,0.658353 0.32917,1.231758 0.72206,1.720214 -0.32918,-0.775159 -0.49907,-1.306089 -0.49907,-1.582172 h 0.085 c -0.0425,-0.297321 -0.0531,-0.509693 -0.0637,-0.658354 v -0.307939 l -0.0956,-0.138042 c 0.085,0 0.12742,-0.04247 0.12742,-0.127423 h 0.0425 c 0.0106,0.637116 0.12743,1.21052 0.3398,1.709595 0.40351,1.486604 0.72206,2.35733 0.94506,2.644032 h 0.0425 c 0.0531,0 0.085,-0.03186 0.085,-0.08495 v -0.04247 l -0.0531,-0.222991 0.0849,-0.04247 c -0.0425,-0.668972 -0.0637,-1.072479 -0.0637,-1.231758 0,-0.03186 0.0212,-0.04247 0.085,-0.04247 0.0319,-1.178665 0.0743,-2.176813 0.13804,-2.994446 h 0.0425 l 0.0106,0.127423 h 0.0849 c 0.12742,-0.562786 0.26546,-1.114953 0.42474,-1.624646 -0.0106,-0.594642 0.90258,-2.845786 2.75022,-6.732195 0.19113,-0.38227 0.32917,-0.573405 0.4035,-0.573405 0,-0.03185 -0.0106,-0.07433 -0.0425,-0.127423 v -0.08495 l 0.085,0.04248 h 0.0425 v -0.09557 l -0.0425,-0.08495 c 0.0212,0 0.0425,-0.03186 0.0425,-0.08495 l 0.085,0.04247 h 0.0425 v -0.04247 l -0.0531,-0.08495 c 0.0319,-0.09557 0.0743,-0.138042 0.12743,-0.138042 l 0.2867,-0.53093 c 0.49907,-0.4566 0.7433,-0.870726 0.7433,-1.231758 0.15928,-0.392889 0.23361,-0.637116 0.23361,-0.743302 l -0.085,-0.04247 c -0.13804,0.127423 -0.21237,0.244228 -0.20175,0.350414 h -0.085 c 0,-0.05309 0.1168,-0.329177 0.36103,-0.83887 v -0.08495 c -0.27608,0.233609 -0.41412,0.392888 -0.41412,0.488455 h -0.0425 v -0.05309 c 0.10619,-0.212372 0.18052,-0.488455 0.23361,-0.828251 0,-0.05309 -0.0319,-0.08495 -0.085,-0.09557 l -0.0106,-0.212372 -0.37165,0.435362 v -0.04247 c 0.32918,-0.562786 0.48846,-0.9132 0.48846,-1.051242 l -0.0849,-0.138042 v -0.08495 c 0.0637,0 0.1168,-0.08495 0.15928,-0.265466 -0.0743,-0.116804 -0.12742,-0.180516 -0.1699,-0.180516 l -0.37165,0.488456 -0.0106,-0.127423 0.25485,-0.361033 v -0.04247 h -0.0425 l -0.21237,0.04247 v -0.04247 l 0.0319,-0.08495 z m -0.52031,3.291767 c 0,-0.09557 0.0531,-0.180516 0.1699,-0.233609 0,0.03186 -0.0425,0.127423 -0.12742,0.276084 h -0.0425 z m 0.69021,0.668972 h 0.0425 l 0.0106,0.03186 c -0.0425,0.106186 -0.085,0.159279 -0.12742,0.159279 v -0.04247 c 0.0531,-0.06371 0.085,-0.106186 0.0743,-0.148661 z m -0.24423,0.07433 h 0.0425 v 0.04247 l -0.24423,0.424744 h -0.0425 l -0.0106,-0.04247 c 0.16989,-0.244228 0.25484,-0.38227 0.25484,-0.424745 z m -0.46722,0.392889 h 0.0425 l 0.0106,0.07433 h -0.0425 z m 0.13805,0.116804 h 0.0425 v 0.07433 h -0.0425 z m -0.0849,0.116805 h 0.0425 v 0.07433 h -0.0425 z m -0.25485,0.116805 c 0,-0.04247 0.0319,-0.07433 0.085,-0.08495 v 0.04247 c 0,0.05309 -0.0212,0.07433 -0.085,0.07433 z m -1.9963,0.116804 h 0.085 v 0.03186 c -0.0531,0 -0.085,0.03186 -0.0743,0.08495 h -0.0425 v -0.04247 z m 2.04939,0.07433 h 0.0425 v 0.07433 h -0.0425 z m 0.46722,0.307939 h 0.0425 v 0.08495 h -0.0425 z m -3.79084,1.635265 h 0.0849 l 0.0106,0.04247 h -0.085 z m -0.27608,0.541549 h 0.085 v 0.04247 h -0.085 z m -0.0319,0.584023 c 0.13804,-0.361032 0.25485,-0.552167 0.32918,-0.584023 h 0.0425 v 0.08495 l -0.1699,0.116804 v 0.03186 l 0.0425,0.08495 c -0.0743,0 -0.12742,0.08495 -0.15928,0.265465 z m 0.4566,-0.424744 h 0.0425 v 0.07433 h -0.0425 z m -0.55217,0.159279 h 0.085 v 0.03186 h -0.085 z m 0.0106,0.350414 h 0.085 v 0.03186 c 0,0.05309 -0.0212,0.08495 -0.085,0.08495 z m -0.0849,0.191135 0.0849,0.04247 c 0.0106,0.05309 -0.0212,0.07433 -0.0743,0.07433 z m -0.0319,0.159279 h 0.085 v 0.07433 c -0.0531,0 -0.0743,-0.02124 -0.085,-0.07433 z m -0.24423,0.499074 c 0.12742,-0.233609 0.21237,-0.350414 0.24423,-0.350414 v 0.116805 c -0.10619,0.03186 -0.18052,0.138042 -0.20176,0.318558 h -0.0425 z m -0.12742,0.350414 c 0,-0.04247 0.0319,-0.06371 0.085,-0.07433 v 0.07433 z m -0.15928,0.350414 h 0.0849 v 0.04247 h -0.0849 z m -0.085,0.116805 h 0.085 l 0.0106,0.08495 c -0.0531,0 -0.085,-0.03186 -0.0956,-0.08495 z m -0.23361,0.700828 c 0,-0.04247 0.0212,-0.06371 0.085,-0.07433 v 0.07433 z m -0.84949,1.943204 h 0.0425 v 0.08495 h -0.0425 z m -0.1168,0.392888 h 0.0425 v 0.07433 h -0.0425 z m -0.27609,1.051242 h 0.085 v 0.148661 c -0.0319,0 -0.0743,0.02124 -0.12742,0.04247 z m 0.30794,0.499075 h 0.0425 v 0.201753 c -0.0212,0.222991 -0.0319,0.350414 -0.0319,0.38227 h -0.0425 v -0.116805 z m -0.0743,0.626497 h 0.0425 c 0,0.159279 0.0425,0.233609 0.12742,0.233609 l 0.0106,0.04248 h -0.085 v 0.07433 h 0.12742 c -0.0425,0.106186 -0.10618,0.180516 -0.21237,0.233609 z m 1.86888,0.116805 h 0.0425 v 0.07433 h -0.0425 z m 14.03779,-14.621818 c -0.52031,0.03186 -0.89196,0.07433 -1.10433,0.127424 0,-0.03186 -0.0425,-0.05309 -0.12743,-0.08495 -0.0212,0 -0.25484,0.08495 -0.67959,0.254846 -0.0425,0 -0.1699,-0.03186 -0.38227,-0.08495 -0.0425,0.08495 -0.085,0.127424 -0.12742,0.127424 h -0.085 c -0.0849,-0.04247 -0.12742,-0.08495 -0.12742,-0.127424 h -0.0425 c -0.4566,0.222991 -1.09371,0.477838 -1.91135,0.76454 l -0.0849,-0.04247 c -0.0637,0 -0.13804,0.09557 -0.21237,0.297321 -1.99629,1.645884 -3.03692,2.675889 -3.10063,3.100633 -0.31856,0.212372 -0.60526,0.573404 -0.84949,1.104334 -0.0531,0.169898 -0.19113,0.297321 -0.42474,0.38227 -0.12743,0.212372 -0.40351,0.775158 -0.80702,1.698977 -0.15927,0.902581 -0.27608,1.359181 -0.33979,1.359181 l 0.0425,0.212372 c 0,0.06371 -0.0106,0.116805 -0.0425,0.169898 0.0319,0.05309 0.0425,0.106186 0.0425,0.169898 -0.085,0 -0.12742,0.03185 -0.12742,0.08495 v 0.04247 l 0.0425,0.08495 c -0.0319,0 -0.0425,0.01062 -0.0425,0.04247 v 0.08495 c 0.0849,0 0.12742,0.03186 0.12742,0.08495 v 0.08495 h -0.21237 v 0.04247 c 0,0.05309 0.0743,0.08495 0.21237,0.08495 v 0.04247 h -0.0425 c 0,0.371651 0.0425,0.626498 0.12742,0.76454 0.10619,0.722065 0.46722,1.337944 1.06186,1.868874 0.0956,0 0.32918,0.180516 0.72207,0.552167 l -1.06186,-0.382269 -0.085,0.04247 c 0,0.169898 0.41412,0.339795 1.23176,0.509693 0.0425,0 0.25484,0.212372 0.63711,0.637116 l 0.085,-0.04247 c 0,0.02124 0.3398,0.297321 1.01939,0.807014 0.42474,0.212372 0.9132,0.361032 1.44413,0.467218 0,-0.03186 0.0106,-0.04247 0.0425,-0.04247 v 0.04247 l 0.55217,-0.127423 -0.085,-0.127423 c -0.0637,0 -0.1168,0.01062 -0.1699,0.04247 h -0.12742 v -0.04247 h 0.085 c 1.44413,-0.265465 2.47413,-0.668972 3.10063,-1.231758 0.0531,0 0.085,0.03186 0.085,0.08495 0.13804,-0.201754 0.22299,-0.297321 0.25485,-0.297321 0.63711,-0.350414 1.21052,-0.945056 1.74145,-1.783926 0.2867,-0.711446 0.4566,-1.06186 0.50969,-1.06186 l 0.12742,0.08495 h 0.0425 v -0.38227 c 0,-0.201754 0.0743,-0.477837 0.21237,-0.849488 v -0.04248 c -0.50969,0.605261 -0.76454,0.945056 -0.76454,1.019386 -0.64773,0.817633 -1.24238,1.44413 -1.78393,1.868874 h -0.0425 c 1.35918,-1.401655 2.03877,-2.198051 2.03877,-2.378567 0.29732,-0.371651 0.52031,-0.807014 0.67959,-1.316707 0,-0.03186 -0.0106,-0.07433 -0.0425,-0.127423 h -0.0425 l -2.12372,2.803311 c -1.27423,1.242377 -2.2299,1.921968 -2.84578,2.038772 -0.0956,0.09557 -0.43537,0.201754 -1.01939,0.297321 h -0.0425 c 0,-0.116804 0.21237,-0.169897 0.63711,-0.169897 v -0.08495 c -0.15928,0 -0.49907,0.03186 -1.01938,0.08495 h -0.0425 v -0.04247 c 0.24423,-0.03186 0.39289,-0.04247 0.42475,-0.04247 0.93443,-0.191135 1.40165,-0.339796 1.40165,-0.467219 -0.0637,0 -0.1168,0.01062 -0.16989,0.04247 h -0.0425 l 0.29732,-0.339796 0.0849,0.04248 h 0.0425 l 0.29733,-0.254847 0.0849,0.04248 c 0.0106,-0.04248 0.48846,-0.509693 1.44413,-1.401656 v -0.04247 c -0.53093,0.29732 -0.95567,0.615879 -1.27423,0.934437 v 0.08495 l 0.0425,0.08495 c -0.4566,0.254847 -0.78578,0.38227 -0.97691,0.38227 l 0.0425,0.08495 c -0.2867,0.05309 -0.4566,0.08495 -0.50969,0.08495 h -0.085 v -0.04248 c 0.6265,-0.254846 0.93443,-0.414125 0.93443,-0.467218 l -1.78392,0.67959 h -0.0425 v -0.04247 c 0.37165,-0.116805 0.55216,-0.212372 0.55216,-0.297321 -0.0425,0 -0.21237,0.01062 -0.50969,0.04247 -0.46722,0 -0.89196,-0.116804 -1.27423,-0.339795 h -0.0425 v 0.08495 l 0.12743,0.169898 h -0.12743 c -0.15928,-0.339796 -0.2867,-0.509693 -0.38227,-0.509693 -0.15928,-0.339796 -0.2867,-0.552168 -0.38227,-0.637117 0.085,-0.29732 0.12743,-0.509693 0.12743,-0.637116 0,-0.159279 -0.0106,-0.350414 -0.0425,-0.594642 0.26547,-1.008767 0.4566,-1.645883 0.59464,-1.911348 l -0.0425,-0.08495 c 0.0425,-0.169898 0.085,-0.254847 0.12742,-0.254847 0,0.08495 0.0319,0.127424 0.085,0.127424 l 0.0849,-0.04247 c 0,-0.307939 0.0956,-0.467218 0.29732,-0.467218 v -0.08495 h -0.21237 l 0.29732,-0.509693 0.21237,0.04247 0.0849,-0.04247 c 0,-0.05309 -0.0425,-0.08495 -0.12742,-0.08495 h -0.0425 c 0,-0.08495 0.26547,-0.477837 0.80702,-1.189284 0.26546,-0.212372 0.72206,-0.615879 1.35918,-1.231758 0.53093,-0.541548 1.4866,-1.083097 2.88826,-1.614027 h 0.0849 v 0.04247 l -0.3398,0.127423 v 0.08495 c 0.18052,0 0.39289,-0.09557 0.63712,-0.297321 h 0.38227 c 0.0531,0 0.0849,-0.04247 0.0849,-0.127423 h 0.72206 l 0.21237,-0.127423 v 0.04247 c 0.35042,-0.03186 0.55217,-0.04247 0.59465,-0.04247 0.15928,0 0.49907,0.09557 1.01938,0.297321 h 0.0425 c 0.0531,0 0.085,-0.03186 0.085,-0.08495 -0.0212,-0.09557 -0.14867,-0.148661 -0.38227,-0.169898 v -0.04247 h 0.0849 c 0.25485,0.05309 0.43537,0.08495 0.55217,0.08495 v -0.04247 c -0.25484,-0.222991 -0.48845,-0.339795 -0.67959,-0.339795 v -0.04247 c 0.10619,0 0.19114,-0.03185 0.25485,-0.08495 l 0.42474,0.127423 v -0.169898 c 0.44598,0.116805 0.69021,0.169898 0.72207,0.169898 h 0.0425 c 0.0531,0 0.0849,-0.03186 0.0849,-0.08495 l -0.0849,-0.127423 c -0.39289,-0.276084 -0.59464,-0.424744 -0.59464,-0.467219 l 0.29732,0.08495 v -0.08495 c -0.69021,-0.424744 -1.23176,-0.637116 -1.61403,-0.637116 v -0.04247 c 0.12743,0 0.25485,-0.03186 0.38227,-0.08495 0,0.03186 0.0106,0.04247 0.0425,0.04247 0.0637,-0.05309 0.16989,-0.08495 0.29732,-0.08495 0,-0.106186 -0.35042,-0.244228 -1.06186,-0.424744 v -0.04247 h 0.25484 v -0.08495 c -0.4566,-0.03186 -0.88134,-0.09557 -1.27423,-0.212372 h -0.21237 l -0.29732,0.04247 c 0,-0.03186 -0.0531,-0.06371 -0.1699,-0.08495 z m -1.95382,0.04247 c -0.0743,0.05309 -0.13804,0.08495 -0.21237,0.08495 v 0.08495 h 0.42474 V 70.9835 c -0.0425,-0.08495 -0.085,-0.127423 -0.12742,-0.127423 z m 3.313,0.764539 h 0.12743 c 0.2867,0.05309 0.4566,0.08495 0.50969,0.08495 v 0.04247 h -0.0849 c -0.22299,-0.05309 -0.41413,-0.08495 -0.55217,-0.08495 z m -4.41734,0.04247 h 0.0849 v 0.08495 c -0.0425,0 -0.0743,-0.03186 -0.0849,-0.08495 z m -0.21237,0.04247 c 0.0531,0.03186 0.0956,0.04247 0.12742,0.04247 v 0.127424 h -0.0849 c 0,-0.05309 -0.0319,-0.08495 -0.0849,-0.08495 z m -0.29732,0.08495 h 0.085 v 0.04247 h -0.085 z m 1.57155,0.04247 c 0.0319,0 0.0743,-0.01062 0.12743,-0.04247 h 0.0425 v 0.04247 c -0.0319,0 -0.0743,0.01062 -0.12742,0.04247 h -0.0425 z m -2.03877,0.254847 c 0.0319,0 0.18052,-0.05309 0.42475,-0.169898 h 0.0425 l -0.25485,0.254847 c 0.0319,0 0.0743,-0.01062 0.12743,-0.04247 h 0.0425 v 0.04247 c -0.0319,0 -0.14866,0.05309 -0.33979,0.169897 0,-0.08495 -0.0531,-0.127423 -0.1699,-0.127423 0,-0.03186 0.0106,-0.04247 0.0425,-0.04247 l -0.0425,-0.08495 0.0425,-0.08495 c 0.0531,0 0.085,0.03186 0.085,0.08495 z m -0.42474,0.976911 1.69897,-1.019386 h 0.0849 c 0,0.05309 -0.1699,0.159279 -0.50969,0.339796 -0.49907,0.276083 -0.9132,0.53093 -1.23176,0.764539 h -0.0425 z m -0.1699,-0.509693 v -0.08495 c 0,-0.05309 0.12742,-0.138042 0.38227,-0.254847 0,0.03186 0.0106,0.07433 0.0425,0.127423 -0.15928,0.06371 -0.25484,0.159279 -0.29732,0.297321 l -0.085,-0.04247 c -0.52031,0.318558 -1.22114,1.008767 -2.08124,2.081246 -1.23176,1.815781 -1.91135,3.068777 -2.03877,3.737749 -0.15928,0.711446 -0.31856,1.8264 -0.46722,3.355478 0.0106,0.138042 0.0531,0.212373 0.12742,0.212373 l -0.0425,0.212372 c 0,0.05309 0.0319,0.08495 0.0849,0.08495 0,0.03186 -0.0106,0.07433 -0.0425,0.127424 0.1168,0.435362 0.21237,0.722065 0.29732,0.849488 v 0.04247 l -0.46722,-0.467218 -0.33979,-0.552168 0.12742,-0.169897 v -0.04247 h -0.0425 c -0.0425,0 -0.0956,-0.07433 -0.1699,-0.212372 0,-0.05309 0.0319,-0.07433 0.085,-0.08495 -0.0425,-0.08495 -0.085,-0.127423 -0.12743,-0.127423 l -0.0849,0.04248 -0.0425,-0.08495 h 0.25485 c 0,-0.05309 -0.0425,-0.08495 -0.12743,-0.08495 v -0.04247 h 0.085 c -0.16989,-0.499075 -0.25484,-0.807014 -0.25484,-0.934438 0,-0.382269 0.0956,-0.881344 0.29732,-1.486604 0.0531,-0.53093 0.14866,-0.881344 0.29732,-1.06186 h 0.085 c 0,0.03186 0.0106,0.07433 0.0425,0.127423 0.13804,-0.07433 0.21237,-0.191135 0.21237,-0.339796 0,-0.138041 0.20176,-0.520311 0.59465,-1.146809 -0.0531,-0.07433 -0.0849,-0.116804 -0.0849,-0.127423 l -0.1699,0.127423 v -0.04247 l 0.1699,-0.254847 c 0.0531,0 0.0849,0.07433 0.0849,0.212372 h 0.0425 c 0.0531,0 0.0849,-0.08495 0.0849,-0.254846 0.43536,-0.520312 0.72206,-0.902581 0.84949,-1.146809 0.48845,-0.849489 1.32732,-1.720214 2.50599,-2.633414 z m 7.4755,-0.212372 h 0.25484 l 0.21237,0.04247 v 0.04247 h -0.21237 l 0.0425,0.08495 h -0.1699 c 0,-0.03186 0.0106,-0.04247 0.0425,-0.04247 0,-0.05309 -0.0531,-0.08495 -0.16989,-0.08495 z m -5.4792,0.169898 h 0.0849 v 0.04247 h -0.0849 z m -0.5097,0.297321 c 0,-0.04247 0.0956,-0.116805 0.29732,-0.212372 h 0.085 v 0.04247 c -0.085,0 -0.21237,0.07433 -0.38227,0.212372 z m 1.9963,-0.169898 h 0.0849 v 0.04248 h -0.0849 z m -0.1699,0.04248 h 0.0849 v 0.04247 h -0.0849 z m -3.35548,0.509693 h 0.0425 c 0,0.03185 0.0106,0.07433 0.0425,0.127423 h -0.0849 z m 0.72207,0.127423 c 0,-0.05309 0.0319,-0.07433 0.0849,-0.08495 h 0.0425 c 0,0.05309 -0.0318,0.08495 -0.0849,0.08495 z m 5.22435,-0.08495 h 0.085 c 0.24423,0.03186 0.43536,0.04247 0.59464,0.04247 v 0.04247 h -0.29732 l -0.38227,-0.04247 z m -3.90764,0.08495 c 0.0318,0 0.0743,-0.01062 0.12742,-0.04247 h 0.0425 v 0.04247 c -0.0319,0 -0.0743,0.01062 -0.12742,0.04247 h -0.0425 z m 4.67218,0 h 0.1699 v 0.04247 h -0.1699 z m 0.29732,0.04247 h 0.12743 v 0.04248 h -0.12743 z m -7.64539,0.467219 c 0.22299,-0.212372 0.39289,-0.361033 0.50969,-0.424744 h 0.0425 l -0.46722,0.509693 c -0.0425,0 -0.0743,-0.03186 -0.085,-0.08495 z m -0.12742,0.04247 h 0.0425 l 0.0849,0.04248 c 0,0.05309 -0.32918,0.424744 -0.97691,1.104334 v -0.04247 l 0.46722,-0.594642 c 0.0849,-0.09557 0.12742,-0.169897 0.12742,-0.212372 0.1699,-0.127423 0.25485,-0.233609 0.25485,-0.297321 z m -1.74146,0.76454 h 0.0425 v 0.08495 h -0.0425 z m -0.21237,0.254846 h 0.0425 v 0.08495 h -0.0425 z m 0.67959,0.594642 c 0.10619,-0.138042 0.1699,-0.212372 0.21238,-0.212372 -0.0212,0.138042 -0.0637,0.212372 -0.12743,0.212372 z m -0.16989,0.212372 c 0.0743,-0.116805 0.12742,-0.169898 0.16989,-0.169898 v 0.08495 c -0.0637,0.116805 -0.12742,0.169898 -0.16989,0.169898 z m -1.06187,-0.08495 h 0.0425 c 0.0531,0 0.085,0.03186 0.085,0.08495 h -0.0425 c -0.0425,0 -0.0743,-0.03186 -0.085,-0.08495 z m -0.21237,0.467219 c 0,-0.138042 0.0425,-0.222991 0.12743,-0.254847 0,0.138042 -0.0425,0.222991 -0.12743,0.254847 z m 0.72207,0.424744 c 0,-0.08495 0.0318,-0.127423 0.0849,-0.127423 0,0.01062 -0.0106,0.07433 -0.0425,0.169897 h -0.0425 z m -0.42475,0.807014 c 0,-0.233609 0.13805,-0.477837 0.42475,-0.722065 v 0.127423 h 0.0425 v -0.08495 h 0.0425 v 0.04247 c -0.15928,0.361032 -0.31856,0.615879 -0.46722,0.764539 0,-0.03186 -0.0106,-0.07433 -0.0425,-0.127423 z m 0.38227,-0.594642 v 0.08495 h 0.0425 v -0.08495 z m -1.78392,0.127423 h 0.0425 v 0.04247 c -0.1168,0.169897 -0.1699,0.297321 -0.1699,0.382269 h -0.0425 l -0.085,-0.04247 c 0.1699,-0.201753 0.25485,-0.329177 0.25485,-0.38227 z m 0.085,0.127424 h 0.0849 c -0.0319,0.05309 -0.0425,0.09557 -0.0425,0.127423 h -0.0425 z m 0.25484,0.382269 c 0,-0.08495 0.0319,-0.127423 0.0849,-0.127423 l -0.0425,0.169898 h -0.0425 z m 0.89197,0.04247 h 0.0425 c 0.0531,0 0.0849,0.03186 0.0849,0.08495 v 0.04247 h -0.0425 c -0.0425,0 -0.0743,-0.03186 -0.0849,-0.08495 z m -1.01939,0.08495 h 0.0425 v 0.04247 l -0.0849,0.297321 h -0.0425 v -0.04248 c 0,-0.02124 0.0319,-0.116804 0.085,-0.29732 z m 0.97691,0.254846 c 0,-0.05309 0.0319,-0.07433 0.085,-0.08495 h 0.0425 c -0.0318,0.05309 -0.0425,0.09557 -0.0425,0.127423 z m -0.67959,3.27053 c 0,-1.252995 0.22299,-2.293618 0.67959,-3.100632 -0.42474,1.614027 -0.63711,2.675888 -0.63711,3.185581 h -0.0425 z m 0.84949,-2.463516 h 0.0425 v 0.08495 h -0.0425 z m -0.0425,0.127423 h 0.0425 v 0.08495 h -0.0425 z m -0.0425,0.127423 h 0.0425 v 0.08495 h -0.0425 z m -0.0425,0.127424 h 0.0425 v 0.08495 h -0.0425 z m -0.1699,0.424744 h 0.0425 v 0.212372 h -0.0425 z m -0.0425,0.254846 h 0.0425 v 0.08495 h -0.0425 z m -1.57155,1.868875 h 0.085 v 0.04247 h -0.085 z m 9.21695,0.169897 c -0.84949,0.743302 -1.27423,1.168047 -1.27423,1.274233 v 0.04247 c 0.25484,-0.159279 0.67959,-0.584023 1.27423,-1.274232 z m -9.132,0.127423 h 0.0425 v 0.08495 h -0.0425 z m 0.76454,0 h 0.0425 c 0.0849,0.318559 0.12743,0.509693 0.12743,0.552168 v 0.127423 h -0.0425 z m -1.18928,0.127424 h 0.0849 c 0,0.05309 -0.0319,0.08495 -0.0849,0.08495 z m 1.99629,0.04247 h 0.0425 v 0.169898 h -0.0425 z m -0.38227,0.934437 h 0.0425 c 0,0.03186 0.0106,0.07433 0.0425,0.127423 v 0.04247 l -0.085,-0.04247 z m 6.28622,0.297321 c -0.29732,0.138042 -0.58403,0.350414 -0.84949,0.637116 h 0.21237 c 0,-0.07433 0.21237,-0.286702 0.63712,-0.637116 z m -4.33239,0.212372 h 0.0425 l 0.25485,0.08495 c 0,0.03186 -0.0106,0.04247 -0.0425,0.04247 0,0.03186 0.0106,0.04247 0.0425,0.04247 l -0.0425,0.08495 c -0.10618,-0.138042 -0.19113,-0.212372 -0.25484,-0.212372 z m 4.88455,0.212372 c 0.0531,0 0.20176,-0.07433 0.46722,-0.212372 h 0.0425 v 0.04248 c -0.0425,0 -0.21238,0.116804 -0.5097,0.339795 z m -4.54476,-0.08495 c 0.14866,0 0.40351,0.04247 0.76454,0.127424 l -0.0849,0.127423 -0.29732,-0.08495 v 0.08495 h 0.085 l -0.0425,0.08495 c -0.15928,0 -0.29733,-0.116805 -0.42475,-0.339796 z m 0.89196,0.127424 h 0.38227 v 0.04247 c -0.0531,0 -0.16989,0.03186 -0.33979,0.08495 l -0.0425,-0.08495 z m 3.35548,0.297321 c 0.10619,-0.138042 0.1699,-0.212372 0.21238,-0.212372 v 0.08495 c 0,0.04247 -0.0531,0.08495 -0.1699,0.127424 z m -1.23176,-0.127424 v 0.04247 h 0.0849 v -0.04247 z m -2.42104,0.637117 h 0.085 v 0.04247 h -0.085 z m -0.0425,1.06186 h 0.0425 l 0.25485,0.04247 v 0.04248 h -0.085 l -0.21237,-0.04248 z m 0.59464,0.127423 h 0.21237 v 0.04247 h -0.21237 z m 17.3508,-15.195222 -3.56785,0.637116 h -0.0425 v -0.08495 l -0.12743,0.01062 v 0.08495 l 0.0425,0.08495 c -0.0319,0 -0.0743,-0.01062 -0.12743,-0.03186 -0.18051,0.09557 -0.37165,0.169898 -0.59464,0.212372 0,-0.02124 -0.0106,-0.06371 -0.0425,-0.116804 l -1.14681,0.307939 -0.21237,-0.03186 c 0,0.03186 -0.12743,0.09557 -0.38227,0.201754 l -0.0425,0.01062 0.0425,-0.09557 v -0.04248 l -0.12743,0.01062 c -0.10618,0.09557 -0.2867,0.191135 -0.55216,0.30794 h -0.0425 v -0.08495 c -0.73268,0.201753 -1.23176,0.371651 -1.4866,0.509693 0,0.03186 0.0106,0.04247 0.0425,0.04247 v 0.08495 h -0.0425 v -0.08495 c -0.14866,0.01062 -0.25485,0.07433 -0.29732,0.191135 l -0.0849,-0.03186 -0.1699,0.01062 c -0.32918,0.03186 -0.84949,0.201753 -1.57155,0.520311 l 0.0425,0.07433 v 0.04247 l -0.0849,0.01062 v -0.08495 h -0.0425 c -0.0637,0.01062 -0.23361,0.07433 -0.5097,0.212372 0,0.03186 0.0106,0.04247 0.0425,0.04247 0,0.05309 -0.0319,0.08495 -0.0849,0.09557 v -0.08495 c -0.18052,0.02124 -0.44598,0.169898 -0.80701,0.445981 l 0.0425,0.08495 c 0.35041,-0.03186 1.04062,-0.265465 2.08125,-0.690209 h 0.0425 v 0.04247 h -0.0425 c -0.67959,0.339796 -1.01939,0.594642 -1.01939,0.76454 l 0.0849,0.04247 0.42474,-0.339795 h 0.0425 l -0.0425,0.08495 c -0.39289,0.276083 -0.58402,0.424744 -0.59464,0.477837 l 0.085,0.116804 c 0.0531,0 0.13804,-0.03186 0.25485,-0.106186 h 0.0425 l -0.1699,0.30794 c 0.0319,0 0.0425,0.01062 0.0425,0.04247 0.27608,-0.08495 0.53093,-0.169897 0.76454,-0.276083 0,0.05309 0.0319,0.08495 0.085,0.07433 -0.13805,0.212372 -0.35042,0.329177 -0.63712,0.350414 0.0212,0.22299 0.0637,0.339795 0.12742,0.329176 l 0.29732,-0.276083 -0.0849,0.690209 0.0849,-0.01062 c 0.0956,-0.07433 0.22299,-0.127423 0.38227,-0.159279 l 0.0849,0.03186 h 0.0425 c 0,-0.03186 -0.0106,-0.04247 -0.0425,-0.04247 0,-0.04248 0.0319,-0.07433 0.085,-0.08495 v 0.08495 l 0.25485,-0.23361 c 0,0.02124 0.0106,0.06371 0.0425,0.116805 l 0.21237,-0.138042 0.21238,0.02124 c 0.0106,-0.06371 0.0849,-0.127423 0.21237,-0.191134 0,0.03185 0.0106,0.04247 0.0425,0.04247 l 0.1699,-0.01062 0.93444,-0.382269 v 0.04247 c 0.33979,-0.116805 0.55217,-0.201753 0.63711,-0.265465 l 0.0849,0.03186 c 0.10619,-0.116805 0.30794,-0.201754 0.59464,-0.254847 0,0.02124 0.0106,0.04247 0.0425,0.03186 h 0.0425 c 0.12743,-0.09557 0.24423,-0.14866 0.3398,-0.159279 0,0.03186 0.0106,0.04248 0.0425,0.04248 l -0.72206,1.168046 c -1.04063,1.868874 -1.8264,3.716511 -2.37857,5.55353 0.0319,-0.01062 0.0425,0.01062 0.0425,0.03186 -0.0956,0.01062 -0.20176,0.615879 -0.3398,1.815781 v 0.169897 l 0.0425,0.08495 c -0.0319,0 -0.0531,0.04248 -0.0849,0.127423 l 0.0425,0.08495 -0.0425,0.212372 c 0.0318,0 0.0425,0.01062 0.0425,0.04247 h -0.0425 l 0.16989,0.753921 0.085,-0.01062 0.0425,-0.212372 v -0.467219 c 0,-0.14866 0.0106,-0.392888 0.0425,-0.722065 -0.0319,0 -0.0425,-0.01062 -0.0425,-0.04247 0.13804,-0.9132 0.24422,-1.44413 0.29732,-1.592791 0.47783,-1.773306 0.77516,-2.665269 0.89196,-2.665269 0.0319,-0.159279 0.13804,-0.435363 0.3398,-0.83887 l -0.0425,-0.08495 c 0.14866,-0.14866 0.30794,-0.414125 0.46722,-0.807014 0,-0.02124 -0.0106,-0.06371 -0.0425,-0.116804 0.0956,-0.01062 0.16989,-0.08495 0.21237,-0.233609 l -0.0425,-0.08495 c 0.13804,-0.116805 0.21237,-0.201754 0.21237,-0.222991 l -0.0425,-0.08495 0.12742,-0.01062 c -0.46721,0.945055 -0.84948,1.783925 -1.14681,2.516609 -0.64773,1.90073 -0.97691,3.408571 -0.97691,4.502288 0,0.03185 0.0106,0.07433 0.0425,0.127423 -0.0425,0 -0.0637,0.138042 -0.085,0.424744 0.0319,0.467219 0.0956,0.753921 0.1699,0.881344 l -0.12743,0.01062 v 0.04247 c 0,0.05309 0.0743,0.07433 0.21237,0.06371 v 0.08495 l -0.16989,0.02124 c 0,0.05309 0.0425,0.07433 0.12742,0.07433 0.20175,0.435363 0.31856,0.647735 0.3398,0.647735 -0.11681,-0.83887 -0.20176,-1.263614 -0.25485,-1.252995 0.0319,0 0.0425,-0.159279 0.0425,-0.467219 l 0.0425,-0.01062 c 0,0.116805 0.0319,0.212373 0.0849,0.297321 l 0.085,-0.05309 c 0,-0.03185 -0.0106,-0.04247 -0.0425,-0.04247 0.0319,-0.244228 0.0425,-0.424744 0.0425,-0.552167 h 0.0425 v 0.67959 c 0,0.138042 -0.0425,0.212372 -0.12742,0.222991 v 0.04247 c 0,0.01062 0.0319,0.05309 0.085,0.116805 0,0.06371 -0.0106,0.116805 -0.0425,0.169898 0,0.329176 0.0849,0.562786 0.25485,0.700827 l -0.0425,0.09557 v 0.04247 c 0.11681,-0.01062 0.18052,0.159279 0.21238,0.530931 0,0.03186 -0.0425,0.06371 -0.12743,0.09557 0.94506,0.4566 1.55032,0.679591 1.8264,0.647735 0,-0.127423 -0.0849,-0.286703 -0.25484,-0.488456 v -0.04247 h 0.0849 l -0.12742,-0.201754 v -0.08495 c 0.0425,-0.01062 0.15928,0.01062 0.3398,0.05309 v -0.04247 c -0.28671,-0.201754 -0.42475,-0.371651 -0.42475,-0.520312 v -0.08495 c 0,-0.04247 0.0319,-0.07433 0.0849,-0.08495 0,-0.05309 -0.0318,-0.159279 -0.0849,-0.339796 0,-0.116804 0.0319,-0.233609 0.0849,-0.339795 l -0.0849,-0.04247 c 0,-0.02124 0.0106,-0.04247 0.0425,-0.04247 -0.0319,-0.244228 -0.0425,-0.38227 -0.0425,-0.424744 0,-0.06371 0.0319,-0.191135 0.0849,-0.38227 0,-0.03186 -0.0106,-0.07433 -0.0425,-0.127423 0.13804,-0.01062 0.21237,-0.276084 0.21237,-0.785777 h 0.085 c -0.0531,0.127424 -0.085,0.350414 -0.085,0.679591 v 0.169898 l 0.12742,-0.01062 c 0,-0.02124 -0.0106,-0.06371 -0.0425,-0.116805 0,-0.09557 0.0531,-0.212372 0.1699,-0.361032 v -0.04248 c 0,-0.04247 -0.0319,-0.06371 -0.0849,-0.07433 l 0.12742,-0.180516 v -0.04247 l -0.0849,0.01062 v -0.08495 l 0.1699,-0.233609 v -0.08495 l -0.0849,-0.116804 0.0849,-0.01062 v -0.08495 l -0.0425,-0.07433 c 0.12743,-0.01062 0.19114,-0.08495 0.21238,-0.233609 l -0.0425,-0.08495 0.12743,-0.265465 -0.0425,-0.07433 c 0.0531,-0.01062 0.0956,-0.09557 0.12742,-0.265465 0,-0.03185 -0.0425,-0.04247 -0.12742,-0.03185 0,-0.03186 0.0106,-0.04248 0.0425,-0.05309 0,-0.02124 -0.0106,-0.03186 -0.0425,-0.03186 l 0.085,-0.30794 -0.0425,-0.08495 c 0.10618,0 0.21237,-0.265465 0.33979,-0.785776 l -0.0425,-0.08495 c 0.0425,-0.06371 0.10618,-0.09557 0.16989,-0.09557 V 79.35096 c 0.0531,-0.01062 0.0849,0.02124 0.0849,0.07433 0.0531,0 0.085,-0.03186 0.085,-0.09557 v -0.04247 c 0,-0.04247 -0.0319,-0.07433 -0.085,-0.07433 0,-0.03186 0.0106,-0.04247 0.0425,-0.04247 0,-0.106187 0.0743,-0.212373 0.21237,-0.318559 -0.0743,0.01062 -0.11681,-0.04247 -0.12742,-0.159279 0.0849,-0.01062 0.12742,-0.04247 0.12742,-0.09557 v -0.04247 l -0.0425,-0.08495 c 0.11681,0 0.1699,-0.05309 0.1699,-0.138042 v -0.212372 c 0.0956,-0.01062 0.21237,-0.201754 0.3398,-0.584023 0.13804,-0.01062 0.24423,-0.106186 0.29732,-0.276084 0,-0.03186 -0.0106,-0.07433 -0.0425,-0.127423 0.085,0 0.24423,-0.23361 0.46722,-0.668972 0,-0.03186 -0.0106,-0.07433 -0.0425,-0.127424 0.0849,-0.01062 0.13804,-0.06371 0.1699,-0.180516 0.22299,-0.318558 0.33979,-0.509693 0.33979,-0.584023 0.13804,-0.201754 0.21237,-0.339795 0.21237,-0.403507 0.13805,-0.09557 0.30794,-0.329177 0.5097,-0.722065 0,-0.04247 -0.0319,-0.07433 -0.0849,-0.07433 0,-0.05309 0.0743,-0.09557 0.21237,-0.106186 0.52031,-0.605261 0.87073,-0.923819 1.06186,-0.934438 v -0.08495 l -0.25485,0.02124 v -0.04247 c 0.0425,0 0.10619,-0.03185 0.1699,-0.09557 l -0.0425,-0.08495 c -0.44598,0.318558 -0.72207,0.499075 -0.80702,0.53093 v -0.04247 l 0.3398,-0.403507 0.21237,-0.02124 v -0.08495 l -0.0425,-0.08495 c 0.0531,0 0.0849,-0.03186 0.0849,-0.08495 v -0.08495 h -0.0425 c -0.15928,0.15928 -0.30794,0.23361 -0.42474,0.244228 l -0.0425,0.01062 c 0,-0.04247 0.0956,-0.116805 0.29732,-0.244228 0.67959,-0.169898 1.01939,-0.297321 1.01939,-0.38227 h 0.0425 v 0.08495 h 0.0425 c 0.2867,-0.08495 0.42474,-0.14866 0.42474,-0.212372 0.9132,-0.212372 1.46537,-0.38227 1.6565,-0.520312 v -0.04247 c -0.0319,0 -0.0743,0.02124 -0.12742,0.05309 l -0.29732,0.03186 v -0.04247 c 0.15928,-0.02124 0.72206,-0.14866 1.69898,-0.403506 v -0.08495 l -0.93444,0.08495 v -0.04247 c 2.03877,-0.286702 3.29177,-0.477837 3.78022,-0.573404 v -0.08495 l -0.55217,0.04247 v -0.04247 l 1.31671,-0.106186 v -0.08495 l -1.18928,-0.07433 c -1.13619,0.06371 -1.69898,0.02124 -1.69898,-0.116805 l -0.50969,0.04247 c -0.32918,0.03186 -0.66897,0.04247 -1.01939,0.05309 l -0.80701,0.148661 -0.0849,0.01062 v -0.04247 c 0.0637,-0.01062 0.21237,-0.03186 0.46722,-0.08495 v -0.08495 c -0.23361,0.02124 -0.56279,0.08495 -0.97691,0.212372 l -0.0849,-0.04247 c -0.23361,0.02124 -0.4566,0.05309 -0.67959,0.106186 h -0.085 v -0.04247 l 0.21237,-0.01062 z m -0.3398,0.148661 h 0.085 v 0.04247 h -0.085 z m 1.31671,-0.06371 0.12743,-0.01062 v 0.04247 l -0.12743,0.01062 z m -5.56415,0.849488 0.12743,-0.01062 v 0.04247 l -0.12743,0.01062 z m -0.33979,0.106186 h 0.0849 v 0.04247 h -0.0849 z m 3.313,0.615879 c 0.42475,-0.14866 1.52908,-0.392888 3.31301,-0.743302 l 0.16989,-0.01062 v 0.04247 c -1.92196,0.38227 -3.09001,0.637116 -3.4829,0.753921 z m -6.41363,0.159279 0.0849,-0.01062 v 0.04247 l -0.0849,0.01062 z m 8.91962,-0.445981 0.21238,-0.02124 v 0.04247 l -0.21238,0.02124 z m -0.29732,0.06371 0.1699,-0.01062 v 0.04247 l -0.1699,0.01062 z m -10.23633,0.902581 0.085,-0.01062 v 0.04247 l -0.085,0.01062 z m 9.98149,-0.83887 0.12742,-0.01062 v 0.04247 l -0.12742,0.01062 z m -1.10434,0.222991 0.12742,-0.01062 v 0.04248 l -0.12742,0.01062 z m -0.42474,0.329177 0.085,-0.01062 v 0.04247 l -0.085,0.01062 z m -0.42475,0.116804 h 0.0849 v 0.04247 h -0.0849 z m -3.82269,0.488456 0.25484,-0.06371 h 0.0425 v 0.04247 c -0.0637,0.01062 -0.11681,0.02124 -0.1699,0.05309 l -0.12742,0.01062 z m -5.94642,0.541549 0.12742,-0.01062 v 0.04247 c -0.0319,0.01062 -0.0743,0.02124 -0.12742,0.05309 l -0.0425,0.01062 z m 5.73404,-0.477837 0.12743,-0.01062 v 0.04248 l -0.12743,0.01062 z m -3.1431,0.307939 0.0849,-0.01062 v 0.04247 l -0.0849,0.01062 z m 2.97321,-0.254846 0.12742,-0.01062 v 0.04247 l -0.12742,0.01062 z m -0.1699,0.06371 0.12742,-0.01062 v 0.04247 l -0.12742,0.01062 z m -0.1699,0.05309 0.12742,-0.01062 v 0.04247 l -0.12742,0.01062 z m -0.1699,0.05309 0.12743,-0.01062 v 0.04247 l -0.12743,0.01062 z m -0.21237,0.06371 0.1699,-0.01062 v 0.04247 l -0.1699,0.01062 z m -0.1699,0.05309 0.12743,-0.01062 v 0.04247 l -0.12743,0.01062 z m -0.16989,0.06371 0.12742,-0.01062 v 0.04247 l -0.12742,0.01062 z m -0.1699,0.05309 0.0849,-0.01062 v 0.04247 l -0.0849,0.01062 z m -2.54847,0.552167 c 0,-0.04247 0.0319,-0.07433 0.085,-0.08495 l 0.0425,-0.01062 v 0.04247 c 0,0.06371 -0.0319,0.08495 -0.0849,0.09557 h -0.0425 z m 4.1625,-0.138042 c 0,-0.04247 0.0318,-0.07433 0.0849,-0.08495 l 0.0425,-0.01062 v 0.04247 c 0,0.06371 -0.0319,0.09557 -0.0849,0.09557 h -0.0425 z m -0.12743,0.138042 c 0.0319,0 0.0743,-0.01062 0.12743,-0.05309 h 0.0425 v 0.04247 c -0.0637,0.116804 -0.12742,0.180516 -0.1699,0.180516 z m -0.21237,0.445982 c 0,-0.04248 0.0319,-0.07433 0.0849,-0.09557 h 0.0425 c -0.0425,0.116805 -0.085,0.180516 -0.12742,0.180516 z m -0.21237,0.361032 0.0849,-0.01062 c 0,0.05309 -0.0319,0.08495 -0.0849,0.09557 z m -0.5097,0.76454 0.0849,-0.01062 0.3398,-0.499074 v 0.04247 c -0.20175,0.392888 -0.30794,0.584023 -0.3398,0.584023 h -0.0425 c 0,-0.02124 -0.0106,-0.06371 -0.0425,-0.116804 z m 2.93074,0.350413 0.0425,-0.01062 v 0.08495 l -0.0425,0.01062 z m -0.42474,0.881345 h 0.0425 v 0.08495 h -0.0425 z m 0,0.212372 h 0.0425 v 0.08495 h -0.0425 z m -3.18559,1.921967 h 0.0425 v 0.127423 h -0.0425 z m -0.0425,0.180516 0.0425,-0.01062 v 0.08495 l -0.0425,0.01062 z m 0.59464,0.07433 0.0425,-0.01062 v 0.08495 l -0.0425,0.01062 z m -0.085,0.212372 h 0.0425 v 0.127424 h -0.0425 z m -0.0849,0.265466 h 0.0425 v 0.04247 l -0.1699,0.690209 h -0.0425 v -0.04247 c 0,-0.04247 0.0531,-0.276084 0.16989,-0.690209 z m -0.25484,0.955674 h 0.0425 v 0.08495 h -0.0425 z m -0.0425,0.127423 h 0.0425 v 0.08495 h -0.0425 z m 1.44413,0.520312 0.0849,-0.01062 v 0.04248 l -0.0849,0.01062 z m -2.29362,0.488456 h 0.0849 v 0.04247 h -0.0849 z m 0,0.127423 h 0.0425 v 0.08495 h -0.0425 z m -0.21237,0.106186 h 0.0425 v 0.08495 h -0.0425 z m 2.20867,-0.191135 h 0.0425 v 0.04247 c -0.0319,0.116805 -0.0425,0.212372 -0.0425,0.297321 l -0.0849,0.01062 c 0.0531,-0.148661 0.0849,-0.265465 0.0849,-0.350414 z m -2.03877,0.222991 0.0425,-0.01062 c 0,0.06371 0.0106,0.116805 0.0425,0.169898 -0.0319,0 -0.0425,0.14866 -0.0425,0.424744 l -0.0425,0.01062 v -0.382269 c 0,-0.03186 -0.0106,-0.07433 -0.0425,-0.127424 0.0319,0 0.0425,-0.03186 0.0425,-0.08495 z m 0.38227,0.22299 0.0425,-0.01062 v 0.08495 l -0.0425,0.01062 z m 1.57155,-0.01062 h 0.0425 v 0.127423 h -0.0425 z m -1.99629,0.424744 h 0.0425 v 0.254846 h -0.0425 z m 0.38227,-0.03186 h 0.0425 v 0.127423 h -0.0425 z m -0.46722,1.104335 v 0.08495 l 0.0425,-0.01062 v -0.08495 z m 16.19337,-12.901604 c -0.0425,0 -0.18052,0.03186 -0.42475,0.09557 0,-0.03186 -0.0106,-0.05309 -0.0425,-0.05309 -0.3398,0.127423 -0.60526,0.191135 -0.80701,0.191135 h -0.1699 l -0.12742,-0.09557 c -0.10619,0.08495 -0.24423,0.148661 -0.42475,0.180516 l -0.0849,-0.04247 -1.10433,0.414125 c -1.26362,0.796396 -1.98568,1.199903 -2.1662,1.199903 v 0.08495 h 0.085 v 0.05309 c -0.88134,0.796395 -1.43351,1.316706 -1.6565,1.560934 -2.15558,2.548465 -3.22806,4.905795 -3.22806,7.07199 l 0.0425,0.329177 c -0.0319,0 -0.0425,0.01062 -0.0425,0.04248 l 0.085,0.276083 c 0.0531,0 0.0849,-0.106186 0.0849,-0.318558 h 0.0425 c 0,0.03186 0.0106,0.07433 0.0425,0.138042 -0.0319,0 -0.0425,0.01062 -0.0425,0.04247 0,0.169898 0.0743,0.371652 0.21237,0.594642 -0.0425,0 -0.0743,0.03186 -0.0849,0.09557 0.1699,0.520311 0.33979,0.902581 0.50969,1.146809 -0.0318,0 -0.0743,0.02124 -0.12742,0.05309 0,0.08495 0.0531,0.138042 0.1699,0.138042 0.0637,0.169897 0.14866,0.276083 0.25484,0.318558 0.26547,0.276084 0.70083,0.552167 1.31671,0.828251 l 0.0849,-0.04247 c 0.13804,0.09557 0.21237,0.169897 0.21237,0.22299 h -0.0425 c 0.27608,0.339796 0.42474,0.509693 0.46721,0.509693 l -0.0425,0.08495 0.0849,0.138042 c 0.15928,0.222991 0.40351,0.424744 0.72206,0.60526 v 0.04247 h -0.0425 l -0.1699,-0.09557 c 0,0.03186 -0.0106,0.05309 -0.0425,0.05309 0.15928,0.212372 0.25484,0.318558 0.29732,0.318558 h 0.0425 l 0.0849,-0.04247 c 0,0.14866 0.0531,0.222991 0.1699,0.222991 0.31856,0.244228 0.65835,0.371651 1.01939,0.371651 l 0.0849,-0.04247 c 0.0531,0.03186 0.10619,0.04247 0.1699,0.04247 h 0.1699 c 0.13804,0 0.22299,-0.04247 0.25485,-0.138042 0.0319,0 0.0425,0.01062 0.0425,0.04247 0.24423,0 0.4566,-0.05309 0.63712,-0.180516 l 0.0849,0.04248 c 0.81763,-0.668973 1.32732,-1.008768 1.52907,-1.008768 v -0.04247 l -0.0425,-0.09557 c 0.21237,-0.212372 0.42474,-0.339795 0.63712,-0.371651 0,-0.02124 -0.0106,-0.04247 -0.0425,-0.04247 0.84949,-0.955675 1.46537,-1.688358 1.8264,-2.20867 0.48846,-0.637116 0.90258,-1.401656 1.23176,-2.293618 l -0.0425,-0.276084 v -0.04247 l 0.0425,-0.09557 h -0.0425 c 0.37165,-0.807014 0.61587,-1.422893 0.72206,-1.837018 v -0.09557 c -0.1699,0.212372 -0.3398,0.573405 -0.50969,1.061861 h -0.0425 v -0.05309 c 0.42475,-1.125572 0.63712,-1.985679 0.63712,-2.569702 v -0.371652 c -0.0531,-0.07433 -0.0849,-0.116804 -0.0849,-0.138041 -0.0637,0 -0.10619,0.106186 -0.12742,0.318558 h -0.0425 v -0.04247 c 0.0531,-0.339795 0.0849,-0.626497 0.0849,-0.870725 l -0.0425,-0.318558 h -0.085 v 0.318558 h -0.0425 c 0,-0.743303 -0.16989,-1.29547 -0.50969,-1.656502 -0.0425,0 -0.0743,0.03185 -0.0849,0.09557 -0.0425,0 -0.085,-0.06371 -0.12742,-0.191135 0,-0.03186 0.0318,-0.04247 0.0849,-0.04247 v -0.04248 c 0,-0.04247 -0.12743,-0.138042 -0.38227,-0.276083 h -0.0849 v 0.180516 c 0.20175,0.180516 0.29732,0.509693 0.29732,0.966293 0,0.116804 -0.1168,0.637116 -0.3398,1.560935 -0.50969,2.081246 -0.9132,3.132488 -1.23175,3.132488 l 0.0425,0.08495 c 0,0.06371 -0.0318,0.09557 -0.0849,0.09557 0,0.03186 0.0106,0.04247 0.0425,0.04247 -0.0425,0.244228 -0.0956,0.371651 -0.1699,0.371651 0,-0.06371 0.0318,-0.14866 0.0849,-0.276083 v -0.04248 l -0.0849,0.04248 c 0.22299,-0.647735 0.50969,-1.337944 0.84949,-2.070628 0.0743,-0.403507 0.15928,-0.658353 0.25484,-0.785777 v -0.04247 h -0.0425 l -0.12742,0.09557 c 0,-0.159279 0.0318,-0.233609 0.0849,-0.233609 0.20176,-0.477837 0.32918,-1.114953 0.38227,-1.932586 v -0.180516 l -0.0425,-0.09557 h -0.0425 c -0.54155,1.571553 -0.80702,2.58032 -0.80702,3.03692 v 0.04248 l 0.0849,-0.04248 v 0.04248 l -0.0425,0.233609 -0.0849,-0.04248 c -0.0531,0 -0.13804,0.138042 -0.25485,0.414126 -0.22299,0.679591 -0.52031,1.210521 -0.89196,1.603409 0.54155,-1.316707 0.80701,-2.113102 0.80701,-2.389186 l -0.0849,-0.04247 h -0.0425 c -0.0425,0 -0.11681,0.138042 -0.21237,0.414125 -0.30794,0.807014 -0.81764,1.635265 -1.52908,2.484754 0,0.02124 0.0319,0.04247 0.085,0.04247 v 0.04247 c -0.13805,0 -0.25485,0.03186 -0.3398,0.09557 -0.10618,0.286702 -0.36103,0.626498 -0.76454,1.008767 l 0.0425,0.09557 c -0.0531,0 -0.11681,0.03186 -0.21238,0.08495 -1.21052,1.231758 -1.93258,1.847637 -2.16619,1.847637 l 0.0425,0.08495 c -0.0318,0 -0.0743,-0.01062 -0.12742,-0.04247 -0.0212,0 -0.10619,0.01062 -0.25485,0.04247 -0.42474,0 -0.76454,-0.499075 -1.01938,-1.518461 0.0531,-0.520311 0.0849,-0.870725 0.0849,-1.051242 0,-0.06371 0.0425,-0.09557 0.12742,-0.09557 v -0.09557 h -0.0849 v -0.04247 l 0.50969,-1.656502 c 0.84949,-1.507842 1.66712,-2.686507 2.46352,-3.535995 l 0.0849,0.04247 0.21237,-0.276083 c 0.71145,-0.584024 1.06186,-0.902582 1.06186,-0.966293 l 1.95382,-0.732684 v -0.138042 c 0.0637,-0.116804 0.36104,-0.191135 0.89197,-0.233609 0.50969,0.05309 0.76454,0.127423 0.76454,0.233609 h 0.0425 v -0.09557 c 0.0956,0 0.19114,0.05309 0.29732,0.138042 h 0.21237 v -0.04248 c 0,-0.05309 -0.0849,-0.106186 -0.25484,-0.180516 l 0.0849,-0.138042 c 0.0637,0 0.1168,0.01062 0.16989,0.04247 l 0.0849,-0.04247 c 0,0.04247 0.11681,0.09557 0.3398,0.138042 0,-0.03186 0.0106,-0.05309 0.0425,-0.05309 -0.0849,-0.276084 -0.4035,-0.435363 -0.93443,-0.499074 v -0.05309 c 0.0318,0 0.0743,-0.01062 0.12742,-0.04247 0.0106,0 0.0743,0.02124 0.1699,0.04247 v -0.04247 c 0,-0.06371 -0.0425,-0.09557 -0.12743,-0.09557 v -0.04247 h 0.0425 l 0.21237,0.04247 0.21237,-0.04247 c 0,0.127423 0.0319,0.180516 0.085,0.180516 h 0.0425 c 0.11681,-0.14866 0.223,-0.22299 0.3398,-0.22299 v -0.05309 l -0.21237,-0.265465 c -0.0319,0 -0.0425,0.01062 -0.0425,0.04247 -0.25484,-0.06371 -0.41412,-0.09557 -0.46721,-0.09557 v -0.04248 h 0.25484 v -0.09557 c -0.29732,-0.08495 -0.50969,-0.138042 -0.63711,-0.138042 -0.0956,-0.180516 -0.19114,-0.276084 -0.29733,-0.276084 v -0.04247 c 0.1699,0 0.25485,-0.03186 0.25485,-0.09557 0,-0.06371 -0.12742,-0.138041 -0.38227,-0.22299 v -0.05309 h 0.0425 c 0.0849,0 0.27608,0.07433 0.59464,0.233609 0.0956,0 0.19113,-0.04247 0.29732,-0.138042 l 0.085,0.04247 v -0.04247 c -0.73269,-0.647735 -1.3698,-0.966293 -1.91135,-0.966293 z m -0.76454,0.276084 c 0.31856,-0.06371 0.53093,-0.09557 0.63712,-0.09557 h 0.46721 v 0.05309 c -0.53093,0 -0.89196,0.03185 -1.06186,0.08495 h -0.0425 z m 1.52908,0.552167 h 0.085 v 0.04247 h -0.085 z m 0.21237,0.318558 h 0.0849 v 0.05309 h -0.0849 z m -5.26683,0.785777 c 0.0106,-0.07433 0.13804,-0.159279 0.38227,-0.276084 h 0.0425 c -0.0637,0.09557 -0.19114,0.191135 -0.38227,0.276084 z m 5.77652,-0.233609 h 0.0425 c 0.0531,0.03186 0.0956,0.05309 0.12742,0.05309 v 0.04247 h -0.0425 c -0.0531,-0.03186 -0.0956,-0.04247 -0.12743,-0.04247 z m -2.42104,0.233609 h 0.0849 v 0.04247 h -0.0849 z m -0.97691,0.318558 0.80701,-0.276083 h 0.12743 v 0.05309 c -0.0743,0 -0.39289,0.106186 -0.93444,0.318558 z m -2.59094,-0.22299 h 0.085 v 0.04247 h -0.085 z m -0.25485,0.22299 c 0,-0.05309 0.0319,-0.08495 0.085,-0.09557 v 0.09557 z m 5.4792,-0.04247 h 0.38227 c 0.21238,0 0.31856,0.04247 0.3398,0.138042 h -0.0425 c -0.0743,0 -0.15927,-0.03186 -0.25484,-0.09557 -0.0531,0.03186 -0.10619,0.04247 -0.1699,0.04247 h -0.0425 l -0.21238,-0.04247 z m -5.56414,0.04247 c 0.0531,0 0.0849,0.03186 0.0849,0.09557 h -0.0425 c -0.24423,0.159279 -0.37165,0.276083 -0.38227,0.361032 l -0.0849,-0.04247 z m 2.20866,0.371651 c 0.0319,0 0.0743,-0.02124 0.12743,-0.05309 h 0.0425 v 0.05309 c -0.0318,0 -0.0743,0.01062 -0.12742,0.04247 h -0.0425 z m 2.506,-0.05309 h 0.0849 v 0.05309 h -0.0849 z m -1.35919,0.509693 c 0.71145,-0.307939 1.13619,-0.4566 1.27424,-0.4566 h 0.0425 v 0.04247 c -0.19113,0 -0.61588,0.159279 -1.27423,0.4566 h -0.0425 z m -3.86517,-0.371651 h 0.0425 v 0.05309 c 0,0.106186 -0.0849,0.201754 -0.25485,0.276084 h -0.0425 c 0.16989,-0.159279 0.25484,-0.265465 0.25484,-0.329177 z m 2.12372,0.276084 h 0.0849 v 0.05309 h -0.0849 z m 1.01939,0.329177 c 0.0425,0 0.18052,-0.07433 0.42474,-0.23361 h 0.0849 v 0.04248 c -0.0531,0 -0.20175,0.08495 -0.46722,0.233609 h -0.0425 z m 0,0.138041 c 0.0425,0 0.25485,-0.106186 0.63712,-0.329176 h 0.0425 v 0.05309 c -0.22299,0.08495 -0.57341,0.286702 -1.06186,0.594642 h -0.0425 l 0.0849,-0.138042 c -0.10618,0 -0.23361,0.07433 -0.38227,0.233609 h -0.0425 v -0.09557 c 0.32918,-0.201754 0.55217,-0.329177 0.67959,-0.371652 z m 1.52908,-0.233609 h 0.12742 v 0.09557 h -0.12742 z m -0.72207,0.318558 c 0,-0.07433 0.15928,-0.14866 0.46722,-0.22299 h 0.1699 v 0.04247 c -0.23361,0.02124 -0.42475,0.08495 -0.55217,0.180516 z m -4.62971,-0.08495 h 0.0425 v 0.08495 h -0.0425 z m 3.69528,0 v 0.04248 h 0.0849 v -0.04248 z m -4.03507,0.318559 h 0.0849 v 0.04247 h -0.0849 z m 4.12001,0.138041 c 0.0531,0 0.11681,-0.03186 0.21238,-0.09557 h 0.0425 v 0.05309 c -0.0531,0 -0.1168,0.03186 -0.21237,0.08495 h -0.0425 z m -4.16249,0 h 0.0849 v 0.09557 h -0.0849 z m 2.97321,0.318559 c 0,-0.03186 0.0956,-0.127424 0.29732,-0.276084 v 0.05309 c 0,0.04247 -0.0849,0.116804 -0.25484,0.222991 z m -3.10063,-0.222991 h 0.0425 v 0.180516 h -0.0849 c 0.0319,-0.106186 0.0425,-0.169898 0.0425,-0.180516 z m 2.88826,0.414125 c 0,-0.05309 0.0318,-0.08495 0.0849,-0.09557 h 0.0425 c 0,0.06371 -0.0318,0.09557 -0.0849,0.09557 z m -5.43673,5.330539 c 0.0849,-0.584023 0.15928,-1.008767 0.21238,-1.284851 0.24422,-1.189283 0.96629,-2.559083 2.16619,-4.098781 v 0.05309 c -1.29547,1.921968 -2.01753,3.376716 -2.16619,4.364247 0,0.03186 0.0318,0.04247 0.0849,0.04247 v 0.09557 c -0.0318,0 -0.0425,-0.01062 -0.0425,-0.04247 -0.0956,0 -0.15928,0.350414 -0.21237,1.051242 h -0.0425 z m 10.57613,-5.054455 h 0.0425 v 0.276084 h -0.0425 z m -8.02766,0.414126 c 0.0425,-0.09557 0.085,-0.138042 0.12742,-0.138042 -0.0212,0.14866 -0.0637,0.22299 -0.12742,0.22299 z m -0.93444,-0.09557 h 0.0849 v 0.04247 h -0.0849 z m 3.01568,0.276084 c 0,-0.05309 0.0319,-0.08495 0.0849,-0.09557 v 0.05309 c 0,0.05309 -0.0318,0.08495 -0.0849,0.08495 z m -3.1431,0.732684 c 0,-0.05309 0.0318,-0.08495 0.0849,-0.08495 v 0.04247 c 0,0.06371 -0.0319,0.09557 -0.0849,0.09557 z m -0.21237,0.318558 h 0.0425 v 0.276083 h -0.12742 z m 1.40165,0.414125 h 0.0425 v 0.09557 h -0.0425 z m -1.61403,0.05309 h 0.0425 v 0.276084 h -0.0849 c 0,-0.02124 0.0106,-0.116805 0.0425,-0.276084 z m 1.52908,0.08495 h 0.0425 v 0.05309 c -0.085,0.138042 -0.12743,0.233609 -0.12743,0.276084 h -0.0425 v -0.05309 c 0.0849,-0.138042 0.12742,-0.23361 0.12742,-0.276084 z m -0.21237,0.371651 h 0.0425 v 0.09557 h -0.0425 z m -1.18928,0.04248 h 0.0849 v 0.09557 h -0.0849 z m -1.40166,0.191134 h 0.0425 v 0.08495 h -0.0425 z m -0.0849,0.552168 h 0.0425 v 0.08495 h -0.0425 z m 9.34437,0.04247 h 0.0425 v 0.138042 h -0.0425 z m 0.0425,3.217437 0.63711,-1.104335 c 0.52032,-1.231758 0.81764,-1.911348 0.89197,-2.017534 -0.5097,1.422893 -1.01939,2.484753 -1.52908,3.164344 z m -8.53736,-3.03692 c 0.0531,0 0.0849,0.03186 0.0849,0.09557 h -0.0849 z m -1.10433,0.09557 h 0.0425 v 0.09557 h -0.0425 z m 1.01938,0.09557 h 0.0425 v 0.08495 c -0.0319,0.403507 -0.0956,0.605261 -0.1699,0.605261 0,-0.116805 0.0425,-0.339796 0.12742,-0.69021 z m -0.46722,0.04247 h 0.0849 c -0.0318,0.05309 -0.0425,0.127423 -0.0425,0.233609 h -0.0425 z m 8.70726,0.414125 c 0.0849,-0.276083 0.15928,-0.414125 0.21237,-0.414125 h 0.0425 c -0.13805,0.265465 -0.21238,0.414125 -0.21238,0.4566 h -0.0425 z m -9.34437,-0.233609 h 0.0425 v 0.09557 h -0.0425 z m -0.0849,0.276084 h 0.0425 v 0.09557 h -0.0425 z m 0.25485,0.191135 h 0.0425 v 0.08495 h -0.0425 z m 0.67959,0.732683 c 0,-0.339795 0.0425,-0.509693 0.12742,-0.509693 -0.0531,0.488456 -0.085,0.987531 -0.085,1.475986 v 0.222991 h -0.0849 c 0,-0.06371 -0.0106,-0.127423 -0.0425,-0.180516 l 0.085,-0.138042 z m -1.01939,-0.4566 h 0.0425 v 0.08495 h -0.0425 z m 8.9621,0.08495 h 0.0425 v 0.05309 c -0.0956,0.265465 -0.27609,0.573405 -0.55217,0.9132 v -0.04247 c 0.33979,-0.552168 0.50969,-0.849489 0.50969,-0.923819 z m -8.32498,0.05309 h 0.0425 v 0.180516 h -0.0425 z m -0.67959,0.08495 h 0.0425 v 0.138042 h -0.0425 z m 0.0849,0.329177 h 0.0425 v 0.138042 h -0.0425 z m 0.72207,0 h 0.0425 v 0.318558 h -0.0425 z m -0.1699,0.04247 h 0.0425 c 0,0.371651 0.0318,0.594642 0.0849,0.637116 -0.0318,0.116805 -0.0425,0.265466 -0.0425,0.467219 l -0.085,-0.05309 c 0,-0.116805 0.0106,-0.244228 0.0425,-0.361033 0,-0.03185 -0.0106,-0.14866 -0.0425,-0.371651 z m -0.38227,0.04247 h 0.0425 c 0,0.106186 0.0106,0.180516 0.0425,0.233609 -0.0319,0 -0.0425,0.01062 -0.0425,0.04247 v 0.828251 h -0.0425 c 0,-0.09557 -0.0425,-0.138041 -0.12742,-0.138041 v -0.04248 c 0.0318,0 0.0743,-0.02124 0.12742,-0.05309 0,-0.127423 -0.0318,-0.254846 -0.0849,-0.361032 0.0531,0 0.0849,-0.169898 0.0849,-0.509693 z m 1.10434,0 h 0.0425 v 0.191134 h -0.0425 z m -1.40166,0.233609 c 0.0531,0.03186 0.0956,0.04247 0.12742,0.04247 v 0.09557 c -0.0318,0 -0.0743,0.01062 -0.12742,0.04247 z m 9.21695,0.04247 h 0.0425 v 0.09557 h -0.0425 z m -8.40994,0.05309 h 0.0425 v 0.127424 h -0.0425 z m 8.15509,0.04247 h 0.085 c -0.1168,0.169897 -0.1699,0.286702 -0.1699,0.318558 h -0.0425 v -0.04247 c 0.085,-0.14866 0.12742,-0.233609 0.12742,-0.276083 z m -0.50969,0.08495 h 0.0425 v 0.09557 h -0.0425 z m 0.21237,0.09557 h 0.0425 v 0.09557 h -0.0425 z m 0.3398,0 h 0.0849 c 0,0.06371 -0.0319,0.09557 -0.0849,0.09557 z m -8.49489,0.04247 h 0.0425 c 0,0.127424 0.0106,0.254847 0.0425,0.371652 h -0.0425 c 0,-0.03186 -0.0106,-0.07433 -0.0425,-0.138042 z m 0.3398,0.09557 h 0.0425 l 0.0425,0.233609 v 0.138042 h -0.0425 l -0.0425,-0.276084 z m 7.68787,0.09557 c 0,-0.05309 0.0318,-0.08495 0.0849,-0.09557 v 0.04247 c 0,0.06371 -0.0319,0.09557 -0.0849,0.09557 z m -7.60292,0.318558 h 0.0425 v 0.138042 h -0.0425 z m 0.12742,0 h 0.0849 v 0.09557 c -0.0425,0 -0.0743,-0.03186 -0.0849,-0.09557 z m -0.76454,0.23361 h 0.0425 c 0.0849,0.403507 0.16989,0.732683 0.25484,0.966293 v 0.04247 h -0.0425 c -0.0743,-0.307939 -0.14866,-0.4566 -0.21237,-0.4566 0,-0.03186 0.0106,-0.05309 0.0425,-0.05309 0,-0.127423 -0.0319,-0.254846 -0.085,-0.361032 z m 0.67959,0 h 0.0425 v 0.08495 h -0.0425 z m 8.91963,0 h 0.0425 v 0.08495 h -0.0425 z m -9.08953,0.04247 h 0.0425 l 0.0849,0.04247 -0.0425,0.233609 h -0.0425 z m 0.21238,0.138042 h 0.0425 v 0.09557 h -0.0425 z m 6.75343,0.233609 c 0.0743,-0.127423 0.12742,-0.191135 0.1699,-0.191135 v 0.05309 c -0.0637,0.116805 -0.12743,0.180517 -0.1699,0.180517 z m -6.71096,-0.09557 h 0.0425 c 0,0.09557 0.0318,0.201753 0.0849,0.318558 0,0.06371 -0.0318,0.09557 -0.0849,0.09557 l 0.0849,0.180517 v 0.05309 h -0.0425 c 0,-0.06371 -0.0425,-0.169898 -0.12742,-0.329177 0,-0.04247 0.0319,-0.07433 0.085,-0.08495 0,-0.03186 -0.0106,-0.08495 -0.0425,-0.138042 z m -0.50969,0.138042 h 0.12742 c 0.2867,0.541548 0.42475,0.849488 0.42475,0.923818 0,0.05309 -0.0319,0.08495 -0.085,0.08495 h -0.0425 c -0.13804,-0.520312 -0.2867,-0.849488 -0.42474,-0.966293 z m 7.05075,0.138041 c 0,-0.05309 0.0319,-0.08495 0.0849,-0.09557 h 0.0425 c 0,0.06371 -0.0319,0.09557 -0.0849,0.09557 z m -6.37116,0.180517 h 0.0425 c 0,0.05309 0.0319,0.138042 0.085,0.233609 v 0.04247 h -0.0425 c 0,-0.05309 -0.0319,-0.127423 -0.0849,-0.22299 z m 6.41364,0.233609 c 0.0743,-0.127423 0.12742,-0.180516 0.16989,-0.180516 h 0.0425 c -0.0637,0.116804 -0.12743,0.180516 -0.1699,0.180516 z m -0.25485,0.233609 c 0.0743,-0.127423 0.12742,-0.191135 0.1699,-0.191135 h 0.0425 c -0.0637,0.127424 -0.12742,0.191135 -0.1699,0.191135 z m -1.23176,0.552168 c 0.37165,-0.339796 0.63712,-0.552168 0.80702,-0.647735 h 0.0425 c -0.20175,0.233609 -0.47784,0.445981 -0.80701,0.647735 z m -5.4792,-0.605261 h 0.0425 v 0.09557 h -0.0425 z m 0.67959,0 h 0.12743 v 0.09557 h -0.12743 z m 5.90395,0.09557 h 0.0849 v 0.04247 h -0.0849 z m -5.819,0.04247 c 0.0531,0 0.0849,0.03186 0.0849,0.09557 v 0.04247 c -0.0425,0 -0.0743,-0.03186 -0.0849,-0.08495 z m -0.59464,0.233609 h 0.0425 v 0.09557 h -0.0425 z m 0.25485,0 h 0.0849 v 0.04248 c 0,0.06371 -0.0318,0.09557 -0.0849,0.09557 z m 0.25484,0.09557 h 0.0849 v 0.04247 c 0.27608,0.180517 0.56279,0.477837 0.84949,0.870726 h -0.12742 c -0.0637,0 -0.11681,-0.01062 -0.1699,-0.04247 -0.0531,-0.244227 -0.1699,-0.371651 -0.3398,-0.371651 -0.14866,-0.276083 -0.24422,-0.414125 -0.29732,-0.414125 z m 6.75343,0.276084 c 0.10619,-0.159279 0.1699,-0.23361 0.21238,-0.23361 h 0.0425 c -0.10619,0.148661 -0.1699,0.23361 -0.21237,0.23361 z m -6.83838,-0.09557 c 0.0531,0 0.085,0.03186 0.085,0.09557 v 0.04247 c -0.0531,-0.03186 -0.0956,-0.04247 -0.12742,-0.04247 z m 6.66849,0.233609 c 0,-0.05309 0.0318,-0.08495 0.0849,-0.09557 h 0.0425 c 0,0.06371 -0.0319,0.09557 -0.085,0.09557 z m -1.14681,1.837019 c 0.0425,0 0.31856,-0.159279 0.80701,-0.467219 h 0.0425 v 0.05309 l -0.80702,0.4566 h -0.0425 z m -0.55217,0.318558 c 0.12742,0 0.23361,-0.03186 0.3398,-0.09557 h 0.0849 v 0.05309 c -0.0849,0 -0.18051,0.03185 -0.29732,0.08495 h -0.12742 z m -2.37857,0.371651 h 0.0849 v 0.04247 h -0.0849 z m 0.1699,0.08495 h 0.0425 c 0.0319,0 0.0425,0.02124 0.0425,0.05309 l 1.01939,0.361033 c 0.0531,0 0.0849,-0.03186 0.0849,-0.08495 l 0.21238,0.04247 0.29732,-0.09557 v 0.09557 c -0.0212,0.09557 -0.10619,0.138042 -0.25485,0.138042 h -0.0849 c -0.53093,0 -0.92382,-0.127423 -1.18928,-0.371651 h -0.0425 l -0.0849,0.05309 c 0,-0.07433 -0.0106,-0.138042 -0.0425,-0.191135 z m 1.78393,0.329177 h 0.29732 v 0.04247 l -0.21238,0.04248 h -0.0849 z M 152.19135,71.13216 v 0.08495 h 0.12743 v 0.04248 c -0.0849,0 -0.12743,0.03186 -0.12743,0.08495 l -0.21237,-0.04247 v -0.04247 h 0.12743 v -0.08495 h -0.5097 l -0.42474,0.04247 c -0.18052,0.222991 -0.30794,0.339796 -0.38227,0.339796 v -0.127424 l 0.0425,-0.08495 c -0.0318,0 -0.0425,-0.01062 -0.0425,-0.04247 -0.085,0 -0.90258,0.212372 -2.46352,0.637116 -1.25299,0.435363 -2.06001,0.785777 -2.42104,1.061861 0.0743,0 0.35041,-0.09557 0.80701,-0.297321 l 0.0849,0.04247 c 0.0849,0 0.63712,-0.201753 1.65651,-0.594642 h 0.0425 v 0.04248 c -1.75207,0.658353 -3.01568,1.221139 -3.78022,1.698976 l -0.0849,-0.04247 -0.25485,0.08495 v 0.04247 l 0.0425,0.08495 c -0.13805,0.106186 -0.21238,0.169898 -0.21238,0.212372 0.0849,0 0.60526,-0.201753 1.57156,-0.594642 h 0.0425 v 0.04247 c -0.46722,0.22299 -0.72206,0.339795 -0.76454,0.339795 v 0.08495 l 0.76454,-0.127423 c 0.0637,0 0.11681,0.01062 0.1699,0.04247 l 0.97691,-0.212372 h 0.0425 v 0.04247 c -0.13805,0 -0.26547,0.08495 -0.38227,0.254847 v 0.04247 c 0.0637,0 0.1168,0.01062 0.16989,0.04247 0.0319,-0.03186 0.21238,-0.05309 0.55217,-0.08495 v 0.04247 c 0.50969,0 0.94506,-0.07433 1.31671,-0.212372 h 0.0425 v 0.04247 c -0.0531,0 -0.15928,0.04247 -0.29732,0.127423 0,-0.03186 -0.0106,-0.04247 -0.0425,-0.04247 h -0.0425 c 0,0.05309 -0.16989,0.180516 -0.50969,0.382269 v 0.04247 c 0.25485,0.307939 0.40351,0.467218 0.42474,0.467218 0.11681,-0.07433 0.1699,-0.127423 0.1699,-0.169897 0.54155,-0.116805 0.86011,-0.212372 0.93444,-0.297321 v 0.04247 l -0.0425,0.08495 c -0.64773,0.307939 -0.97691,0.477837 -0.97691,0.509693 v 0.04247 h 0.21237 l 0.3398,-0.254846 0.0425,0.297321 c -0.0956,0 -0.19113,0.04247 -0.29732,0.127423 0,0.03186 0.0106,0.04247 0.0425,0.04247 0,0.04247 -0.0956,0.180517 -0.29732,0.424745 v 0.04247 l 0.0425,0.08495 c -0.1168,0 -0.26546,0.09557 -0.42474,0.297321 -0.11681,0.22299 -0.20176,0.339795 -0.25485,0.339795 v 0.127423 c 0,0.03186 -0.0425,0.05309 -0.12742,0.08495 -0.22299,0.392888 -0.37165,0.594642 -0.42475,0.594642 l 0.0425,0.212372 c -0.0425,0 -0.12743,0.04247 -0.25485,0.127423 -0.0319,0.30794 -0.14866,0.467219 -0.33979,0.467219 -0.0531,-0.03186 -0.10619,-0.04247 -0.1699,-0.04247 l -0.085,0.04247 c 0,-0.03186 -0.0106,-0.04247 -0.0425,-0.04247 h -0.0425 l -0.0849,0.04247 c 0,-0.03186 -0.0106,-0.04247 -0.0425,-0.04247 -0.0425,0 -0.0743,0.03186 -0.0849,0.08495 -0.0319,0 -0.0425,-0.01062 -0.0425,-0.04247 l -0.42474,0.04247 h -0.1699 c -0.0637,0 -0.1168,-0.01062 -0.1699,-0.04247 -0.0531,0.03186 -0.10618,0.04247 -0.16989,0.04247 h -0.38227 c -0.20176,0 -0.29732,0.04248 -0.29732,0.127423 h -0.085 c -0.13804,0 -0.37165,0.04247 -0.67959,0.127424 v 0.08495 h 0.0425 c 0.63712,0.08495 1.07248,0.212372 1.31671,0.382269 l -0.0425,0.08495 c 0.11681,0 0.1699,0.07433 0.1699,0.212372 h 0.25485 v 0.04247 c -0.085,0 -0.18052,0.03185 -0.29732,0.08495 0,0.05309 0.0318,0.08495 0.0849,0.08495 l -0.0425,0.08495 v 0.127423 c 0,0.06371 0.26547,0.138042 0.80702,0.212372 v 0.169898 h -0.25485 v 0.08495 c 0.10619,0 0.19113,0.03186 0.25485,0.08495 h 0.0425 l 0.0849,-0.04248 0.0425,0.08495 c -0.18051,0.05309 -0.27608,0.08495 -0.29732,0.08495 v 0.04247 c 0,0.08495 0.0849,0.127424 0.25485,0.127424 l -0.0849,0.127423 c 0,0.05309 0.0319,0.08495 0.0849,0.08495 0,0.02124 -0.0319,0.106186 -0.0849,0.254846 -0.0637,0 -0.18052,0.244228 -0.3398,0.722065 v 0.08495 l 0.0849,-0.04247 v 0.127423 l -0.0425,0.08495 -0.0849,-0.04247 v 0.169898 c -0.0319,0 -0.0425,-0.01062 -0.0425,-0.04247 -0.0743,0.05309 -0.11681,0.08495 -0.12743,0.08495 0,0.03186 0.0106,0.07433 0.0425,0.127424 -0.13804,0.424744 -0.21238,0.67959 -0.21238,0.764539 l 0.0425,0.08495 -0.1699,0.169898 c 0,0.06371 0.0106,0.116804 0.0425,0.169897 l -0.21238,0.637116 v 0.04248 h 0.0425 l 0.0849,-0.04248 c -0.20176,0.552168 -0.35042,1.444131 -0.46722,2.675889 h 0.0849 c 0,-0.07433 0.0425,-0.30794 0.12742,-0.679591 h 0.0425 v 0.04247 c 0,0.03186 -0.0106,0.07433 -0.0425,0.127424 l 0.085,0.04247 c 0.12742,0 0.25485,-0.679591 0.38227,-2.038772 0.2867,-0.626497 0.42474,-0.976911 0.42474,-1.06186 h -0.0425 c 0,-0.116805 0.0531,-0.329177 0.1699,-0.637116 l -0.0425,-0.08495 h 0.12743 l -0.0425,0.08495 v 0.08495 c 0.0637,-0.05309 0.26547,-0.4566 0.59464,-1.189283 h 0.0425 v 0.04247 l -0.1699,0.424744 v 0.04247 h 0.085 v -0.08495 h 0.0425 v 0.04247 c -0.55216,0.98753 -0.94505,1.985679 -1.18928,3.015684 l 0.0425,0.08495 0.12743,-0.08495 c -0.0531,0.339795 -0.18052,0.891963 -0.38227,1.656502 v 0.08495 l 0.0425,0.08495 c -0.0425,0 -0.10618,0.297321 -0.1699,0.891962 0.0212,0.30794 0.0637,0.467219 0.12743,0.467219 0.0637,0 0.1168,-0.116805 0.16989,-0.339795 h 0.12743 c 0.10618,-0.09557 0.27608,-0.562786 0.50969,-1.401656 h 0.0425 v 0.169898 h 0.0849 c 0,-0.06371 0.15928,-0.435363 0.46722,-1.104335 h 0.0425 v 0.127423 h 0.0849 c 0.0743,-0.424744 0.16989,-0.637116 0.29732,-0.637116 0.15928,-0.509693 0.4566,-1.210521 0.89196,-2.081247 l 0.085,0.04248 c 0.15928,-0.127423 0.42474,-0.626498 0.80701,-1.486605 h 0.0425 v 0.04248 c -0.0531,0.09557 -0.085,0.180516 -0.085,0.254846 0.0319,0 0.0743,0.01062 0.12742,0.04247 h 0.0425 v -0.04247 c 0,-0.05309 -0.0319,-0.07433 -0.0849,-0.08495 0.1168,-0.138041 0.20175,-0.265465 0.25484,-0.382269 0.15928,0 1.09372,0.4566 2.80331,1.359181 0.223,0 0.64774,0.286702 1.27424,0.849488 1.01938,0.9132 1.61402,1.560935 1.78392,1.953823 0.58403,1.136191 0.93444,1.762689 1.06186,1.868875 0.0531,0 0.0849,-0.03186 0.0849,-0.08495 v -0.297321 c 0,-0.06371 0.0106,-0.116805 0.0425,-0.169898 -0.11681,-0.690209 -0.1699,-1.168046 -0.1699,-1.44413 v -0.127423 h 0.0425 c 0.0743,0.307939 0.13804,0.467218 0.21238,0.467218 h 0.0425 c -0.0956,-0.382269 -0.21237,-0.637116 -0.3398,-0.764539 v -0.127423 c 0.20176,0.180516 0.32918,0.361032 0.38227,0.552167 h 0.085 v -0.04247 c 0,-0.297321 -0.13804,-0.615879 -0.42474,-0.976912 l 0.0425,-0.212372 c 0,-0.541549 -0.71144,-1.380418 -2.12372,-2.50599 -0.84949,-0.658354 -1.68836,-1.168047 -2.50599,-1.529079 v -0.04247 h 0.0425 l 0.42474,0.169898 c 1.09372,0.594642 1.68836,0.891963 1.78393,0.891963 v -0.04247 c -0.30794,-0.286702 -0.56279,-0.424744 -0.76454,-0.424744 v -0.08495 h 0.0849 c 0.0637,0 0.50969,0.244228 1.3167,0.722065 h 0.085 c -0.49907,-0.435362 -1.17866,-0.828251 -2.03877,-1.189283 -0.0319,0 -0.0743,0.01062 -0.12742,0.04247 -0.18052,-0.201753 -0.31856,-0.297321 -0.42475,-0.297321 v -0.04247 c 0.60526,-0.116805 1.14681,-0.254847 1.61403,-0.424744 l 0.0849,0.04247 c 0.0318,-0.05309 0.0425,-0.09557 0.0425,-0.127423 h 0.21237 v 0.04247 c -0.71144,0.30794 -1.06186,0.499075 -1.06186,0.552168 0.0743,0 0.43537,-0.138042 1.10434,-0.424745 0.0106,0 0.0743,0.01062 0.1699,0.04247 0,-0.05309 0.0318,-0.07433 0.0849,-0.08495 v 0.08495 h 0.12742 l 0.29732,-0.169898 c 0.0531,0 0.32918,-0.127423 0.80701,-0.38227 1.07248,-0.626497 1.61403,-0.98753 1.61403,-1.06186 h 0.0425 v 0.127423 h 0.0849 c 0,-0.03186 -0.0106,-0.07433 -0.0425,-0.127423 v -0.04247 h 0.0849 l 0.085,0.04247 c 0,-0.03186 0.0106,-0.04247 0.0425,-0.04247 l -0.0425,-0.08495 c 0.13804,0 0.21237,-0.03186 0.21237,-0.08495 l 0.42474,-0.509693 c 0.25485,-0.127423 0.6265,-0.488456 1.10434,-1.104335 0.22299,-0.615879 0.38227,-0.955674 0.46722,-1.019386 v -0.127423 c 0,-1.093716 -0.54155,-2.070628 -1.61403,-2.930735 -0.0319,0 -0.0425,0.01062 -0.0425,0.04248 -0.10619,-0.09557 -0.23361,-0.159279 -0.38227,-0.212372 l -0.0849,0.04247 c -0.15928,-0.14866 -0.42475,-0.276084 -0.80702,-0.38227 h -0.12742 l -0.12742,-0.08495 h -0.085 c 0,0.03186 -0.0106,0.07433 -0.0425,0.127423 -0.47783,-0.106186 -0.72206,-0.180516 -0.72206,-0.212372 -0.0743,0 -0.15928,0.03186 -0.25485,0.08495 0,-0.03186 -0.0106,-0.07433 -0.0425,-0.127424 -0.0319,0 -0.0743,0.01062 -0.12743,0.04248 -0.24422,0 -0.79639,-0.01062 -1.6565,-0.04248 -0.12742,0 -0.25484,0.03186 -0.38227,0.08495 l -0.21237,-0.169898 z m -0.38227,0.127424 h 0.12743 l -0.0425,0.08495 c -0.0425,0 -0.0743,-0.03186 -0.0849,-0.08495 z m -2.37856,0.552167 c 0.69021,-0.169898 1.0831,-0.254846 1.18928,-0.254846 h 0.0849 v 0.04247 c -0.14866,0 -0.56279,0.08495 -1.23176,0.254847 h -0.0425 z m -0.55217,0.169898 c 0.0849,0 0.22299,-0.04248 0.42474,-0.127423 h 0.0849 v 0.04247 c -0.0849,0 -0.22299,0.04247 -0.42474,0.127423 h -0.0849 z m 4.84208,-0.08495 h 0.12743 v 0.04247 h -0.12743 z m -5.05445,0.169898 c 0.0319,0 0.0743,-0.01062 0.12742,-0.04247 h 0.0425 v 0.04247 c -0.0319,0 -0.0743,0.01062 -0.12743,0.04247 h -0.0425 z m -0.12743,0.04247 h 0.085 v 0.04247 h -0.085 z m 6.88086,0.509693 h 0.0849 v 0.04247 h -0.0849 z m -7.51797,0.424744 c 0.0425,-0.08495 0.0849,-0.127423 0.12742,-0.127423 v 0.04247 c 0,0.05309 -0.0319,0.08495 -0.085,0.08495 z m 5.77652,0.08495 0.0849,-0.04247 c 0,0.03186 0.0106,0.04247 0.0425,0.04247 h 0.1699 c 0.1168,0 0.27608,0.01062 0.46722,0.04247 0.0531,-0.03185 0.0956,-0.04247 0.12742,-0.04247 0.0531,0 0.0849,0.03186 0.0849,0.08495 0.0319,0 0.0743,-0.01062 0.12742,-0.04248 l 0.55217,0.127424 v 0.04247 h -0.0425 c -0.48846,-0.116805 -1.18929,-0.169898 -2.08125,-0.169898 h -0.0849 c -0.26546,0 -0.59464,0.01062 -0.97691,0.04248 h -0.0849 v -0.04248 c 0.46722,-0.03185 0.81763,-0.04247 1.06186,-0.04247 z m -6.45611,0.08495 c 0.0531,0 0.1168,-0.03186 0.21237,-0.08495 v 0.04247 c -0.0425,0.08495 -0.085,0.127424 -0.12742,0.127424 h -0.085 z m 4.45981,0 h 0.12742 v 0.04247 h -0.12742 z m -0.29732,0.04247 h 0.0849 v 0.04247 h -0.0849 z m 3.9926,0.04247 h 0.0425 c 0.15928,0.03186 0.26547,0.04247 0.3398,0.04247 v 0.04247 h -0.12743 c -0.0212,0 -0.10618,-0.01062 -0.25484,-0.04247 z m 0.42474,0.08495 h 0.0849 v 0.04248 h -0.0849 z m -4.33239,0.637117 c 0.20175,-0.03186 0.32918,-0.05309 0.38227,-0.08495 v 0.04247 c 0.0956,0 0.1699,-0.01062 0.21237,-0.04247 0.30794,0.03186 0.58402,0.04247 0.80702,0.04247 h 0.0849 c 0.10619,0 0.23361,-0.01062 0.38227,-0.04247 0.0531,0.03186 0.10619,0.04247 0.1699,0.04247 l 0.21237,-0.04247 0.0425,0.08495 0.0849,-0.04247 h 0.16989 l 0.0849,0.04247 c 0,-0.05309 0.0319,-0.07433 0.0849,-0.08495 0,0.03186 0.0106,0.07433 0.0425,0.127423 l 0.21237,-0.04247 c 0.25484,0.02124 0.38227,0.09557 0.38227,0.212372 0,0.03186 -0.0425,0.05309 -0.12743,0.08495 h -0.0425 c 0,-0.03186 0.0106,-0.04247 0.0425,-0.04247 0,-0.07433 -0.35041,-0.127423 -1.06186,-0.169897 -0.1168,0.05309 -0.16989,0.09557 -0.16989,0.127423 -0.0425,0 -0.0743,-0.03186 -0.0849,-0.08495 -0.0425,0 -0.0743,0.03186 -0.0849,0.08495 v 0.08495 l 0.0425,0.08495 c 0.0956,0 0.1699,-0.01062 0.21238,-0.04247 0.36103,0.05309 0.5734,0.08495 0.63711,0.08495 l 0.085,-0.04247 0.0425,0.08495 0.21237,-0.04247 h 0.12742 c 0.0743,0 0.20175,0.03186 0.38227,0.08495 0.0531,0 0.0849,-0.03186 0.0849,-0.08495 0.0743,0.07433 0.23361,0.127423 0.46722,0.169898 l 0.0849,-0.04248 c 0,0.05309 0.0318,0.08495 0.0849,0.08495 h 0.12742 l 0.12742,-0.08495 c 0,0.244228 -0.35041,0.679591 -1.06186,1.316707 0,0.03186 0.0106,0.07433 0.0425,0.127423 -0.4566,0.477837 -0.75392,0.722065 -0.89197,0.722065 -0.21237,0.23361 -0.38227,0.361033 -0.50969,0.38227 v 0.04247 l 0.0425,0.08495 c -0.20175,0.06371 -0.43536,0.201754 -0.67959,0.424744 v 0.04247 h 0.0425 c 0.1699,0 0.67959,-0.212372 1.52908,-0.637116 h 0.0425 l -0.0425,0.08495 c -0.3398,0.106186 -0.71145,0.276084 -1.10434,0.509693 -1.80516,1.072479 -2.83516,1.614028 -3.10063,1.614028 -0.37165,-0.04247 -0.55217,-0.09557 -0.55217,-0.169897 v -0.08495 c 0.28671,-0.329177 0.4566,-0.605261 0.5097,-0.807014 0.16989,-0.138042 0.38227,-0.392889 0.63711,-0.76454 l 0.38227,-0.722065 c 0,0.08495 0.0319,0.127424 0.085,0.127424 l 0.29732,-0.169898 c 0,-0.03186 -0.0106,-0.07433 -0.0425,-0.127423 0,-0.05309 0.0849,-0.201754 0.25484,-0.467219 v -0.08495 h -0.12742 c -0.10619,0.116805 -0.21237,0.169898 -0.29732,0.169898 h -0.0425 v -0.04247 c 0.27608,-0.138041 0.44598,-0.212372 0.50969,-0.212372 v -0.08495 h -0.0849 v -0.08495 l 0.0849,-0.127424 V 75.5495 c -0.0849,0 -0.18052,0.03186 -0.29732,0.08495 h -0.0425 l 0.29732,-0.339795 c -0.0743,0 -0.19113,0.07433 -0.33979,0.212372 h -0.0425 c 0,-0.03186 0.0106,-0.07433 0.0425,-0.127423 0,-0.08495 -0.0425,-0.127423 -0.12742,-0.127423 0,-0.106186 0.0531,-0.159279 0.16989,-0.169898 v -0.08495 c -0.0318,0 -0.0743,0.01062 -0.12742,0.04247 h -0.0425 v -0.04247 c 0.24422,-0.286702 0.38226,-0.424744 0.42474,-0.424744 l -0.0425,-0.08495 c -0.0531,0 -0.16989,0.03186 -0.33979,0.08495 l -0.0425,-0.08495 c 0.26546,-0.08495 0.41412,-0.127423 0.42474,-0.127423 v -0.08495 h -0.25485 l 0.0425,-0.08495 v -0.08495 c -0.0743,0 -0.11681,0.05309 -0.12743,0.169897 h -0.0425 z m 3.39795,0.04247 c 0.26547,0.05309 0.4566,0.116805 0.55217,0.169898 l 0.0849,-0.04247 0.12742,0.08495 0.085,-0.04247 c 0,0.03186 0.0106,0.04247 0.0425,0.04247 l 0.0849,-0.04247 0.21238,0.169897 c 0.0531,0 0.0849,-0.03186 0.0849,-0.08495 0.0531,0 0.0849,0.03186 0.0849,0.08495 l -0.0425,0.08495 -1.31671,-0.254846 z m -7.47549,0.04247 h 0.0849 v 0.04247 h -0.0849 z m 3.39795,0 h 0.21237 l -0.0425,0.08495 c -0.0531,-0.03186 -0.10619,-0.04247 -0.1699,-0.04247 z m -0.80702,0.127423 h 0.0425 v 0.127423 h -0.0425 z m 6.62601,0.254846 c 0.0531,0 0.0849,0.03186 0.0849,0.08495 v 0.04248 c -0.0425,0 -0.0743,-0.03186 -0.0849,-0.08495 z m 0.21238,0.169898 c 0,-0.05309 0.0319,-0.07433 0.0849,-0.08495 v 0.08495 z m -5.4792,0.08495 c 0,-0.08495 0.0318,-0.127423 0.0849,-0.127423 h 0.0425 v 0.127423 c -0.0319,0 -0.22299,0.159279 -0.55217,0.467218 v -0.04247 c 0,-0.01062 0.0849,-0.116805 0.25485,-0.297321 l -0.0425,-0.08495 c 0.0531,0 0.0849,-0.03186 0.0849,-0.08495 l 0.0849,0.04247 z m 4.9695,0.08495 h 0.0425 v 0.08495 h -0.0425 z m 0.12743,0.29732 c 0.0743,-0.116804 0.12742,-0.169897 0.16989,-0.169897 v 0.08495 c -0.0531,0 -0.0849,0.03186 -0.0849,0.08495 z m -0.29732,0.127424 c 0.0425,-0.08495 0.0849,-0.127424 0.12742,-0.127424 v 0.04248 c -0.0425,0.08495 -0.0849,0.127423 -0.12742,0.127423 z m -6.83839,-0.04247 h 0.0425 v 0.08495 h -0.0425 z m 2.08125,0.08495 h 0.0425 v 0.08495 h -0.0425 z m -2.33609,0.254847 h 0.0425 v 0.08495 h -0.0425 z m 6.62601,0.807014 c 0,-0.05309 0.0318,-0.07433 0.0849,-0.08495 h 0.0425 c -0.0425,0.08495 -0.0849,0.127423 -0.12742,0.127423 z m 0.25484,0.212372 c 0,-0.02124 0.0956,-0.106186 0.29732,-0.254847 h 0.0425 c 0,0.05309 -0.0956,0.138042 -0.29732,0.254847 z m -7.60292,0.04247 h 0.0425 v 0.08495 h -0.0425 z m 6.28622,0.38227 0.46721,-0.254847 h 0.0425 c 0,0.03186 -0.1699,0.138042 -0.50969,0.339796 z m -5.43673,-0.169898 h 0.0425 v 0.04247 c 0,0.116804 -0.0425,0.169897 -0.12743,0.169897 v -0.04247 c 0.0531,-0.07433 0.0849,-0.127423 0.0849,-0.169898 z m -0.1699,0.254847 h 0.0425 v 0.08495 h -0.0425 z m 5.819,0.29732 c 0.0531,0 0.1168,-0.03186 0.21237,-0.08495 h 0.0425 v 0.04247 c -0.0531,0 -0.1168,0.03186 -0.21237,0.08495 h -0.0425 z m -1.8264,1.529079 2.71836,-1.44413 h 0.0425 v 0.04247 c -0.81764,0.477837 -1.73084,0.966293 -2.71837,1.44413 h -0.0425 z m -3.6528,-1.359181 h 0.0425 v 0.08495 h -0.0425 z m -1.86888,0.04248 h 0.0425 v 0.08495 h -0.0425 z m -0.29732,0.339795 h 0.0425 v 0.169898 h -0.0849 c 0.0318,-0.09557 0.0425,-0.15928 0.0425,-0.169898 z m 3.61033,1.401656 c 0.93444,-0.23361 1.91135,-0.626498 2.93073,-1.189284 h 0.0425 v 0.04247 c -1.56094,0.796396 -2.52723,1.189284 -2.88826,1.189284 h -0.0849 z m -4.54476,-1.061861 h 0.0425 v 0.08495 h -0.0425 z m 6.62601,0 h 0.0849 v 0.04248 h -0.0849 z m -1.31671,0.722065 c 0.19113,-0.05309 0.44598,-0.169897 0.76454,-0.339795 v 0.08495 l -0.72207,0.297321 h -0.0425 z m 1.14681,0.04248 h 0.0849 v 0.04247 h -0.0849 z m -0.38227,0.169897 h 0.0849 v 0.04248 h -0.0849 z m -1.6565,0.169898 h 0.0849 v 0.04247 h -0.0849 z m 1.10433,0.04247 h 0.085 v 0.04247 h -0.085 z m -0.72206,0.467219 h 0.0849 v 0.04247 h -0.0849 z m -4.79961,0.934437 h 0.0425 v 0.08495 h -0.0425 z m 2.16619,0.38227 h 0.0425 v 0.08495 h -0.0425 z m -2.59094,0.38227 h 0.0425 v 0.08495 h -0.0425 z m 7.00828,1.06186 h 0.0425 c 0.16989,0.106186 0.25484,0.180516 0.25484,0.212372 v 0.04247 h -0.0425 c -0.1699,-0.127423 -0.25485,-0.212372 -0.25485,-0.254846 z m 0.55217,0.467219 h 0.0425 c 0.0212,0 0.10619,0.09557 0.25485,0.29732 h -0.0425 c -0.0531,0 -0.13804,-0.09557 -0.25484,-0.29732 z m 1.35918,0.04247 c 0.0849,0.04247 0.12742,0.08495 0.12742,0.127423 v 0.08495 c -0.085,-0.04247 -0.12742,-0.08495 -0.12742,-0.127423 z m 13.93161,-12.880366 c -0.0425,0 -0.0743,0.03186 -0.0849,0.08495 v 0.976912 c -0.46722,0.700828 -0.75392,1.157428 -0.84949,1.359181 -0.0531,0 -0.14866,-0.03186 -0.29732,-0.08495 0.13804,-0.286702 0.24423,-0.424744 0.3398,-0.424744 l -0.0849,-0.127423 c 0.12742,-0.159279 0.24423,-0.339795 0.33979,-0.552167 0,-0.08495 -0.0318,-0.127424 -0.0849,-0.127424 h -0.21237 l -0.1699,0.127424 v 0.552167 h -0.0425 c 0,-0.08495 -0.0319,-0.127423 -0.0849,-0.127423 h -0.0425 c -0.11681,0.371651 -0.22299,0.552167 -0.3398,0.552167 0,0.03186 0.0106,0.04247 0.0425,0.04247 -0.0106,0.244227 -0.25485,0.732683 -0.72207,1.486604 -1.70959,2.569702 -2.70774,4.120018 -3.01568,4.672186 h -0.0425 V 78.51209 l 0.25485,-0.424744 c 0.12742,-0.222991 0.21237,-0.339795 0.25485,-0.339795 0.41412,-0.753921 0.80701,-1.348563 1.18928,-1.783926 l -0.0425,-0.08495 h 0.0425 c 0.20175,-0.382269 0.37165,-0.626497 0.50969,-0.722065 l -0.0425,-0.08495 c 0.0318,0 0.0743,-0.01062 0.12742,-0.04247 0,-0.05309 -0.0318,-0.07433 -0.0849,-0.08495 l -0.16989,0.127423 c -0.61588,1.008768 -1.29547,2.049391 -2.03878,3.100633 -0.0531,-0.03186 -0.10618,-0.04248 -0.16989,-0.04248 v -0.127423 c 0,-0.138042 -0.0425,-0.222991 -0.12743,-0.254846 0,-0.03186 0.0106,-0.04247 0.0425,-0.04247 0,-0.138042 -0.13805,-0.276083 -0.42475,-0.424744 0.0531,0 0.0849,-0.03186 0.0849,-0.08495 0.0319,0 0.0425,0.01062 0.0425,0.04247 l 0.0849,-0.04247 -0.25484,-0.509693 h 0.0849 c 0,-0.09557 -0.0425,-0.191135 -0.12743,-0.297321 v -0.08495 l 0.0425,-0.08495 h -0.0425 c -0.23361,-0.530931 -0.48845,-0.998149 -0.76454,-1.401656 -0.63711,-1.539698 -1.10433,-2.442279 -1.40165,-2.718363 -0.0319,0 -0.10619,0.116805 -0.21237,0.339796 l 0.0425,0.08495 c -0.50969,0.08495 -0.76454,0.180516 -0.76454,0.29732 h -0.21237 v -0.08495 h -0.0849 v 0.254846 c 0.0425,0.138042 0.11681,0.212372 0.21237,0.212372 v 0.04247 h -0.0849 c -0.19113,-0.169898 -0.30794,-0.254847 -0.33979,-0.254847 v 0.08495 l 0.0425,0.08495 h -0.29732 c -0.20175,0 -0.41412,0.05309 -0.63711,0.169897 v 0.08495 c 0.21237,-0.05309 0.33979,-0.08495 0.38227,-0.08495 v 0.169898 c -0.0425,0 -0.0956,0.05309 -0.1699,0.169898 -0.0425,0 -0.0743,-0.03186 -0.0849,-0.08495 h 0.0849 v -0.08495 c -0.21237,-0.05309 -0.3398,-0.08495 -0.38227,-0.08495 -0.0425,0 -0.0743,0.03186 -0.0849,0.08495 v 0.127423 c 0.82825,1.114954 1.73083,2.240526 2.71836,3.397954 0.49908,0.711446 0.9132,1.199902 1.23176,1.44413 h 0.0425 c -0.33979,-0.743303 -0.54154,-1.125572 -0.59464,-1.14681 0,-0.03185 0.0106,-0.07433 0.0425,-0.127423 0,-0.05309 -0.0425,-0.08495 -0.12743,-0.08495 v -0.127423 c -0.0743,-0.169898 -0.12742,-0.254846 -0.16989,-0.254846 l -0.12743,0.08495 v -0.04247 l 0.12743,-0.169898 c -0.20176,-0.116804 -0.29732,-0.191134 -0.29732,-0.212372 0.13804,0 0.22299,-0.04247 0.25484,-0.127423 v -0.04247 c 0,-0.138042 -0.0425,-0.276084 -0.12742,-0.424744 v -0.04247 h 0.0425 c 0,0.06371 0.15928,0.361033 0.46722,0.891963 0.1699,0.371651 0.2867,0.552167 0.3398,0.552167 v 0.04247 l -0.0849,0.127423 v 0.04247 c 0,0.09557 0.1168,0.329177 0.33979,0.679591 0.0319,0 0.0425,-0.01062 0.0425,-0.04247 0.0637,0.02124 0.13804,0.116804 0.21237,0.29732 -0.0319,0 -0.0425,0.01062 -0.0425,0.04247 0,0.07433 0.12742,0.318558 0.38226,0.722065 l -0.33979,0.509693 -1.01939,1.911349 c 0,0.05309 0.0319,0.08495 0.0849,0.08495 0.0637,0 0.13804,-0.116804 0.21237,-0.339795 h 0.0425 v 0.04247 c -0.55217,0.998149 -0.92382,1.762689 -1.10434,2.293619 h 0.0425 c 0.0637,0 0.10618,-0.07433 0.12742,-0.212372 h 0.0425 v 0.04247 c -0.26547,0.594642 -0.40351,1.061861 -0.42475,1.401656 0.0319,0 0.0425,0.01062 0.0425,0.04247 -0.0425,0 -0.0743,0.03186 -0.0849,0.08495 v 0.38227 l -0.0425,0.297321 h 0.0425 c 0.0743,0 0.20175,-0.339795 0.38227,-1.019386 h 0.0425 v 0.04247 c -0.13804,0.53093 -0.21237,0.870726 -0.21237,1.019386 h 0.085 l 0.42474,-1.44413 c -0.0531,-0.116805 -0.0849,-0.201753 -0.0849,-0.254846 0.1699,-0.594642 0.30794,-0.891963 0.42475,-0.891963 0,0.03186 -0.0743,0.254846 -0.21237,0.679591 h 0.0849 c 0,-0.138042 0.0319,-0.212373 0.085,-0.212373 0.5097,-1.13619 1.18929,-2.421041 2.03878,-3.865171 0.0531,0 0.0956,0.07433 0.12742,0.212372 -0.21237,0.297321 -0.77516,1.316707 -1.69898,3.058158 0,0.09557 -0.085,0.297321 -0.25484,0.594641 l -0.67959,1.783926 0.0425,0.08495 c -0.13804,0.212372 -0.21237,0.637116 -0.21237,1.274232 v 0.679591 c 0,0.891963 0.15928,1.677739 0.46722,2.336093 h 0.0425 c 0.0637,-0.732684 0.14866,-1.401656 0.25485,-1.996298 h 0.0425 v 0.04247 c -0.0318,0.14866 -0.0425,0.276083 -0.0425,0.382269 v 0.04247 h 0.085 l 0.12742,-0.424744 c 0.80701,-1.868875 1.27423,-2.803312 1.40165,-2.803312 0,-0.116804 0.15928,-0.38227 0.46722,-0.807014 0.35042,-0.53093 0.58403,-0.828251 0.72207,-0.891962 0,-0.03186 -0.0106,-0.07433 -0.0425,-0.127424 0.085,-0.169897 0.12743,-0.265465 0.12743,-0.297321 l 0.085,0.04247 h 0.0425 c 0.085,-0.30794 0.18052,-0.467219 0.29732,-0.467219 0.0212,-0.22299 0.0743,-0.339795 0.1699,-0.339795 0.24423,-0.53093 0.40351,-0.817633 0.46722,-0.849488 0.61588,-1.093717 1.42289,-2.336093 2.42104,-3.737749 1.57155,-2.017535 2.69712,-3.578469 3.39795,-4.672186 l -0.0425,-0.08495 -0.1699,0.127423 h -0.0425 c 0,-0.05309 -0.0425,-0.08495 -0.12743,-0.08495 0.1699,-0.222991 0.25485,-0.350414 0.25485,-0.38227 0,-0.08495 -0.0531,-0.138042 -0.1699,-0.169897 0,-0.03186 0.0106,-0.04247 0.0425,-0.04247 l -0.0425,-0.169897 0.0425,-0.212372 -0.0849,-0.04247 -0.46722,0.467219 c 0.0849,-0.222991 0.12742,-0.350414 0.12742,-0.38227 h -0.0425 c -0.0637,0 -0.30794,0.233609 -0.72207,0.679591 h -0.0425 c 0.0531,-0.212373 0.19113,-0.605261 0.42474,-1.189284 v -0.04247 l -0.84949,-0.509693 -0.29732,0.04247 c 0,-0.07433 -0.0106,-0.180516 -0.0425,-0.339795 0.0318,-0.09557 0.0425,-0.159279 0.0425,-0.169898 -0.0318,0 -0.0743,-0.01062 -0.12742,-0.04247 z m -1.69898,2.251144 c -0.0425,0 -0.0743,0.03186 -0.085,0.08495 h 0.085 c 0.0531,0 0.0849,-0.03186 0.0849,-0.08495 z m -6.83838,0.29732 h 0.12743 v 0.08495 h -0.12743 z m 7.26313,0.297321 c 0,-0.05309 0.0318,-0.07433 0.0849,-0.08495 v 0.04247 c 0,0.05309 -0.0319,0.08495 -0.0849,0.08495 z m -7.09323,-0.04247 h 0.085 c 0.0531,0 0.0849,0.03186 0.0849,0.08495 v 0.04247 h -0.0425 c -0.0849,-0.04247 -0.12742,-0.08495 -0.12742,-0.127423 z m 6.9658,0.169898 h 0.0849 v 0.04247 c -0.0531,0.06371 -0.0849,0.127423 -0.0849,0.169898 h -0.0425 v -0.04247 z m -8.36746,0.127423 h 0.0849 c 0.0531,0 0.085,0.03186 0.085,0.08495 v 0.04247 h -0.085 c -0.0425,0 -0.0743,-0.03186 -0.0849,-0.08495 z m 7.68787,0.807014 c 0,-0.05309 0.0425,-0.08495 0.12743,-0.08495 0,-0.169898 0.0743,-0.254847 0.21237,-0.254847 0.0425,-0.169897 0.0849,-0.254846 0.12742,-0.254846 0,0.06371 0.0106,0.116805 0.0425,0.169898 l -0.42475,0.594641 c -0.0425,0 -0.0743,-0.03186 -0.0849,-0.08495 z m -8.24003,-0.424744 h 0.0849 c 0.0531,0 0.0849,0.03185 0.0849,0.08495 0,0.05309 -0.0318,0.08495 -0.0849,0.08495 -0.0425,0 -0.0743,-0.03186 -0.0849,-0.08495 z m 0.84949,0.04247 h 0.0849 v 0.04247 h -0.0849 z m 0.0849,0.127423 h 0.12743 v 0.127424 h -0.0425 c -0.0425,0 -0.0743,-0.03186 -0.0849,-0.08495 z m 0.12743,0.169898 h 0.12742 c 0,0.05309 -0.0319,0.08495 -0.085,0.08495 h -0.0425 z m 9.42932,0.08495 c 0,-0.05309 0.0318,-0.07433 0.0849,-0.08495 v 0.04247 c 0,0.05309 -0.0319,0.08495 -0.0849,0.08495 z m -10.23634,-0.04247 h 0.085 c 0.0956,0.04247 0.18052,0.148661 0.25485,0.339796 v 0.04247 h -0.0425 c -0.0956,-0.04247 -0.19113,-0.169898 -0.29732,-0.38227 z m 10.02397,0.297321 c 0.0425,-0.08495 0.0849,-0.127423 0.12742,-0.127423 v 0.04247 c -0.0425,0.08495 -0.085,0.127424 -0.12742,0.127424 z m -9.00458,-0.04247 h 0.0425 c 0.0425,0 0.0849,0.05309 0.12743,0.169897 v 0.04247 h -0.0425 c -0.0849,-0.04247 -0.12742,-0.08495 -0.12742,-0.127423 z m 5.35178,2.378567 c 0.32917,-0.477837 0.54154,-0.817632 0.63711,-1.019386 0.0531,0 0.20176,-0.222991 0.46722,-0.679591 0.13804,-0.424744 0.29732,-0.637116 0.46722,-0.637116 h 0.0849 c -0.21237,0.392889 -0.42475,0.700828 -0.63712,0.934437 v 0.04247 l 0.0425,0.08495 h -0.0849 c -0.0425,0.127423 -0.11681,0.233609 -0.21238,0.297321 -0.10618,0.265465 -0.82825,1.422892 -2.16619,3.482902 v -0.04247 c 0,-0.07433 0.0319,-0.159279 0.0849,-0.254846 l -0.0425,-0.08495 c 0.10619,-0.286702 0.22299,-0.424744 0.3398,-0.424744 v -0.04247 l -0.0425,-0.08495 c 0.14866,-0.106186 0.2867,-0.276083 0.42474,-0.509693 0.0425,-0.169897 0.0849,-0.254846 0.12742,-0.254846 0.31856,-0.499074 0.49908,-0.753921 0.55217,-0.76454 0,-0.03186 -0.0106,-0.04247 -0.0425,-0.04247 z m 3.39795,-2.081246 c 0.0425,-0.08495 0.0849,-0.127424 0.12742,-0.127424 h 0.0425 c -0.0637,0.116805 -0.12743,0.169898 -0.1699,0.169898 z m -8.53736,0.04247 c 0.0849,0.04248 0.12742,0.08495 0.12742,0.127423 h -0.0425 c -0.0425,0 -0.0743,-0.03186 -0.0849,-0.08495 z m -0.67959,0.08495 h 0.0425 c 0.0531,0 0.0849,0.03186 0.0849,0.08495 v 0.04247 c -0.0849,-0.04247 -0.12742,-0.08495 -0.12742,-0.127423 z m 0.1699,0.212372 c 0.0531,0.03186 0.0956,0.04247 0.12742,0.04247 v 0.08495 h -0.0849 l -0.0849,-0.04247 z m 1.06186,0.127423 c 0.0425,0 0.1168,0.09557 0.21237,0.297321 v 0.04248 h -0.0425 c 0,-0.05309 -0.0531,-0.159279 -0.1699,-0.297321 z m -0.67959,0.297321 c 0.13804,0 0.21237,0.04248 0.21237,0.127423 h -0.1699 c 0,-0.03186 -0.0106,-0.07433 -0.0425,-0.127423 z m 8.07014,0 h 0.0425 v 0.08495 h -0.0425 z m -7.1357,0.08495 h 0.0425 c 0,0.03186 0.0106,0.07433 0.0425,0.127423 v 0.04248 h -0.0425 c 0,-0.03186 -0.0106,-0.07433 -0.0425,-0.127424 z m 7.05075,0.04247 h 0.0425 v 0.08495 h -0.0425 z m -7.77282,0.08495 c 0.1168,0.06371 0.1699,0.127424 0.1699,0.169898 v 0.04247 l -0.21237,-0.04247 v -0.08495 z m 7.68787,0.04248 h 0.0425 v 0.08495 h -0.0425 z m -7.51797,0.254846 h 0.12742 v 0.08495 h -0.0425 c -0.0425,0 -0.0743,-0.03186 -0.0849,-0.08495 z m 7.3056,0.04248 h 0.0425 v 0.08495 h -0.0425 z m -0.12743,0.212372 c 0,-0.05309 0.0319,-0.07433 0.0849,-0.08495 v 0.04247 c 0,0.05309 -0.0318,0.08495 -0.0849,0.08495 z m -7.00827,-0.04248 h 0.12742 v 0.08495 h -0.0425 c -0.0425,0 -0.0743,-0.03186 -0.0849,-0.08495 z m 6.88085,0.212372 c 0,-0.05309 0.0319,-0.07433 0.085,-0.08495 v 0.04247 c 0,0.05309 -0.0319,0.08495 -0.085,0.08495 z m -4.71466,0 c 0.0531,0 0.0849,0.03186 0.0849,0.08495 v 0.127423 h -0.0425 c 0,-0.03185 -0.0106,-0.07433 -0.0425,-0.127423 z m 4.62971,0.08495 h 0.0425 v 0.08495 h -0.0425 z m -0.0849,0.127423 h 0.0425 v 0.08495 h -0.0425 z m -6.20126,0.424745 h 0.085 v 0.04247 h -0.085 z m 0.84949,0.339795 h 0.0425 v 0.08495 h -0.0425 z m -0.46722,0.04247 c 0.0531,0 0.0956,0.08495 0.12742,0.254847 v 0.04247 h -0.0425 c 0,-0.05309 -0.0319,-0.116804 -0.0849,-0.212372 z m 0.55217,0.127424 h 0.0425 v 0.08495 h -0.0425 z m 1.44413,0.722065 h 0.0425 v 0.08495 h -0.0425 z m 3.35547,0.254846 c 0,-0.05309 0.0319,-0.07433 0.0849,-0.08495 v 0.08495 z m -4.12001,0.934437 0.21237,-0.212372 v 0.08495 l -0.42475,0.722065 c -0.0425,0 -0.0743,-0.03186 -0.0849,-0.08495 h 0.0425 c 0.0849,-0.254846 0.19113,-0.38227 0.29732,-0.38227 v -0.04247 z m 0.38227,0 h 0.0849 l -0.0425,0.212372 -0.0849,-0.04247 z m -0.25485,0.212372 c 0.0425,-0.116804 0.0849,-0.169897 0.12742,-0.169897 v 0.04247 c -0.0531,0.06371 -0.0849,0.127423 -0.0849,0.169898 h -0.0425 z m -0.3398,0.934437 c 0,-0.09557 0.15928,-0.371651 0.46722,-0.849488 l 0.0849,0.04247 -0.12742,0.212372 c -0.20176,0.276083 -0.29732,0.467218 -0.29732,0.594641 z M 161.918,80.33849 c 0,-0.116805 0.0531,-0.201754 0.1699,-0.254847 h 0.0425 c -0.0637,0.169898 -0.12742,0.254847 -0.1699,0.254847 z m -0.085,0.04247 h 0.12742 v 0.08495 c -0.1168,0.138042 -0.1699,0.222991 -0.1699,0.254847 l 0.0425,0.08495 c -0.15928,0.127423 -0.25485,0.265465 -0.29732,0.424744 h -0.0425 v -0.04247 c 0,-0.05309 0.085,-0.212372 0.25485,-0.467218 0,-0.03186 -0.0106,-0.07433 -0.0425,-0.127424 0.1168,-0.04247 0.16989,-0.08495 0.16989,-0.127423 z m 3.44043,0.04247 h 0.0425 v 0.08495 h -0.0425 z m -3.27053,0.127423 h 0.0425 v 0.04247 c -0.0319,0.05309 -0.0425,0.09557 -0.0425,0.127424 h -0.0425 v -0.04247 c 0.0319,-0.05309 0.0425,-0.09557 0.0425,-0.127423 z m 0.0849,0.127423 h 0.0425 v 0.04247 l -0.0425,0.08495 c 0.0319,0 0.0425,0.01062 0.0425,0.04247 -0.0425,0.08495 -0.0849,0.127423 -0.12742,0.127423 l 0.0425,0.08495 -0.0425,0.08495 -0.0849,-0.04247 c 0,-0.05309 0.0531,-0.191134 0.1699,-0.424744 z m -0.3398,0.552168 0.12742,-0.08495 c 0,0.06371 0.0106,0.116804 0.0425,0.169897 -0.0319,0.05309 -0.0425,0.09557 -0.0425,0.127424 -0.0531,0 -0.0956,-0.07433 -0.12742,-0.212372 z m -0.12742,0.297321 c 0,-0.05309 0.0319,-0.07433 0.085,-0.08495 h 0.0425 c -0.0425,0.08495 -0.0849,0.127423 -0.12742,0.127423 z m -0.63712,1.231758 h 0.0425 v 0.08495 h -0.0425 z m -0.50969,1.698976 h 0.0849 v 0.08495 c -0.0425,0 -0.0743,-0.03186 -0.0849,-0.08495 z m 0.89196,2.081247 h 0.0425 v 0.08495 h -0.0425 z m -0.0849,1.019386 h 0.0425 v 0.127423 h -0.0425 z"
       id="text2"
       aria-label="VICTORY" />
  </g>
</svg>
