<svg width="89.712" height="75.238" viewBox="0 0 23.736 19.907" xmlns:xlink="http://www.w3.org/1999/xlink" xmlns="http://www.w3.org/2000/svg"><defs><linearGradient id="prefix__a"><stop offset="0" stop-color="#340000"/><stop offset=".469" stop-color="red"/><stop offset=".899" stop-color="#ffa400"/><stop offset="1" stop-color="#fed900"/></linearGradient><linearGradient xlink:href="#prefix__a" id="prefix__b" x1="368.208" y1="426.902" x2="369.276" y2="370.05" gradientUnits="userSpaceOnUse"/></defs><path d="M301.82 373.364c-2.224 2.88-3.354 4.484-3.354 4.812h-.146v-.146c0-.036.292-.583.875-1.604v-.291c-.364 0-1.057.729-2.041 2.187l-.292-.146c-4.484 6.344-7.73 10.792-9.77 13.417v-.146c6.416-9.042 10.572-14.948 12.395-17.646v-.146c-.51.584-.802.875-.875.875v-.291h-.146c-.474.364-1.896 2.005-4.229 4.958v-.437c-.11 0-1.349 1.75-3.792 5.25-.109 0-.146-.037-.146-.146-.145.036-.546.547-1.166 1.604-1.75 2.406-3.026 3.9-3.792 4.52-.146.693-.328 1.022-.583 1.022 0 .109.036.145.146.145 0 .22-.256.365-.73.438 0 .62-.437 1.24-1.312 1.896v-.146c.911-1.313 1.64-2.48 2.187-3.5v-.146h-.145c-.328.146-1.058 1.02-2.188 2.625-1.896 3.318-3.245 5.396-4.083 6.27-.328.949-1.021 1.897-2.042 2.918-2.26 3.135-3.792 5.395-4.667 6.854l-4.52 6.416c-1.203 2.042-2.042 3.063-2.48 3.063v.146l.146.291c-.255.037-.692.62-1.312 1.75-1.386 1.97-2.406 3.245-3.063 3.792 0 .401-.437.948-1.312 1.604h-.146v-.146h.292v-.437h-.292v.292h-.146v-.146c1.021-1.495 1.969-2.808 2.917-3.938l.291.146h.146c.183 0 .292-.11.292-.292h-.583l6.708-9.479 3.5-5.25c0-.11-.037-.255-.146-.437.474-.693.73-1.13.73-1.313.947-.765 1.822-2.005 2.624-3.646v-.145l-.583.291c-.438.766-.73 1.167-.875 1.167l.146.292c-.146.291-.292.437-.438.437h-.291v-.292h-.292v.875c-.438 0-.766.183-1.02.584 0 .11.036.255.145.437 0 .11-.11.146-.292.146-1.166 1.349-4.849 6.526-11.083 15.458-.984 1.167-1.458 1.86-1.458 2.042h-.146v-.146l.146-.291c0-.183-.146-.292-.438-.292.11-.401.255-.73.438-1.02v-.147h-.438v-.146l.583-.583v-.292h-.291v-.145h.291c0-.11-.036-.146-.145-.146 0-.11.036-.255.145-.438a1.07 1.07 0 01-.145-.583l.145-.73c-.109 0-.145-.036-.145-.145h.437v-.146l-.437-.583v-.146l.291.146h.146v-.146c0-.255-.11-.547-.292-.875v-.292l.292.146h.146v-.292l-.146-.291c.11-.11.328-.693.583-1.75-.473 0-.729-.11-.729-.292.146-.292.292-.437.438-.437 0-.183-.11-.401-.292-.73 0-.182.146-.291.438-.291v-.146l-.146-.292c.11 0 .146-.036.146-.146l-.146-.291c.182-.11.328-.146.437-.146v-.292h-.291c.291-.437.437-.765.437-1.02h-.437c.182-.256.291-.402.291-.438v-.146c0-.182-.146-.292-.437-.292v-.145l.146-.73h.145v.292h.292c0-.875.292-1.312.875-1.312v-.292c0-.182-.11-.255-.292-.292h-.145c-.438.474-.657.73-.73.73h-.145v-.438l.291.146h.146c0-.11.037-.255.146-.438-.182-.328-.292-.62-.292-.875v-.729c0-.219.146-.875.438-1.896 0-.182-.11-.4-.292-.729v-.146l.438.292h.145c0-.438-.145-1.386-.437-2.77v-.293h.146c0 .292.11.438.291.438h.146v-.146c0-.219-.291-.911-.875-2.042.183-1.567.292-2.442.292-2.625.583-1.24.875-2.041.875-2.479a2.908 2.908 0 00-.583-.146l.145-1.458v-.437l-.145-1.021.291-.146c-.4-1.64-.984-2.48-1.75-2.48-2.15.292-3.463.438-3.937.438h-2.771l-1.02-.146c0 .11-.475.22-1.46.292 0-.182-.109-.255-.29-.292-.402.22-.584.438-.584.584v.146c.182 0 .474-.11.875-.292v1.75h.291c.183-.875.438-1.313.73-1.313l-.146-.291c.182 0 .4-.11.729-.292h.146v.146l-1.459 2.042v.145h.146l.292-.145v.145c-.474.438-.73.912-.73 1.459v.146h.147l.729-.584v.146l-.292.438v.145h.292l-.146.73v.729l.146 1.458c-.11 0-.401.401-.875 1.167l.146.291c.328-.145.948-.948 1.895-2.479v.292c-.473 1.422-.875 2.15-1.166 2.187 0 .985-.11 2.151-.292 3.5.146 2.042.365 3.063.73 3.063h.291l-.146-1.75v-.146l.146-.875c-.11-.146-.146-.401-.146-.73l.146-1.02c-.146 0-.255-.11-.292-.292.11 0 .256-.036.438-.145-.292-.693-.438-1.13-.438-1.313v-.146c.22 0 .401.037.584.146h.145c0-.182-.109-.255-.291-.292l.291-1.02h.146c.292 1.458.438 3.208.438 5.25v3.937l-.146.292h.146c-.11 1.24-.146 1.968-.146 2.187h-.146c0-.328-.146-1.13-.437-2.333.109 0 .145-.037.145-.146-.109 0-.182-.146-.291-.437-.11 0-.146.036-.146.145-.11 0-.255-.036-.438-.145-.145 0-.291.474-.437 1.458l.292 2.917h.291c0-.365.11-.657.292-.875v-.292c0-.073-.182-.292-.583-.73.109 0 .255.037.437.147.182 0 .292-.11.292-.292v-.292c-.401-.437-.584-.802-.584-1.166h.584l.437 3.645h.146l.292-.145c.182.875.291 1.385.291 1.458h-.291v-.583h-.292c-.583 8.64-.875 14.51-.875 17.645 0 1.86.146 3.464.438 4.813.984 2.807 1.604 4.849 1.895 6.125.402.656.584 1.167.584 1.458 1.13.51 1.713 1.058 1.75 1.604 1.786-.145 2.953-.291 3.5-.437.219 0 1.24-1.057 3.062-3.208 3.464-4.157 5.214-6.38 5.25-6.709 2.443-2.953 3.646-4.63 3.646-5.104.985-.984 2.297-2.807 3.938-5.396l-.146-.291.729-.438-.438-.583v-.146c.766 0 1.568-.875 2.48-2.625v-.146h-.146c-.255 0-.401.182-.438.583h-.291c.291-.62.583-.984.875-1.02l.291.145c0-.109.037-.145.146-.145l-.292-.438v-.146c0-.11.037-.146.146-.146 1.203-2.15 1.896-3.208 2.042-3.208a89.143 89.143 0 016.27-10.062c.438-1.313 1.167-2.553 2.188-3.792l-.146-.292-.291.146h-.146c.438-.838 1.057-1.786 1.896-2.917-.255 0-.693.292-1.313.875v-.145c3.646-4.521 6.125-8.204 7.438-11.084v-.291c-1.13 1.057-1.787 1.604-1.896 1.604-.255 1.349-1.24 2.953-2.917 4.812v-.146c.693-1.02 1.021-1.53 1.021-1.604v-.146c-1.823 2.115-4.047 5.287-6.708 9.48l-.292-.146h-.146l-.146 1.02-.291-.145h-.146c0 .4-.146.583-.438.583l.292-.875c9.406-12.906 14.875-20.635 16.48-23.187zm-3.5 1.312h.146v.292h-.146zm-2.77 3.5c.145-.291.291-.437.437-.437v.146c-.146.291-.292.437-.438.437zm-.73.875h.146v.584h-.146zm-.437.584h.146v.291h-.146zm-.438.583h.146v.292h-.146zm-.291.437h.146v.292h-.146zm-.292.438h.146v.292h-.146zm0 5.25v.292h.146v-.292zm-39.52.437l1.02-.145h.583v.145l-.729.146h-.875zm-4.23-.145c-1.057.437-1.604.729-1.604.875 1.276 1.166 1.896 2.114 1.896 2.916v1.021h.291v-1.896c0-.255-.11-.547-.291-.875.109 0 .182-.146.291-.437a1.07 1.07 0 00-.583-.146v-.73l.146-.728zm8.312.437c0-.182.11-.255.292-.292h.146v.146c0 .183-.11.292-.292.292h-.146zm.875.146c.11 0 .256-.037.438-.146h.292c0 .182-.11.292-.292.292h-.438zm33.105 1.604h.146v.292h-.146zm-39.813.875h.583v.146l-.729 2.333h-.146v-1.75l.292.146h.146v-.146zm.146 2.042c.146-.292.292-.438.437-.438h.292l-.146.73h-.291c-.146 0-.256-.11-.292-.292zm34.563 0h.145v.291h-.145zm-37.042.146v2.041l-.146 1.021c.11 0 .146.182.146.583v.438h.291V394.8l.146-.729c-.11 0-.146-.036-.146-.146.11-.838.146-1.349.146-1.458a2.909 2.909 0 01-.146-.583zm10.5.291h.146v.292h-.146zm25.812.584h.146v.291h-.146zm-3.5.875h.146v.291h-.146zm6.709.291h.145v.292h-.145zm-4.23.292h.146v.292h-.146zm-.583.875h.146v.146c-.693.984-1.02 1.64-1.02 1.896h-.293c0-.146.402-.839 1.167-2.042zm-3.208.583h.146v.146a37.703 37.703 0 01-3.063 4.52v-.145c1.896-2.807 2.88-4.302 2.917-4.52zm7 1.459c0-.292.11-.438.291-.438 0 .037-.036.255-.145.583h-.146zm-5.396.437c0-.182.11-.255.292-.292v.438h-.292zm-.292.292c.183.11.328.146.438.146v.145c-.401 0-.693.329-.875 1.021h-.146v-.146c0-.072.182-.474.583-1.166zm3.209.729c.145-.292.291-.438.437-.438v.146c-.146.292-.292.438-.437.438zm-26.25-.146h.145l.146 1.75v.73h-.146l-.145-1.313zm25.958.438h.146v.291h-.146zm-4.23 1.312c0-.401.183-.693.584-.875v.146c-.255.474-.437.73-.583.73zm3.938-.875h.146v.292h-.146zm-9.187.583v.292h.146v-.292zm2.041.584h.146v.291h-.146zm2.625.291h.146v.292h-.146zm-2.916.146h.146v.292h-.146zm-.292.438h.146v.291h-.146zm-.292.437h.146v.292h-.146zm-.729 1.021h.146v.292h-.146zm-.291.438h.145v.291h-.145zm-.292.437h.146v.292h-.146zm-1.604 2.333h.146v.292h-.146zm-3.063.292h.146v.292h-.146zm2.771.146h.146v.292h-.146zm-2.917.583h.292c-.11.183-.146.328-.146.438h-.146zm1.75.875c0-.146.183-.291.584-.437v.146c0 .182-.11.291-.292.291zm-2.187-.146h.146v.292h-.146zm2.042.438h.291c-.11.182-.146.328-.146.437h-.291c.11-.182.146-.328.146-.437zm-3.209.146h.146v.291h-.146zm.73.146h.145v.291h-.146zm8.895.145h.292v.292h-.292zm-6.708.146h.146v.292h-.146zm-3.5.875h.146v.292h-.146zm-12.98.292h.292v.146h-.291zm12.834.146c.182.11.328.146.438.146 0 .182-.11.291-.292.291l-.292-.146zm-.437.583h.437v.292c0 .182-.11.291-.292.291 0-.109-.036-.255-.145-.437zm-1.459 2.625h.146v.292h-.146zm-.729 1.02h.146v.293h-.146zm-13.27.438h.145v.875h-.146zm24.353 1.021h.146v.438h-.291c.109-.183.145-.328.145-.438zm-12.395.584c0-.183.109-.256.291-.292v.146c0 .182-.11.291-.291.291zm-.584.729h.146v.291h-.146zm-11.52.875h.145v.437h-.146zm10.062 1.166h.146v.292h-.146zm12.104 0h.292v.146h-.292zm-12.687.73h.291c-.182.218-.291.437-.291.583h-.146v-.146c.11-.182.146-.328.146-.437zm-.73.145h.292v.146h-.292zm-.583 1.459c.11 0 .255-.037.438-.146v.146c0 .182-.11.291-.292.291h-.146zm-.875 1.312h.292c0 .183-.11.292-.292.292zm-1.02 2.625h.145v.73h-.146zm2.478 7.875c0-.182.11-.255.292-.291v.291zm-.729.73c.146-.292.292-.438.438-.438v.146c-.146.291-.292.437-.438.437zm-3.354.729h.292v.145h-.292zm.146.583h.292v.146h-.292zm.437.875c.146 0 .365-.11.584-.292h.146c0 .146-.183.292-.584.438h-.146zm1.021 1.312h.292v.146h-.292zm-1.896.875h.146v.292h-.146zm.292.146h.292v.146h-.292zm1.896 0h.292v.146h-.292zm63.036-55.708c-1.932 0-4.921.766-9.041 2.333-3.1 1.422-4.776 2.37-5.104 2.771-1.35.693-2.042 1.13-2.042 1.313-1.167.51-1.786.911-1.896 1.166-1.458.948-2.187 1.604-2.187 1.896l-.292-.146h-.146c0 .146-.292.62-.875 1.459-.11 0-.255-.037-.437-.146-.474.474-.73.802-.73 1.02h-.291l.146-.291h-.146c-.875.656-1.313 1.094-1.313 1.312-.4.146-.583.365-.583.73-.11 0-.146-.037-.146-.146-.693.51-1.02.984-1.02 1.458l-1.167.73c0 .29-.183.437-.584.437v.291l.146.292-1.75 1.02c0 .183.146.293.438.293 0 .145-.329.291-1.021.437 0 .11.036.255.146.438-.584.182-.875.474-.875.875l-1.605 2.187c0 .11.037.146.146.146 0 .036-.11.182-.291.437v.292l.145.292c-.145.4-.328.583-.583.583v.438l.146.291h-.583v.146c.109 0 .291.62.583 1.896 0 .875 1.568 1.677 4.667 2.333.328.146.911.985 1.75 2.48.437 2.223.765 3.354 1.02 3.354h.73l.291-.146v.437c.037 0 .438-.11 1.167-.291l.146.291.291-.146c1.568 0 3.026-.145 4.375-.437.037 0 .256.036.584.146a19.22 19.22 0 015.25-.73h.146c-.292.292-.693.876-1.167 1.75-5.031 4.266-7.984 7.22-8.896 8.896-3.755 2.443-6.38 4.375-7.875 5.834 2.48-1.167 4.23-2.188 5.25-3.063.474 0 2.625-1.276 6.417-3.791v.291h-.146l-9.188 6.417h.292l.73-.438h.145v.146c-.292 0-.437.11-.437.292-1.86.838-2.771 1.568-2.771 2.187l-.292-.145c-.802.838-1.713 1.421-2.77 1.75h-.292v-.146c.802-.292 1.421-.73 1.895-1.313h-.291c-6.235 3.5-9.735 5.651-10.5 6.417.547 0 3.39-1.13 8.458-3.354h.146v.146c-6.052 2.625-9.953 4.448-11.667 5.541v.146c.183 0 .474-.11.875-.292h.146v.146l-2.187.73v.291c1.932-.182 2.916-.401 2.916-.583.11 0 .146.036.146.146v.145c1.64 0 6.235-1.494 13.854-4.52.037 0 .256.036.584.145l1.75-.875h.145l-.583.73v.145c.182 0 1.313-.62 3.354-1.895h.146l-.146.291h.146c.474 0 .766-.146.875-.437 3.136-1.276 7.182-3.755 12.104-7.438h.146l-.146.292v.146c.22 0 1.24-.73 3.063-2.188 6.89-5.833 10.354-10.099 10.354-12.833 0-.11-.037-.255-.146-.438.11 0 .182-.145.292-.437 0-.693-.401-1.13-1.167-1.313v-.437h.583c0 .292.11.437.292.437v-.291l-.583-.73v-.729c0-.182.11-.255.291-.291 0-.62-.291-1.203-.875-1.75-.729-1.313-1.312-2.151-1.75-2.48h-.145l.145.73h-.145l-.73-.438c0-.11.037-.255.146-.437l-.437-.584c-.292 0-.693.146-1.167.438-.802-.583-1.385-.875-1.75-.875h-.146c-.328 0-.656.146-1.02.437h-.146c0-.328-.401-.583-1.167-.729l-.583.146-.292-.146c-.146.11-.401.146-.73.146v.292h.876v.146c-1.604.109-2.807.145-3.646.145h-1.02l-.876.438-.437-.292h-.438c-.146 0-.255.11-.292.292l-.291-.146h-.146c-.365.255-.948.474-1.75.583v-.291h.583v-.292h-.291l-.292.146c0-.11-.037-.146-.146-.146h-.437v.292h.291c0 .036-.11.182-.291.437l-.73-.146h-.583l-.729.146c.11-.474.255-.729.437-.729h.146c0 .292.11.438.292.438 0-.839.437-1.459 1.312-1.896.62-.875.985-1.313 1.167-1.313 1.531-1.458 2.406-2.187 2.625-2.187.11-.438.73-.985 1.896-1.604 3.865-3.245 6.635-5.068 8.312-5.542 1.021-.73 2.188-1.313 3.5-1.75l.73.146c.109-.146.145-.401.145-.73h.438c.036.402.182.584.437.584h.438c.146 0 .583-.328 1.312-1.02.22 0 .402.036.584.145v.437l.146.292c.4-.182.583-.474.583-.875l.292.146h.291c.183 0 .292-.11.292-.292.255 0 .984.146 2.187.438.256 0 1.386.838 3.355 2.479l.291-.146-.437-.875v-.146c.036 0 .182.11.437.292h.146c0-1.276-.875-2.516-2.625-3.646l.146-.292-.146-.291-.729.146v-.292l.146-.73h-.292c-.328 0-.583-.327-.729-1.02v-.292l1.458 1.167v-.73c.474 0 .985.292 1.459.876h.145c-1.713-4.193-4.921-6.271-9.625-6.271zm-.875.437c.292 0 .62-.036 1.021-.145l.146.291h-1.167zm1.313-.145h.437v.145h-.437zm5.25 1.02h.292v.146h-.292zm-12.688 1.75h.292v.146h-.292zm14.875 1.167c.474.073.73.219.73.438-.474-.073-.73-.22-.73-.438zm-7.437.146h.583v.146h-.583zm2.48 0h.728c.183 0 .292.11.292.292.11 0 .146-.037.146-.146.51.11.802.146.875.146v.291c-.219 0-.875-.11-2.042-.291zm-14 .583c0-.182.109-.255.29-.291v.437zm16.187.146h.583c.328.292.547.438.73.438v.145h-.147c-.474-.291-.875-.437-1.166-.437zm-17.792.583h.292v.146h-.292zm6.708 2.334c2.26-1.35 4.448-2.115 6.563-2.334h.291v.146c-1.822 0-5.286 1.495-10.354 4.521h-.146v-.146c1.714-1.166 2.662-1.75 2.771-1.75 0 .11.037.146.146.146h.146c0-.255.146-.474.437-.73.11 0 .146.037.146.147zm-7.437-1.604c0-.183.11-.256.291-.292h.146c0 .182-.11.292-.291.292zm.583.875h.292v.145h-.292zm-4.52 1.312h.145c.182.11.328.146.438.146v.146h-.146c-.182-.11-.328-.146-.438-.146zm19.395 1.02h.438v.147h-.438zm7.583 0h.146c.584.329.875.584.875.73v.146c-.692-.51-1.02-.802-1.02-.875zm-28.729.438h.292v.146h-.292zm8.604.875c0-.182.11-.255.292-.291v.291zm-9.625 0h.438v.146h-.438zm30.188 0h.146v.292h-.146zm-21.438.584c0-.183.11-.255.292-.292h.146c0 .182-.11.292-.292.292zm-10.354.875c0-.183.11-.255.292-.292h.146v.292zm-.291.146l.291.145c-.146.51-.729.985-1.75 1.459h-.146v-.146c.329 0 .839-.474 1.605-1.458zm-1.75 1.75h.291v.145h-.291zm-.292.437h.292v.146c-.474.182-.73.437-.73.73h-.437v-.293c.365 0 .656-.182.875-.583zm-2.333 2.188c.328 0 .62-.146.875-.438v.146l-.584.73c-.146 0-.255-.11-.291-.293zm-.292.583h.292v.146h-.292zm.875.146h.146v.291h-.146zm-1.75 1.02c.182-.51.437-.802.73-.874h.145c-.365.583-.62.875-.73.875zm-.583.584c.145-.292.291-.438.437-.438v.146c-.146.292-.292.438-.437.438zm1.166-.292h.292c0 .183-.11.292-.292.292zm-1.604.584h.292v.145c-.219.401-.438.584-.584.584v-.146c.183-.255.292-.438.292-.583zm-.146 1.604c.037 0 .547-.547 1.459-1.604v.291c-.51 0-1.203 1.86-2.042 5.542.11 0 .182.146.292.437v.146c-.438 0-1.021-.291-1.75-.875 0-.182.145-.547.437-1.02a2.909 2.909 0 01-.146-.584c.11 0 .256-.036.438-.146.328-.875.693-1.312 1.02-1.312v-1.021zm-.875-.146h.146v.292h-.146zm2.771 0h.292v.146h-.292zm-3.062.437h.291c-.182.22-.291.438-.291.584h-.146v-.146c.11-.182.146-.328.146-.438zm-2.042 2.771h.146v.292h-.146zm-.146.438h.146v.291h-.146zm29.896 0c.182 0 .292.11.292.291h-.438zm-29.604.291h.291v.146h-.291zm32.083 4.084c.182 0 .292.11.292.291v.146h-.292zm1.021 2.77h.146v.292h-.146zm-13.125 3.646c.583-.802 1.276-1.458 2.042-2.041h.145c-1.203 1.349-1.895 2.041-2.041 2.041zm4.375-2.041h.292v.146h-.292zm-1.896 2.041c0-.182.11-.255.292-.291v.146c0 .182-.11.291-.292.291zm-1.312.146c0-.182.109-.255.291-.291h.146c0 .182-.11.291-.292.291zm-2.334.875c.146-.291.292-.437.438-.437h.146c-.146.291-.292.437-.438.437zm-2.187 1.604c.291 0 .875-.437 1.75-1.312h.146a9.4 9.4 0 01-2.334 2.042l.292-.875c.11 0 .146.036.146.145zm12.25-.437c.255-.401.437-.583.583-.583v.145c-.219.401-.437.584-.583.584zm-1.021 1.167c0-.183.11-.256.292-.292h.145c-.145.292-.291.437-.437.437zm-12.98 1.02c.074-.255.292-.51.73-.729h.292c0 .11-.292.365-.875.73zm11.96 0c.145-.291.29-.437.437-.437v.146c0 .182-.11.291-.292.291zm-3.21 0h.292c0 .183-.109.292-.291.292zm-12.833 3.209l3.792-3.063h.146c-.62.912-1.24 1.495-1.896 1.75-1.13.875-1.75 1.313-1.896 1.313zm15.313-2.48c.255-.4.437-.583.583-.583v.146c-.218.401-.437.583-.583.583zm-6.417 2.771l3.646-3.062h.146v.292c-2.333 1.859-3.573 2.77-3.646 2.77zm5.98-2.479h.291c0 .183-.11.292-.292.292zm-.584.73c0-.183.11-.256.292-.292h.146c0 .182-.11.291-.292.291zm-13.417 0h.292v.145h-.292zm1.605.583h.291v.146h-.291zm10.645.437c0-.182.11-.255.292-.291h.146c0 .182-.11.291-.292.291zm-14.583 2.48c.438-.438 1.677-1.313 3.646-2.626h.146c-.328.365-1.531 1.24-3.646 2.625zm1.021-1.896h.292v.145h-.292zm8.75.583c0-.182.11-.255.292-.292h.145c0 .183-.109.292-.291.292zm-10.208 1.458h.291v.146h-.291zm-.584 5.834h.292v.145h-.292zm-4.52 2.479h.291v.146h-.292zm-1.605.875c.183 0 .62-.183 1.313-.584h.146c0 .22-.438.474-1.313.73h-.146zm-1.896-.438h.292v.146h-.292zm-11.812 7.292h.292v.146h-.292z" style="-inkscape-font-specification:'SINGLE FIGHTER, Normal';white-space:pre" transform="matrix(.26458 0 0 .26458 -65.119 -98.286)" aria-label="VS!" font-size="74.667" font-family="SINGLE FIGHTER" fill="url(#prefix__b)" stroke="#fff" stroke-width="3.78" stroke-linecap="round" stroke-linejoin="bevel" paint-order="stroke markers fill"/></svg>