<?xml version="1.0" encoding="UTF-8" standalone="no"?>
<!-- Created with Inkscape (http://www.inkscape.org/) -->

<svg
   width="23.736263mm"
   height="19.906693mm"
   viewBox="0 0 23.736264 19.906692"
   version="1.1"
   id="svg1"
   inkscape:export-filename="fight.svg"
   inkscape:export-xdpi="96"
   inkscape:export-ydpi="96"
   sodipodi:docname="vs.svg"
   inkscape:version="1.3.2 (091e20ef0f, 2023-11-25)"
   xmlns:inkscape="http://www.inkscape.org/namespaces/inkscape"
   xmlns:sodipodi="http://sodipodi.sourceforge.net/DTD/sodipodi-0.dtd"
   xmlns:xlink="http://www.w3.org/1999/xlink"
   xmlns="http://www.w3.org/2000/svg"
   xmlns:svg="http://www.w3.org/2000/svg">
  <sodipodi:namedview
     id="namedview1"
     pagecolor="#ffffff"
     bordercolor="#000000"
     borderopacity="0.25"
     inkscape:showpageshadow="2"
     inkscape:pageopacity="0.0"
     inkscape:pagecheckerboard="0"
     inkscape:deskcolor="#d1d1d1"
     inkscape:document-units="mm"
     inkscape:export-bgcolor="#ffffff00"
     inkscape:zoom="2.1291572"
     inkscape:cx="38.512891"
     inkscape:cy="14.794586"
     inkscape:window-width="1920"
     inkscape:window-height="1011"
     inkscape:window-x="1920"
     inkscape:window-y="32"
     inkscape:window-maximized="1"
     inkscape:current-layer="layer1" />
  <defs
     id="defs1">
    <linearGradient
       id="linearGradient1"
       inkscape:collect="always">
      <stop
         style="stop-color:#340000;stop-opacity:1;"
         offset="0"
         id="stop4" />
      <stop
         style="stop-color:#ff0000;stop-opacity:1;"
         offset="0.46856478"
         id="stop1" />
      <stop
         style="stop-color:#ffa400;stop-opacity:1"
         offset="0.89860648"
         id="stop2" />
      <stop
         style="stop-color:#fed900;stop-opacity:1;"
         offset="1"
         id="stop5" />
    </linearGradient>
    <rect
       x="247.13258"
       y="359.62012"
       width="266.94708"
       height="217.87677"
       id="rect1" />
    <linearGradient
       inkscape:collect="always"
       xlink:href="#linearGradient1"
       id="linearGradient2"
       x1="368.20773"
       y1="426.9025"
       x2="369.27628"
       y2="370.05042"
       gradientUnits="userSpaceOnUse" />
  </defs>
  <g
     inkscape:label="Layer 1"
     inkscape:groupmode="layer"
     id="layer1"
     transform="translate(-81.67569,-96.979283)">
    <path
       d="m 301.82034,373.36373 c -2.22396,2.88021 -3.35417,4.48437 -3.35417,4.8125 h -0.14583 v -0.14583 c 0,-0.0365 0.29166,-0.58334 0.875,-1.60417 v -0.29167 c -0.36459,0 -1.05729,0.72917 -2.04167,2.1875 l -0.29167,-0.14583 c -4.48437,6.34375 -7.72917,10.79167 -9.77084,13.41667 v -0.14583 c 6.41667,-9.04167 10.57293,-14.94792 12.39584,-17.64584 v -0.14584 c -0.51041,0.58334 -0.80208,0.875 -0.875,0.875 v -0.29166 h -0.14583 c -0.47396,0.36458 -1.89583,2.00521 -4.22917,4.95833 v -0.4375 c -0.10937,0 -1.34896,1.75 -3.79167,5.25001 -0.10937,0 -0.14583,-0.0365 -0.14583,-0.14584 -0.14583,0.0365 -0.54688,0.54688 -1.16667,1.60417 -1.75,2.40625 -3.02604,3.90104 -3.79167,4.52084 -0.14583,0.6927 -0.32812,1.02083 -0.58333,1.02083 0,0.10937 0.0365,0.14583 0.14583,0.14583 0,0.21875 -0.2552,0.36459 -0.72916,0.4375 0,0.6198 -0.4375,1.23959 -1.3125,1.89584 v -0.14584 c 0.91145,-1.3125 1.64062,-2.47916 2.1875,-3.5 v -0.14583 h -0.14584 c -0.32812,0.14583 -1.05729,1.02083 -2.1875,2.625 -1.89583,3.31771 -3.24479,5.39584 -4.08333,6.27084 -0.32813,0.94791 -1.02084,1.89583 -2.04167,2.91666 -2.26042,3.13542 -3.79167,5.39584 -4.66667,6.85417 l -4.52083,6.41667 c -1.20313,2.04167 -2.04167,3.06251 -2.47917,3.06251 v 0.14583 l 0.14583,0.29167 c -0.25521,0.0365 -0.69271,0.61979 -1.3125,1.75 -1.38542,1.96875 -2.40625,3.24479 -3.0625,3.79167 0,0.40104 -0.4375,0.94791 -1.3125,1.60416 h -0.14584 v -0.14583 h 0.29167 v -0.4375 h -0.29167 v 0.29167 h -0.14583 v -0.14584 c 1.02084,-1.49479 1.96875,-2.80729 2.91667,-3.9375 l 0.29167,0.14583 h 0.14583 c 0.18229,0 0.29167,-0.10937 0.29167,-0.29166 h -0.58334 l 6.70834,-9.47917 3.5,-5.25001 c 0,-0.10937 -0.0365,-0.25521 -0.14583,-0.4375 0.47396,-0.69271 0.72916,-1.13021 0.72916,-1.3125 0.94792,-0.76562 1.82292,-2.00521 2.62501,-3.64583 v -0.14584 l -0.58334,0.29167 c -0.4375,0.76563 -0.72916,1.16667 -0.875,1.16667 l 0.14584,0.29166 c -0.14584,0.29167 -0.29167,0.43751 -0.4375,0.43751 h -0.29167 v -0.29167 h -0.29167 v 0.875 c -0.4375,0 -0.76562,0.18229 -1.02083,0.58333 0,0.10938 0.0365,0.25521 0.14583,0.4375 0,0.10938 -0.10937,0.14584 -0.29167,0.14584 -1.16666,1.34895 -4.84896,6.52604 -11.08333,15.45834 -0.98438,1.16666 -1.45834,1.85937 -1.45834,2.04166 h -0.14583 v -0.14583 l 0.14583,-0.29167 c 0,-0.18229 -0.14583,-0.29166 -0.4375,-0.29166 0.10938,-0.40104 0.25521,-0.72917 0.4375,-1.02084 v -0.14583 h -0.4375 v -0.14583 l 0.58334,-0.58334 v -0.29166 h -0.29167 v -0.14584 h 0.29167 c 0,-0.10937 -0.0365,-0.14583 -0.14584,-0.14583 0,-0.10938 0.0365,-0.25521 0.14584,-0.4375 -0.10938,-0.18229 -0.14584,-0.36458 -0.14584,-0.58333 l 0.14584,-0.72917 c -0.10938,0 -0.14584,-0.0365 -0.14584,-0.14583 h 0.4375 v -0.14584 l -0.4375,-0.58333 v -0.14584 l 0.29167,0.14584 h 0.14583 v -0.14584 c 0,-0.2552 -0.10937,-0.54687 -0.29166,-0.875 v -0.29166 l 0.29166,0.14583 h 0.14584 v -0.29167 l -0.14584,-0.29166 c 0.10938,-0.10938 0.32813,-0.69271 0.58334,-1.75 -0.47396,0 -0.72917,-0.10938 -0.72917,-0.29167 0.14583,-0.29167 0.29167,-0.4375 0.4375,-0.4375 0,-0.18229 -0.10938,-0.40104 -0.29167,-0.72917 0,-0.18229 0.14584,-0.29166 0.4375,-0.29166 v -0.14584 l -0.14583,-0.29166 c 0.10937,0 0.14583,-0.0365 0.14583,-0.14584 l -0.14583,-0.29166 c 0.18229,-0.10938 0.32812,-0.14584 0.4375,-0.14584 v -0.29166 h -0.29167 c 0.29167,-0.43751 0.4375,-0.76563 0.4375,-1.02084 h -0.4375 c 0.18229,-0.25521 0.29167,-0.40104 0.29167,-0.4375 v -0.14583 c 0,-0.18229 -0.14583,-0.29167 -0.4375,-0.29167 v -0.14583 l 0.14583,-0.72917 h 0.14584 v 0.29167 h 0.29166 c 0,-0.875 0.29167,-1.3125 0.875,-1.3125 v -0.29167 c 0,-0.18229 -0.10937,-0.25521 -0.29166,-0.29167 h -0.14584 c -0.4375,0.47396 -0.65625,0.72917 -0.72916,0.72917 h -0.14584 v -0.4375 l 0.29167,0.14583 h 0.14583 c 0,-0.10937 0.0365,-0.25521 0.14584,-0.4375 -0.1823,-0.32812 -0.29167,-0.61979 -0.29167,-0.875 v -0.72916 c 0,-0.21875 0.14583,-0.875 0.4375,-1.89584 0,-0.18229 -0.10938,-0.40104 -0.29167,-0.72917 v -0.14583 l 0.4375,0.29167 h 0.14584 c 0,-0.4375 -0.14584,-1.38542 -0.4375,-2.77084 v -0.29166 h 0.14583 c 0,0.29166 0.10937,0.4375 0.29167,0.4375 h 0.14583 v -0.14584 c 0,-0.21875 -0.29167,-0.91146 -0.875,-2.04166 0.18229,-1.56771 0.29167,-2.44271 0.29167,-2.62501 0.58333,-1.23958 0.875,-2.04166 0.875,-2.47916 -0.32813,-0.10938 -0.54688,-0.14584 -0.58334,-0.14584 l 0.14584,-1.45833 v -0.4375 l -0.14584,-1.02084 0.29167,-0.14583 c -0.40104,-1.64062 -0.98438,-2.47917 -1.75,-2.47917 -2.15104,0.29167 -3.46354,0.4375 -3.9375,0.4375 h -2.77084 l -1.02083,-0.14583 c 0,0.10938 -0.47396,0.21875 -1.45834,0.29167 0,-0.18229 -0.10937,-0.25521 -0.29166,-0.29167 -0.40104,0.21875 -0.58334,0.4375 -0.58334,0.58333 v 0.14584 c 0.1823,0 0.47396,-0.10938 0.875,-0.29167 v 1.75 h 0.29167 c 0.18229,-0.875 0.4375,-1.3125 0.72917,-1.3125 l -0.14584,-0.29167 c 0.1823,0 0.40105,-0.10937 0.72917,-0.29166 h 0.14584 v 0.14583 l -1.45834,2.04167 v 0.14583 h 0.14583 l 0.29167,-0.14583 v 0.14583 c -0.47396,0.4375 -0.72917,0.91146 -0.72917,1.45834 v 0.14583 h 0.14584 l 0.72916,-0.58333 v 0.14583 l -0.29166,0.4375 v 0.14583 h 0.29166 l -0.14583,0.72917 v 0.72917 l 0.14583,1.45833 c -0.10937,0 -0.40104,0.40104 -0.875,1.16667 l 0.14584,0.29166 c 0.32812,-0.14583 0.94791,-0.94791 1.89583,-2.47916 v 0.29166 c -0.47396,1.42188 -0.875,2.15105 -1.16667,2.1875 0,0.98438 -0.10937,2.15105 -0.29166,3.50001 0.14583,2.04166 0.36458,3.0625 0.72916,3.0625 h 0.29167 l -0.14583,-1.75 v -0.14584 l 0.14583,-0.875 c -0.10937,-0.14583 -0.14583,-0.40104 -0.14583,-0.72916 l 0.14583,-1.02084 c -0.14583,0 -0.25521,-0.10937 -0.29167,-0.29166 0.10938,0 0.25521,-0.0365 0.43751,-0.14584 -0.29167,-0.69271 -0.43751,-1.13021 -0.43751,-1.3125 v -0.14583 c 0.21875,0 0.40105,0.0365 0.58334,0.14583 h 0.14583 c 0,-0.18229 -0.10937,-0.25521 -0.29166,-0.29167 l 0.29166,-1.02083 h 0.14584 c 0.29166,1.45833 0.4375,3.20834 0.4375,5.25 v 3.93751 l -0.14584,0.29166 h 0.14584 c -0.10938,1.23959 -0.14584,1.96875 -0.14584,2.1875 h -0.14583 c 0,-0.32812 -0.14583,-1.13021 -0.4375,-2.33333 0.10937,0 0.14583,-0.0365 0.14583,-0.14583 -0.10937,0 -0.18229,-0.14584 -0.29166,-0.43751 -0.10938,0 -0.14584,0.0365 -0.14584,0.14584 -0.10937,0 -0.25521,-0.0365 -0.4375,-0.14584 -0.14583,0 -0.29167,0.47396 -0.4375,1.45834 l 0.29167,2.91667 h 0.29166 c 0,-0.36459 0.10938,-0.65625 0.29167,-0.875 v -0.29167 c 0,-0.0729 -0.18229,-0.29167 -0.58333,-0.72917 0.10937,0 0.25521,0.0365 0.4375,0.14584 0.18229,0 0.29167,-0.10938 0.29167,-0.29167 v -0.29167 c -0.40105,-0.4375 -0.58334,-0.80208 -0.58334,-1.16666 h 0.58334 l 0.4375,3.64583 h 0.14583 l 0.29167,-0.14583 c 0.18229,0.875 0.29166,1.38541 0.29166,1.45833 h -0.29166 v -0.58333 h -0.29167 c -0.58333,8.64063 -0.875,14.51042 -0.875,17.64584 0,1.85938 0.14583,3.46354 0.4375,4.8125 0.98437,2.80729 1.60417,4.84896 1.89583,6.125 0.40104,0.65625 0.58334,1.16667 0.58334,1.45834 1.13021,0.51042 1.71354,1.05729 1.75,1.60417 1.78646,-0.14584 2.95312,-0.29167 3.5,-0.4375 0.21875,0 1.23958,-1.0573 3.0625,-3.20834 3.46354,-4.15625 5.21354,-6.38021 5.25,-6.70834 2.44271,-2.95312 3.64584,-4.63021 3.64584,-5.10416 0.98437,-0.98438 2.29687,-2.8073 3.9375,-5.39584 l -0.14583,-0.29167 0.72916,-0.4375 -0.4375,-0.58333 v -0.14583 c 0.76563,0 1.56771,-0.87501 2.47917,-2.62501 v -0.14583 h -0.14583 c -0.25521,0 -0.40104,0.18229 -0.4375,0.58333 h -0.29167 c 0.29167,-0.61979 0.58333,-0.98437 0.875,-1.02083 l 0.29167,0.14583 c 0,-0.10937 0.0365,-0.14583 0.14583,-0.14583 l -0.29167,-0.4375 v -0.14583 c 0,-0.10938 0.0365,-0.14584 0.14584,-0.14584 1.20312,-2.15104 1.89583,-3.20833 2.04167,-3.20833 1.78645,-3.35417 3.86458,-6.70834 6.27083,-10.06251 0.4375,-1.3125 1.16667,-2.55208 2.1875,-3.79166 l -0.14583,-0.29167 -0.29167,0.14583 H 288.987 c 0.4375,-0.83854 1.05729,-1.78646 1.89583,-2.91667 -0.25521,0 -0.69271,0.29167 -1.3125,0.875 v -0.14583 c 3.64584,-4.52083 6.12501,-8.20313 7.43751,-11.08334 v -0.29166 c -1.13021,1.05729 -1.78646,1.60416 -1.89584,1.60416 -0.25521,1.34896 -1.23958,2.95313 -2.91667,4.81251 v -0.14584 c 0.69271,-1.02083 1.02084,-1.53125 1.02084,-1.60417 v -0.14583 c -1.82292,2.11459 -4.04688,5.28646 -6.70834,9.47917 l -0.29167,-0.14583 h -0.14583 l -0.14583,1.02083 -0.29167,-0.14583 H 285.487 c 0,0.40104 -0.14584,0.58333 -0.4375,0.58333 l 0.29166,-0.875 c 9.40626,-12.90625 14.87501,-20.63542 16.47918,-23.18751 z m -3.5,1.3125 h 0.14583 v 0.29167 h -0.14583 z m -2.77084,3.5 c 0.14584,-0.29167 0.29167,-0.4375 0.4375,-0.4375 v 0.14583 c -0.14583,0.29167 -0.29166,0.4375 -0.4375,0.4375 z m -0.72916,0.875 h 0.14583 v 0.58333 h -0.14583 z m -0.4375,0.58333 h 0.14583 v 0.29167 h -0.14583 z m -0.43751,0.58334 h 0.14584 v 0.29166 h -0.14584 z m -0.29166,0.4375 h 0.14583 v 0.29166 h -0.14583 z m -0.29167,0.4375 h 0.14583 v 0.29166 H 293.362 Z m 0,5.25 v 0.29167 h 0.14583 v -0.29167 z m -39.52085,0.4375 1.02083,-0.14583 h 0.58334 v 0.14583 l -0.72917,0.14583 h -0.875 z m -4.22917,-0.14583 c -1.05729,0.4375 -1.60417,0.72916 -1.60417,0.875 1.27605,1.16667 1.89584,2.11458 1.89584,2.91667 v 1.02083 h 0.29166 v -1.89583 c 0,-0.25521 -0.10937,-0.54688 -0.29166,-0.875 0.10937,0 0.18229,-0.14584 0.29166,-0.43751 -0.18229,-0.10937 -0.36458,-0.14583 -0.58333,-0.14583 v -0.72917 l 0.14583,-0.72916 z m 8.3125,0.4375 c 0,-0.18229 0.10938,-0.25521 0.29167,-0.29167 h 0.14583 v 0.14583 c 0,0.1823 -0.10937,0.29167 -0.29166,0.29167 h -0.14584 z m 0.875,0.14583 c 0.10938,0 0.25521,-0.0365 0.4375,-0.14583 h 0.29167 c 0,0.18229 -0.10937,0.29166 -0.29167,0.29166 h -0.4375 z m 33.10419,1.60417 h 0.14583 v 0.29167 h -0.14583 z m -39.81252,0.875 h 0.58333 v 0.14583 l -0.72917,2.33334 h -0.14583 v -1.75 l 0.29167,0.14583 h 0.14583 v -0.14583 z m 0.14583,2.04167 c 0.14584,-0.29167 0.29167,-0.4375 0.4375,-0.4375 h 0.29167 l -0.14583,0.72916 h -0.29167 c -0.14583,0 -0.25521,-0.10937 -0.29167,-0.29166 z m 34.56252,0 h 0.14583 v 0.29166 h -0.14583 z m -37.04169,0.14583 v 2.04167 l -0.14583,1.02083 c 0.10938,0 0.14583,0.18229 0.14583,0.58334 v 0.4375 h 0.29167 v -1.16667 l 0.14583,-0.72917 c -0.10937,0 -0.14583,-0.0365 -0.14583,-0.14583 0.10938,-0.83854 0.14583,-1.34896 0.14583,-1.45834 -0.10937,-0.32812 -0.14583,-0.54687 -0.14583,-0.58333 z m 10.50001,0.29167 h 0.14583 v 0.29166 h -0.14583 z m 25.81251,0.58333 h 0.14583 v 0.29167 h -0.14583 z m -3.5,0.875 h 0.14583 v 0.29167 h -0.14583 z m 6.70834,0.29167 h 0.14583 v 0.29166 h -0.14583 z m -4.22917,0.29166 h 0.14583 v 0.29167 h -0.14583 z m -0.58334,0.875 h 0.14584 v 0.14584 c -0.69271,0.98437 -1.02084,1.64062 -1.02084,1.89583 h -0.29166 c 0,-0.14583 0.40104,-0.83854 1.16666,-2.04167 z m -3.20833,0.58334 h 0.14583 v 0.14583 c -0.94791,1.64063 -1.96875,3.13542 -3.0625,4.52084 v -0.14584 c 1.89583,-2.80729 2.88021,-4.30208 2.91667,-4.52083 z m 7,1.45833 c 0,-0.29166 0.10938,-0.4375 0.29167,-0.4375 0,0.0365 -0.0365,0.25521 -0.14583,0.58334 h -0.14584 z m -5.39583,0.4375 c 0,-0.18229 0.10937,-0.25521 0.29166,-0.29166 v 0.4375 H 282.862 Z m -0.29167,0.29167 c 0.18229,0.10937 0.32812,0.14583 0.4375,0.14583 v 0.14584 c -0.40104,0 -0.69271,0.32812 -0.875,1.02083 H 281.987 v -0.14583 c 0,-0.0729 0.18229,-0.47396 0.58333,-1.16667 z m 3.20833,0.72917 c 0.14584,-0.29167 0.29167,-0.4375 0.4375,-0.4375 v 0.14583 c -0.14583,0.29167 -0.29166,0.4375 -0.4375,0.4375 z m -26.25001,-0.14584 h 0.14584 l 0.14583,1.75 v 0.72917 h -0.14583 l -0.14584,-1.3125 z m 25.95835,0.4375 h 0.14583 v 0.29167 H 285.487 Z m -4.22917,1.3125 c 0,-0.40104 0.18229,-0.6927 0.58333,-0.875 v 0.14584 c -0.25521,0.47396 -0.4375,0.72916 -0.58333,0.72916 z m 3.9375,-0.875 h 0.14583 v 0.29167 h -0.14583 z m -9.1875,0.58334 v 0.29166 h 0.14583 v -0.29166 z m 2.04166,0.58333 h 0.14584 v 0.29167 h -0.14584 z m 2.62501,0.29167 h 0.14583 v 0.29166 h -0.14583 z m -2.91667,0.14583 h 0.14583 v 0.29167 h -0.14583 z m -0.29167,0.4375 h 0.14583 v 0.29167 h -0.14583 z m -0.29167,0.4375 h 0.14584 v 0.29167 h -0.14584 z m -0.72916,1.02084 h 0.14583 v 0.29166 h -0.14583 z m -0.29167,0.4375 h 0.14583 v 0.29166 h -0.14583 z m -0.29167,0.4375 h 0.14584 v 0.29166 h -0.14584 z m -1.60416,2.33333 h 0.14583 v 0.29167 h -0.14583 z m -3.06251,0.29167 h 0.14584 v 0.29166 h -0.14584 z m 2.77084,0.14583 h 0.14583 v 0.29167 h -0.14583 z m -2.91667,0.58333 h 0.29167 c -0.10938,0.1823 -0.14584,0.32813 -0.14584,0.4375 h -0.14583 z m 1.75,0.875 c 0,-0.14583 0.18229,-0.29166 0.58334,-0.4375 v 0.14584 c 0,0.18229 -0.10938,0.29166 -0.29167,0.29166 z m -2.1875,-0.14583 h 0.14583 v 0.29167 h -0.14583 z m 2.04167,0.4375 h 0.29166 c -0.10937,0.18229 -0.14583,0.32813 -0.14583,0.4375 h -0.29167 c 0.10938,-0.18229 0.14584,-0.32812 0.14584,-0.4375 z m -3.20834,0.14583 h 0.14584 v 0.29167 h -0.14584 z m 0.72917,0.14584 h 0.14583 v 0.29166 h -0.14583 z m 8.89584,0.14583 h 0.29166 v 0.29167 h -0.29166 z m -6.70834,0.14583 h 0.14583 v 0.29167 h -0.14583 z m -3.5,0.87501 h 0.14583 v 0.29166 h -0.14583 z m -12.97917,0.29166 h 0.29166 v 0.14584 h -0.29166 z m 12.83334,0.14584 c 0.18229,0.10937 0.32812,0.14583 0.4375,0.14583 0,0.18229 -0.10938,0.29167 -0.29167,0.29167 l -0.29167,-0.14584 z m -0.4375,0.58333 h 0.4375 v 0.29167 c 0,0.18229 -0.10938,0.29166 -0.29167,0.29166 0,-0.10937 -0.0365,-0.25521 -0.14583,-0.4375 z m -1.45834,2.625 h 0.14584 v 0.29167 h -0.14584 z m -0.72917,1.02083 h 0.14584 v 0.29167 h -0.14584 z m -13.27083,0.4375 h 0.14583 v 0.875 h -0.14583 z m 24.35417,1.02084 h 0.14584 v 0.4375 h -0.29167 c 0.10938,-0.18229 0.14583,-0.32813 0.14583,-0.4375 z m -12.39584,0.58333 c 0,-0.18229 0.10938,-0.25521 0.29167,-0.29167 v 0.14584 c 0,0.18229 -0.10937,0.29167 -0.29167,0.29167 z m -0.58333,0.72917 h 0.14583 v 0.29167 h -0.14583 z m -11.52084,0.875 h 0.14584 v 0.4375 h -0.14584 z m 10.06251,1.16667 h 0.14583 v 0.29166 h -0.14583 z m 12.10417,0 h 0.29167 v 0.14583 h -0.29167 z m -12.68751,0.72916 h 0.29167 c -0.18229,0.21875 -0.29167,0.4375 -0.29167,0.58334 h -0.14583 v -0.14584 c 0.10937,-0.18229 0.14583,-0.32812 0.14583,-0.4375 z m -0.72916,0.14584 h 0.29166 v 0.14583 h -0.29166 z m -0.58334,1.45833 c 0.10938,0 0.25521,-0.0365 0.4375,-0.14583 v 0.14583 c 0,0.18229 -0.10937,0.29167 -0.29166,0.29167 h -0.14584 z m -0.875,1.3125 h 0.29167 c 0,0.18229 -0.10938,0.29167 -0.29167,0.29167 z m -1.02083,2.625 h 0.14583 v 0.72917 h -0.14583 z m 2.47917,7.87501 c 0,-0.1823 0.10937,-0.25521 0.29166,-0.29167 v 0.29167 z m -0.72917,0.72916 c 0.14583,-0.29166 0.29167,-0.4375 0.4375,-0.4375 v 0.14584 c -0.14583,0.29166 -0.29167,0.4375 -0.4375,0.4375 z m -3.35417,0.72917 h 0.29167 v 0.14583 h -0.29167 z m 0.14583,0.58333 h 0.29167 v 0.14584 h -0.29167 z m 0.4375,0.875 c 0.14584,0 0.36459,-0.10937 0.58334,-0.29166 h 0.14583 c 0,0.14583 -0.18229,0.29166 -0.58333,0.4375 h -0.14584 z m 1.02084,1.31251 h 0.29166 v 0.14583 h -0.29166 z m -1.89584,0.875 h 0.14584 v 0.29166 h -0.14584 z m 0.29167,0.14583 h 0.29167 v 0.14583 h -0.29167 z m 1.89583,0 h 0.29167 v 0.14583 h -0.29167 z m 63.03649,-55.70836 c -1.93229,0 -4.92188,0.76562 -9.04167,2.33333 -3.09896,1.42188 -4.77604,2.3698 -5.10417,2.77084 -1.34896,0.69271 -2.04167,1.13021 -2.04167,1.3125 -1.16666,0.51042 -1.78645,0.91146 -1.89583,1.16667 -1.45833,0.94791 -2.1875,1.60416 -2.1875,1.89583 l -0.29167,-0.14583 h -0.14583 c 0,0.14583 -0.29167,0.61979 -0.875,1.45833 -0.10938,0 -0.25521,-0.0365 -0.4375,-0.14583 -0.47396,0.47396 -0.72917,0.80208 -0.72917,1.02083 h -0.29167 l 0.14584,-0.29167 h -0.14584 c -0.875,0.65625 -1.3125,1.09375 -1.3125,1.31251 -0.40104,0.14583 -0.58333,0.36458 -0.58333,0.72916 -0.10937,0 -0.14583,-0.0365 -0.14583,-0.14583 -0.69271,0.51042 -1.02084,0.98437 -1.02084,1.45833 l -1.16666,0.72917 c 0,0.29167 -0.1823,0.4375 -0.58334,0.4375 v 0.29167 l 0.14584,0.29166 -1.75001,1.02084 c 0,0.18229 0.14584,0.29166 0.4375,0.29166 0,0.14584 -0.32812,0.29167 -1.02083,0.4375 0,0.10938 0.0365,0.25521 0.14583,0.4375 -0.58333,0.1823 -0.875,0.47396 -0.875,0.875 l -1.60416,2.18751 c 0,0.10937 0.0365,0.14583 0.14583,0.14583 0,0.0365 -0.10938,0.18229 -0.29167,0.4375 v 0.29167 l 0.14584,0.29166 c -0.14584,0.40105 -0.32813,0.58334 -0.58334,0.58334 v 0.4375 l 0.14584,0.29166 h -0.58334 v 0.14584 c 0.10938,0 0.29167,0.61979 0.58334,1.89583 0,0.875 1.56771,1.67709 4.66667,2.33334 0.32812,0.14583 0.91145,0.98437 1.75,2.47916 0.4375,2.22396 0.76562,3.35417 1.02083,3.35417 h 0.72917 l 0.29166,-0.14583 v 0.4375 c 0.0365,0 0.4375,-0.10938 1.16667,-0.29167 l 0.14583,0.29167 0.29167,-0.14583 c 1.56771,0 3.02604,-0.14584 4.375,-0.4375 0.0365,0 0.25521,0.0365 0.58334,0.14583 1.67708,-0.47396 3.42708,-0.72917 5.25,-0.72917 h 0.14583 c -0.29166,0.29167 -0.69271,0.875 -1.16666,1.75 -5.03126,4.26563 -7.98438,7.21876 -8.89584,8.89584 -3.75521,2.44271 -6.38021,4.375 -7.87501,5.83334 2.47917,-1.16667 4.22917,-2.1875 5.25001,-3.06251 0.47396,0 2.625,-1.27604 6.41667,-3.79166 v 0.29166 h -0.14584 l -9.1875,6.41667 h 0.29167 l 0.72916,-0.4375 h 0.14584 v 0.14584 c -0.29167,0 -0.4375,0.10937 -0.4375,0.29166 -1.85938,0.83854 -2.77084,1.56771 -2.77084,2.1875 l -0.29167,-0.14583 c -0.80208,0.83854 -1.71354,1.42188 -2.77083,1.75 h -0.29167 v -0.14583 c 0.80209,-0.29167 1.42188,-0.72917 1.89584,-1.3125 h -0.29167 c -6.23438,3.5 -9.73438,5.65104 -10.5,6.41667 0.54687,0 3.39062,-1.13021 8.45833,-3.35417 h 0.14584 v 0.14583 c -6.05209,2.625 -9.95313,4.44792 -11.66668,5.54167 v 0.14583 c 0.1823,0 0.47396,-0.10937 0.875,-0.29166 h 0.14584 v 0.14583 l -2.1875,0.72917 v 0.29167 c 1.93229,-0.1823 2.91666,-0.40105 2.91666,-0.58334 0.10938,0 0.14584,0.0365 0.14584,0.14583 v 0.14584 c 1.64062,0 6.23438,-1.49479 13.85417,-4.52084 0.0365,0 0.25521,0.0365 0.58333,0.14584 l 1.75001,-0.875 h 0.14583 l -0.58333,0.72916 v 0.14584 c 0.18229,0 1.3125,-0.6198 3.35416,-1.89584 h 0.14584 l -0.14584,0.29167 h 0.14584 c 0.47396,0 0.76562,-0.14583 0.875,-0.4375 3.13542,-1.27604 7.18229,-3.75521 12.10417,-7.4375 h 0.14583 l -0.14583,0.29166 v 0.14584 c 0.21875,0 1.23958,-0.72917 3.0625,-2.18751 6.89063,-5.83333 10.35417,-10.09896 10.35417,-12.83334 0,-0.10937 -0.0365,-0.2552 -0.14583,-0.4375 0.10937,0 0.18229,-0.14583 0.29167,-0.4375 0,-0.6927 -0.40105,-1.1302 -1.16667,-1.3125 v -0.4375 h 0.58333 c 0,0.29167 0.10938,0.4375 0.29167,0.4375 v -0.29166 l -0.58333,-0.72917 v -0.72917 c 0,-0.18229 0.10937,-0.25521 0.29166,-0.29166 0,-0.6198 -0.29166,-1.20313 -0.875,-1.75 -0.72916,-1.31251 -1.3125,-2.15105 -1.75,-2.47917 h -0.14583 l 0.14583,0.72916 h -0.14583 l -0.72917,-0.4375 c 0,-0.10937 0.0365,-0.2552 0.14583,-0.4375 l -0.4375,-0.58333 c -0.29166,0 -0.6927,0.14583 -1.16666,0.4375 -0.80209,-0.58333 -1.38542,-0.875 -1.75,-0.875 h -0.14584 c -0.32812,0 -0.65625,0.14583 -1.02083,0.4375 h -0.14583 c 0,-0.32812 -0.40105,-0.58333 -1.16667,-0.72917 l -0.58334,0.14584 -0.29166,-0.14584 c -0.14584,0.10938 -0.40104,0.14584 -0.72917,0.14584 v 0.29166 h 0.875 v 0.14584 c -1.60417,0.10937 -2.80729,0.14583 -3.64583,0.14583 h -1.02084 l -0.875,0.4375 -0.4375,-0.29167 h -0.4375 c -0.14583,0 -0.25521,0.10938 -0.29167,0.29167 l -0.29166,-0.14583 h -0.14584 c -0.36458,0.25521 -0.94791,0.47396 -1.75,0.58333 v -0.29167 h 0.58334 v -0.29166 h -0.29167 l -0.29167,0.14583 c 0,-0.10937 -0.0365,-0.14583 -0.14583,-0.14583 h -0.4375 v 0.29166 h 0.29167 c 0,0.0365 -0.10938,0.1823 -0.29167,0.4375 l -0.72917,-0.14583 h -0.58333 l -0.72917,0.14583 c 0.10938,-0.47395 0.25521,-0.72916 0.4375,-0.72916 h 0.14584 c 0,0.29166 0.10937,0.4375 0.29166,0.4375 0,-0.83854 0.4375,-1.45834 1.3125,-1.89584 0.6198,-0.875 0.98438,-1.3125 1.16667,-1.3125 1.53125,-1.45833 2.40625,-2.1875 2.625,-2.1875 0.10938,-0.4375 0.72917,-0.98437 1.89584,-1.60417 3.86458,-3.24479 6.63542,-5.06771 8.3125,-5.54167 1.02083,-0.72916 2.1875,-1.3125 3.5,-1.75 l 0.72917,0.14584 c 0.10937,-0.14584 0.14583,-0.40104 0.14583,-0.72917 h 0.4375 c 0.0365,0.40104 0.18229,0.58333 0.4375,0.58333 h 0.4375 c 0.14584,0 0.58334,-0.32812 1.3125,-1.02083 0.21875,0 0.40105,0.0365 0.58334,0.14583 v 0.4375 l 0.14583,0.29167 c 0.40104,-0.18229 0.58333,-0.47396 0.58333,-0.875 l 0.29167,0.14583 h 0.29167 c 0.18229,0 0.29166,-0.10937 0.29166,-0.29166 0.25521,0 0.98438,0.14583 2.18751,0.4375 0.2552,0 1.38541,0.83854 3.35416,2.47916 l 0.29167,-0.14583 -0.4375,-0.875 v -0.14583 c 0.0365,0 0.18229,0.10937 0.4375,0.29166 h 0.14583 c 0,-1.27604 -0.875,-2.51562 -2.625,-3.64583 l 0.14584,-0.29167 -0.14584,-0.29166 -0.72916,0.14583 v -0.29167 l 0.14583,-0.72916 h -0.29167 c -0.32812,0 -0.58333,-0.32813 -0.72916,-1.02084 v -0.29167 l 1.45833,1.16667 v -0.72917 c 0.47396,0 0.98438,0.29167 1.45833,0.87501 h 0.14584 c -1.71355,-4.19272 -4.92188,-6.27084 -9.62501,-6.27084 z m -0.875,0.4375 c 0.29167,0 0.61979,-0.0365 1.02084,-0.14583 l 0.14583,0.29166 h -1.16667 z m 1.3125,-0.14583 h 0.4375 v 0.14583 h -0.4375 z m 5.25,1.02083 h 0.29167 v 0.14583 h -0.29167 z m -12.6875,1.75 h 0.29167 v 0.14583 h -0.29167 z m 14.87501,1.16667 c 0.47395,0.0729 0.72916,0.21875 0.72916,0.4375 -0.47396,-0.0729 -0.72916,-0.21875 -0.72916,-0.4375 z m -7.43751,0.14583 h 0.58334 v 0.14583 h -0.58334 z m 2.47917,0 h 0.72917 c 0.18229,0 0.29166,0.10938 0.29166,0.29167 0.10938,0 0.14584,-0.0365 0.14584,-0.14584 0.51041,0.10938 0.80208,0.14584 0.875,0.14584 v 0.29166 c -0.21875,0 -0.875,-0.10937 -2.04167,-0.29166 z m -14.00001,0.58333 c 0,-0.18229 0.10938,-0.2552 0.29167,-0.29166 v 0.4375 z m 16.18751,0.14584 h 0.58333 c 0.32813,0.29166 0.54688,0.4375 0.72917,0.4375 v 0.14583 h -0.14583 c -0.47396,-0.29167 -0.875,-0.4375 -1.16667,-0.4375 z m -17.79167,0.58333 h 0.29166 v 0.14584 h -0.29166 z m 6.70833,2.33334 c 2.26042,-1.34896 4.44792,-2.11459 6.56251,-2.33334 h 0.29166 v 0.14584 c -1.82292,0 -5.28646,1.49479 -10.35417,4.52083 h -0.14583 v -0.14583 c 1.71354,-1.16667 2.66146,-1.75 2.77083,-1.75 0,0.10937 0.0365,0.14583 0.14584,0.14583 h 0.14583 c 0,-0.25521 0.14583,-0.47396 0.4375,-0.72917 0.10937,0 0.14583,0.0365 0.14583,0.14584 z m -7.4375,-1.60417 c 0,-0.18229 0.10937,-0.25521 0.29167,-0.29167 h 0.14583 c 0,0.18229 -0.10938,0.29167 -0.29167,0.29167 z m 0.58333,0.875 h 0.29167 v 0.14583 h -0.29167 z m -4.52083,1.3125 h 0.14583 c 0.18229,0.10937 0.32813,0.14583 0.4375,0.14583 v 0.14584 h -0.14583 c -0.18229,-0.10938 -0.32813,-0.14584 -0.4375,-0.14584 z m 19.39584,1.02083 h 0.4375 v 0.14584 h -0.4375 z m 7.58334,0 h 0.14583 c 0.58333,0.32813 0.875,0.58334 0.875,0.72917 v 0.14583 c -0.69271,-0.51041 -1.02083,-0.80208 -1.02083,-0.875 z m -28.72918,0.4375 h 0.29166 v 0.14584 h -0.29166 z m 8.60417,0.875 c 0,-0.18229 0.10937,-0.2552 0.29166,-0.29166 v 0.29166 z m -9.62501,0 h 0.4375 v 0.14584 h -0.4375 z m 30.18752,0 h 0.14583 v 0.29167 h -0.14583 z m -21.43751,0.58334 c 0,-0.18229 0.10937,-0.25521 0.29166,-0.29167 h 0.14584 c 0,0.18229 -0.10938,0.29167 -0.29167,0.29167 z m -10.35418,0.875 c 0,-0.18229 0.10938,-0.25521 0.29167,-0.29167 h 0.14584 v 0.29167 z m -0.29166,0.14583 0.29166,0.14584 c -0.14583,0.51041 -0.72916,0.98437 -1.75,1.45833 h -0.14583 v -0.14583 c 0.32813,0 0.83854,-0.47396 1.60417,-1.45834 z m -1.75,1.75 h 0.29166 v 0.14584 h -0.29166 z m -0.29167,0.4375 h 0.29167 v 0.14584 c -0.47396,0.18229 -0.72917,0.4375 -0.72917,0.72916 h -0.4375 v -0.29166 c 0.36458,0 0.65625,-0.1823 0.875,-0.58334 z m -2.33333,2.1875 c 0.32812,0 0.61979,-0.14583 0.875,-0.4375 v 0.14584 l -0.58334,0.72916 c -0.14583,0 -0.25521,-0.10937 -0.29166,-0.29166 z m -0.29167,0.58334 h 0.29167 v 0.14583 h -0.29167 z m 0.875,0.14583 h 0.14583 v 0.29167 h -0.14583 z m -1.75,1.02083 c 0.18229,-0.51041 0.4375,-0.80208 0.72917,-0.875 h 0.14583 c -0.36458,0.58334 -0.61979,0.875 -0.72917,0.875 z m -0.58333,0.58334 c 0.14583,-0.29167 0.29166,-0.4375 0.4375,-0.4375 v 0.14583 c -0.14584,0.29167 -0.29167,0.4375 -0.4375,0.4375 z m 1.16666,-0.29167 h 0.29167 c 0,0.18229 -0.10938,0.29167 -0.29167,0.29167 z m -1.60416,0.58333 h 0.29166 v 0.14584 c -0.21875,0.40104 -0.4375,0.58333 -0.58333,0.58333 v -0.14583 c 0.18229,-0.25521 0.29167,-0.4375 0.29167,-0.58334 z m -0.14584,1.60417 c 0.0365,0 0.54688,-0.54687 1.45834,-1.60417 v 0.29167 c -0.51042,0 -1.20313,1.85938 -2.04167,5.54167 0.10937,0 0.18229,0.14583 0.29166,0.4375 v 0.14583 c -0.4375,0 -1.02083,-0.29166 -1.75,-0.875 0,-0.18229 0.14584,-0.54687 0.4375,-1.02083 -0.10937,-0.32812 -0.14583,-0.54687 -0.14583,-0.58333 0.10938,0 0.25521,-0.0365 0.4375,-0.14584 0.32813,-0.875 0.69271,-1.3125 1.02083,-1.3125 v -1.02083 z m -0.875,-0.14583 h 0.14583 v 0.29167 h -0.14583 z m 2.77084,0 h 0.29166 v 0.14583 h -0.29166 z m -3.06251,0.4375 h 0.29167 c -0.18229,0.21875 -0.29167,0.4375 -0.29167,0.58333 h -0.14583 v -0.14583 c 0.10938,-0.18229 0.14583,-0.32813 0.14583,-0.4375 z m -2.04166,2.77083 h 0.14583 v 0.29167 h -0.14583 z m -0.14584,0.4375 h 0.14584 v 0.29167 h -0.14584 z m 29.89585,0 c 0.18229,0 0.29167,0.10938 0.29167,0.29167 h -0.4375 z m -29.60418,0.29167 h 0.29167 v 0.14583 h -0.29167 z m 32.08335,4.08334 c 0.18229,0 0.29167,0.10937 0.29167,0.29166 v 0.14584 h -0.29167 z m 1.02083,2.77083 h 0.14584 v 0.29167 h -0.14584 z m -13.125,3.64584 c 0.58333,-0.80209 1.27604,-1.45834 2.04166,-2.04167 h 0.14584 c -1.20313,1.34896 -1.89584,2.04167 -2.04167,2.04167 z m 4.375,-2.04167 h 0.29167 v 0.14583 h -0.29167 z m -1.89584,2.04167 c 0,-0.1823 0.10938,-0.25521 0.29167,-0.29167 v 0.14583 c 0,0.18229 -0.10937,0.29167 -0.29167,0.29167 z m -1.3125,0.14583 c 0,-0.18229 0.10938,-0.25521 0.29167,-0.29167 h 0.14583 c 0,0.18229 -0.10937,0.29167 -0.29166,0.29167 z m -2.33333,0.875 c 0.14583,-0.29167 0.29167,-0.4375 0.4375,-0.4375 h 0.14583 c -0.14583,0.29167 -0.29166,0.4375 -0.4375,0.4375 z m -2.1875,1.60417 c 0.29166,0 0.875,-0.4375 1.75,-1.3125 h 0.14583 c -0.69271,0.83854 -1.49479,1.53125 -2.33333,2.04166 l 0.29166,-0.875 c 0.10938,0 0.14584,0.0365 0.14584,0.14584 z m 12.25,-0.4375 c 0.25521,-0.40104 0.4375,-0.58334 0.58334,-0.58334 v 0.14584 c -0.21875,0.40104 -0.4375,0.58333 -0.58334,0.58333 z m -1.02083,1.16666 c 0,-0.18229 0.10938,-0.2552 0.29167,-0.29166 h 0.14583 c -0.14583,0.29166 -0.29167,0.4375 -0.4375,0.4375 z m -12.97917,1.02084 c 0.0729,-0.25521 0.29166,-0.51042 0.72916,-0.72917 h 0.29167 c 0,0.10938 -0.29167,0.36458 -0.875,0.72917 z m 11.95834,0 c 0.14583,-0.29167 0.29166,-0.4375 0.4375,-0.4375 v 0.14583 c 0,0.18229 -0.10938,0.29167 -0.29167,0.29167 z m -3.20834,0 h 0.29167 c 0,0.18229 -0.10938,0.29166 -0.29167,0.29166 z m -12.83334,3.20833 3.79167,-3.0625 h 0.14583 c -0.61979,0.91146 -1.23958,1.49479 -1.89583,1.75 -1.13021,0.875 -1.75,1.3125 -1.89583,1.3125 z m 15.31251,-2.47917 c 0.25521,-0.40104 0.4375,-0.58333 0.58333,-0.58333 v 0.14583 c -0.21875,0.40105 -0.4375,0.58334 -0.58333,0.58334 z m -6.41667,2.77084 3.64583,-3.0625 h 0.14584 v 0.29166 c -2.33334,1.85938 -3.57292,2.77084 -3.64584,2.77084 z m 5.97917,-2.47917 h 0.29167 c 0,0.18229 -0.10938,0.29167 -0.29167,0.29167 z m -0.58333,0.72917 c 0,-0.18229 0.10937,-0.25521 0.29166,-0.29167 h 0.14584 c 0,0.18229 -0.10938,0.29167 -0.29167,0.29167 z m -13.41668,0 h 0.29167 v 0.14583 h -0.29167 z m 1.60417,0.58333 h 0.29167 v 0.14584 h -0.29167 z m 10.64584,0.4375 c 0,-0.18229 0.10937,-0.25521 0.29167,-0.29166 h 0.14583 c 0,0.18229 -0.10938,0.29166 -0.29167,0.29166 z m -14.58334,2.47917 c 0.4375,-0.4375 1.67708,-1.3125 3.64583,-2.625 h 0.14584 c -0.32813,0.36458 -1.53125,1.23958 -3.64584,2.625 z m 1.02083,-1.89583 h 0.29167 v 0.14583 h -0.29167 z m 8.75001,0.58333 c 0,-0.18229 0.10937,-0.25521 0.29166,-0.29167 h 0.14584 c 0,0.18229 -0.10938,0.29167 -0.29167,0.29167 z m -10.20834,1.45833 h 0.29166 v 0.14584 h -0.29166 z m -0.58334,5.83334 h 0.29167 v 0.14583 h -0.29167 z m -4.52083,2.47917 h 0.29167 v 0.14583 h -0.29167 z m -1.60417,0.875 c 0.18229,0 0.61979,-0.18229 1.3125,-0.58334 h 0.14584 c 0,0.21875 -0.4375,0.47396 -1.31251,0.72917 h -0.14583 z m -1.89583,-0.4375 h 0.29166 v 0.14583 h -0.29166 z m -11.81251,7.29167 h 0.29167 v 0.14583 h -0.29167 z"
       id="text1"
       style="font-size:74.6667px;font-family:'SINGLE FIGHTER';-inkscape-font-specification:'SINGLE FIGHTER, Normal';white-space:pre;fill:url(#linearGradient2);stroke:#ffffff;stroke-width:3.77953;stroke-linecap:round;stroke-linejoin:bevel;paint-order:stroke markers fill"
       transform="matrix(0.26458333,0,0,0.26458333,16.556957,-1.3065348)"
       aria-label="VS!" />
  </g>
</svg>
